<svg width="70" height="70" viewBox="0 0 70 70" fill="none" xmlns="http://www.w3.org/2000/svg">
<g clip-path="url(#clip0_407_16)">
<path d="M67.6667 11.6667H57.4274C57.9407 8.57969 58.2434 5.46139 58.3333 2.33333C58.3335 2.02686 58.2732 1.72337 58.1561 1.4402C58.0389 1.15703 57.867 0.899731 57.6503 0.683028C57.4336 0.466323 57.1763 0.294458 56.8931 0.177259C56.61 0.0600596 56.3065 -0.000174456 56 3.79518e-07H14C13.6935 -0.000174456 13.39 0.0600596 13.1069 0.177259C12.8237 0.294458 12.5664 0.466323 12.3497 0.683028C12.133 0.899731 11.9611 1.15703 11.8439 1.4402C11.7268 1.72337 11.6665 2.02686 11.6667 2.33333C11.7566 5.46139 12.0592 8.57969 12.5726 11.6667H2.33333C2.02686 11.6665 1.72337 11.7268 1.4402 11.8439C1.15703 11.9611 0.899731 12.133 0.683028 12.3497C0.466323 12.5664 0.294458 12.8237 0.177259 13.1069C0.0600596 13.39 -0.000174456 13.6935 3.79518e-07 14V23.3333C0.0172808 27.0085 0.829402 30.6365 2.38065 33.9683C3.93189 37.3001 6.18554 40.2569 8.98695 42.6357C12.2369 45.39 16.3482 46.9201 20.608 46.9607C21.0952 46.9607 21.5841 46.9299 22.0732 46.8883C23.4083 50.1356 25.155 53.1979 27.2704 56H23.3333C23.0269 55.9998 22.7234 56.0601 22.4402 56.1772C22.157 56.2945 21.8997 56.4663 21.6831 56.6831C21.4663 56.8997 21.2945 57.157 21.1772 57.4402C21.0601 57.7234 20.9998 58.0268 21 58.3333V67.6667C20.9998 67.9732 21.0601 68.2766 21.1772 68.5598C21.2945 68.843 21.4663 69.1003 21.6831 69.3169C21.8997 69.5337 22.157 69.7055 22.4402 69.8228C22.7234 69.9399 23.0269 70 23.3333 70H46.6667C46.9732 70 47.2766 69.9399 47.5598 69.8228C47.843 69.7055 48.1003 69.5337 48.3169 69.3169C48.5337 69.1003 48.7055 68.843 48.8228 68.5598C48.9399 68.2766 49.0001 67.9732 49 67.6667V58.3333C49.0001 58.0268 48.9399 57.7234 48.8228 57.4402C48.7055 57.157 48.5337 56.8997 48.3169 56.6831C48.1003 56.4663 47.843 56.2945 47.5598 56.1772C47.2766 56.0601 46.9732 55.9998 46.6667 56H42.7296C44.845 53.1978 46.5916 50.1355 47.9267 46.8883C48.4157 46.9299 48.9047 46.9607 49.3919 46.9607C53.6515 46.919 57.7625 45.3891 61.0129 42.6358C63.8144 40.2569 66.068 37.3001 67.6193 33.9683C69.1706 30.6365 69.9827 27.0085 70 23.3333V14C70 13.6935 69.9399 13.39 69.8228 13.1069C69.7055 12.8237 69.5337 12.5664 69.3169 12.3497C69.1003 12.133 68.843 11.9611 68.5598 11.8439C68.2766 11.7268 67.9732 11.6665 67.6667 11.6667ZM11.9447 39.0264C9.68646 37.0777 7.8694 34.6702 6.61445 31.9642C5.35951 29.2583 4.69551 26.316 4.66667 23.3333V16.3333H13.351C14.523 22.7545 16.0472 29.1064 17.917 35.36C18.6726 37.8552 19.4447 40.144 20.2291 42.2734C17.1838 42.1404 14.2693 40.9981 11.9447 39.0264ZM44.3333 60.6667V65.3333H25.6667V60.6667H44.3333ZM65.3333 23.3333C65.3045 26.316 64.6404 29.2583 63.3856 31.9642C62.1306 34.6702 60.3135 37.0777 58.0553 39.0264C55.7307 40.9961 52.8168 42.1364 49.7727 42.2677C50.5564 40.1406 51.3279 37.8529 52.083 35.36C53.9528 29.1064 55.477 22.7545 56.649 16.3333H65.3333V23.3333Z" fill="black"/>
</g>
<defs>
<clipPath id="clip0_407_16">
<rect width="70" height="70" fill="white"/>
</clipPath>
</defs>
</svg>
