<svg width="21" height="21" viewBox="0 0 21 21" fill="none" xmlns="http://www.w3.org/2000/svg">
<path d="M9.37997 1.01C9.37997 1.27522 9.48533 1.52957 9.67286 1.71711C9.8604 1.90464 10.1148 2.01 10.38 2.01H16.89L0.239969 18.66C0.0761424 18.8513 -0.00946365 19.0974 0.000257501 19.3491C0.00997865 19.6007 0.114311 19.8395 0.292406 20.0176C0.4705 20.1957 0.70924 20.3 0.960916 20.3097C1.21259 20.3194 1.45867 20.2338 1.64997 20.07L18.28 3.44V9.9C18.28 10.1652 18.3853 10.4196 18.5729 10.6071C18.7604 10.7946 19.0148 10.9 19.28 10.9C19.5452 10.9 19.7995 10.7946 19.9871 10.6071C20.1746 10.4196 20.28 10.1652 20.28 9.9V0.9C20.28 0.661305 20.1851 0.432386 20.0164 0.263604C19.8476 0.0948209 19.6187 1.25027e-09 19.38 1.25027e-09H10.38C10.2478 -6.60729e-06 10.1169 0.0261866 9.99496 0.0770655C9.87298 0.127944 9.76229 0.202499 9.6693 0.29642C9.57631 0.39034 9.50286 0.501763 9.4532 0.624245C9.40354 0.746727 9.37865 0.877839 9.37997 1.01Z" fill="#FEFEEF"/>
</svg>
