<svg xmlns="http://www.w3.org/2000/svg" xmlns:xlink="http://www.w3.org/1999/xlink" width="89" height="110" fill="none" xmlns:v="https://vecta.io/nano"><style><![CDATA[.B{opacity:.95}.C{fill:#fefeef}]]></style><g clip-path="url(#A)"><g class="C"><path d="M42.141 35.299l.552-.058a2.39 2.39 0 0 0-.552.058zm24.156-10.615c.006-.094.006-.187 0-.281v.265.016z"/><path d="M72.816 31.292c-.17-.103-.249-.499-.236-.751.064-1.095-.265-2.082-.65-3.058l-.379-.334v.199l-.817-.992c-.301-.322-.539-.697-.703-1.106l-.196.048a8.5 8.5 0 0 1-.35-1.114c-.265-1.551-.968-2.755-2.514-3.296-.112-.04-.265-.082-.31-.172-.53-.912-1.496-1.093-2.318-1.514-.559-.289-1.326-.313-1.472-1.167-.013-.077-.416-.188-.477-.125-.122.127-.233.43-.164.546.191.38.462.714.795.979.452.293.788.735.949 1.249l.687 1.591c.159.406.252.838.406 1.246.297.796.703 1.538.907 2.347s.215 1.655.31 2.485l.247.024c.091-.525.137-1.058.138-1.591-.087-.698-.211-1.391-.371-2.076v-.027.035c.001-.013.001-.027 0-.04l-1.716-4.113c.652.156 1.591 2.593 1.708 3.837a8.56 8.56 0 0 0-.085-1.384c-.143-.628-.32-1.248-.53-1.856.987.061 1.098.742 1.196 1.429l.186 1.562.244 3.304c.024.493-.04.989-.064 1.482h.31l.326-5.139c.594 1.713.708 3.386 1.002 5.039v-2.978h.204c.751 1.912-.313 4.023.483 5.834l.305-4.15c.281.191.581.281.626.446.162.501.247 1.024.252 1.551l-.236 3.257c0 .109.167.228.265.342l.199-.061-.385 2.002.228.064 1.156-3.8c.084.451.078.914-.019 1.363-.194.736-.452 1.453-.772 2.143-.395.83-.899 1.607-1.35 2.411-.051.11-.094.223-.127.339.125.04.289.154.361.109.23-.156.444-.333.639-.53l1.143-1.061c-.199 1.554-.971 2.771-1.856 3.991-1.143-1.57-1.366-1.755-2.209-1.899l-.239.493-.462-.289c-.143-.09-.284-.265-.427-.265-.658-.016-.833-.491-.941-.756.53-.491 1.122-.812 1.379-1.307.48-.923.774-1.947 1.132-2.933.029-.085-.048-.209-.077-.316-.111.082-.265.135-.326.247l-1.281 2.623a12.61 12.61 0 0 1-1.013 1.379l-.141-.119-.239.796c-.286-.756-.265-.756.215-1.116.111-.082.141-.265.201-.422.061-.243.163-.474.302-.682 1.456-1.464 1.708-3.373 1.923-5.304-.878 1.819-1.138 3.978-2.798 5.415l-.292-.724-.135.265c-.202.689-1.079 1.527-1.514 1.27s-.573-.875-.83-1.344c-.053-.101-.016-.249-.056-.361-.051-.149-.125-.289-.22-.414a5.29 5.29 0 0 0-.427-.419l.692-.321-.183.387.13.154c.443-.316.965-.562 1.307-.968s.488-.952.719-1.437a6.3 6.3 0 0 0 .419-3.864 1.23 1.23 0 0 0-.175-.326c-.066.071-.116.155-.147.246s-.044.188-.036.285c.044.285.054.574.032.862l-.668 2.803c-.194.875-1.103 1.705-1.925 1.761.549-.865 1.284-1.692 1.636-2.652s.363-2.161.53-3.251l-.21-.101c-.132.141-.242.301-.326.475l-.864 3.095c-.167.549-.419 1.061-.652 1.663l-.666-.53c.432-.862 1.082-1.681 1.241-2.591.239-1.363.117-2.792.18-4.19.026-.578-.247-.53-.7-.393.297 2.177.14 4.304-.727 6.304-.17-.162-.318-.346-.44-.546-.159-.293-.249-.617-.265-.949.016-.334.332-.666.321-.989-.018-.53.265-1.18-.369-1.535.03.653.023 1.307-.019 1.96-.091.421-.23.83-.414 1.22.53.411.554.475.265.973l-.167-.374-1.252 3.227-.223-.082c.116-.375.2-.759.249-1.148-.01-.384-.055-.767-.133-1.143a1.53 1.53 0 0 0-.467.687l-.53 1.175a5.19 5.19 0 0 0-.252.48c-.281.859-.772 1.098-1.626.822-.294-.093-.652-.212-.918-.122-.88.297-1.742.66-2.591 1.042-.928.419-2.612-.013-3.182-.907l1.307.483-3.299-2.745-.164.745-2.615-2.763-.151.133 2.617 3.304.321.398 3.018 1.644c-1.44.403-2.615-.477-3.882-.875l.53.027c-2.201-.904-4.209-2.066-5.855-3.843l1.485 2.241-.316.037c-.117.183-.265.53-.35.53-.682-.08-1.419-.095-2.007-.4s-1.008-.923-1.514-1.392l-.822-.682-.109.141 2.079 1.793-.172.233c-1.326-.878-3.119-.894-3.898-2.249-.321-.021-.501.021-.559-.045-.64-.685-1.244-1.402-1.809-2.151l-2.673-4.034-.607-.941-.172.117c1.116 2.609 2.994 4.726 4.551 7.054-2.846-1.421-3.843-4.508-5.885-6.937.894 2.45 2.413 4.198 3.853 6.012a3.25 3.25 0 0 1-.87-.477c-.886-.57-1.225-1.655-2.159-2.228-1.14-.698-1.278-2.023-1.514-3.238l-.438-2.121c.252.343.473.707.66 1.09.215.35.491.663.825 1.101l-1.472-3.93-.061 1.114h-.127l-.4-.859c0 .453.194 1.111-.04 1.368-.562.626-.037 1.204-.127 1.782 0 .026.114.074.186.114l-.178 1.692.43-.223a2.26 2.26 0 0 0 0 .689l.83 2.037c.053.143-.029.339-.05.512a1.65 1.65 0 0 1-.363-.31l-.833-1.368-.655-.907-.695.385.22.225.796.146-.164.18c.416 1.575.549 3.161 1.774 4.288-.589.194-.899.141-1.148-.438a24.52 24.52 0 0 0-1.257-2.281l-.146.082.231.7-.872-1.04c.196.717.453 1.416.769 2.09.692 1.527.737 1.591 1.191 1.702l-.703-1.567.13-.04 1.045 1.474c.761-.217 1.52-.294 1.527-1.406l1.856 1.326.265-.491 3.01 1.278.103-.265-.655-.289c0-.072.024-.141.035-.209.303.018.605.065.899.14.496.175.973.411 1.459.623l-.117.546-3.418-.236 1.737.628c.447.126.91.184 1.374.172a4.04 4.04 0 0 1 1.97.302c1.249.578 2.607.621 3.978.401a2.06 2.06 0 0 0-.74-.188l-2.837-.369c-.207-.035-.379-.265-.565-.419a.61.61 0 0 1 .504-.117l2.44.446 1.894.446 1.453-.175.048.355-.347.034c.96.021 1.66.682 2.387 1.284.064.053.13.133.196.135.234.029.471.024.703-.016.355-.093.899-.451 1.005-.342.422.44.896.183 1.326.289 1.811.448 3.522.13 5.195-.499.029-.074.084-.134.156-.167s.153-.038.228-.013c.183-.115.398-.167.613-.148.023-.003.046-.003.069 0l-.138-.22h2.84l-.297.244.605.104a.23.23 0 0 1 .133.061l1.156-.597.024.082.719-.552c.045.252.111.499.196.74.247.504.498 1.177 1.151 1.021.7-.167.772.194.83.703.554-.048 1.095 0 1.554-.162s.764-.552 1.172-.864c.015.254-.004.509-.056.759-.247.668 0 1.135.493 1.554s.944.976 1.506 1.307c.721.427.748 1.106.846 1.777v.016l.39.53c.041.008.08.027.112.053s.059.06.076.098l.244.498c1.124 1.772 1.939 3.737 2.705 5.704l.141.127c.023.019.043.042.061.066a4.51 4.51 0 0 0 .501-.504l.066-.498.175.074c.183-1.177.313-2.368.814-3.447l.109-.594c.239-1.103.862-2.122.374-3.312-.049-.175-.041-.36.021-.53.252-.748.607-1.472.772-2.238a16.85 16.85 0 0 0 .332-2.806c.048-1.406.032-2.803-1.39-3.665zm-5.903-9.563c1.297.212.865 1.326 1.265 2.055-.735-.058-.854-.263-1.265-2.055zm1.729 2.734l-.085-.581.159-.037.167.57-.241.048zm2.151 8.221c-.021 0-.119-.056-.122-.09a1 1 0 0 1 .082-.265c.093.101.178.151.175.202s-.077.119-.122.151l-.013.003zm.459-1.034h-.212l.191-1.885h.172l-.151 1.885zm-4.606 2.071l.056.074c0 .04-.019.074-.029.109-.024-.016-.069-.035-.066-.05.007-.047.02-.092.04-.135v.003zm-4.495-8.155c0 .08.019.159.026.239h-.069l-.056-.233.098-.005zm-36.718 4.93l-.103-.358.265.265-.162.093zm1.087-5.834l.085-1.376c.578 1.042.562 1.236-.085 1.376zm.451.769l-.127-.53.154-.053.164.53-.191.053zm-.621 2.745v-.464l.146.438-.146.027zm1.342 3.588l-.53-1.162c.655.09.883.52.517 1.172l.013-.011zm-.427-4.848l.249-.135.435 1.209-.684-1.074zm.729 1.162l1.904 1.591c-.658.032-1.75-.984-1.917-1.581l.013-.011zm4.808 4.386l-1.841-1.146.167-.284 1.84 1.148-.167.281zm2.44.239l.318.141-.064.141-.302-.172.048-.109zm.323.814l-.223-.119-.984-.674.101-.148 1.172.833-.066.109zm.774.53l-.565-.867.223-.204.727.756-.385.316zm7.6.467l1.435.944c-.156.036-.318.041-.475.014a1.2 1.2 0 0 1-.785-.502 1.2 1.2 0 0 1-.187-.437l.013-.019zm14.455.44h-.077v-.385h.095l-.032.403.013-.019zm1.626-2.975l-.119-.324.146-.064.098.339-.125.048zm.61 1.085l.472-.854-.241.947-.231-.093zm.406 1.432l.199.053-.156.644-.233-.064.191-.634zm.111 1.933l-.279-.87.265-.09.305.859-.292.101zm.957.095l-.371-.65.117-.066.355.658-.101.058zm4.224 2.591l-.931-.554c-.05-.034-.037-.17-.053-.265.098-.016.236-.087.292-.045l.796.684-.103.18zm1.106.57c-.073-.075-.141-.155-.204-.239 0 0 .074-.111.111-.109a3.45 3.45 0 0 1 .392.066l-.3.281zm2.421 2.888l-.398-1.119-.281.39c.009-.195-.01-.391-.058-.581l-1.09-2.45.209-.095 1.772 3.776-.154.08zm.504 1.22l-.143-.016.069-.239.087.016a2.57 2.57 0 0 0-.026.257l.013-.019zm0-2.291a4.31 4.31 0 0 1-.265-.78c.467-.53.92-.904 1.146-1.379.326-.682.472-1.451.721-2.172.053-.151.223-.265.496-.565.023.311.023.623 0 .933a10.8 10.8 0 0 1-.464 1.994 13.81 13.81 0 0 1-1.159 2.058c-.082.029-.17.037-.257.024s-.168-.045-.239-.096l.021-.019zm.891 1.591l-.424-.795 1.633-1.87.148.098-1.358 2.567z"/><path d="M26.11 33.414l-1.896-2.8-.082.053.233.581-.088.042-1.737-2.137c0 2.084 1.671 3.005 2.798 4.461a2.82 2.82 0 0 1-.586-.035c-2.27-.796-3.649-2.403-4.113-4.808-.109-.578-.085-1.212-.31-1.734-.485-1.122.265-1.811.761-2.625l-.082 1.758h.196a9.93 9.93 0 0 0 .172-1.36c0-.886-.034-.886.554-1.175l-.286 4.675-.888-1.856-.072.066.96 2.891h.265l.567-5.415c-.599-.31-.53-.796.318-1.509.594 1.185-.093 2.474.448 3.604V24.73l.796 1.201-.178-3.214h.207a8.85 8.85 0 0 0 .186.92c.265.846.66 1.665.795 2.527.08.488.135.7.613.636l-.154-.578c-.674-2.122-.979-4.307-.591-6.54.11-.843.287-1.676.53-2.49.339-.981.835-1.907 1.262-2.856h-.371l-.249.729-.188-.035v-1.997l-2.363 7.587-.188-.602-1.101 1.944a1.66 1.66 0 0 1-.265.265l-.199-.265c-.058-.09-.119-.241-.18-.366-.032.552.058 1.106-.125 1.535s-.265 1.079-.902.925c-.318.557-.687 1.024-.87 1.559-.392 1.138-.586 2.355-1.045 3.447-.636 1.525-.056 2.997-.034 4.49l.138.048v-3.556c.149.201.117.422.186.599l.761 1.811c-.316-.97-.761-1.928-.422-3.182l.904 2.864a5 5 0 0 0 1.164 1.716c.435.395 1.098.53 1.647.795a1.72 1.72 0 0 1 .379.355c-.135.101-.292.31-.408.287a20.56 20.56 0 0 1-2.103-.507 3.05 3.05 0 0 1-.721-.459l-.148.212 1.7 1.281-.058.162-1.79-.692-.106.183 1.429.894-1.291 1.185 1.758-.732.159.202-1.878 2.53-1.57-1.01 2.076-.202-.668-.493c-.631.464-1.326.289-1.557-.44l.679.194-1.175-2.039-.265.462c-.247-1.326.597-2.472.233-3.729-.172.103-.231.117-.239.143-.353 1.236-.647 2.48-.188 3.75.217.599.39 1.26.769 1.74s.172.671-.098.904c-.994.862-1.371 3.14-.663 4.243l1.382 2.079c.39.636.796 1.262.825 2.055l.557.408c.265-1.156.368-2.312-.342-3.506.748.103.891-.313.928-.817.035-.464-.061-.984.114-1.382.204-.469.636-.838.979-1.244.13-.151.334-.265.416-.43.53-1.108.53-2.299.504-3.498a.62.62 0 0 1 .332-.48c.53-.175.997-.377 1.175-1 .032-.103.366-.117.559-.17.053-.013.109-.018.196-.034 0-.133-.021-.265-.024-.284l1.246-1.358zm-8.528 7.868l.374.573.204-.514h.162l.265 2.917c-.756-.907-1.427-1.644-1.005-2.975zm.992-2.36l.183 2.026c-.628-.326-.75-1.146-.194-2.026h.011zm.353 3.509l-.215-.976.175-.026.201.965-.162.037zm.61 2.946c-.05-.037-.101-.058-.098-.074a.59.59 0 0 1 .045-.148c.029.021.079.037.082.061a.58.58 0 0 1-.029.148v.013zm.353-3.652v-1.533l.881-.4c.371.931-.788 1.207-.881 1.933zm1.57-1.665l-.138-.09.207-.323a1.47 1.47 0 0 1 .114.061l-.183.353zm-2.1-11.419l-.141-.061.135-.432.159.082-.154.411zm4.561 5.375c-.194.613-.567.385-.952.286-1.803-.467-2.543-1.904-2.946-3.532-.265-1.034-.265-2.122-.353-3.206-.018-.265.154-.53.292-.957l.663 3.363c.313 1.62 1.403 2.562 2.747 3.286.297.159.716.209.544.758l.005.003zm-4.167 14.68c0-.029.013-.058.021-.088l-.156-.103.135.191z"/><path d="M62.686 20.892c-.326-.766-.841-1.512-.936-2.307-.117-.984-.769-1.405-1.363-1.931a9.03 9.03 0 0 0-1.135-.742c-.464.265-1.453.066-1.721-.385-.265-.175-.976.114-.737-.53a1.69 1.69 0 0 0 .058-.196l-1-.353c-.035.025-.074.042-.115.05a.31.31 0 0 1-.126 0c-.422-.085-.867-.133-1.326-.186a1.24 1.24 0 0 1-.443.117c-.406-.027-.796-.141-1.209-.149a78.31 78.31 0 0 0-3.058.024c-.095 0-.191.154-.284.236l.088-.244-2.514-1.493c-.793-.562-1.591-1.302-2.371-1.962l-.127.143 1.061 1.215-.186.202-3.821-3.54-.212.233 2.827 3.074-.183-.048c-1.501-.467-2.14-1.742-2.747-3.047l-.53-1.09c-.098 1.032.194 1.899 1.856 3.866.57.674 1.724.835 2.609 1.23 1.745.339 3.283 1.172 4.773 2.212l.475.692c.355.026.652-.042.796.077 1.403 1.169 2.93 2.217 3.874 3.866.13.228.292.435.438.652l.347-.326-2.615-3.32c1.087.072 2.082.39 2.75 1.23.795 1.01 1.443 2.148 2.169 3.217.192.207.405.393.636.554l-1.13-2.607-.286.22-.565-1.435.369.093c1.628.578 1.939 2.283 2.827 3.485.265.371.265.944.453 1.395l.968 2.047a8.8 8.8 0 0 0-.39-1.591l-.355-1.108a5.92 5.92 0 0 0-.324-.631c-.077-.143-.244-.385-.215-.414.387-.369.056-.652-.074-.96-.838-1.793-2.448-2.689-4.02-3.713l-.135.53c.069-.742-.448-.777-.918-.859l-2.957-.53a3.31 3.31 0 0 1-.703-.316c.477-.059.959-.053 1.435.016l1.756.183 1.117.196c.313.04.658-.04.947.061.398.145.771.351 1.106.61l2.461 1.962-.125.186-.565-.17 1.947 3.063c.066.109.105.233.114.361a4.51 4.51 0 0 0-.019.796c.093.445.265.875.395 1.326.024-.377.003-.755-.064-1.127l-.157-.777c-.069-.552 0-1.156-.202-1.647-.411-1-.968-1.939-1.535-3.042 1.811 1.4 1.912 3.487 2.562 5.33l.191-.459.517.194-.424-1.71zM45.03 13.074l-.713-.371c.339-.499 1.132-.284 1.469.369l-.756.003zm14.903 7.364l-.265.247-.085-.154.35-.093zm-3.447-3.089l.202.236-.048.061-.265-.18.111-.117zm-4.057-.979l.509.072-.024.17-.509-.064.024-.178zm-1.734-.912l-.096-.342.353.141-.257.202zm-.093-.342a1.69 1.69 0 0 1 .069-.318 12.13 12.13 0 0 1 2.291.318h-2.36zm5.863 0l-.589-.374.061-.127.644.284-.117.217zm2.58 1.366c-.04-.029-.058-.09-.088-.135l.101-.048.109.119c-.029.024-.103.074-.122.064zm3.394 4.59l.228-.167-.093.281-.135-.114zM34.74 5.755l-.414 2.45-.196-.021.109-1.769-.34-.05-.337 1.005c-.074.202-.17.395-.265.591-.655-1.493.212-2.633.859-3.824.077-.143.18-.265.265-.408.026-.045.013-.111.026-.313-.642.748-1.326 1.31-1.734 2.541L30.7 8.492c-.406.488-.995.854-1.291 1.395-.594 1.077-1.037 2.241-1.559 3.36-.2.459-.493.871-.862 1.209l.432-1.095.451-1.244a5.27 5.27 0 0 0 .56-1.268l-1.013.796.125.027-.565 1.472-.27-.149c.493-2.466 2.071-4.368 3.474-6.261a1.61 1.61 0 0 0 .461-.308l2.315-3.336c0-.016.077 0 .292.032L29.338 8.72l.111.093a.91.91 0 0 0 .194-.143l3.482-4.378c.88-1.042 1.856-2.01 2.822-2.962A18.07 18.07 0 0 1 37.7.004a6.18 6.18 0 0 1-.432.976c-.374.53-.907.963-1.161 1.535-.305.682-.382 1.464-.57 2.212V4.71l-.83 1.061.416-1.962-.13-.048-.809 2.339.18.066.377-.411zm-5.999 3.901l-.22-.077-.215.499.199.093.236-.514z"/><path d="M35.535 4.726l1.204-2.572c.167.369.298.754.39 1.148.117 1.061.04 2.164.3 3.182.366 1.419.968 2.776 1.453 4.108-1.286-.796-1.087-2.482-1.726-3.713l-.186.056.3 2.485a7.21 7.21 0 0 0 1.591 3.474c.406.477.573 1.167.849 1.761l-.265.141-2.371-4.187-.053.912a.85.85 0 0 1-.17.605l-.607-7.441-1.048 2.084h.016l.345-2.031-.021-.011zm-5.988 14.938a2.53 2.53 0 0 1 .374.562L31 23.464c.43.951.944 1.861 1.535 2.721l2.509 3.538c.156.217.347.406.53.61v.265c-.796-.864-1.742-1.591-2.342-2.652-.53-.918-1.169-1.753-1.764-2.623l-.064-.265-.236.194.313.066c-.321.18-.496.109-.679-.265l-1.933-3.654a10.92 10.92 0 0 1-.761-2.808l2.008 4.747.308-.125a7.39 7.39 0 0 1-.366-.997l-.498-2.572-.013.021zm25.406 8.942l1.612 4.026c.074.18.178.347.337.655l-.883-.53-.087.098.573.888c-1.477-1.512-2.965-3.015-3.548-5.179l1.368 2.177.13-.05-.568-1.705.167-.077 1.299 2.448.191-.085-.589-1.488a7.06 7.06 0 0 1-.231-1.037c0-.021.156-.074.239-.114l-.011-.027zM40.309 11.138c-.406.056-.485.244-.287.615l1.103 2.259c-2.095-2.941-3.259-6.211-3.219-9.931.223 3.047 1.435 5.535 4.018 7.253l-.188.141c-.4-.326-.814-.639-1.199-.981a6.77 6.77 0 0 0-1.326-1.034l1.098 1.679zm3.922 16.797c-1.005-.162-1.703-.83-2.265-1.567-.634-.889-1.206-1.82-1.713-2.787l-1.79-3.336c-.265-.496-.467-1.016-.721-1.591.687.353 2.387 3.675 2.288 4.23 1.459 1.689 2.347 3.792 4.201 5.052zm-12.143-5.394l3.524 5.373c1.323 1.745 2.859 3.291 4.421 5.062-2.127-1.177-6.452-6.423-7.945-10.435zm23.517 11.772c-1.75-.994-3.885-3.946-3.62-4.734-.56 0-1.228-1.241-.986-1.832l4.606 6.566zM49.269 31.6l-1.437-2.352.077-.053 3.917 4.625c-1.522-.385-3.962-2.652-5.211-4.996l2.535 2.883.119-.106z"/><path d="M40.858 16.338c.384.355.867.647 1.132 1.079.92 1.512 2.244 2.684 3.257 4.113l1.506 1.965c-.233-.098-.329-.111-.379-.167l-4.315-4.81c-.53-.623-.796-1.459-1.188-2.196l-.013.016zm1.925-3.389c.506.188 1.061.297 1.517.573l4.691 2.986a16.71 16.71 0 0 1 1.925 1.387c-3.039-1.085-5.418-3.296-8.117-4.959l-.016.013zm-7.587-6.195c.058.088.164.178.164.265l.019 6.142c.013.698.199 1.392.18 2.153a3.66 3.66 0 0 1-.387-.918l-.337-3.477a27.67 27.67 0 0 1 .069-2.965c.065-.417.168-.827.307-1.225l-.016.024zm-2.384 11.353a28.92 28.92 0 0 0 5.434 10.077c-1.835-1.032-5.85-8.399-5.434-10.077zm7.078 10.836c-3.126-2.015-4.2-5.351-5.346-8.642l.183-.085.671 1.856c.239.62.496 1.276.796 1.885.303.633.649 1.245 1.037 1.83a18.23 18.23 0 0 0 1.257 1.591c.456.53.936 1.042 1.403 1.565zm.244-9.876c1.763 2.625 2.917 5.54 5.588 7.25-2.188-.92-4.956-4.548-5.588-7.25zm-10.698-2.761l1.363-7.16.284-.019c.083.213.123.44.119.668l-1.117 4.678-.366 1.909-.284-.077zM63.38 34.758l1.811-4.946c.74.607-.39 4.079-1.766 4.996l-.045-.05zM35.599 7.189l.716 4.259c.016.088-.074.191-.114.289s-.127.265-.101.265c.761.695.082 1.801.512 2.182-.39-.708-1.427-2.715-1.013-6.996zm8.422 11.061c-1.538-.796-4.073-3.917-4.484-5.617l4.484 5.617zM68.57 36.41l.838-.894c-.159.891-1.856 2.363-2.424 2.289l1.591-3.182.196.016c-.006.275-.031.548-.074.819-.079.282-.177.558-.292.827l.164.125zM43.104 21.289l3.678 5.092c-2.034-1.151-2.551-3.363-3.88-4.909l.202-.183zm-6.63.425c.162.103.403.17.475.321.825 1.748 2.06 3.182 3.352 4.567a1.01 1.01 0 0 1 .109.188l-.167.143-2.368-2.761c-.557-.753-.941-1.636-1.4-2.461v.003zm15.768 11.111c-2.315-1.899-3.646-3.575-3.906-4.802l3.906 4.802zm-7.027-16.352l.188-.223 3.713 2.48-.05.13-2.517-1.254c-.493-.292-.886-.758-1.326-1.146l-.008.013zm14.718 13.995l-.308.825-.159-.016-.379-4.62c.321.215.594 1.39.822 3.811h.024z"/><path d="M44.305 15.911l-1.96-2.015a6.48 6.48 0 0 1-.676-1.18l.172-.106 2.328 2.453c.156.18.087.565.125.857l.011-.008zm10.658 12.711l-.207-1.724 2.23 5.23-.172.09-1.326-2.681-.53-.931.005.016zm-26.636-5.771c-.819-1.557-1.376-4.837-.976-5.465l.976 5.465zm3.496-5.134l2.267 5.733c-1.058-1.631-2.09-3.562-2.267-5.733zm23.233 5.288l-3.206-3.517c.923.329 2.779 2.27 3.206 3.517zm-8.316 7.094l3.601 3.514c-1.511-.822-2.694-2.01-3.758-3.336l.156-.178zm-9.598-9.547l3.081 5.007c-1.286-1.453-2.458-2.981-3.081-5.007zm-3.349 3.898l3.495 3.843c-1.716-.888-2.604-2.305-3.495-3.843zM33.3 13.418l.546-4.773.228.026-.443 4.795-.331-.048zm-7.622 12.019l-.668-4.243.281-.037c.451 1.392.39 2.843.377 4.285l.011-.005zm27.609-2.708c-.225-.054-.438-.149-.629-.281l-2.554-2.843c1.286.88 2.413 1.809 3.169 3.135l.013-.011zm3.129-.249c-.194-.064-.456-.064-.57-.196l-1.856-2.355c1.037.607 1.779 1.527 2.416 2.559l.011-.008zm7.012 12.329c.151.032.379.146.44.085.385-.382.732-.795 1.087-1.209l.501-.586c0 1.305-1.405 2.424-2.45 1.936l.377-.265.045.04zm-5.566-2.772l-.639-3.832c.43 1.23.973 2.453.639 3.832zm-1.963-4.63l1.326 3.508c-.589-.321-1.501-2.556-1.326-3.508zm-14.28-7.653l-2.387-2.777.186-.172 2.419 2.726-.218.223zm8.966 9.417l2.419 3.246c-1.061-.859-2.045-1.758-2.419-3.246zm-9.454-.592c1.061.398 1.647 1.429 2.387 2.318l-2.387-2.318zm-9.926-14.145l.443-4.275.183.024-.435 4.262-.191-.011zm15.871 4.235l2.344 1.843-.188.265-2.323-1.872.167-.236zm-17.515.984c-.096-.284-.265-.57-.265-.851a6.8 6.8 0 0 1 .339-1.939l.286 1.899-.374-.316v1.217l.013-.011zm30.467 5.187l-1.53-2.684.265-.143c.703.796.859 1.88 1.249 2.84l.016-.013zm3.883 1.241c-.05-1.156-.88-2.121-.697-3.333l.947 3.286-.249.048zm2.567 2.92l-.729 2.933-.183-.05.687-2.949.225.066zm-19.37 5.648l.125.265-.148.157-2.617-2.387.08-.082 2.578 2.058-.016-.011zM32.618 10.91l-.265 2.122L32.13 13l.204-2.122.284.032zm-6.364 6.661l.424-2.291.228.045-.406 2.304-.247-.058zm26.071 6.604l-1.681-1.326.265-.265 1.469 1.549-.053.043zM33.042 7.195l-.581 1.61c-.263-.992-.109-1.493.581-1.61zm-1.27 26.518c-.154-.226-.332-.435-.53-.623-.133-.106-.361-.085-.599-.133 0-.082.027-.228.053-.446l1.326.795-.265.408.016-.003zm1.533-25.757a5.21 5.21 0 0 1-.05.613 6.83 6.83 0 0 1-.231.851 4.94 4.94 0 0 1-.265.557l-.265-.13.827-1.901-.016.011zm9.043 23.201l1.803 1.326-.114.162-1.771-1.326.082-.162z"/><path d="M49.559 20.891l.644 1.551-.04.072-.772-1.209c-.045-.09.104-.27.167-.414zm-4.602 9.229l.83 1.498-.191.106-.867-1.477.228-.127zM29.123 11.599l.642-1.708.228.082-.668 1.665-.202-.04zm8.502 6.832l-.737-1.376.148-.093.814 1.326-.225.143zm3.01-2.711l-.488.217-.316-.888.233-.103.56.796.011-.021zM27.246 16.8l.207-1.488.156.016-.133 1.493-.231-.021zm30.035-1.846l-.05.069.316.493h.488l.098-.196-.191-.122-.66-.244zM31.433 25.636l.281.989-.225.061-.342-.963.286-.087zm4.124 4.972v-.265l.697.48-.432.385-.265-.599zm24.906-5.15l.308.772c0 .021-.143.095-.22.146l-.339-.822.252-.096zm-21.17 5.039l1.042 1.501-1.045-1.504.003.003zm-5.725-16.543l.265.676-.233.095-.233-.655.202-.117zm-7.821 7.261l.395.843-.241.082-.154-.928v.003zm19.484-4.755l-.509-.615.016.016.167-.554.31 1.167.016-.013zm-4.922-5.322l.822.626-.133.14-.69-.766zm-1.74 18.115l-.867-.427.148-.226.706.663.013-.011z"/><path d="M40.309 33.061l.318.491-.209.133-.313-.514.204-.109zm-2.97-20.459l-.172.658-.151-.032.111-.658.212.032zm-5.503-3.09l.215-.764.157.037-.162.777-.21-.05zM53.274 22.74l.53.557-.265.17-.239-.737-.026.011zm-26.556-8.42l-.326-.796.215-.085.109.873.003.008zm10.207 18.083l-.286-.377.13-.104.286.345-.13.135zm-4.683-18.918v.814h-.064l-.093-.796.157-.019zM67.21 29.561l-.241.692-.122-.042.212-.713.151.064zm-6.368.14l.204-.506.194.148-.401.358h.003zM34.316 19.223l.159.591-.114.037-.209-.573.164-.056zm22.302 4.063l.583.459-.146.151-.432-.621-.005.011zm-20.144-1.575l-.217-.886.156-.026.061.915v-.003zm14.108 5.781l-.037-.419.122-.021.058.416-.143.024zm-9.958-11.764l.233.61.013-.016c-.43-.061-.191-.39-.236-.602l-.011.008zm10.406 1.149l-.393-.583.557.395-.164.188zM36.7 31.533l-.3-.332.04-.074.379.281-.119.125z"/><path d="M28.977 12.273l.024.369h-.074l-.064-.361.114-.008zm2.079-.252v-.353h.114l.021.363-.135-.011zm25.35 10.467l.212.796-.207-.796h-.005zm-17.85 6.776l.371.236-.165.148-.194-.395-.013.011zm-4.715-13.912l.119.53-.101.024-.117-.53.098-.024zm-8.094 5.863l-.289-.621.141-.045.154.668-.005-.003zm24.692.737l-.385-.454.093-.093.422.4-.13.146zm-13.095-7.176l-.133-.363.098-.04.143.358-.109.045zm9.186 17.577l.331.377-.218.111-.101-.501-.013.013z"/><path d="M46.543 32.353l-.401-.462.154-.098.244.559h.003zm4.485-10.077c-.111.037-.18.088-.228.072s-.085-.098-.127-.151c.058-.045.119-.127.172-.125s.093.103.183.204zm-10.693 9.711l.53.156-.069.167-.446-.326-.016.003zm18.33-16.606l.111.387-.138.05-.141-.371.167-.066zm-16.667 4.924l-.217-.175.069-.106.228.156-.08.125zm18.017 4.548l.265.265-.183.093-.072-.371-.011.013zm-20.719 5.628l-.345-.411.146-.096.196.512.003-.005zm5.425-14.636l.034.406-.448-.339h-.021l.443-.05-.008-.016zm-8.809-.22l.143.347-.088.043-.156-.345.101-.045zm5.314 17.277l-.212-.477.347.334-.135.143zm-5.12-1.143l.175.217-.05.048-.199-.215.074-.05zm-13.581-4.373l.151-.106a.66.66 0 0 1 .053.148c0 .021-.064.074-.077.066a.67.67 0 0 1-.127-.109zm5.508-9.412l-.066-.286.085-.021.072.284-.09.024zm14.761-5.038l-.323-.31.122-.093.191.416.011-.013zM60.84 29.701v.565l-.141-.026.143-.53-.003-.008zm-5.36-2.779l-.143-.244.066-.053.18.204-.103.093zm-29.812-1.464l.331.074-.276.191-.05-.294-.005.029zm-3.811 4.649l-.164-.284.114-.066.151.292-.101.058zm9.862-3.007l.186-.154.066.085-.188.149-.064-.08zm-.514-12.019l-.077.265-.098-.034.096-.265.079.035zm-.506-.875v.051c-.015-.019-.027-.041-.035-.064s-.004-.036 0-.053l.035.066zm10.782-1.877a.55.55 0 0 1-.17.034c-.029 0-.074-.072-.066-.082.029-.04.064-.075.103-.103l.133.151zm4.832 15.874c-.026-.032-.064-.058-.072-.09s.034-.05.053-.077c.024.029.058.053.064.082s-.026.056-.045.085zm-8.945 37.784l-1.132.403-.952.289v.233l-.374-.334 1.74-.857c.207-.088.488 0 .737.019.005.082-.011.164-.019.247zm15.763-.881l1.347.183-.016.143-1.347-.167.016-.159zm1.097 1.623l-.761-.337.101-.172.66.509z"/><path d="M34.753 66.849l-.241.175-.064-.077.239-.18.066.082zm19.475-.12l.435-.05v.125l-.437-.074h.003zm-.416 5.055c-1.326-1.591-3.044-2.615-4.954-3.339l-2.304-.769c3.023-.156 5.277 1.498 7.529 3.156-2.021-2.225-4.447-3.633-7.55-3.763.087-.132.221-.226.374-.265 3.334-.408 5.834 1.326 8.303 3.211-1.604-1.395-3.095-2.943-5.304-3.408l.143-.297 3.304 1.238c-.981-.899-2.254-1.384-3.633-1.657l.072-.286 3.344.623c-1.66-1.024-3.447-1.217-5.322-.846 1.541-.796 3.129-.57 4.734-.353l-.963-.358c4.887 0 8.303 2.79 11.833 5.343a1.18 1.18 0 0 0-.326-.451c-1.061-.857-2.092-1.766-3.211-2.543-.935-.694-1.954-1.27-3.031-1.713-1.281-.483-2.681-.647-3.999-1.045-2.108-.639-4.052-.313-5.914.796-.374.223-.756.43-1.217.692l-1.591 1.96c-.109-.191-.223-.358-.305-.53-.265-.613-.483-1.244-1.148-1.591a8.54 8.54 0 0 1-.984-.735c-.066-.048-.183-.029-.265-.029h-2.482c.048-.066.101-.135.172-.228-.895.218-1.806.367-2.723.445.143.239.31.363.713.143.223-.125.62.066 1.079.133l-.599.318v.138l2.713-.183v.146l-3.296 1.09.109.454c1.257-.854 2.639-.918 4.065-.875-1.591.557-3.079 1.228-4.134 2.583.292-.191.575-.39.875-.567a14.74 14.74 0 0 1 1.527-.864c.379-.119.766-.208 1.159-.265.53-.141 1.061-.3 1.673-.48l-4.675 4.161c.043.045.082.093.122.138l3.506-2.734.154.164-1.453 1.634c-1.591 1.856-3.05 3.851-4.89 5.497a1.79 1.79 0 0 0-.265.586l.225.133 7.038-7.812.265.188-3.164 4.834c1.26-.488 1.575-2.021 2.58-2.875l.212.141-2.869 4.598.178.114c1.342-1.469 2.328-3.182 3.238-4.959-.146.721-.085 1.453-.7 2.079-.53.53-.825 1.313-1.212 1.989a2.7 2.7 0 0 0-.196.53 1.57 1.57 0 0 0 .199.082 5.82 5.82 0 0 0 .249-.578c.012-.076.012-.154 0-.231l.148.095.957-1.106.148.101-2.419 4.243c.236 0 .35-.141.496-.247.197-.137.4-.265.61-.382-.265.422-.456.931-.819 1.233-.796.655-1.697 1.185-2.538 1.793-2.856 2.061-5.98 3.302-9.56 3.333-1.559.013-2.999-.796-4.572-.554 0 0-.024-.034-.042-.04a20.69 20.69 0 0 0-2.084-.591c-.936-.175-1.888-.249-2.832-.369-.186-.024-.371-.061-.748-.125 1.729 1.061 3.524 1.093 5.304 1.326l-.716 2.188.104.037.438-.679.143.069-.374 1.684.167.04.459-.91v4.655l.772-2.875.164.04-.106.65.435-.608.753 4.575h.204c.432-2.281.628-4.636 1.994-6.63.018.33-.058.658-.22.946-.239.432-.445.851-.098 1.311a2.8 2.8 0 0 0 .377.342l.849-1.204.244.149-.835 2.047c.408-.101.902-.082 1-.265a21.94 21.94 0 0 0 1.273-2.891c.191-.531.796-1.44 1.326-1.459-.13.244-.241.429-.331.626-.281.6-.703 1.18-.796 1.809s-.056 1.225-.53 1.71l-.796 2.509-.143-.234-.151.016v6.322a28.71 28.71 0 0 0 .172-3.405c.096-1.477.362-2.939.793-4.355.035-.093.081-.183.138-.265-.029 1.061-.18 2.079-.302 3.103a29.25 29.25 0 0 0-.292 2.938c-.016 1.008.119 2.016.188 3.023l.228-.016v-1.137l1.061 3.182.032-.501 1.191 1.944c-.064-.509-.305-.931-.424-1.382-.477-1.821-.764-3.713-1.421-5.462-.491-1.326-.321-2.504-.106-3.76.239-1.387.53-2.766.711-4.161.106-.867.591-1.289 1.474-1.736l-.751 1.493.265.138 1.151-2.164.265.111-1.061 3.514.183.056.83-2.803.199.032v1.114l1.355-1.912.077.581c1.061-2.143 2.954-3.368 4.694-4.758l.146.141-.549.621c.591-.374.955-1.082 1.517-1.326 1.193-.501 1.668-1.533 2.1-2.532.552-1.275.841-2.665 1.281-3.991.297-.894.666-1.763.949-2.514.674 1.413 1.297 2.941 2.122 4.357.748 1.305 3.108 3.095 3.657 3.066a13.62 13.62 0 0 1-4.466-6.203 4.23 4.23 0 0 1 .477.575 7.84 7.84 0 0 0 .7.623 12.22 12.22 0 0 1-1.633-3.978c.207.167.286.204.323.265l1.822 3.159a4.36 4.36 0 0 0 .634.689c.016-.021.032-.04.045-.061l-.456-.857.199-.119.509.923 1.467 1.286a2.6 2.6 0 0 0 .419.241c-1.785-1.931-3.426-3.909-4.699-6.184l4.442 4.829c0-.392.064-.61 0-.679a8.46 8.46 0 0 0-.812-.613l-1.684-2.053.072-.074 2.559 1.75.143-.188c-.385-.331-.756-.681-1.159-.989-.453-.347-.957-.631-1.398-.997a3.59 3.59 0 0 1-.53-.745 24.38 24.38 0 0 1 6.77 4.508c-.716-1.196-1.761-2.023-2.917-2.75s-2.336-1.546-3.524-2.339a11.67 11.67 0 0 1 4.598 2.387c.236.207.544.331.772.546.634.594 1.233 1.228 1.872 1.817.146.135.39.162.727.289-.703-.631-1.318-1.1-1.803-1.679zM24.806 85.839l-.106-.088.207-.265.085.061c-.064.109-.125.199-.186.294v-.003zm1.077.531c-.3.833-.671 1.638-.382 2.566.045.146-.114.353-.249.517-.265-1.275-.483-2.538.583-3.728a1.59 1.59 0 0 1 .048.65v-.005zm2.708-1.889l-.151-.077.157-.371.207.106-.212.342zm1.111 4.357l-.098-.283.244.124-.146.159zm1.57-4.961l-.037-.228.499-.066c0 .061.018.122.029.183l-.491.112zm3.341.209h-.162a2.52 2.52 0 0 1 0-.316l.157-.024.005.34zm3.447-3.63l-.321.594c-.207-.578-.196-.602.321-.591v-.003zm.05-.037l.602-.644.164.21-.766.435zm1.326-.385l-.284-.17.498-.642.223.148-.437.663zm1.856-4.362c.133.57-.095 1.037-.477 1.464l.21-1.517.268.053zm-.355 3.089c-.066.138-.133.265-.196.416l-.146-.08.265-.398.981-2.052a2.88 2.88 0 0 1-.904 2.114zm2.819-10.65l-.077-.504.157-.026.09.501-.17.029zm2.694.674l-.265-.302.154-.127.247.308-.135.122z"/><path d="M49.235 76.287l3.713 2.792c.759.48 1.716.655 2.593.941 2.05.668 4.108 1.326 6.285 1.435l2.652.114c.164 0 .323-.363.498-.578.194.127.279 1.106 1.021.265.114-.13.496-.032.753-.029 2.217.019 4.203-.851 6.211-1.623.114-.042.183-.194.265-.297a1.02 1.02 0 0 0-.376-.021c-2.501.91-5.105 1.151-7.736 1.228-.321 0-.644-.024-1.024-.042l.111.377-.209.109-.459-.87 5.171-.265c2.53-.281 4.976-1.074 7.189-2.331 1.936-1.061 3.087-2.612 3.829-4.577.119-.392.155-.805.106-1.212a8.12 8.12 0 0 1-1.557 3.075 8.1 8.1 0 0 1-2.694 2.15c1.48-1.13 2.83-2.366 3.485-4.158l-.183-.148a1.96 1.96 0 0 0-.371.53 2.67 2.67 0 0 1-1.83 1.949c-.668.233-1.294.605-1.976.796-.562.148-1.18.077-1.766.164s-1.151.265-1.729.379a9.52 9.52 0 0 1-1.151.18l-2.702.167c-1.238.048-2.47-.193-3.599-.705-.056-.021-.074-.13-.111-.199v.013c1.307.17 2.612.456 3.919.48 1.591.026 3.182-.167 4.773-.265v-.279a16.65 16.65 0 0 0-1.785-.135c-2.593.069-5.118-.135-7.332-1.7l4.901 1.291a5.64 5.64 0 0 0 2.084.093c-.859-.175-1.748-.265-2.572-.549-.864-.295-1.693-.684-2.472-1.161-.771-.504-1.497-1.074-2.169-1.703l1.477.737 3.129 1.777a.58.58 0 0 0 .549-.026 3.86 3.86 0 0 1-.485-.265l-4.031-2.959-3.508-2.761c-.196-.148-.53-.567-.769.029a.57.57 0 0 1-.281-.043 21.79 21.79 0 0 1-2.785-1.257l1.159.363 2.166.507a4.24 4.24 0 0 1 1.435.642l4.866 4.012c.886.687 1.907 1.201 2.867 1.793l.149-.183-.629-.841.064-.074c.106.057.205.129.292.212 1.217 1.562 2.917 1.697 4.702 1.626 1.273-.05 2.355-.647 3.368-1.326 1.615-1.09 2.042-3.466.923-4.773-.085-.102-.195-.18-.32-.226a.73.73 0 0 0-.39-.031c-.13.025-.252.084-.352.171s-.174.201-.216.327a4.44 4.44 0 0 0-.202 1.016c0 .117.167.244.239.376a2.91 2.91 0 0 1 .265.586.37.37 0 0 1-.233.21.98.98 0 0 1-.475-.265 5.35 5.35 0 0 1-.443-.748l-.18.424c-.369-.936-.43-1.708.074-2.689.363-.711 1.018-.761 1.421-1.236a.71.71 0 0 1 .387.218c.292.419.43 1.061 1.196.676.08-.04.369.188.459.347.469.835 1.087 1.644 1.31 2.546a9.71 9.71 0 0 1 .13 3.135c-.018.398-.139.785-.351 1.122s-.509.613-.861.801a8.38 8.38 0 0 0-1.326 1.061c-.761.636-1.456 1.379-2.291 1.901-.891.56-1.912.915-2.875 1.363-.05.024-.088.072-.101.265l1.512-.318.032.114-5.76 1.665c1.448 1.326.933 2.652.53 3.978l-.013-1.97a3.61 3.61 0 0 0-.308-.889l-.053-.758-.199.045.265.703c0 .756.103 1.533-.04 2.259-.13.666-.53 1.273-.812 1.91a3.02 3.02 0 0 0-.201.578l-.559 2.334c-.074-1.275.753-2.533-.114-3.811a1.31 1.31 0 0 0-.085.385c.14 1.158-.337 2.121-.875 3.105L64.2 93.173c-.029.064-.085.117-.279.123l.637-2.522-.186-.056-1.679 4.726-.226-.077.674-2.206c.199-.701.719-1.387.093-2.146l-.236 2.01-.114-.278c-1.172 4.476-3.646 8.221-6.55 11.737l-.265-.297c-.281.164-.53.376-.737.627-.453.748-.838 1.537-1.761 1.887l1.933-2.97-.146-.135-1.22 1.35 1.267-2.959-.016-.017.355.424.666-.365a2.93 2.93 0 0 1 .05.742 3.33 3.33 0 0 0-.183.87 2.91 2.91 0 0 0 .469-.48l3.164-4.85a18.52 18.52 0 0 0 2.506-5.699c.265-1.045.037-2.05-.231-3.007a19.63 19.63 0 0 0-1.591-3.797c.53 2.275 1.53 4.455.955 6.868a9.86 9.86 0 0 0-1.485-4.508l.544 1.756-.437-.265.316 2.968-.334.034-.554-4.171c-.795-1.592-.758-3.938-2.721-5.222l.655.22-1.419-1.79v.013c3.347.766 7.16.896 7.611.292h-3.01c-.965 0-1.957.141-2.856-.286 0-.082.019-.164.026-.249l1.557.093c-.151-.191-.207-.342-.294-.361-1.57-.369-3.156-.676-4.712-1.093a9.79 9.79 0 0 1-3.941-2.137c-.482-.466-.937-.959-1.366-1.474l.103-.204zM61.672 82.8c.708.618 1.506.122 2.259.17.122 0 .265-.111.382-.172l-.04-.228-2.572.188s0 .037-.016.056l-1.75-.39c.43.581 1.408.689 1.737.377zm3.522 6.136l.281-.024.265-4.328h-.244l-.119 1.271-.218-.016-.082-1.087-.191.024.308 4.16zm-1.252.918c.445-1.305.655-2.599 0-3.935v3.935zm14.85-14.366c1.178-.838 1.358-1.238 1.082-2.27l-1.082 2.27zm.157-4.174c.53-.864.339-1.554-.477-1.753l.477 1.753zM59.933 86.602l.265-.111-.782-1.96-.281.117.798 1.954zm3.514.661l.247-.069-.416-1.326-.18.053.35 1.342zm-.032 3.508l.244-.169a5.02 5.02 0 0 0-.323-.457c-.087.046-.172.097-.252.154l.331.472zm-3.01-2.967l.212-.061-.207-.695-.175.05.17.706zm6.73-3.673l.196-.048-.265-.756-.162.05c.082.252.156.504.231.753zm-3.67-.644l.043.228.53-.106-.061-.247-.512.125zm4.256 2.57h-.159v.62h.119l.04-.62zm7.16-7.468l-.196-.13-.289.411.157.122.329-.403zm-12.973 8.369l-.178.109.265.435.154-.096-.241-.449zm-2.745-4.529l-.053.191.443.117c.016-.053.032-.106.05-.156l-.44-.151zm16.394-12.034h.143v-.44h-.164l.021.44zm-7.203 4.193l-.016.17.53.04.016-.146-.53-.064zM63.48 89.72l.167.061.087-.384-.072-.025-.183.348zm2.793-5.492h.064l-.04-.321h-.077l.053.321zm-5.015 1.559l-.157.037.117.305.103-.031-.064-.311zm17.179-16.988l-.13.103.316.342.098-.09-.284-.355zm-.854-.666l-.069.148.414.191.066-.141-.411-.199zM65.04 82.582c-.096-.058-.162-.13-.209-.119s-.104.096-.156.148c.056.061.121.113.194.154.034.008.103-.096.183-.183h-.011zm-1.925 6.94l-.154.04.098.292.111-.03-.056-.302zm-3.447-6.365l.021-.119-.286-.034-.016.101.281.053zm8.298-.554c-.048.096-.09.143-.085.183s.061.088.093.133c.04-.029.114-.069.111-.085a1.24 1.24 0 0 0-.101-.223l-.018-.008zm-2.848 7.258c.103-.188.159-.249.162-.307s-.064-.104-.162-.247v.554zm-15.875.765l-.963-4.508-.085.013.207 1.557c.133.984-.167 1.889-.361 2.843-.244 1.198-.042 2.493.019 3.744.083 1.762-.143 3.524-.668 5.208l-.265-.503-.162.069.061-.782c-.464.984-.355 1.228.371 1.207l.976.159-.591 1.098-.631-1.125-.286 1.302c-.072-.506.164-1.084-.294-1.429l-1.045 3.562c-.04 1.395-.963 2.997-1.419 4.725l-.265-.037.117-1.127c-.4.382-.575 1.992-.252 2.334.061.063.247 0 .339 0l-.286 1.061c-.186-.531-.575-1.117-.57-1.708 0-1.165-.507-2.074-1.047-3.008a1.35 1.35 0 0 1-.085-.397h-.018l.742.551-.101-1.782c.008-.554-.491-1.113.151-1.59.058-.044 0-.25-.016-.417l-.157.09-2.652-7.12-.286.093.53 2.225.591 2.758c.186.655.029 1.415.591 1.969.077.075-.013.311-.013.475a1.25 1.25 0 0 0 .035.345l.53 1.727-.196.164-.857-2.365c-.178-.578-.233-1.191-.401-1.775s-.408-1.148-.663-1.856l.506.374c0-.215.064-.424 0-.549a7.39 7.39 0 0 0-.634-.795c-.024-.029-.066-.058-.069-.092l-.605-4.594c0-.013.021-.031.024-.031l3.339 6.386.111-.016-.618-2.652c1.061 2.159 1.419 4.508 1.769 6.842l.31-.032-.265-6.522-.082-.037.377 1.194c.111.398.154.822.228 1.235l.239-.024-.443-5.397.095-.021.422 2.432c.472 2.851-.042 5.656-.371 8.472-.013.131-.154.245-.17.374a3.18 3.18 0 0 0 .05 1.204c.96-1.23.443-2.916 1.3-4.108l.43-6.435c-.024-2.084.477-4.174.125-6.253h-.223l-.141 2.167h-.127l-.265-5.304h-.175l-.326 5.892h-.265v-5.409h-.199l-.225 4.508h-.167l-.265-5.039h-.18l-.265 4.641c-.456-1.599-.556-3.278-.294-4.92-.61.732-.796 1.761-.925 4.132l-.183-3.209c-.358.384-.501 1.249-.321 2.453l.416 2.697-.201-.403-.199.066 1.159 3.726c-1.326-2.288-1.938-4.773-2.32-7.409l-.321 1.403-.212 1.45c-.358-.25-.384-.982-.167-1.798l.443-1.856c-1.326.427-1.276 1.74-1.912 2.689l.162-1.14-.122-.075-.629.795.864-2.586c-1.116.796-1.326 2.109-2.188 3.018l.912-2.326-.088-.069a7.85 7.85 0 0 1-.57.751 2.41 2.41 0 0 1-.499.316l.225-.597-.127-.067-.796 1.169-.18-.103 2.267-4.203.241 1.06.512-.88.339.938.342-.723.377.485.62-.767c.689.448 1.042-.204 1.52-.482.194-.114.43-.162.618-.284.169-.108.311-.251.419-.419.218-.366.395-.756.615-1.18l2.702 1.891-.194-.512.151-.101a6.06 6.06 0 0 1 .599.88c.666 1.459.652 3.01.53 4.562-.061.829-.337 1.657-.305 2.477.026.61.392 1.204.764 1.766l-.119-2.079h.096l.286 1.183c.459-1.541-.748-2.957 0-4.286-.113-.173-.202-.361-.265-.557l-.636-3.93.53.846.087-.045-.252-.777.18-.114.984 1.551 1.591 2.289c.151.215.395.421.424.655l.244 2.771-.225.029-.549-3.181h-.13l-.164 2.895.003-.026zm-2.872 7.425l.265-.019c-.013-1.904.69-3.866-.403-5.685l-.316.024.453 5.68zm-3.246 6.762c-.331 1.119-.331 1.119.17 1.169l-.17-1.171v.002zm4.402-7.455h-.101l-.016.246h.151l-.035-.246zm-1.504-9.526l-.199.016.082.409.117-.016v-.409zM11.321 70.415c-.583-.689-.817-2.063-.326-2.776.53-.774 1.276-1.273 2.312-1.183.758.064 1.535.016 1.838.939l-.708-.456-.106.228.814.223.395 1.742c.101.671-.244.941-.668.867-.149-.655-.141-1.305-.44-1.753-.358-.53-.933-.398-1.026.247a4.69 4.69 0 0 0 .18 2.121c.21.613.689 1.156 1.124 1.668.65.761 1.541 1.114 2.474 1.483 1.676.663 3.182 0 4.736-.321 1.037-.22 2.037-.615 3.058-.912 1.591-.456 2.45-1.726 3.432-2.901 1.435-1.713 3.113-3.113 5.346-3.686a10.61 10.61 0 0 1 1.856-.342c-2.776.859-5.489 1.793-7.126 4.461l3.182-2.339.082.109-2.917 2.408.111.146 1.268-.888.095.13-2.32 1.62-3.787 2.453c-1.326.843-2.697 1.626-4.272 1.915-.392.072-.907-.143-1.199.04-.742.464-1.307.035-1.87-.247a22.66 22.66 0 0 1-2.244-1.371c-.371-.241-.796-.472-1.042-.822L11.6 69.996a1 1 0 0 0-.53-.477l.236.912.013-.013zm12.644 3.097l-4.163.795c-1.127.104-2.233.204-3.432-.326-1.7-.756-2.652-1.933-3.318-3.559-.353-.867-.286-1.681-.098-2.62a.79.79 0 0 0-.366.453c-.414 1.024-.419 2.055.188 2.983 1 1.533 2.421 2.652 3.925 3.646a3.43 3.43 0 0 0 1.687.634c2.122.058 3.872-1.002 5.577-2.007zm-8.815-5.126l.141-.17-.796-.655-.143.172.798.652zm-1.344 6.662l-.424-.979c2.27 2.175 5.232 2.527 8.329 2.97-2.32.48-4.267-.416-6.272-.957l1.201 1.496c-.032.042.035-.05.125-.178l.75.581.401-.265.546.464.133-.265-.689-.188-.292-.53 2.917.562a13.46 13.46 0 0 0 1.835.016l-2.246.589-.019.17 2.122.199v.265c-.634.034-1.289.18-1.901.08-1.896-.308-3.742-.817-5.28-2.042-.552-.44-.984-1.032-1.48-1.565-.098.658.223 1.127 1.981 2.803.843.796 1.634 1.713 2.612 2.304s2.122.827 3.217 1.22l-.122.371-3.795-.984.472-.037-.894-.395-.061.13.501.331-.795-.554-1.467-.875 1.082.199-.703-.748.114-.22-.111-.026v.265c-1.087-.265-1.456-1.281-1.939-2.087-1.002-1.665-1.87-3.41-2.713-5.174 1.302.713 1.554 2.148 2.188 3.129l.684-.056 1.122 1.042c.103-.329-.589-.968-1.13-1.061zm2.087 2.254l.159-.061-.212-.589-.175.069.228.591v-.011zm3.015.753l-.072.194.419.09.04-.148-.387-.135zm-3.596.467c-.109-.096-.162-.175-.215-.175s-.109.082-.13.141.061.114.104.119.117-.037.241-.085z"/><path d="M56.75 97.894c1.456-3.262 2.514-6.566 1.045-10.104l.106 1.09-.135.048-1.148-3.713-.17.037v.976l-.265.058-1.026-3.612c1.363.668 2.352 1.565 2.724 2.917.467 1.684.925 3.402 1.079 5.132.106 1.228-.175 2.535-.515 3.742s-.947 2.252-1.437 3.37a1.76 1.76 0 0 0-.053.167l-.204-.109zm.414-12.162l.085.074c.048-.026.133-.053.133-.079a.67.67 0 0 0-.066-.194l-.151.199zm3.254-5.486l.403.674-.082.138-2.962-1.297c.024-.066-.027.08-.077.231l-2.233-.902-2.278-1.008c1.061-.451 1.984-.125 2.899.119l5.932 1.639c.342.093.729.029 1.061.138a.8.8 0 0 1 .364.53c.019.072-.302.342-.422.313-.395-.093-.761-.3-1.151-.427l-1.387-.374-.066.225zm-8.873 19.902a25.43 25.43 0 0 1-2.726 6.134c-.318.531-.392 1.207-.626 1.978.183-.17.265-.215.308-.286l1.498-2.538c-.149 1.549-1.026 2.689-2.106 3.713a7.21 7.21 0 0 1-.766.543c-.066.048-.119.146-.186.154l-1.787.149 1.185-1.307a4.44 4.44 0 0 0 .408-.751c.066-.122.109-.284.209-.358 1.456-1.061 2.135-2.652 2.917-4.182.477-.941.766-1.974 1.177-2.949.061-.143.334-.199.509-.295l-.016-.005zm-3.241 8.337a2.37 2.37 0 0 0-.371.112 1.39 1.39 0 0 0 .037.265l.334-.377zm24.755-31.52c.286 0 .631.096.851-.029.724-.411 1.403-.902 2.153-1.395-.602 1.268-1.891 1.62-3.209 2.304a14.77 14.77 0 0 1-1.626.485c-1.018.202-2.053.456-3.079.448a25.67 25.67 0 0 1-4.585-.53c2.48.048 4.956.382 7.364-.355h-6.365v-.101l3.294-.162a13.73 13.73 0 0 0 4.007-.578 9.71 9.71 0 0 1 1.222-.183.14.14 0 0 1-.016.103l-.53.239.191.223.326-.469zm-1.074.621c0-.048 0-.093-.013-.14l-.284.05v.09h.297zm-38.757 23.771l-1.411-2.532c-.064-.117 0-.302.016-.47-.106-.085-.337-.18-.39-.337-.777-2.257-1.554-4.508-1.326-6.82l.196 2.612.111-.019.857-4.964.284.024c-.199 2.846-1.326 5.71.127 8.518l-.202-3.254.117-.042a8.41 8.41 0 0 1 .308 1.085l.353 2.652c.17.774.53 1.504.753 2.27a9.2 9.2 0 0 1 .204 1.277h.003zm6.98-25.779a1.55 1.55 0 0 1-.098.472l-1.061 1.726c-.115.192-.268.358-.448.491-2.387 1.543-4.712 3.222-7.489 3.925-1.896.483-3.893.576-5.834.83-.127.016-.265-.064-.408-.249l2.153-.34c1.875-.363 3.808-.562 5.595-1.177 1.395-.483 2.607-1.501 3.909-2.267a2.82 2.82 0 0 1 .567-.183c1.114-.345 1.53-1.366 2.14-2.204l.796-1.061.178.037zm10.974 19.179c-.069-.205-.218-.417-.196-.61l.498-4.061c.037-.506.265-1.24-.631-1.479v1.962h-.133l-.424-2.371.443.101-.416-1.885c1.575.769 2.583 6.646 1.342 8.327v-1.735h-.111l-.371 1.751zm.742-2.562l-.087-.021-.069.265.087.019c.013-.085.037-.172.058-.262h.011zm.172 11.324l-.812 2.45 2.066-3.309c.265 1.143-.377 2.05-.997 2.834-.902 1.138-2.008 2.122-3.182 3.321l1.968-4.301.058.529.133.038.666-1.621.101.059z"/><path d="M39.863 102.561s-.183-.028-.204-.098l-.772-2.668c0-.04-.032-.074-.04-.114l-.666-3.211c-.21-1.618-.53-3.248-.098-4.773l1.779 10.864zm-1.299-1.739a11.14 11.14 0 0 1-1.437-4.029c-.342-1.883-.172-3.733.175-5.582h.241v1.856c-.114 2.456-.019 4.877 1.061 7.16a2.29 2.29 0 0 1 .103.645l-.143-.051zm27.144-21.746c-.475.045-.968.199-1.419.117-1.228-.231-2.469-.342-3.636-.925-1.44-.719-2.975-1.241-4.468-1.856a.82.82 0 0 1-.228-.167l9.738 2.848.013-.016zM48.949 90.979c.146.827.483 1.673.398 2.471-.194 1.828-.581 3.636-.931 5.442-.04.209-.337.368-.61.477 1.111-2.731.83-5.569 1.143-8.391zm-9.858 16.056l-3.119-6.417.31.148-.753-4.906.265-.04.496 3.182c.103.62.247 1.231.432 1.832a10.33 10.33 0 0 0 .83 2.103c.796 1.358 1.472 2.726 1.538 4.097zm17.694-36.301c1.185-.414 4.243.658 5.203 1.923l-2.122-1.04-1.981-.87-.156.265 4.325 2.816c-1.925-.737-3.811-1.533-5.269-3.095zM36.461 83.731l-.183.795c.17.069.483.135.485.207a1.23 1.23 0 0 1-.183.711l-1.758 2.15c-.114.13-.345.157-.681.303.448-1.711 1.162-3.037 2.32-4.166zm-9.918-6.848c.032-.027.056-.069.093-.08 2.14-.684 3.901-2.007 5.646-3.357.04-.029.106-.021.178-.034-.941 1.702-7.081 5.23-9.197 5.155l3.8-1.445-.53-.252.011.013zm-.61-1.485l4.636-2.387-2.724 1.894.085.143 5.092-2.965c-1.525 1.633-3.617 2.387-5.524 3.477l.183-.406-1.761.228.013.016zm7.841.061c-3.076 3.368-7.253 4.421-11.509 5.267l3.005-.931c1-.313 2.066-.589 3.052-.992s1.931-.883 2.835-1.44c.915-.565 1.75-1.254 2.617-1.904zm19.595 15.779c.851 1.479.504 2.874.22 4.216a25.8 25.8 0 0 1-1.196 3.744c.244-2.612 1.236-5.121.976-7.961zM63.59 77.005c-2.896-.682-5.304-2.265-7.563-4.182l1.61.774 5.787 3.246c.064.034.103.114.156.172l.011-.011zm-8.083 9.491l-.721-2.214-.066.013.149 2.594-.215.013-.971-4.049.949 1.101-.35-1.326c1.061 1.222 1.326 2.477 1.512 3.771l-.286.098zm7.523-10.777c-.157-.005-.312-.039-.456-.101l-1.827-1.244a4.76 4.76 0 0 0-.777-.438c-1.024.151-1.284-.875-1.976-1.222-.795-.387-1.445-1.026-2.159-1.557l.122-.186 7.187 4.529c-.029.077-.077.146-.114.217z"/><path d="M26.935 78.342l8.751-5.304c-2.737 2.111-5.49 4.169-8.751 5.304zm27.32 9.249l-.355-.761-.578 2.546h-.202l-.347-2.204.103-.04.403.795v-2.413l.321.04-.265-1.029c.735.6 1.191 2.124.92 3.065zM35.175 77.17c-.156.188-.3.509-.53.623l-5.229 2.365a27.54 27.54 0 0 1-3.556 1.082c3.087-1.363 6.452-2.124 9.316-4.071zm21.419 13.585c.223 2.095.347 4.476-.825 6.704l-.233-.045.231-1.085.827-5.574zm-20.947 13.146l-1.079-.778c-.109-.089-.239-.36-.204-.397.416-.429 0-.777-.114-1.121l-1.299-3.599.249-.098 2.448 5.993zm4.131 3.206l-2.249-6.047 2.177 3.132-.191.159c-.054-.03-.105-.064-.154-.103-.05-.05-.087-.114-.265-.334l.796 3.151-.114.042zm16.328-25.408l-1.416-.631c-1.326-.472-2.623-1.029-3.638-1.883l6.539 2.493h-.676l-.819.035.011-.013zm-39.571-3.14l4.344 1.917-.127.244c-1.798.183-2.968-.899-4.216-2.161zm13.975-6.881l-3.447 2.498c-.766.491-1.66.796-2.498 1.169l-.095-.21 6.043-3.447-.003-.011zm28.057 27.184l1.117-1.933a12.78 12.78 0 0 0 .615-1.591l.812-2.488c.056.531.194.889.101 1.172a14.85 14.85 0 0 1-.931 2.217l-1.591 2.719-.122-.096zM33.753 87.846l-.618 7.16c-.281-2.093-.385-4.64.618-7.16zm3.09 17.168l-2.297-5.59.355-.146 2.257 5.601-.316.135zm21.056-7.104c.912-1.552 1.755-3.132 1.888-5.015.644 1.467-.456 4.342-1.888 5.015zM33.568 86.547l-.889 3.585-.605 3.314c-.305-1.801.342-5.314 1.493-6.9zm10.883 21.22l1.514-3.866.599.827c-.936.093-.618.944-.899 1.442l-.899 1.743-.316-.146zm9.242-10.801c.461-2.182 1.339-4.23.873-6.465.803.851.22 5.405-.873 6.465zm-20.359 5.951c-1.705-2.294-2.387-3.909-1.856-4.352l1.856 4.352zm1.045-13.456l-.419 7.203c-.414-2.432.011-4.826.419-7.203zm15.278 10.462l-2.209 5.545a10.37 10.37 0 0 1-1.302 2.055l1.697-3.269 1.591-3.979a1.89 1.89 0 0 1 .233-.337l-.011-.015zm5.486-31.359c1.689.167 4.885 1.732 5.476 2.609l-5.476-2.609zM35.029 91.671l.037 4.648c0 .292-.265.579-.546.849l.326-5.065a1.35 1.35 0 0 1 .186-.424l-.003-.008zm-6.98-1.045v5.73h-.122v-5.744l.122.014zm13.623 15.184l-.448.692-.448-1.419-.133.032.265 1.772-.146.026-.681-3.147.125-.08.896 1.361.562.776.008-.013zm17.826-36.426l-4.808-1.798c.711-.342 3.861.925 4.808 1.798z"/><path d="M53.584 74.621l-3.166-2.631.252-.294 3.058 2.74-.143.186zM34.488 78.96l-4.431 2.204c-.578.265-1.23.374-1.814.597l6.256-2.79-.011-.011zm-7.845 9.403l-.313 4.106h-.18l.191-4.111.302.005zm9.524 7.277c-.451-1.541-.713-3.227-.382-4.677l.382 4.677zm19.571-5.773c.504.669.615 2.198 0 2.944v-2.944zM34.342 72.481l1.626-2.631.22.135a2.75 2.75 0 0 0-.419.575c-.21.544-.976.827-.727 1.604.035.106-.286.326-.443.493l-.257-.178zm7.319 33.353c.711 1.061.695 2.26.589 3.463l-.581-3.487-.008.024zm9.887-5.686c-.093-.13-.286-.265-.265-.384a21.65 21.65 0 0 1 .846-3.121l-.583 3.505h.003z"/><path d="M24.999 81.336c-1.119.78-3.212.944-3.214.575a15.35 15.35 0 0 0 1.591-.127c.552-.106 1.085-.294 1.623-.448zm2.05 10.457V89.26h.127l.156 2.527-.284.006zm-1.156-15.419c-.843.615-2.193.928-2.517.506l2.527-.496-.011-.01zm1.127 18.153l-.109-2.315h.265v2.313l-.156.002zm24.161.23l-.323 1.724c-.016.098.133.22.265.4l-.626.493-.157-.053.856-2.564h-.016zm7.386 4.105l.125.101-.321.531a2.47 2.47 0 0 1-.369.531c-.265.23-.552.421-.833.628l.984-1.402a3.69 3.69 0 0 1 .414-.388zm-16.065 7.786l.517 2.636-.233.045-.422-2.652.138-.029zm23.193-27.556l2.681.194v.167c-.732 0-1.464.021-2.193-.016-.162 0-.31-.236-.467-.361l-.021.016zm-26.712-3.171l-.891 1.36-.265-.17.902-1.326.255.135zm-19.693.05l2.554.326-.016.138-2.559-.265.021-.199zm-7.974-5.545l.957 1.819c.133.265.231.546.345.817l.013-.013-1.326-2.633.011.011zm35.225 31.125l1.026.082-.43.796-.597-.878zm5.81-12.251l-.141-1.764h.22l.095 1.767-.175-.003zm-3.116-13.013l-.104.201-1.193-.918.353-.353.944 1.069zm6.251 18.448l.223-1.638.294.066-.53 1.572h.013zm-31.85-15.044l-2.018.692-.037-.103 1.976-.796.08.207z"/><path d="M38.779 74.141l-.97 1.018-.154-.141.976-1.045.148.167zm19.162 1.35l2.206.995-.048.111-2.209-.997.05-.109zM35.729 77.27l.952-1.177.186.156-1.018 1.095-.119-.074zm15.503 18.917l.18-.944.252.053-.209.936-.223-.045zM25.904 76.39c.05-.117.072-.31.157-.342a2.56 2.56 0 0 1 1.18-.18l-1.347.507.011.016zm-1.257 2.673l1.244-.43.064.164-1.241.446-.066-.18zm22.199 23.83l-.549.504-.175-.183.562-.531.162.21zm10.922-4.482l-.307.737-.305-.235.623-.493-.011-.008zm-2.325-.838l-.204.83-.215-.056.249-.819.17.045zm-13.397 7.317h.019l-.265-.514.196-.165.05.679zm3.511-12.954l-.077 1.085h-.109v-1.08l.186-.005zm-8.733-24.44l-1.1.308-.037-.096 1.061-.427.077.215zm18.113 31.348l-.496 1.077-.122-.051.496-1.074.122.047zm.042-2.18l-.332.828-.085-.021.239-.872.178.066zm14.5-17.312l-.817.109-.016-.175h.809l.024.066zm-36.259 22.01l.703.218-.146.297-.546-.53-.011.015zm18.24-26.579l-.265-.57.249-.109.22.594-.204.085zm-4.225 28.906l-.658.315.127-.53.53.215zm-5.653 4.267l-.162-.812.154-.032.122.795a.68.68 0 0 1-.114.049zM26.004 82.025l-1.191.281-.027-.162 1.225-.109-.008-.011zm21.701-7.677c-.62-.04-.74-.416-.636-.944l.634.944h.003zm14.174 6.619l-.796.175.188-.464.607.289zm-32.443-8.979l-.689.53-.106-.122.721-.48.074.072zm7.56-2.981l-.464.716-.186-.154.663-.552-.013-.011zm11.897 5.657l.578.419-.172.172-.387-.605-.019.013zm-9.457 17.091v-.652h.069v.674l-.069-.021zm16.047 2.98l-.09.738-.215-.077.308-.661h-.003zm3.225-18.361l-.955-.438.077-.138.87.586.008-.011z"/><path d="M40.417 103.402l-.265-.345c.072-.042.122-.084.133-.077l.302.279-.17.143zM25.92 75.382l-.613.461-.114-.194.74-.265-.013-.003zm25.174-.002l.355.382-.127.127-.387-.366.159-.143zm-2.183-.73l-.443-.43.215-.141.209.583.019-.013zm7.131 26.122l.308-.451.135.089-.326.441-.117-.079zm-4.033-.295l.127-.642.138.03-.183.649-.082-.037zm-27.59-21.186l-.382.247-.093-.141.379-.252.096.146zm25.24 20.64l.127-.889.09.021-.22.86.003.008zm-2.275 1.153l.366-.236.111.202-.393.193-.085-.159zm9.786-.421v.652l-.265-.021.265-.631zm-4.397 4.913l.379-.606.082.068-.461.531v.007zM63.03 75.719l.114-.217.491.39v-.013l-.605-.159zm-45.416 1.477h-.907c0-.074.013-.146.019-.217l.875.225.013-.008zm7.934.326l-.334-.143c.043-.058.096-.172.119-.167a1.7 1.7 0 0 1 .31.138l-.095.172zm8.95 1.448l.668-.472.074.13-.753.331.011.011zm26.103 10.969l.286.888-.141.031-.146-.92zm-32.692 7.244v-.39h.098l.024.371-.122.019zm27.473 4.792l.265-.601.09.049-.382.531.027.021zM22.968 77.469l-.329.148-.048-.077.292-.199.085.127zm15.596 23.353l.138.047.217.184-.109.092-.247-.323zm-8.043-29.134l.485-.355.064.111-.56.236.011.008zm6.736 3.75l.281.17a1.49 1.49 0 0 1-.077.143l-.294-.18.09-.133zm10.445-1.087l.265.554-.217.056-.037-.613-.011.003zm15.511-.364l-.751.077v-.119l.74.048.011-.005zm-25.975 3.896l.316-.212.064.093-.323.212-.056-.093zm17.25-4.026l.207.233-.093.088-.212-.233.098-.088zm-2.36 21.911v.249a.86.86 0 0 1-.106-.111l.106-.138zm11.451-18.752l.546.093-.05.146-.485-.249-.011.011zm9.502-.146l.419-.355.098.162-.509.202-.008-.008zM53.793 97.359l-.186.247-.127-.072.164-.287.149.112zm-.694 1.344l.104-.361.072.016-.066.371-.109-.026zm4.68-.283l.154-.313.151.138-.316.167.011.008z"/><path d="M22.807 78.138l.332-.035v.072h-.316l-.016-.037zm25.401-4.599l.045-.061.265-.037v-.016l-.207.485-.104-.371zM24.305 77.48l.241.093-.064.162-.239-.146.061-.109zm2.214-.61l-.265.371-.093-.093.374-.265-.016-.013zm24.132-3.227l.09.215c-.056 0-.146.037-.157.021a.87.87 0 0 1-.058-.21l.125-.026zM33.804 67.96l.247-.093.032.077-.265.122a.34.34 0 0 0-.013-.106zm27.518 3.641l.143.18-.04.053-.183-.138.08-.095zm-24.14.209l-.223.17-.061-.05.157-.21.127.09zm17.086 30.817c0 .101-.026.203-.037.303l-.101-.016.058-.299.08.012zm-13.066 1.892l-.162-.213.077-.063.186.215-.101.061zm-6.171-12.841c0-.14 0-.281-.021-.421h.053l-.035.41.003.011zM22.594 76.764l.231-.157.056.064-.207.188-.08-.095zm26.633 13.877l.029.025a.95.95 0 0 0-.013-.04l-.016.015zM58.7 76.39l.387.098-.04.103-.339-.212-.008.011zm-32.688 5.646l.44-.143c0 .045 0 .087.019.133h-.467l.008.011zm13.236 19.431l-.249.105a.56.56 0 0 1-.053-.143c0-.013.058-.055.087-.05a1.12 1.12 0 0 1 .215.088zm-8.831-11.942v.178h-.05v-.185l.05.008zm5.498-1.058v.496l-.13-.014.13-.477v-.005zm3.845 3.993c-.019.032-.032.077-.056.083s-.061-.027-.09-.043l.074-.108.072.069zm16.062 12.231l-.18.377.058-.406.122.029zM12.618 73.062l.231.17-.093.08-.125-.265-.013.016zm33.859 32.165l-.178.376a.66.66 0 0 1-.088-.14c-.005-.014.053-.048.265-.236zm6.296.347l-.034.453-.098-.018.133-.433v-.002zM18.921 75.863c-.064.058-.098.117-.138.122s-.09-.04-.138-.064c.032-.04.053-.103.093-.114s.09.037.183.056zm17.898 2.776l.13-.21c.017.049.03.1.037.151-.053.026-.109.046-.167.058zm23.031-9.955l.218.194-.072.079-.217-.194.072-.079zM4.052 44.106l1.575.079c.154.016.289.175.44.265.079.056.17.093.265.109 1.408.082 2.615.629 3.832 1.135.239.098.342.406.507.618l-.151.114-2.098-.628-1.771-.544-1.671-.689c-.186-.072-.392-.106-.583-.17l-.477-.186.133-.103zm-.801 4.736c.13-.403.552-.318.936-.265l3.447.488c.558.089 1.104.239 1.628.448.135.056.109.445.149.636-1.201-.286-2.249-.666-3.272-.737a10.24 10.24 0 0 1-1.978-.424c-.297-.066-.599-.115-.902-.146h-.008zm4.824-8.685c.082-.019.212-.077.241-.056l3.405 2.615c.28.215.541.453.782.711a4.79 4.79 0 0 1 .44.626l-.241.146-4.482-3.553.724-.024-.886-.475.016.011z"/><path d="M8.197 40.613L6.184 39.17l.119-.122.896.53.875.583.122.451zM3.251 48.84l-2.1-.39v-.064l1.713.119.385.337.003-.003zm.226-4.739l-.78-.196.032-.085.777.194-.029.088zM2.015 58.914l1.562.225c.156.013.318-.117.483-.172a.63.63 0 0 1 .265-.058c1.398.188 2.689-.117 3.978-.382.265-.05.414-.331.618-.509l-.13-.14-2.177.218-1.84.194L3 58.645c-.194.037-.406.032-.605.056s-.337.061-.507.09l.127.125zm.131-4.877c.037.424.467.435.851.472l3.461.302a7.5 7.5 0 0 0 1.689-.069c.143-.021.207-.409.286-.586-1.236 0-2.339.143-3.352-.019a9.96 9.96 0 0 0-2.023-.034l-.912-.061v-.005zM3.843 64.26c.077.035.194.117.225.101l3.843-1.915c.316-.158.618-.341.904-.549.197-.162.382-.34.552-.53l-.21-.188-5.073 2.631.705.162-.957.297.011-.008z"/><path d="M4.05 63.836l-2.251 1.032.095.141.979-.342.971-.406.207-.424zm-1.905-9.793l-2.122-.095v.061l1.695.265.451-.241-.024.011zm-.692 4.768l-.796.042v.09l.796-.042a.34.34 0 0 0 0-.09zm82.978-12.013l-1.575.077c-.154.016-.289.175-.44.265a.66.66 0 0 1-.265.109c-1.408.082-2.617.629-3.832 1.135-.239.098-.342.406-.509.618l.154.114 2.095-.629 1.772-.544 1.673-.689c.183-.074.392-.106.583-.17l.477-.186-.133-.101zm.8 4.736c-.129-.403-.552-.318-.936-.265l-3.447.485a7.71 7.71 0 0 0-1.631.451c-.133.053-.106.446-.146.634 1.201-.286 2.246-.666 3.27-.737a9.85 9.85 0 0 0 1.981-.424c.292-.077.599-.098.899-.146l.01.003zm-4.823-8.685c-.082-.021-.212-.08-.241-.056l-3.408 2.612a6.92 6.92 0 0 0-.782.711 5.58 5.58 0 0 0-.44.629l.244.146 4.474-3.553-.721-.024.883-.475-.008.011z"/><path d="M80.283 43.305l2.015-1.443-.119-.122-.896.53-.875.586-.125.448zm4.946 8.224l2.103-.387v-.064l-1.713.119-.385.337-.005-.005zm-.223-4.737l.777-.196-.029-.087-.778.194.03.09zm1.459 14.814l-1.562.223c-.154 0-.316-.117-.48-.172a.64.64 0 0 0-.265-.056c-1.395.188-2.686-.119-3.978-.382-.252-.053-.411-.334-.615-.509l.127-.143 2.177.217 1.843.194 1.774.358c.194.037.403.029.605.056l.504.09-.129.125zm-.13-4.877c-.035.422-.465.435-.851.472l-3.448.302c-.564.038-1.13.015-1.689-.069-.143-.024-.207-.411-.286-.586 1.233 0 2.339.141 3.352-.021a10.14 10.14 0 0 1 2.023-.032c.305-.004.608-.025.91-.064l-.01-.003zm-1.695 10.22c-.076.037-.193.119-.225.103l-3.845-1.915a6.83 6.83 0 0 1-.904-.549 5.64 5.64 0 0 1-.552-.53l.212-.191 5.07 2.633-.703.162.957.297-.011-.011z"/><path d="M84.431 66.525l2.254 1.032-.096.143-.979-.342-.971-.408-.209-.424zm1.904-9.793l2.135-.095.013.064-1.694.265-.454-.241v.008zm.695 4.768l.795.045v.09l-.795-.043V61.5z"/></g><g opacity=".3" class="C"><path opacity=".3" d="M20.765 54.239c.761 3.217-.241 5.248-1.939 5.709-1.758.48-3.561-1.013-4.415-3.792-.896-2.917-.045-5.272 1.92-5.805 2.018-.544 3.79 1.116 4.434 3.888zm-5.402 1.591c.583 1.965 1.88 3.49 3.246 3.119s1.729-2.315 1.207-4.431c-.456-1.856-1.697-3.612-3.262-3.182s-1.779 2.482-1.18 4.506l-.011-.011zm5.574-6.452l.955-.207 1.79 8.375 2.917-.575.186 1.024-3.755.758-2.092-9.374zm5.227-.899a10.21 10.21 0 0 1 2.018-.53c1.39-.209 2.437.085 3.182.777s1.254 1.764 1.424 3.307-.05 2.872-.583 3.824-1.522 1.591-2.84 1.785a11.56 11.56 0 0 1-1.61.143l-1.591-9.305zm2.312 8.221a4.18 4.18 0 0 0 .907-.069c1.893-.286 2.742-1.872 2.44-4.442-.265-2.243-1.427-3.575-3.447-3.272a4.14 4.14 0 0 0-1.101.302l1.201 7.483V56.7zm7.917-1.464c.476.352 1.056.533 1.647.514.91-.053 1.413-.742 1.371-1.71-.04-.896-.448-1.419-1.435-1.838-1.172-.498-1.994-1.236-2.098-2.586-.117-1.49.772-2.681 2.238-2.758.589-.053 1.179.085 1.684.392l-.225 1.021a2.41 2.41 0 0 0-1.437-.387c-1.021.053-1.355.867-1.31 1.52.061.896.53 1.302 1.562 1.761 1.257.562 1.896 1.326 1.947 2.739.05 1.48-.687 2.776-2.297 2.875a2.86 2.86 0 0 1-1.79-.491l.143-1.053zm10.037.955a3.45 3.45 0 0 1-1.819.422c-1.928-.019-3.424-1.681-3.506-4.826-.08-3.005 1.469-5.099 3.811-5.073a3.21 3.21 0 0 1 1.779.464l-.265 1.005c-.448-.283-.968-.431-1.498-.427-1.753-.021-2.893 1.445-2.851 3.978.037 2.35 1.037 3.832 2.718 3.853a2.83 2.83 0 0 0 1.469-.374l.162.979zm2.445-9.2l-.199 4.012 3.501.233.339-4.002.981.087-.896 9.547-.894-.079.379-4.484-3.463-.231-.223 4.508-.883-.04.385-9.595.973.042zm11.913 6.047c-.565 3.256-2.278 4.731-4.012 4.492-1.793-.249-2.848-2.331-2.543-5.219.321-3.034 2.016-4.869 4.02-4.588 2.047.276 3.02 2.501 2.535 5.314zm-5.569-.647c-.239 2.039.347 3.949 1.742 4.142s2.487-1.453 2.837-3.604c.308-1.883-.138-3.978-1.737-4.211s-2.596 1.573-2.837 3.668l-.005.005zm12.811 2.174c-.796 3.206-2.628 4.551-4.344 4.179-1.774-.382-2.678-2.535-2.161-5.394.546-2.999 2.387-4.705 4.357-4.275 2.029.438 2.84 2.726 2.148 5.49zm-5.519-1.061c-.387 2.015.058 3.978 1.437 4.264s2.596-1.265 3.105-3.384c.446-1.856.154-3.978-1.429-4.331s-2.718 1.392-3.113 3.45zm7.897-3.182l.949.265-2.262 8.255 2.869.835-.305.994-3.713-1.061 2.461-9.289z"/></g><g fill="#252729"><path d="M20.765 53.794c.761 3.217-.241 5.248-1.939 5.709-1.758.477-3.561-1.016-4.415-3.792-.896-2.917-.045-5.272 1.92-5.805 2.018-.544 3.79 1.114 4.434 3.888zm-5.402 1.591c.583 1.968 1.88 3.493 3.246 3.121s1.729-2.318 1.207-4.434c-.456-1.856-1.697-3.612-3.262-3.182s-1.779 2.482-1.18 4.503l-.011-.008zm5.574-6.453l.955-.209 1.79 8.375 2.917-.578.186 1.023-3.755.761-2.092-9.372zm5.227-.898a10.05 10.05 0 0 1 2.018-.53c1.39-.21 2.437.082 3.182.777s1.254 1.764 1.424 3.307-.05 2.869-.583 3.824-1.522 1.591-2.84 1.782a11.61 11.61 0 0 1-1.61.146l-1.591-9.305zm2.312 8.221a4.52 4.52 0 0 0 .907-.069c1.893-.286 2.742-1.875 2.44-4.442-.265-2.246-1.427-3.577-3.447-3.273a4.14 4.14 0 0 0-1.101.3l1.201 7.486v-.003zm7.917-1.467c.474.357 1.054.544 1.647.53.91-.053 1.413-.742 1.371-1.71-.04-.896-.448-1.421-1.435-1.838-1.172-.498-1.994-1.236-2.098-2.586-.117-1.493.772-2.681 2.238-2.761.589-.052 1.179.087 1.684.395l-.225 1.021a2.42 2.42 0 0 0-1.437-.39c-1.021.056-1.355.867-1.31 1.522.061.894.53 1.302 1.562 1.761 1.257.56 1.896 1.326 1.947 2.737.05 1.482-.687 2.779-2.297 2.877a2.86 2.86 0 0 1-1.79-.491l.143-1.069zm10.037.957c-.557.304-1.186.45-1.819.422-1.928-.019-3.424-1.681-3.506-4.829-.08-3.005 1.469-5.097 3.811-5.07a3.18 3.18 0 0 1 1.779.464l-.265 1.002a2.81 2.81 0 0 0-1.498-.427c-1.753-.018-2.893 1.445-2.851 3.978.037 2.35 1.037 3.835 2.718 3.853a2.83 2.83 0 0 0 1.469-.371l.162.979zm2.445-9.202l-.199 4.012 3.501.236.339-4.004.981.088-.896 9.56-.894-.08.379-4.484-3.463-.233-.223 4.508-.883-.04.385-9.595.973.032zm11.912 6.041c-.565 3.256-2.278 4.734-4.012 4.492-1.793-.249-2.848-2.328-2.543-5.219.321-3.031 2.016-4.866 4.02-4.585 2.047.286 3.02 2.506 2.535 5.312zm-5.569-.645c-.239 2.037.348 3.949 1.742 4.142s2.487-1.453 2.837-3.604c.307-1.885-.138-3.978-1.737-4.211s-2.596 1.589-2.837 3.673h-.005zm12.812 2.18c-.796 3.206-2.628 4.548-4.344 4.179-1.774-.382-2.678-2.535-2.161-5.394.546-3.002 2.387-4.704 4.357-4.275 2.029.43 2.84 2.726 2.148 5.489zm-5.519-1.061c-.387 2.015.058 3.965 1.437 4.262s2.596-1.262 3.105-3.381c.446-1.856.154-3.978-1.429-4.331s-2.718 1.379-3.113 3.45zm7.897-3.181l.949.265-2.262 8.258 2.869.835-.305.994-3.713-1.061 2.461-9.292z"/></g><g class="B C"><use xlink:href="#B" class="B"/><path d="M20.937 48.222l.955-.209 1.79 8.372 2.917-.575.186 1.023-3.755.759-2.092-9.369z" class="B"/><use xlink:href="#C" class="B"/><use xlink:href="#D" class="B"/><use xlink:href="#E" class="B"/><use xlink:href="#F" class="B"/><use xlink:href="#G" class="B"/><use xlink:href="#H" class="B"/><path d="M70.408 49.166l.949.265-2.262 8.258 2.869.833-.305.995-3.713-1.061 2.461-9.29z" class="B"/><use xlink:href="#B" class="B"/><path d="M20.937 48.222l.955-.209 1.79 8.372 2.917-.575.186 1.023-3.755.759-2.092-9.369z" class="B"/><use xlink:href="#C" class="B"/><use xlink:href="#D" class="B"/><use xlink:href="#E" class="B"/><use xlink:href="#F" class="B"/><use xlink:href="#G" class="B"/><use xlink:href="#H" class="B"/><path d="M70.408 49.166l.949.265-2.262 8.258 2.869.833-.305.995-3.713-1.061 2.461-9.29z" class="B"/></g><g class="C"><path d="M31.31 58.197h.972c.496 0 .745.192.745.576 0 .212-.106.372-.317.483.136.035.241.098.317.19s.117.211.117.358c0 .223-.076.393-.227.51s-.368.176-.655.176h-.969v-.279l.114-.01c.067-.007.1-.039.1-.096V58.5l-.197-.01v-.293zm.617 1.248v.721h.324c.299 0 .448-.122.448-.366 0-.115-.038-.202-.114-.262s-.179-.093-.317-.093h-.341zm0-.931v.624h.255c.142 0 .247-.029.314-.086s.103-.142.103-.248-.034-.18-.103-.224-.163-.066-.289-.066h-.279z"/><path d="M33.416 60.103l.555-1.607-.217-.021v-.279h.79l.703 1.989h.004l.197.01v.293h-.889v-.279l.131-.01c.039-.005.066-.014.079-.028s.015-.039.004-.076l-.072-.214h-.807l-.103.303.207.01v.293h-.796v-.279l.114-.01c.048-.005.083-.037.103-.096zm.879-1.52l-.321.982h.641l-.31-.982h-.01z"/><path d="M35.575 60.489v-.279l.114-.01c.067-.007.1-.039.1-.096V58.5l-.196-.01v-.293h.941c.267 0 .471.049.614.148s.214.261.214.486a.59.59 0 0 1-.124.386c-.08.101-.177.175-.29.221.083.03.148.1.197.21l.248.541.196.007v.293h-.851v-.279l.1-.01c.053-.007.079-.028.079-.062 0-.014-.005-.03-.014-.048l-.162-.345c-.025-.057-.054-.098-.086-.121s-.074-.038-.131-.038h-.314v.6l.224.01v.293h-.858zm.634-1.231h.3c.283 0 .424-.126.424-.379 0-.145-.038-.239-.114-.283s-.193-.066-.358-.066h-.252v.727z"/><path d="M37.757 58.197h.972c.496 0 .745.192.745.576 0 .212-.106.372-.317.483.136.035.241.098.317.19s.117.211.117.358c0 .223-.076.393-.227.51s-.368.176-.655.176h-.969v-.279l.114-.01c.067-.007.1-.039.1-.096V58.5l-.197-.01v-.293zm.617 1.248v.721h.324c.299 0 .448-.122.448-.366 0-.115-.038-.202-.114-.262s-.179-.093-.317-.093h-.341zm0-.931v.624h.255c.143 0 .247-.029.314-.086a.31.31 0 0 0 .103-.248c0-.106-.034-.18-.103-.224s-.163-.066-.29-.066h-.279z"/><path d="M41.451 60.489h-1.637v-.279l.114-.01c.067-.007.1-.039.1-.096V58.5l-.196-.01v-.293h1.579v.572l-.352.024v-.138c0-.039-.006-.067-.017-.083s-.039-.024-.083-.024h-.51v.59h.796v.352h-.796v.645h.555c.041 0 .068-.008.079-.024s.017-.047.017-.086v-.172l.352.024v.614zm.248 0v-.279l.114-.01c.067-.007.1-.039.1-.096V58.5l-.197-.01v-.293h.941c.267 0 .471.049.614.148s.214.261.214.486a.59.59 0 0 1-.124.386c-.08.101-.177.175-.29.221.083.03.148.1.197.21l.248.541.197.007v.293h-.852v-.279l.1-.01c.053-.007.079-.028.079-.062 0-.014-.005-.03-.014-.048l-.162-.345a.29.29 0 0 0-.086-.121c-.032-.023-.074-.038-.131-.038h-.314v.6l.224.01v.293h-.858zm.634-1.231h.3c.283 0 .424-.126.424-.379 0-.145-.038-.239-.114-.283s-.193-.066-.358-.066h-.252v.727z"/><path d="M44.577 60.179c.276 0 .414-.11.414-.331 0-.115-.061-.2-.183-.255-.064-.032-.148-.062-.252-.09l-.255-.083c-.067-.03-.134-.07-.203-.121-.136-.101-.203-.256-.203-.465s.072-.377.217-.496.338-.183.572-.183a1.54 1.54 0 0 1 .658.141v.517l-.352.024v-.2a.16.16 0 0 0-.014-.076c-.025-.044-.107-.066-.245-.066s-.237.024-.303.073-.097.123-.097.224c0 .074.028.138.083.193.037.037.091.068.162.093l.231.072c.083.025.155.053.217.083a1.08 1.08 0 0 1 .2.124c.14.103.21.263.21.479s-.078.386-.234.51-.358.186-.614.186-.48-.047-.683-.141v-.545l.352-.024v.21c0 .034.005.06.014.076s.037.032.083.048a.78.78 0 0 0 .224.021zm2.491 0c.276 0 .414-.11.414-.331 0-.115-.061-.2-.183-.255-.064-.032-.148-.062-.252-.09l-.255-.083c-.067-.03-.135-.07-.203-.121-.136-.101-.203-.256-.203-.465s.072-.377.217-.496.338-.183.572-.183a1.54 1.54 0 0 1 .658.141v.517l-.352.024v-.2a.16.16 0 0 0-.014-.076c-.025-.044-.107-.066-.245-.066s-.237.024-.303.073-.097.123-.097.224c0 .074.028.138.083.193.037.037.091.068.162.093l.231.072a1.54 1.54 0 0 1 .217.083 1.09 1.09 0 0 1 .2.124c.14.103.21.263.21.479s-.078.386-.234.51-.358.186-.614.186-.48-.047-.683-.141v-.545l.352-.024v.21c0 .034.005.06.014.076s.037.032.083.048a.78.78 0 0 0 .224.021z"/><path d="M49.759 60.086v-.596h-.976v.696l.2.01v.293h-.834v-.279l.114-.01c.067-.007.1-.039.1-.096V58.5l-.197-.01v-.293H49v.279l-.114.01c-.037.005-.063.015-.079.031s-.024.041-.024.083v.534h.976V58.5l-.197-.01v-.293h.834v.279l-.114.01c-.067.007-.1.044-.1.11v1.589l.197.01v.293h-.834v-.279l.114-.01c.035-.005.06-.014.076-.028s.024-.045.024-.086zm1.923-1.931a.91.91 0 0 1 .686.29c.184.193.276.488.276.886s-.092.695-.276.9-.429.303-.741.303-.554-.101-.731-.303-.265-.496-.265-.883c0-.212.031-.397.093-.555s.144-.285.245-.372c.204-.177.442-.265.714-.265zm-.621 1.176c0 .57.198.855.593.855.212 0 .36-.087.445-.262a1.24 1.24 0 0 0 .117-.565 1.44 1.44 0 0 0-.103-.552.48.48 0 0 0-.179-.217.54.54 0 0 0-.307-.079.47.47 0 0 0-.328.124.65.65 0 0 0-.186.3c-.034.117-.052.249-.052.396zm1.832 1.158v-.279l.114-.01c.067-.007.1-.039.1-.096V58.5l-.197-.01v-.293h.986c.257 0 .457.061.6.183s.217.3.217.541-.082.43-.245.565-.379.2-.648.2h-.293v.5l.331.01v.293h-.965zm.634-1.138h.248c.336 0 .503-.137.503-.41 0-.165-.044-.275-.131-.328s-.222-.083-.41-.083h-.21v.821zM34.476 42.803c-.05.427-.336.641-.859.641a1.46 1.46 0 0 1-.733-.183v-.763l.445-.031v.345a.2.2 0 0 0 .017.096c.012.02.042.041.092.061s.125.026.227.026.18-.031.227-.092.07-.166.07-.305v-1.723l-.34-.017v-.371h1.143v.353l-.144.013c-.084.009-.127.054-.127.135v1.357l-.017.458z"/><path d="M35.89 43.069c.317 0 .475-.256.475-.768 0-.259-.036-.455-.109-.589s-.189-.201-.358-.201-.288.064-.366.192-.118.302-.118.523c0 .41.076.667.227.772.067.047.15.07.249.07zm-1.003-.781c0-.215.032-.401.096-.558s.15-.282.257-.366c.206-.157.435-.236.685-.236a1 1 0 0 1 .441.087c.122.055.217.121.284.196s.128.18.174.323a1.49 1.49 0 0 1 .074.497c0 .401-.098.705-.292.912s-.445.31-.75.31-.539-.097-.711-.292-.258-.489-.258-.873zm2.57.611v-2.124c0-.047-.009-.079-.026-.096s-.042-.028-.083-.03l-.153-.009v-.362h.776v1.174c.151-.215.363-.323.637-.323.221 0 .391.064.51.192s.183.314.183.567v1.139l.249.013v.349h-1.038v-.332l.144-.013c.044-.006.076-.017.096-.035s.031-.057.031-.109V42c0-.151-.025-.268-.074-.349s-.14-.122-.279-.122a.44.44 0 0 0-.332.131.43.43 0 0 0-.122.31v1.056l.249.013v.349h-1.038v-.332l.144-.013c.044-.006.076-.017.096-.035s.03-.057.03-.109zm2.324-1.357v-.349h.737v.283c.076-.108.176-.192.301-.253a.88.88 0 0 1 .406-.096c.221 0 .391.064.51.192s.183.314.183.567v1.139l.249.013v.349h-1.038v-.332l.144-.013c.044-.006.076-.017.096-.035s.03-.057.03-.109V42c0-.16-.025-.278-.074-.353s-.144-.118-.283-.118-.246.044-.327.131a.44.44 0 0 0-.122.31v1.056l.249.013v.349h-1.038v-.332l.144-.013c.044-.006.076-.017.096-.035s.03-.057.03-.109V41.69c0-.087-.036-.132-.109-.135l-.183-.013zm3.519 1.845v-.353l.144-.013c.084-.009.127-.049.127-.122V40.87l-.249-.013v-.371h1.195c.427 0 .76.114.999.34s.362.563.362 1.008a2.18 2.18 0 0 1-.109.724c-.073.204-.172.363-.297.48-.25.233-.561.349-.934.349H43.3zm.803-2.478v2.059h.445c.25 0 .445-.09.584-.27s.21-.442.21-.785c0-.669-.284-1.003-.851-1.003h-.388z"/><path d="M47.2 43.069c.317 0 .475-.256.475-.768 0-.259-.036-.455-.109-.589s-.189-.201-.358-.201-.288.064-.367.192-.118.302-.118.523c0 .41.076.667.227.772.067.047.15.07.249.07zm-1.003-.781c0-.215.032-.401.096-.558s.15-.282.257-.366c.207-.157.435-.236.685-.236.175 0 .321.029.441.087s.217.121.284.196.128.18.174.323a1.6 1.6 0 0 1 .074.497c0 .401-.097.705-.292.912s-.445.31-.75.31-.54-.097-.711-.292-.257-.489-.257-.873zm3.4-1.16c.218 0 .391.054.519.161s.192.253.192.445c0 .128-.028.241-.083.34s-.124.172-.205.227-.18.1-.297.135c-.195.058-.414.087-.659.087a.59.59 0 0 0 .144.375c.087.096.221.14.401.14a.93.93 0 0 0 .541-.192l.166.353c-.058.052-.157.106-.297.161a1.25 1.25 0 0 1-.471.083c-.355 0-.615-.097-.781-.292s-.249-.468-.249-.811.095-.631.284-.864.454-.349.794-.349zm-.201.999a.75.75 0 0 0 .297-.127c.09-.067.135-.145.135-.236a.23.23 0 0 0-.262-.266c-.163 0-.288.065-.375.196s-.135.282-.144.462a2.41 2.41 0 0 0 .349-.031zm1.21-.912l.253-1.029c.177.02.311.054.401.1.055.029.083.074.083.135a.34.34 0 0 1-.048.174l-.414.72-.275-.1z"/><path d="M52.333 41.525c-.07-.026-.154-.039-.253-.039s-.179.023-.24.07-.087.099-.087.166.01.115.03.153.058.065.105.092c.073.038.16.071.262.1l.227.065c.049.014.111.041.183.078s.132.078.17.122c.102.108.153.246.153.414 0 .218-.08.39-.24.515s-.358.183-.602.183c-.355 0-.622-.045-.803-.135v-.606l.393-.031v.209c0 .128.122.192.366.192s.366-.089.366-.266c0-.064-.022-.116-.065-.157a.34.34 0 0 0-.122-.083l-.148-.044-.166-.044-.174-.057c-.061-.026-.13-.062-.205-.109-.148-.096-.223-.256-.223-.48s.08-.401.24-.524.361-.183.602-.183.486.058.724.175v.523l-.393.03v-.183c0-.073-.033-.122-.1-.148zm-15.598 20.64c-.213-.061-.368-.136-.465-.225a.43.43 0 0 1-.145-.331c0-.148.059-.271.177-.367s.273-.146.463-.146a.77.77 0 0 1 .345.075.56.56 0 0 1 .235.207c.055.088.084.184.084.288h-.249a.34.34 0 0 0-.109-.267.44.44 0 0 0-.306-.098c-.122 0-.218.027-.287.081s-.102.128-.102.224c0 .077.032.142.097.195s.176.101.332.145a1.54 1.54 0 0 1 .367.146.55.55 0 0 1 .196.185.47.47 0 0 1 .065.25.44.44 0 0 1-.178.367c-.119.091-.278.137-.477.137a.89.89 0 0 1-.362-.074.62.62 0 0 1-.26-.204.5.5 0 0 1-.091-.293h.249c0 .114.042.204.125.27a.53.53 0 0 0 .337.098.49.49 0 0 0 .301-.08.26.26 0 0 0 .105-.218c0-.092-.032-.163-.097-.213a1.13 1.13 0 0 0-.351-.15zm1.283.838h-.248v-1.882h.248v1.882zm1.901 0h-.249l-.947-1.45v1.45h-.249v-1.882h.249l.95 1.456v-1.456h.247v1.882zm1.825-.597a.69.69 0 0 1-.221.461.72.72 0 0 1-.492.162c-.222 0-.401-.08-.535-.239s-.2-.373-.2-.64v-.181a1.08 1.08 0 0 1 .093-.461.7.7 0 0 1 .266-.305c.115-.072.247-.107.398-.107.2 0 .36.056.481.168s.191.265.211.463h-.249c-.022-.15-.069-.258-.141-.326a.42.42 0 0 0-.301-.101c-.159 0-.283.059-.373.176s-.134.284-.134.5v.182c0 .204.043.367.128.487s.205.181.358.181c.138 0 .243-.031.316-.093s.123-.172.147-.327h.249zm1.403-.272h-.815v.667h.947v.203h-1.195v-1.882h1.182v.204h-.934v.605h.815v.203zm1.821.869h-.24V61.41l-.482.177v-.217l.685-.257h.037v1.891zm1.617-.827a.58.58 0 0 1-.18.143.48.48 0 0 1-.227.054c-.109 0-.203-.027-.284-.08s-.142-.128-.186-.225-.066-.205-.066-.322a.79.79 0 0 1 .071-.34.53.53 0 0 1 .204-.231.58.58 0 0 1 .308-.08c.186 0 .332.07.439.209s.161.328.161.569v.07c0 .366-.072.634-.217.803s-.363.254-.655.258h-.047v-.202h.05c.197-.004.349-.055.455-.154s.164-.258.173-.473zm-.368 0a.36.36 0 0 0 .221-.074.45.45 0 0 0 .149-.182v-.096c0-.157-.034-.284-.102-.383s-.154-.147-.259-.147-.19.041-.253.121a.5.5 0 0 0-.096.318c0 .132.03.234.092.318a.29.29 0 0 0 .248.124z"/><path d="M47.502 61.946h.18c.113-.002.202-.031.266-.089a.3.3 0 0 0 .097-.234c0-.221-.11-.331-.33-.331-.103 0-.186.03-.248.089s-.092.136-.092.234h-.239a.48.48 0 0 1 .163-.371c.109-.099.248-.149.416-.149.178 0 .317.047.417.141s.151.224.151.392a.41.41 0 0 1-.08.238c-.053.077-.124.134-.216.172a.46.46 0 0 1 .239.163.45.45 0 0 1 .085.278c0 .169-.055.303-.165.402a.62.62 0 0 1-.43.149c-.177 0-.321-.048-.432-.143s-.165-.222-.165-.379h.24c0 .099.032.178.097.238s.151.089.26.089c.115 0 .204-.03.265-.09s.092-.147.092-.26-.034-.193-.101-.252-.164-.089-.291-.09h-.18v-.195zm2.077-.825v.203h-.044a.63.63 0 0 0-.444.166c-.11.107-.174.257-.191.451a.51.51 0 0 1 .406-.171c.164 0 .294.058.392.173s.147.264.147.447c0 .194-.053.349-.159.465s-.246.175-.424.175a.54.54 0 0 1-.438-.207c-.112-.138-.168-.317-.168-.535v-.092c0-.346.074-.611.221-.793s.368-.277.66-.282h.043zm-.314.848a.38.38 0 0 0-.226.074c-.069.049-.117.111-.144.185v.088c0 .155.035.28.105.375s.157.142.261.142.192-.04.253-.119a.49.49 0 0 0 .093-.311c0-.129-.032-.233-.094-.313s-.145-.12-.248-.12z"/></g></g><defs><clipPath id="A"><path fill="#fff" d="M0 0h88.846v110H0z"/></clipPath><path id="B" d="M20.765 53.08c.761 3.217-.241 5.248-1.939 5.712-1.758.477-3.561-1.016-4.415-3.792-.896-2.917-.045-5.275 1.92-5.805 2.018-.544 3.79 1.114 4.434 3.885zm-5.402 1.591c.583 1.968 1.88 3.492 3.246 3.121s1.729-2.318 1.207-4.434c-.456-1.856-1.697-3.612-3.262-3.182s-1.779 2.485-1.18 4.506l-.011-.011z"/><path id="C" d="M26.164 47.323a10.2 10.2 0 0 1 2.018-.53c1.39-.207 2.437.085 3.182.777s1.254 1.764 1.424 3.307-.05 2.872-.583 3.827-1.522 1.591-2.84 1.782a11.61 11.61 0 0 1-1.61.146l-1.591-9.308zm2.312 8.221c.304.01.608-.013.907-.069 1.893-.287 2.742-1.872 2.44-4.442-.265-2.243-1.427-3.575-3.447-3.272-.379.049-.749.151-1.101.302l1.201 7.481z"/><path id="D" d="M36.393 54.077c.474.357 1.054.544 1.647.53.91-.056 1.413-.745 1.371-1.713-.04-.896-.448-1.419-1.435-1.838-1.172-.498-1.994-1.236-2.098-2.586-.117-1.49.772-2.678 2.238-2.758.589-.053 1.179.085 1.684.392l-.225 1.021a2.44 2.44 0 0 0-1.437-.387c-1.021.056-1.355.867-1.31 1.52.061.896.53 1.305 1.562 1.761 1.257.562 1.896 1.326 1.947 2.739.05 1.48-.687 2.779-2.297 2.875-.634.04-1.264-.132-1.79-.488l.143-1.069z"/><path id="E" d="M46.43 55.032c-.556.306-1.185.452-1.819.422-1.928-.018-3.424-1.679-3.506-4.826-.08-3.005 1.469-5.097 3.811-5.07.625-.023 1.244.138 1.779.461l-.265 1.005a2.79 2.79 0 0 0-1.498-.427c-1.753-.021-2.893 1.445-2.851 3.978.037 2.35 1.037 3.835 2.718 3.853a2.86 2.86 0 0 0 1.469-.371l.162.976z"/><path id="F" d="M48.875 45.832l-.188 4.023 3.5.233.34-4.002.981.088-.896 9.547-.894-.08.379-4.487-3.463-.231-.223 4.508-.883-.037.385-9.595.963.032z"/><path id="G" d="M60.788 51.874c-.565 3.257-2.278 4.733-4.012 4.492-1.793-.249-2.848-2.328-2.543-5.219.321-3.031 2.016-4.866 4.02-4.588 2.047.286 3.02 2.501 2.535 5.315zm-5.569-.647c-.239 2.039.347 3.949 1.742 4.145s2.487-1.453 2.837-3.607c.308-1.883-.138-3.978-1.737-4.209s-2.596 1.578-2.837 3.67h-.005z"/><path id="H" d="M68.03 53.406c-.796 3.206-2.628 4.551-4.344 4.182-1.774-.385-2.678-2.535-2.161-5.397.546-2.999 2.387-4.702 4.357-4.275 2.029.44 2.84 2.734 2.148 5.49zm-5.519-1.061c-.387 2.013.058 3.962 1.437 4.262s2.596-1.265 3.105-3.384c.446-1.856.154-3.978-1.429-4.328s-2.718 1.382-3.113 3.453v-.003z"/></defs></svg>