<svg width="77" height="110" viewBox="0 0 77 110" fill="none" xmlns="http://www.w3.org/2000/svg">
<g clip-path="url(#clip0_391_1482)">
<path d="M13.3927 107.481C12.8037 108.325 11.9802 108.958 10.9218 109.379C9.8714 109.793 8.64591 110 7.24539 110C5.82893 110 4.57163 109.67 3.47349 109.009C2.37534 108.341 1.52388 107.394 0.919101 106.169C0.322282 104.943 0.0159152 103.523 0 101.907V100.391C0 97.7731 0.608756 95.744 1.82627 94.3039C3.05174 92.8637 4.77057 92.1428 6.98279 92.1428C8.79712 92.1428 10.2573 92.609 11.3634 93.5398C12.4695 94.463 13.1459 95.7762 13.3927 97.4787H11.1009C10.6711 95.1788 9.30245 94.0289 6.99472 94.0289C5.45891 94.0289 4.29312 94.5704 3.49737 95.6527C2.70956 96.7264 2.31168 98.2867 2.30372 100.332V101.752C2.30372 103.701 2.74935 105.253 3.6406 106.407C4.53185 107.553 5.73742 108.126 7.25733 108.126C8.11675 108.126 8.86871 108.03 9.51331 107.84C10.1579 107.649 10.691 107.326 11.1128 106.873V102.969H7.09022V101.108H13.3927V107.481Z" fill="#FEFEEF"/>
<path d="M23.1208 98.8275C22.7866 98.7716 22.4245 98.7437 22.0346 98.7437C20.5863 98.7437 19.6035 99.3606 19.0863 100.594V109.762H16.8781V96.8458H19.0266L19.0624 98.3384C19.7865 97.1843 20.8131 96.6072 22.142 96.6072C22.5717 96.6072 22.8979 96.663 23.1208 96.7747V98.8275Z" fill="#FEFEEF"/>
<path d="M32.658 109.761C32.5306 109.507 32.4271 109.053 32.3476 108.401C31.3211 109.467 30.0956 110 28.6712 110C27.3979 110 26.3516 109.642 25.5319 108.925C24.7203 108.202 24.3144 107.286 24.3144 106.181C24.3144 104.836 24.8237 103.794 25.8423 103.053C26.8688 102.305 28.3092 101.931 30.1633 101.931H32.3118V100.917C32.3118 100.145 32.0811 99.5315 31.6195 99.078C31.1579 98.6168 30.4776 98.3858 29.5784 98.3858C28.7905 98.3858 28.1301 98.5846 27.597 98.9832C27.0638 99.3809 26.7972 99.8623 26.7972 100.427H24.577C24.577 99.7828 24.8038 99.1617 25.2574 98.5652C25.7189 97.9602 26.3397 97.4829 27.1195 97.1326C27.9072 96.7823 28.7707 96.6072 29.7096 96.6072C31.1978 96.6072 32.3635 96.9812 33.207 97.7292C34.0505 98.4696 34.4882 99.4917 34.52 100.797V106.742C34.52 107.927 34.6712 108.87 34.9736 109.57V109.761H32.658ZM28.9935 108.078C29.6858 108.078 30.3423 107.899 30.963 107.541C31.5837 107.183 32.0333 106.718 32.3118 106.145V103.495H30.581C27.8754 103.495 26.5227 104.287 26.5227 105.87C26.5227 106.562 26.7534 107.104 27.2149 107.494C27.6765 107.883 28.2693 108.078 28.9935 108.078Z" fill="#FEFEEF"/>
<path d="M43.162 108.198C43.9498 108.198 44.6381 107.959 45.227 107.481C45.8158 107.004 46.1421 106.407 46.2058 105.691H48.2947C48.2549 106.431 48.0002 107.135 47.5307 107.803C47.0612 108.472 46.4325 109.005 45.6448 109.404C44.8649 109.801 44.0373 110 43.162 110C41.4033 110 40.0029 109.415 38.9604 108.245C37.9259 107.067 37.4086 105.46 37.4086 103.423V103.053C37.4086 101.796 37.6394 100.678 38.101 99.699C38.5625 98.72 39.223 97.9602 40.0824 97.4195C40.9498 96.878 41.9724 96.6072 43.15 96.6072C44.5983 96.6072 45.7999 97.0413 46.7548 97.9086C47.7177 98.7759 48.2309 99.9021 48.2947 101.286H46.2058C46.1421 100.451 45.8238 99.7667 45.2509 99.2336C44.6859 98.6921 43.9856 98.4222 43.15 98.4222C42.028 98.4222 41.1567 98.8275 40.536 99.6389C39.9232 100.443 39.6168 101.609 39.6168 103.137V103.554C39.6168 105.042 39.9232 106.188 40.536 106.992C41.1487 107.796 42.0241 108.198 43.162 108.198Z" fill="#FEFEEF"/>
<path d="M56.1368 110C54.3862 110 52.9618 109.427 51.8637 108.282C50.7655 107.127 50.2164 105.587 50.2164 103.662V103.256C50.2164 101.975 50.4591 100.833 50.9446 99.8302C51.4379 98.8199 52.1222 98.0321 52.9976 97.4669C53.8809 96.894 54.8358 96.6072 55.8623 96.6072C57.5414 96.6072 58.8464 97.1606 59.7775 98.2665C60.7085 99.3724 61.174 100.956 61.174 103.018V103.937H52.4247C52.4565 105.21 52.8265 106.24 53.5347 107.028C54.2509 107.808 55.1581 108.198 56.2562 108.198C57.036 108.198 57.6965 108.039 58.2377 107.721C58.7788 107.402 59.2523 106.98 59.6581 106.455L61.0069 107.506C59.9246 109.168 58.3013 110 56.1368 110ZM55.8623 98.4222C54.9711 98.4222 54.2231 98.7479 53.6182 99.4003C53.0135 100.045 52.6395 100.952 52.4962 102.122H58.9658V101.955C58.9021 100.833 58.5997 99.9656 58.0586 99.353C57.5175 98.7319 56.7854 98.4222 55.8623 98.4222Z" fill="#FEFEEF"/>
<path d="M62.9406 97.2756L61.6873 96.4168C62.4273 95.3819 62.8093 94.2921 62.8332 93.1455V91.427H65.0176V92.9788C65.0096 93.7742 64.8107 94.5705 64.4208 95.3658C64.0387 96.1536 63.5454 96.7908 62.9406 97.2756Z" fill="#FEFEEF"/>
<path d="M73.8624 106.335C73.8624 105.739 73.6356 105.277 73.182 104.951C72.7364 104.617 71.9525 104.33 70.8305 104.091C69.7165 103.853 68.8292 103.567 68.1687 103.233C67.5162 102.898 67.0308 102.5 66.7125 102.039C66.4022 101.577 66.247 101.027 66.247 100.391C66.247 99.3326 66.6926 98.4374 67.5838 97.7055C68.483 96.9736 69.6289 96.6072 71.0215 96.6072C72.4857 96.6072 73.6714 96.9854 74.5786 97.741C75.4937 98.4975 75.9513 99.4646 75.9513 100.642H73.7311C73.7311 100.037 73.4725 99.5163 72.9552 99.078C72.4459 98.6405 71.8014 98.4222 71.0215 98.4222C70.2178 98.4222 69.5891 98.5965 69.1356 98.9468C68.682 99.2971 68.4552 99.7549 68.4552 100.319C68.4552 100.853 68.6661 101.255 69.0878 101.525C69.5096 101.796 70.2695 102.055 71.3677 102.301C72.4738 102.548 73.369 102.842 74.0534 103.184C74.7377 103.526 75.243 103.941 75.5693 104.426C75.9035 104.903 76.0706 105.488 76.0706 106.181C76.0706 107.335 75.6091 108.261 74.686 108.962C73.7629 109.654 72.5653 110 71.0932 110C70.0587 110 69.1435 109.817 68.3477 109.451C67.552 109.085 66.9273 108.576 66.4738 107.923C66.0281 107.263 65.8053 106.55 65.8053 105.786H68.0135C68.0534 106.527 68.3477 107.116 68.8968 107.553C69.4539 107.983 70.186 108.198 71.0932 108.198C71.9287 108.198 72.5971 108.03 73.0985 107.696C73.6078 107.354 73.8624 106.901 73.8624 106.335Z" fill="#FEFEEF"/>
<path fill-rule="evenodd" clip-rule="evenodd" d="M31.6116 63.8357C29.5928 65.1499 28.0921 67.1232 27.3649 69.4197C26.6377 71.716 26.7291 74.1935 27.6236 76.4301C28.5179 78.6667 30.16 80.5241 32.2701 81.6858C34.3802 82.8477 36.8279 83.2421 39.1961 82.8018C41.5643 82.3617 43.7067 81.1141 45.2583 79.2717C46.81 77.4292 47.675 75.1058 47.7059 72.6972C47.7369 70.2887 46.9319 67.9438 45.4282 66.062C43.9244 64.1804 41.8147 62.8781 39.4586 62.3771C39.0444 62.2902 38.6254 62.2277 38.2038 62.1898L40.5832 49.3394L27.8551 14.0154L34.2273 62.6135C33.303 62.8978 32.4227 63.3092 31.6116 63.8357ZM30.5441 71.1695C30.8762 69.6097 31.7387 68.2132 32.9849 67.2181C34.2311 66.2229 35.7837 65.6906 37.3784 65.7117C38.9729 65.733 40.5109 66.3063 41.7302 67.3343C42.9494 68.3622 43.7746 69.7811 44.0651 71.3492C44.3556 72.9173 44.0934 74.5375 43.3232 75.934C42.553 77.3305 41.3225 78.4167 39.8413 79.0078C38.3601 79.5987 36.7198 79.6579 35.1999 79.1751C33.6799 78.6923 32.3744 77.6975 31.5056 76.3601C31.0109 75.598 30.6713 74.7459 30.5063 73.8524C30.3414 72.9589 30.3542 72.0417 30.5441 71.1532V71.1695Z" fill="#FEFEEF"/>
<path fill-rule="evenodd" clip-rule="evenodd" d="M32.8828 0.58667C35.3763 10.0146 25.875 19.0758 17.0827 25.2605L12.8129 21.4959C16.0723 18.5461 19.1769 16.3379 22.2815 13.5592C27.904 8.52339 29.8026 7.12183 32.8746 0.58667H32.8828ZM15.5345 26.3524L11.3135 22.9138C6.3103 27.7213 3.7435 31.0623 3.70276 37.1982C8.61631 32.5943 9.89569 30.3696 15.4938 26.3524H15.5345Z" fill="#FEFEEF"/>
<path fill-rule="evenodd" clip-rule="evenodd" d="M40.0373 0C44.6575 14.5941 36.3378 23.199 24.7424 32.2358C22.1674 29.7912 21.434 29.1068 19.3398 27.257C30.1693 17.772 36.183 14.8793 40.0373 0ZM23.8459 32.9284C21.0917 30.8342 20.3177 30.2393 18.0523 28.3978L16.6345 29.6853C7.13327 38.4042 -0.298246 45.2817 5.4465 56.4533C6.06579 51.9227 6.99473 45.7706 15.4285 39.3413C18.3131 37.1412 21.157 35.0389 23.8459 32.961V32.9284Z" fill="#FEFEEF"/>
<path fill-rule="evenodd" clip-rule="evenodd" d="M45.5132 7.97754C46.8087 12.6793 47.2651 18.4159 45.3828 23.3295C42.7182 30.2802 37.389 34.9086 32.0109 39.1296L26.2499 33.6863L27.3989 32.9611C42.3352 23.5088 43.4923 16.1099 45.5132 7.97754ZM31.9946 39.1133L25.4757 34.1671C14.4426 41.3053 7.80965 47.3352 8.50231 59.3543C8.92598 66.7695 13.6034 74.1766 20.9371 78.4953C19.2095 75.0892 16.8627 66.7858 16.4634 63.013C15.1841 51.2628 23.6423 45.6892 31.9946 39.1133Z" fill="#FEFEEF"/>
<path fill-rule="evenodd" clip-rule="evenodd" d="M12.0469 23.6306L50.7038 53.7803C51.4207 53.1297 52.2242 52.5813 53.0913 52.1507C55.253 51.0685 57.7231 50.7696 60.0806 51.3048C62.4379 51.8399 64.5368 53.1762 66.0193 55.0857C67.5017 56.9952 68.2761 59.3598 68.2103 61.7762C68.1445 64.1928 67.2427 66.5118 65.6584 68.3378C64.0742 70.1638 61.9059 71.3838 59.5228 71.79C57.1398 72.1961 54.6895 71.7632 52.59 70.565C50.4903 69.3668 48.8713 67.4775 48.0088 65.2192C47.1462 62.9609 47.0936 60.4733 47.86 58.1806C47.9871 57.7778 48.145 57.3856 48.3326 57.0072L36.0527 52.5417L12.0469 23.6306ZM59.9361 54.9049C58.42 54.3965 56.7745 54.4297 55.2801 54.9988C53.7857 55.5679 52.535 56.6377 51.741 58.0258C50.9472 59.414 50.6593 61.0345 50.9265 62.6111C51.1937 64.1877 51.9995 65.6229 53.2065 66.6718C54.4134 67.7208 55.9468 68.3187 57.5453 68.3636C59.1438 68.4086 60.7083 67.8977 61.9723 66.9181C63.2362 65.9385 64.1213 64.5509 64.4766 62.9917C64.8319 61.4326 64.6355 59.7985 63.9208 58.368C63.5183 57.5552 62.959 56.8301 62.2751 56.2344C61.5913 55.6386 60.7964 55.1839 59.9361 54.8967V54.9049Z" fill="#FEFEEF"/>
<path d="M33.0296 45.4529C33.9252 45.4529 34.6512 44.7269 34.6512 43.8313C34.6512 42.9357 33.9252 42.2097 33.0296 42.2097C32.1341 42.2097 31.4081 42.9357 31.4081 43.8313C31.4081 44.7269 32.1341 45.4529 33.0296 45.4529Z" fill="#FEFEEF"/>
<path fill-rule="evenodd" clip-rule="evenodd" d="M65.689 57.5779C65.3818 57.6089 65.0992 57.7596 64.9024 57.9976C64.7056 58.2356 64.6105 58.5415 64.6378 58.8491C64.6279 59.0013 64.6485 59.154 64.6983 59.2983C64.7479 59.4425 64.8259 59.5754 64.9276 59.6891C65.0292 59.8029 65.1525 59.8953 65.2902 59.9609C65.428 60.0266 65.5774 60.0641 65.7298 60.0713H70.0974C70.4046 60.0404 70.6873 59.8896 70.8841 59.6516C71.0808 59.4137 71.1759 59.1077 71.1486 58.8001C71.1574 58.6482 71.1361 58.496 71.086 58.3522C71.0358 58.2084 70.9578 58.0759 70.8563 57.9624C70.755 57.8488 70.6321 57.7564 70.4948 57.6904C70.3576 57.6244 70.2087 57.5862 70.0567 57.5779H65.689Z" fill="#FEFEEF"/>
</g>
<defs>
<clipPath id="clip0_391_1482">
<rect width="76.1538" height="110" fill="white"/>
</clipPath>
</defs>
</svg>
