<svg width="135" height="110" viewBox="0 0 135 110" fill="none" xmlns="http://www.w3.org/2000/svg">
<g clip-path="url(#clip0_391_1605)">
<path d="M67.1858 45.4998C67.5649 45.6055 67.8634 45.7982 68.0809 46.078C68.2985 46.3514 68.4073 46.6996 68.4073 47.1223C68.4073 47.688 68.1929 48.1232 67.7639 48.4277C67.3412 48.7323 66.7227 48.8847 65.9083 48.8847H62.7938V42.3574H65.7218C66.4677 42.3574 67.0428 42.5066 67.4468 42.805C67.8571 43.1034 68.0623 43.5167 68.0623 44.0452C68.0623 44.3871 67.9815 44.6823 67.8199 44.931C67.6645 45.1797 67.4531 45.3693 67.1858 45.4998ZM63.7263 43.1127V45.2014H65.6379C66.1166 45.2014 66.4833 45.1144 66.7382 44.9403C66.9993 44.7601 67.1299 44.499 67.1299 44.1571C67.1299 43.8152 66.9993 43.5572 66.7382 43.3831C66.4833 43.2028 66.1166 43.1127 65.6379 43.1127H63.7263ZM65.871 48.1294C66.3994 48.1294 66.7972 48.0423 67.0645 47.8683C67.3318 47.6942 67.4655 47.4207 67.4655 47.0477C67.4655 46.3204 66.934 45.9567 65.871 45.9567H63.7263V48.1294H65.871Z" fill="#FEFEEF"/>
<path d="M74.0099 47.2528H70.5411L69.8232 48.8847H68.8627L71.8186 42.3574H72.7417L75.707 48.8847H74.7279L74.0099 47.2528ZM73.6836 46.5069L72.2755 43.3085L70.8675 46.5069H73.6836Z" fill="#FEFEEF"/>
<path d="M79.2482 48.9593C78.378 48.9593 77.7004 48.7106 77.2155 48.2133C76.7306 47.7159 76.4882 47.0011 76.4882 46.0686V42.3574H77.4206V46.0313C77.4206 47.43 78.033 48.1294 79.2576 48.1294C79.8543 48.1294 80.3113 47.9584 80.6283 47.6165C80.9454 47.2684 81.1038 46.74 81.1038 46.0313V42.3574H82.0084V46.0686C82.0084 47.0073 81.766 47.7253 81.281 48.2226C80.7962 48.7137 80.1186 48.9593 79.2482 48.9593Z" fill="#FEFEEF"/>
<path d="M85.0977 43.1686H82.8599V42.3574H88.2589V43.1686H86.0208V48.8847H85.0977V43.1686Z" fill="#FEFEEF"/>
<path d="M91.7002 46.6281V48.8847H90.7771V46.6094L88.1853 42.3574H89.1829L91.2721 45.7982L93.3697 42.3574H94.2928L91.7002 46.6281Z" fill="#FEFEEF"/>
<path d="M99.6456 48.9595C99.154 48.9595 98.6784 48.8848 98.219 48.7356C97.7646 48.5802 97.4075 48.3813 97.1461 48.1389L97.4913 47.4116C97.7401 47.6353 98.0574 47.8188 98.4424 47.9617C98.8341 48.0985 99.2352 48.1669 99.6456 48.1669C100.186 48.1669 100.59 48.0767 100.857 47.8964C101.125 47.7099 101.258 47.4644 101.258 47.1598C101.258 46.936 101.184 46.7557 101.035 46.6189C100.892 46.476 100.712 46.3672 100.494 46.2925C100.283 46.218 99.9807 46.1341 99.5898 46.0408C99.0981 45.9227 98.7004 45.8046 98.3958 45.6864C98.0971 45.5684 97.8399 45.3881 97.6216 45.1457C97.4109 44.897 97.3051 44.5644 97.3051 44.1479C97.3051 43.7998 97.3948 43.4859 97.5751 43.2061C97.7621 42.9264 98.0413 42.7026 98.4144 42.5348C98.7876 42.3669 99.2504 42.283 99.8038 42.283C100.19 42.283 100.569 42.3327 100.942 42.4321C101.314 42.5316 101.635 42.6746 101.902 42.8611L101.594 43.6071C101.321 43.4331 101.028 43.3025 100.718 43.2154C100.407 43.1222 100.103 43.0756 99.8038 43.0756C99.2758 43.0756 98.8773 43.1719 98.6108 43.3646C98.3493 43.5573 98.219 43.806 98.219 44.1107C98.219 44.3344 98.2934 44.5178 98.4424 44.6607C98.5913 44.7976 98.7749 44.9063 98.9924 44.9871C99.2166 45.0617 99.5178 45.1425 99.8969 45.2296C100.389 45.3476 100.783 45.4658 101.082 45.5839C101.379 45.702 101.635 45.8823 101.846 46.1248C102.064 46.3672 102.172 46.6935 102.172 47.1038C102.172 47.4458 102.079 47.7597 101.893 48.0456C101.706 48.3253 101.423 48.5492 101.044 48.717C100.665 48.8786 100.199 48.9595 99.6456 48.9595Z" fill="#FEFEEF"/>
<path d="M107.693 47.2528H104.225L103.507 48.8847H102.546L105.502 42.3574H106.425L109.391 48.8847H108.412L107.693 47.2528ZM107.367 46.5069L105.959 43.3085L104.551 46.5069H107.367Z" fill="#FEFEEF"/>
<path d="M110.364 42.3574H111.296V48.0734H114.831V48.8847H110.364V42.3574Z" fill="#FEFEEF"/>
<path d="M118.729 48.9595C118.07 48.9595 117.477 48.8165 116.948 48.5305C116.42 48.2384 116.003 47.8374 115.699 47.3276C115.4 46.8178 115.251 46.2491 115.251 45.6212C115.251 44.9934 115.4 44.4246 115.699 43.9148C116.003 43.405 116.42 43.0072 116.948 42.7213C117.477 42.4291 118.07 42.283 118.729 42.283C119.381 42.283 119.972 42.4291 120.501 42.7213C121.029 43.0072 121.443 43.405 121.741 43.9148C122.039 44.4183 122.188 44.9871 122.188 45.6212C122.188 46.2553 122.039 46.8272 121.741 47.337C121.443 47.8405 121.029 48.2384 120.501 48.5305C119.972 48.8165 119.381 48.9595 118.729 48.9595ZM118.729 48.1295C119.208 48.1295 119.637 48.0207 120.016 47.8032C120.401 47.5856 120.703 47.2872 120.92 46.908C121.144 46.5226 121.256 46.0937 121.256 45.6212C121.256 45.1488 121.144 44.7229 120.92 44.3438C120.703 43.9583 120.401 43.6568 120.016 43.4392C119.637 43.2217 119.208 43.1129 118.729 43.1129C118.25 43.1129 117.815 43.2217 117.423 43.4392C117.038 43.6568 116.734 43.9583 116.509 44.3438C116.292 44.7229 116.184 45.1488 116.184 45.6212C116.184 46.0937 116.292 46.5226 116.509 46.908C116.734 47.2872 117.038 47.5856 117.423 47.8032C117.815 48.0207 118.25 48.1295 118.729 48.1295Z" fill="#FEFEEF"/>
<path d="M129.227 42.3574V48.8847H128.462L124.546 44.0172V48.8847H123.614V42.3574H124.378L128.295 47.2249V42.3574H129.227Z" fill="#FEFEEF"/>
<path d="M49.913 32.8385H59.3378V34.983H47.2768V15.0952H49.913V32.8385Z" fill="#FEFEEF"/>
<path d="M73.5707 25.7903H64.9518V32.8385H74.9639V34.983H62.3292V15.0952H74.8273V17.2533H64.9518V23.6459H73.5707V25.7903Z" fill="#FEFEEF"/>
<path d="M81.0422 34.983H78.4197V15.0952H81.0422V34.983Z" fill="#FEFEEF"/>
<path d="M97.0784 29.7925H88.7463L86.8746 34.983H84.1702L91.7645 15.0952H94.0593L101.668 34.983H98.9772L97.0784 29.7925ZM89.5383 27.6344H96.2999L92.9119 18.3324L89.5383 27.6344Z" fill="#FEFEEF"/>
<path d="M27.2824 7.87167C18.7347 6.09999 10.1871 12.8914 7.50624 19.0923C4.82541 25.2933 6.21633 33.9963 9.27789 34.7345C10.1638 17.6392 27.1502 10.5291 27.1502 10.5291C32.8616 7.57639 40.3602 6.49628 40.3602 6.49628C40.3602 6.49628 37.8114 0.396395 24.0342 9.70271e-05C9.86851 -0.194167 4.55344 13.482 4.55344 13.482C14.593 3.14717 27.2824 7.87167 27.2824 7.87167Z" fill="#FEFEEF"/>
<path d="M34.6647 88.452C46.88 76.0816 46.6236 63.4467 42.3343 53.7724C42.5907 64.8455 33.7866 68.0935 33.2271 68.3655C33.569 68.2023 36.2732 66.6482 38.2081 58.6445C40.2751 50.0969 31.0203 38.5732 31.0203 38.5732C28.2505 35.5185 26.1701 31.9037 24.9204 27.9742C21.6723 17.0954 29.9402 11.7415 29.9402 11.7415C21.6723 14.3679 13.9018 26.0781 12.6507 31.704C12.3399 33.1027 12.2078 34.5247 11.8737 35.9156C11.827 36.0944 11.7804 36.2886 11.726 36.4829C10.5638 36.2308 9.45426 35.7785 8.44684 35.1464C8.75263 35.7212 9.17545 36.2256 9.68805 36.6271C10.2007 37.0287 10.7916 37.3183 11.4229 37.4776C11.1698 38.3304 10.7468 39.1233 10.1797 39.8087C9.13839 40.9509 8.33806 41.8446 7.21132 42.9169C6.35353 43.663 5.59607 44.5171 4.95786 45.4579C4.64546 45.9211 4.47086 46.4634 4.45435 47.0218C4.43785 47.5803 4.58011 48.1319 4.86461 48.6128C5.64167 49.6307 7.25017 49.9493 7.56877 51.1693C7.94175 52.6301 6.01465 53.9122 6.31771 55.3965C6.52751 56.5387 7.92622 57.1215 8.24481 58.2405C7.94921 58.2391 7.65881 58.3181 7.4046 58.4689C7.1504 58.6198 6.94195 58.8369 6.80152 59.097C6.6611 59.3571 6.59396 59.6505 6.60729 59.9458C6.62062 60.2411 6.71391 60.5273 6.87719 60.7737C7.49106 61.7062 9.02966 61.9859 9.20837 63.1048C9.3094 63.8042 8.77319 64.4103 8.4313 65.032C7.44444 66.8425 8.20595 69.2513 9.79111 70.5801C11.4618 71.8246 13.5392 72.396 15.6113 72.1809C18.3077 72.0254 20.7321 72.0099 23.4363 71.8933C24.8466 71.7063 26.2814 71.9079 27.5857 72.4761C28.2478 72.8681 28.8176 73.3981 29.2564 74.0302C29.5091 74.3645 29.7984 74.6695 30.1189 74.9394C30.896 75.5921 32.4501 77.5814 31.2457 82.71C29.6916 89.4005 17.1732 100.225 17.1732 110.062C17.1732 110.062 24.7417 98.9815 34.0975 92.7496C44.7198 85.6631 53.2829 85.2738 59.1886 84.0931C48.0456 80.4876 34.6647 88.452 34.6647 88.452Z" fill="#FEFEEF"/>
<path d="M7.45197 79.0654L8.87395 82.632C9.0948 83.189 9.42725 83.6949 9.85084 84.1185C10.2745 84.5422 10.7803 84.8744 11.3373 85.0952L14.9117 86.5176L11.3373 87.9391C10.7803 88.16 10.2745 88.4925 9.85084 88.9164C9.42725 89.3404 9.0948 89.8455 8.87395 90.4031L7.45197 93.9697L6.03772 90.4031C5.81566 89.8455 5.48187 89.3395 5.05692 88.9156C4.63196 88.4917 4.12481 88.16 3.56668 87.9391L0 86.5176L3.56668 85.0952C4.12481 84.8752 4.63196 84.5428 5.05692 84.1192C5.48187 83.6957 5.81566 83.1895 6.03772 82.632L7.45197 79.0654Z" fill="#FEFEEF"/>
<path d="M124.251 14.3601L125.028 16.2328C125.144 16.525 125.319 16.7905 125.54 17.0136C125.762 17.2365 126.026 17.4124 126.318 17.5306L128.198 18.3076L126.318 19.0846C126.027 19.2019 125.763 19.3765 125.541 19.5982C125.32 19.8198 125.145 20.0839 125.028 20.3746L124.251 22.2473L123.474 20.3746C123.357 20.0839 123.182 19.8198 122.961 19.5982C122.739 19.3765 122.475 19.2019 122.184 19.0846L120.304 18.3076L122.184 17.5306C122.476 17.4124 122.74 17.2365 122.961 17.0136C123.183 16.7905 123.357 16.525 123.474 16.2328L124.251 14.3601Z" fill="#FEFEEF"/>
<path d="M117.918 25.4797L118.346 26.5521C118.412 26.7186 118.512 26.8698 118.639 26.9967C118.766 27.1236 118.917 27.2234 119.083 27.2903L120.156 27.7176L119.083 28.145C118.913 28.2162 118.76 28.3221 118.632 28.4558C118.506 28.5896 118.407 28.7483 118.346 28.9221L117.918 29.9944L117.491 28.9221C117.425 28.7441 117.322 28.5825 117.187 28.4484C117.054 28.3142 116.892 28.2107 116.713 28.145L115.641 27.7176L116.713 27.2903C116.888 27.2287 117.047 27.1313 117.181 27.004C117.315 26.8768 117.421 26.7228 117.491 26.5521L117.918 25.4797Z" fill="#FEFEEF"/>
<path d="M49.9644 71.1861C49.9644 71.1861 51.0911 58.8387 71.2868 59.9654C91.4828 61.0922 118.788 70.0672 134.493 49.4907C131.128 59.5924 128.509 65.2028 112.805 67.4407C97.1004 69.6787 77.309 61.0455 64.5575 62.9416C49.5914 65.2028 49.9644 71.1861 49.9644 71.1861Z" fill="#FEFEEF"/>
<path d="M54.7748 70.8131C54.7748 70.8131 57.4401 63.9673 68.7618 67.9147C80.0836 71.8621 94.1795 81.451 106.496 72.2662C102.921 77.4725 100.512 80.2388 91.1951 78.9489C81.8785 77.659 72.0177 69.5154 64.4336 68.513C55.5441 67.3397 54.7748 70.8131 54.7748 70.8131Z" fill="#FEFEEF"/>
</g>
<defs>
<clipPath id="clip0_391_1605">
<rect width="134.538" height="110" fill="white"/>
</clipPath>
</defs>
</svg>
