<svg width="176" height="110" viewBox="0 0 176 110" fill="none" xmlns="http://www.w3.org/2000/svg">
<path d="M12.3142 70.6764V86.5091H9.74041V79.7237H2.57369V86.5091H0V70.6764H2.57369V77.213H9.74041V70.6764H12.3142ZM30.487 82.845H23.5579L22.1918 86.5091H19.539L25.7752 70.6764H28.3093L34.5653 86.5091H31.8728L30.487 82.845ZM29.6358 80.5379L27.0224 73.6168L24.429 80.5379H29.6358ZM41.7991 70.6764H44.3728V86.5091H41.7991V70.6764ZM62.66 86.5091L59.8288 81.8724C59.7101 81.8875 59.5319 81.895 59.2943 81.895H56.1663V86.5091H53.5926V70.6764H59.2943C60.4954 70.6764 61.5381 70.9025 62.4224 71.3549C63.3198 71.8073 64.0062 72.4556 64.4813 73.3C64.9565 74.1445 65.194 75.1472 65.194 76.3083C65.194 77.4995 64.9366 78.5249 64.4219 79.3844C63.9204 80.2438 63.1945 80.8848 62.2442 81.307L65.4316 86.5091H62.66ZM62.6005 76.3083C62.6005 75.2981 62.3102 74.5215 61.7295 73.9786C61.1487 73.4358 60.2974 73.1644 59.1755 73.1644H56.1663V79.4749H59.1755C60.2974 79.4749 61.1487 79.2035 61.7295 78.6606C62.3102 78.1027 62.6005 77.3185 62.6005 76.3083ZM88.7835 86.735C87.7148 86.735 86.6783 86.5616 85.6756 86.2155C84.6856 85.8686 83.9004 85.4083 83.3197 84.8354L84.2105 82.551C84.7778 83.0636 85.4708 83.4859 86.2891 83.8176C87.1208 84.1343 87.9526 84.2926 88.7835 84.2926C89.8133 84.2926 90.5791 84.1041 91.08 83.7271C91.5945 83.3502 91.8517 82.8525 91.8517 82.2342C91.8517 81.7819 91.707 81.4125 91.4176 81.126C91.1401 80.8244 90.783 80.5907 90.3481 80.4248C89.9123 80.2589 89.3183 80.0705 88.5661 79.8593C87.5101 79.5729 86.6521 79.2864 85.9921 78.9998C85.3456 78.7134 84.7846 78.2686 84.3095 77.6654C83.8475 77.0472 83.6166 76.2178 83.6166 75.1774C83.6166 74.3028 83.8211 73.5112 84.2303 72.8024C84.6526 72.0787 85.2796 71.5056 86.1114 71.0834C86.9558 70.6613 87.9856 70.4502 89.1998 70.4502C90.0443 70.4502 90.8761 70.5708 91.6943 70.812C92.5125 71.0532 93.2182 71.4001 93.8131 71.8525L92.9999 74.1369C92.3941 73.7298 91.7603 73.4207 91.1003 73.2096C90.4403 72.9985 89.7998 72.8929 89.1795 72.8929C88.1633 72.8929 87.4043 73.0889 86.9025 73.481C86.4143 73.8731 86.1706 74.3934 86.1706 75.0416C86.1706 75.494 86.3094 75.8636 86.5861 76.15C86.8763 76.4365 87.2393 76.6627 87.6751 76.8285C88.1108 76.9944 88.7048 77.1829 89.4571 77.394C90.486 77.6654 91.3313 77.9519 91.9905 78.2535C92.6513 78.54 93.2123 78.9848 93.6743 79.588C94.149 80.1911 94.3868 81.0054 94.3868 82.0307C94.3868 82.9053 94.1752 83.697 93.753 84.4057C93.3443 85.1146 92.7165 85.6799 91.872 86.1021C91.0275 86.5243 89.9978 86.735 88.7835 86.735ZM111.398 82.845H104.469L103.103 86.5091H100.449L106.686 70.6764H109.22L115.476 86.5091H112.784L111.398 82.845ZM110.547 80.5379L107.933 73.6168L105.34 80.5379H110.547ZM122.71 70.6764H125.284V84.0212H132.53V86.5091H122.71V70.6764ZM146.507 86.735C145.095 86.735 143.821 86.3889 142.686 85.6951C141.551 84.986 140.66 84.0136 140.013 82.7772C139.366 81.5256 139.043 80.1308 139.043 78.5928C139.043 77.0547 139.366 75.6675 140.013 74.4309C140.66 73.1795 141.551 72.2068 142.686 71.5132C143.821 70.8046 145.095 70.4502 146.507 70.4502C147.92 70.4502 149.193 70.8046 150.328 71.5132C151.463 72.2068 152.354 73.1719 153.001 74.4084C153.647 75.6448 153.97 77.0396 153.97 78.5928C153.97 80.1459 153.647 81.5407 153.001 82.7772C152.354 84.0136 151.463 84.986 150.328 85.6951C149.193 86.3889 147.92 86.735 146.507 86.735ZM146.507 84.1569C147.43 84.1569 148.261 83.9232 149.001 83.4558C149.74 82.9731 150.321 82.3097 150.743 81.4653C151.166 80.6058 151.377 79.6482 151.377 78.5928C151.377 77.5372 151.166 76.5873 150.743 75.7428C150.321 74.8833 149.74 74.2198 149.001 73.7524C148.261 73.2699 147.43 73.0286 146.507 73.0286C145.582 73.0286 144.752 73.2699 144.013 73.7524C143.273 74.2198 142.693 74.8833 142.271 75.7428C141.848 76.5873 141.636 77.5372 141.636 78.5928C141.636 79.6482 141.848 80.6058 142.271 81.4653C142.693 82.3097 143.273 82.9731 144.013 83.4558C144.752 83.9232 145.582 84.1569 146.507 84.1569ZM174.485 70.6764V86.5091H172.365L164.724 75.7881V86.5091H162.17V70.6764H164.288L171.931 81.3974V70.6764H174.485Z" fill="#FEFEEF"/>
<path d="M57.8234 100.694H58.4075V109.327H63.0232V109.934H57.8234V100.694ZM70.6027 110C69.5873 110 68.797 109.662 68.2319 108.984C67.6745 108.306 67.3958 107.316 67.3958 106.014V100.694H67.9799V105.988C67.9799 107.122 68.2052 107.972 68.6557 108.535C69.1061 109.098 69.759 109.38 70.6142 109.38C71.4618 109.38 72.1108 109.098 72.5612 108.535C73.0117 107.972 73.237 107.122 73.237 105.988V100.694H73.8211V106.014C73.8211 107.316 73.5386 108.306 72.9736 108.984C72.4086 109.662 71.6183 110 70.6027 110ZM84.516 109.934L81.7559 105.658L79.0071 109.934H78.3199L81.4008 105.169L78.5375 100.694H79.2247L81.7787 104.668L84.3328 100.694H84.986L82.1224 105.156L85.2035 109.934H84.516ZM92.9161 110C91.9008 110 91.1105 109.662 90.5452 108.984C89.9876 108.306 89.7092 107.316 89.7092 106.014V100.694H90.2931V105.988C90.2931 107.122 90.519 107.972 90.9692 108.535C91.4202 109.098 92.0725 109.38 92.928 109.38C93.775 109.38 94.424 109.098 94.875 108.535C95.3252 107.972 95.5502 107.122 95.5502 105.988V100.694H96.1349V106.014C96.1349 107.316 95.8523 108.306 95.2871 108.984C94.7218 109.662 93.9324 110 92.9161 110ZM107.368 109.934L105.455 106.846C105.173 106.89 104.913 106.912 104.677 106.912H102.386V109.934H101.802V100.694H104.677C105.684 100.694 106.475 100.972 107.047 101.526C107.62 102.072 107.907 102.832 107.907 103.81C107.907 104.54 107.742 105.156 107.414 105.658C107.093 106.15 106.631 106.498 106.028 106.7L108.033 109.934H107.368ZM104.677 106.318C105.531 106.318 106.185 106.102 106.635 105.67C107.086 105.23 107.311 104.61 107.311 103.81C107.311 103.008 107.086 102.392 106.635 101.962C106.185 101.522 105.531 101.302 104.677 101.302H102.386V106.318H104.677ZM115.46 106.753V109.934H114.876V106.753L111.646 100.694H112.287L115.185 106.132L118.083 100.694H118.69L115.46 106.753Z" fill="#FEFEEF"/>
<path d="M79.0006 24.6694C79.0356 24.7596 79.0755 24.8479 79.12 24.9338C79.0774 24.84 79.0433 24.7547 79.0006 24.6694Z" fill="#FEFEEF"/>
<path d="M79.0006 24.6694C79.0356 24.7596 79.0755 24.8479 79.12 24.9338C79.0774 24.84 79.0433 24.7547 79.0006 24.6694Z" fill="#FEFEEF"/>
<path d="M72.8524 19.7238C71.1856 19.4971 69.4908 19.8287 68.0324 20.6667C66.5738 21.5048 65.434 22.8022 64.7906 24.3564C64.1472 25.9105 64.0364 27.634 64.4756 29.2577C64.915 30.8815 65.8795 32.314 67.2187 33.3319C68.5579 34.3496 70.1965 34.8954 71.8785 34.8839C73.5605 34.8724 75.1914 34.3042 76.5166 33.2681C77.8417 32.2321 78.7865 30.7865 79.2035 29.1569C79.6205 27.5272 79.4861 25.8055 78.8215 24.2602C78.4975 23.1091 78.3014 20.7556 81.3797 19.1439C84.7905 17.3532 87.1614 19.1012 87.1614 19.1012L117.808 2.39624L72.8524 19.7238ZM76.6129 32.0201C75.5143 33.1169 74.0694 33.7988 72.5244 33.9497C70.9794 34.1007 69.4299 33.7114 68.1396 32.848C66.8495 31.9847 65.8985 30.7008 65.4487 29.2151C64.9989 27.7293 65.078 26.1336 65.6728 24.6997C66.2674 23.2657 67.3408 22.0822 68.7101 21.3509C70.0795 20.6196 71.6599 20.3855 73.1824 20.6887C74.7049 20.9919 76.0751 21.8135 77.0598 23.0136C78.0446 24.2137 78.5827 25.718 78.5828 27.2704C78.5841 28.1529 78.4109 29.027 78.0727 29.8422C77.7347 30.6574 77.2385 31.3976 76.6129 32.0201ZM86.2484 16.4151L87.6048 15.0593L88.9519 16.4151L87.6048 17.7625L86.2484 16.4151Z" fill="#FEFEEF"/>
<path d="M81.2688 0.0429261C80.6992 0.0371334 80.1353 0.1563 79.6167 0.392028C79.0981 0.627756 78.6375 0.9743 78.2673 1.40729C77.7591 1.98826 77.4775 2.73311 77.4743 3.50501V3.62439C77.4839 4.13677 77.6207 4.63874 77.8721 5.08524C78.1237 5.53174 78.4822 5.90879 78.9154 6.18258C79.282 6.38947 79.6969 6.4954 80.1177 6.48956C80.5407 6.49449 80.9569 6.38234 81.3201 6.16552C81.7137 5.92369 81.998 5.53848 82.1131 5.09109C82.1538 4.94685 82.174 4.79755 82.1728 4.64767C82.1735 4.24025 82.0385 3.84421 81.7891 3.52207C81.6572 3.35637 81.49 3.22216 81.2997 3.12922C81.1094 3.03628 80.9008 2.98696 80.6891 2.98485C80.5269 2.986 80.3658 3.01187 80.2115 3.06158C79.9849 3.13462 79.7838 3.27068 79.6316 3.45384C79.4718 3.63515 79.3838 3.86872 79.3844 4.11045C79.3869 4.38313 79.4973 4.64372 79.6914 4.83527L80.348 4.2213L80.2882 4.11045V4.0337C80.3322 3.97984 80.3918 3.94108 80.4588 3.92285H80.655C80.7321 3.92205 80.8083 3.94031 80.8767 3.97601C80.9451 4.01172 81.0037 4.06374 81.0472 4.1275C81.1695 4.28635 81.2354 4.48134 81.2347 4.68178V4.90348C81.1731 5.12414 81.0298 5.31311 80.834 5.43218C80.6137 5.55902 80.3633 5.62386 80.1092 5.61978C79.8521 5.6172 79.5999 5.54974 79.3758 5.42366C79.076 5.22787 78.829 4.96134 78.6565 4.64757C78.484 4.3338 78.3913 3.98242 78.3867 3.62439V3.54765C78.3978 2.99228 78.6029 2.4583 78.9665 2.03831C79.2535 1.70511 79.6096 1.43861 80.0103 1.25745C80.4109 1.07628 80.8463 0.984818 81.2859 0.989455C82.0444 0.999084 82.7834 1.23131 83.411 1.65731C84.0386 2.0833 84.5273 2.68429 84.8159 3.38563C84.9885 3.83481 85.0782 4.31151 85.0808 4.79263C84.9945 6.22324 84.3627 7.56628 83.3154 8.54468C82.0135 9.88279 80.3853 10.8585 78.5914 11.3757C76.7527 11.8938 74.8476 12.1381 72.9377 12.1006C69.9361 12.1006 66.8492 11.6656 64.0864 11.4098C62.6623 11.2819 61.2212 11.2137 59.8227 11.2137C58.6801 11.2137 57.5374 11.2137 56.4118 11.3586C53.5149 11.5817 50.6642 12.2133 47.9442 13.2347C45.5799 14.1554 43.4145 15.5218 41.5658 17.2596C39.669 18.986 38.35 21.2548 37.7881 23.7573C37.6414 24.4615 37.5643 25.1785 37.558 25.8977C37.5471 26.8202 37.7181 27.7359 38.061 28.5923C38.2621 29.0342 38.517 29.4495 38.82 29.8288C35.4692 28.3238 31.9674 27.1804 28.3741 26.4179C26.6339 26.0843 24.8674 25.9074 23.0956 25.8892C22.6181 25.8892 22.1491 25.8892 21.6716 25.8892C18.3871 25.989 15.1634 26.8008 12.2233 28.2683C9.12873 29.8422 6.71942 32.4972 5.45264 35.7297L6.30537 36.0537C7.49029 33.0254 9.7487 30.5393 12.6497 29.0699C15.4731 27.662 18.5691 26.8851 21.7227 26.7931C22.1832 26.7931 22.6437 26.7931 23.1041 26.7931C24.7965 26.7956 26.4855 26.944 28.1523 27.2365C32.7826 28.0892 37.7285 30.349 42.7682 32.4467C47.8078 34.5444 52.9412 36.4716 58.0576 36.4801C61.458 36.5123 64.7913 35.5328 67.6338 33.6661C69.3301 32.5937 70.8062 31.2074 71.9826 29.5815C73.1572 27.9818 73.8067 26.0572 73.8416 24.0729C73.8418 23.1091 73.6804 22.1522 73.3641 21.2418C72.7552 19.4847 71.6022 17.9674 70.0725 16.9099C68.6281 15.9237 66.9266 15.3813 65.1779 15.3494C64.3128 15.3339 63.4566 15.5238 62.6793 15.9037C61.8617 16.3144 61.1958 16.9743 60.7778 17.7882C60.4363 18.4378 60.2577 19.1606 60.2577 19.8945C60.2511 20.6865 60.4763 21.4631 60.9057 22.1287C61.2497 22.6476 61.7156 23.0743 62.2626 23.3717C62.8097 23.669 63.4212 23.8277 64.0438 23.8341H64.3849C65.123 23.7567 65.8211 23.4597 66.3888 22.9813C66.6843 22.7448 66.925 22.447 67.0943 22.1084C67.2636 21.7698 67.3575 21.3985 67.3694 21.0201C67.3726 20.6666 67.2979 20.3167 67.1505 19.9954C67.0031 19.6741 66.7867 19.3892 66.5167 19.1611C66.1725 18.8718 65.7457 18.6987 65.2973 18.6665H65.1693C64.7716 18.6645 64.3804 18.7675 64.0352 18.965C63.8327 19.0548 63.6512 19.1862 63.5028 19.3508C63.3544 19.5153 63.2424 19.7093 63.1739 19.92C63.1403 20.0481 63.1231 20.1799 63.1228 20.3123C63.1238 20.625 63.2356 20.927 63.4383 21.1651C63.5434 21.2883 63.6742 21.3873 63.8215 21.4551C63.9687 21.5228 64.129 21.5578 64.291 21.5573C64.4941 21.5579 64.6929 21.4986 64.8623 21.3868C64.9597 21.319 65.0418 21.2317 65.1035 21.1304C65.1652 21.029 65.205 20.916 65.2205 20.7984V20.7728C65.2204 20.6039 65.1599 20.4405 65.0499 20.3123C64.9871 20.2428 64.911 20.1866 64.826 20.147C64.7411 20.1075 64.649 20.0854 64.5554 20.0821V20.7217H64.3337L64.1631 20.6449C64.0959 20.5605 64.0625 20.4541 64.0693 20.3464V20.1845C64.095 20.0897 64.1402 20.0014 64.2018 19.9251C64.2634 19.8487 64.3403 19.786 64.4274 19.741C64.633 19.6258 64.8655 19.567 65.1011 19.5705H65.1779C65.4351 19.5932 65.6791 19.6944 65.8771 19.8604C66.0892 20.0335 66.2511 20.2602 66.3461 20.517C66.4086 20.6773 66.4405 20.848 66.4399 21.0201C66.4292 21.269 66.3641 21.5124 66.2492 21.7333C66.1343 21.9544 65.9723 22.1475 65.7748 22.2992C65.3518 22.6651 64.8292 22.8967 64.2739 22.9643H64.0267C63.5543 22.9585 63.0904 22.8383 62.6745 22.614C62.2587 22.3898 61.9034 22.0682 61.6391 21.6767C61.3156 21.1667 61.1441 20.5751 61.1444 19.9712C61.1411 19.3138 61.3193 18.6682 61.6593 18.1055C61.9994 17.5428 62.4881 17.0848 63.0716 16.7821C63.7223 16.4677 64.4384 16.3128 65.1609 16.3301C66.7264 16.3619 68.2491 16.8477 69.5439 17.7286C70.5914 18.441 71.4496 19.3981 72.0439 20.517C72.6382 21.6359 72.9509 22.8827 72.9548 24.1496C72.9199 25.9496 72.3237 27.6936 71.2493 29.1381C70.1395 30.6719 68.7475 31.9801 67.1476 32.9924C64.4379 34.7293 61.2758 35.6281 58.0576 35.5762C53.1885 35.5762 48.1403 33.7172 43.1177 31.6195L42.1712 31.2273C42.4327 31.1784 42.6895 31.107 42.9387 31.0141C43.4601 30.8269 43.9145 30.4899 44.2453 30.0454C44.576 29.601 44.7681 29.0688 44.7977 28.5156V28.4474C44.7939 27.9026 44.6236 27.3722 44.3096 26.927C43.9956 26.482 43.5529 26.1436 43.041 25.9574C42.8184 25.8826 42.5851 25.8452 42.3503 25.8466C41.8651 25.845 41.3914 25.994 40.9945 26.273C40.7826 26.4212 40.6073 26.6157 40.4817 26.8417C40.3561 27.0678 40.2836 27.3194 40.2696 27.5776V27.6714C40.2683 28.0638 40.4109 28.443 40.6704 28.7373C40.804 28.8851 40.9672 29.0032 41.1493 29.084C41.3315 29.1648 41.5286 29.2065 41.7277 29.2063H41.8557C42.0228 29.1888 42.1847 29.1374 42.3312 29.0554C42.4779 28.9733 42.6062 28.8621 42.7084 28.7287C42.888 28.5299 42.9882 28.2719 42.9899 28.0039V27.876C42.9675 27.6934 42.8868 27.523 42.7596 27.39C42.6205 27.2416 42.433 27.1479 42.2309 27.1256L42.1627 28.0296V27.9357L42.0945 28.0039L42.0263 28.1404C41.9069 28.2768 41.8472 28.3024 41.7619 28.3109C41.6881 28.3125 41.6149 28.2981 41.5471 28.2686C41.4794 28.2392 41.4188 28.1954 41.3696 28.1404C41.3134 28.0782 41.2701 28.0055 41.2423 27.9265C41.2145 27.8474 41.2027 27.7636 41.2076 27.6799C41.2141 27.5553 41.2499 27.434 41.3122 27.3258C41.3744 27.2176 41.4613 27.1257 41.5658 27.0574C41.8131 26.8786 42.1136 26.7884 42.4185 26.8016C42.552 26.7936 42.6857 26.8139 42.8107 26.8613C43.1451 26.9866 43.4339 27.2099 43.6394 27.502C43.8447 27.7942 43.9572 28.1414 43.9619 28.4985V28.5412C43.9435 28.9207 43.8118 29.286 43.5839 29.59C43.3559 29.894 43.042 30.1227 42.6828 30.2467C42.3295 30.3863 41.9541 30.4614 41.5742 30.4684C41.4693 30.4768 41.3638 30.4768 41.2588 30.4684C40.7236 30.3876 40.231 30.1294 39.8603 29.735C39.4539 29.3209 39.1323 28.8314 38.9138 28.2939C38.6136 27.5521 38.4657 26.7575 38.4788 25.9574C38.4856 25.2983 38.557 24.6413 38.6921 23.9961C39.2169 21.6737 40.4435 19.569 42.2053 17.9674C43.9727 16.3152 46.0391 15.0157 48.2938 14.1386C50.9303 13.1428 53.6955 12.5284 56.5056 12.3137C57.6226 12.2199 58.7397 12.1773 59.8568 12.1773C61.2638 12.1773 62.6708 12.2455 64.0693 12.3734C66.7981 12.6207 69.919 13.0642 73.006 13.0642C75.0056 13.0999 76.9995 12.8414 78.9239 12.2967C80.8651 11.7352 82.6278 10.6805 84.0402 9.23539C85.25 8.08766 85.9709 6.51783 86.053 4.85232C86.0479 4.26898 85.9379 3.69125 85.7289 3.14687C85.3922 2.23545 84.7838 1.4492 83.9865 0.894169C83.189 0.339146 82.2405 0.0420437 81.2688 0.0429261ZM64.3678 20.7728H64.5639L64.4104 20.9093L64.5639 20.7728H64.3678Z" fill="#FEFEEF"/>
<path d="M115.548 31.0056C115.503 30.9679 115.45 30.9397 115.393 30.9228C115.337 30.9058 115.277 30.9003 115.219 30.9066C115.16 30.9131 115.103 30.9311 115.052 30.9598C115 30.9885 114.954 31.0272 114.918 31.0738C114.556 31.5163 114.099 31.8713 113.581 32.112C113.062 32.3527 112.496 32.473 111.924 32.4636C110.898 32.4584 109.908 32.083 109.136 31.4063C110.047 29.9818 110.458 28.2951 110.305 26.6115C110.151 24.9279 109.443 23.3429 108.291 22.1057C107.139 20.8686 105.608 20.0496 103.94 19.7774C102.271 19.5052 100.559 19.7954 99.0736 20.6022C98.3442 20.8455 97.559 20.8723 96.8144 20.679C95.788 20.463 94.8174 20.0352 93.9662 19.4228C93.1141 18.8105 92.4 18.0272 91.8686 17.123L89.3098 18.7688C91.4404 18.9298 93.461 19.7798 95.0662 21.1906C95.4757 21.6788 95.7355 22.2755 95.8125 22.9083C95.8895 23.541 95.7812 24.1826 95.5011 24.755C95.5011 24.6954 95.5604 24.6442 95.5866 24.5844C94.9486 26.2727 94.93 28.1324 95.535 29.8328C96.1391 31.5332 97.3271 32.964 98.8883 33.8705C100.449 34.7772 102.28 35.1008 104.057 34.7838C105.834 34.4668 107.44 33.5299 108.59 32.1397C109.519 32.9239 110.692 33.3583 111.907 33.3676C112.612 33.3805 113.31 33.2338 113.949 32.9385C114.589 32.6431 115.153 32.2068 115.6 31.6621C115.642 31.6171 115.675 31.5636 115.696 31.505C115.717 31.4466 115.725 31.3843 115.72 31.3224C115.716 31.2605 115.698 31.2003 115.668 31.1458C115.639 31.0912 115.598 31.0434 115.548 31.0056ZM107.516 32.0203C106.417 33.117 104.972 33.7989 103.427 33.9498C101.882 34.1009 100.333 33.7115 99.0423 32.8482C97.7527 31.9849 96.8017 30.701 96.3515 29.2153C95.9022 27.7295 95.9809 26.1337 96.5757 24.6998C97.1706 23.2659 98.2435 22.0824 99.6134 21.3511C100.983 20.6198 102.563 20.3857 104.085 20.6889C105.608 20.9921 106.978 21.8137 107.962 23.0138C108.947 24.2139 109.486 25.7182 109.486 27.2705C109.486 28.153 109.313 29.027 108.975 29.8421C108.637 30.6572 108.141 31.3975 107.516 32.0203Z" fill="#FEFEEF"/>
<path d="M169.032 35.7723C167.771 32.5387 165.364 29.8825 162.269 28.3109C159.329 26.8443 156.106 26.0326 152.821 25.9317C152.344 25.9317 151.867 25.9317 151.397 25.9317C149.651 25.9311 147.907 26.0852 146.187 26.3922C142.593 27.1521 139.092 28.2956 135.742 29.8031C136.045 29.4258 136.297 29.01 136.491 28.5667C136.84 27.7118 137.011 26.7951 136.995 25.8721C136.991 25.153 136.917 24.4362 136.773 23.7317C136.209 21.2283 134.886 18.9595 132.987 17.2339C131.141 15.4964 128.978 14.1299 126.617 13.209C123.894 12.1877 121.041 11.556 118.141 11.333C116.998 11.2307 115.855 11.188 114.73 11.188C113.297 11.188 111.865 11.2562 110.466 11.3842C107.703 11.6399 104.608 12.0749 101.606 12.0749C99.6963 12.1113 97.7916 11.8671 95.9529 11.3501C94.1591 10.8328 92.5311 9.8571 91.2289 8.51899C90.1839 7.53975 89.5552 6.19658 89.4722 4.76696C89.4705 4.28546 89.5602 3.808 89.7362 3.35996C90.0256 2.65862 90.5139 2.05763 91.1417 1.63164C91.7695 1.20564 92.5082 0.973415 93.2664 0.963795C93.7047 0.960393 94.1388 1.05245 94.5382 1.23357C94.9367 1.4147 95.2921 1.68055 95.5772 2.01264C95.9402 2.43607 96.1425 2.97325 96.1492 3.53051V3.60725C96.1425 3.96483 96.0485 4.3154 95.8759 4.62882C95.7042 4.94223 95.4579 5.20911 95.1601 5.40651C94.9291 5.53034 94.671 5.59482 94.4095 5.59411C94.1523 5.59804 93.8993 5.53327 93.6759 5.40651C93.5786 5.34878 93.494 5.27232 93.4272 5.18155C93.3595 5.09079 93.3112 4.98754 93.2842 4.87782V4.65611C93.2799 4.45657 93.3434 4.26147 93.4627 4.10183C93.5067 4.03861 93.5659 3.98698 93.6336 3.95134C93.7022 3.9157 93.7783 3.89713 93.8553 3.89719H94.0516C94.121 3.91536 94.1828 3.95397 94.2302 4.00804V4.08477L94.1709 4.19564L94.8275 4.8096C95.012 4.63057 95.1212 4.38767 95.1322 4.13077C95.1432 3.87387 95.0552 3.62247 94.8868 3.42818C94.7319 3.24474 94.528 3.10879 94.2987 3.03592C94.1447 2.98483 93.9831 2.95892 93.8206 2.95918C93.6108 2.96195 93.4035 3.01162 93.2148 3.10456C93.0261 3.19749 92.8602 3.33135 92.7291 3.4964C92.4803 3.81855 92.3449 4.21458 92.3458 4.622C92.3449 4.77188 92.3644 4.92118 92.4059 5.06542C92.5175 5.5118 92.7993 5.89707 93.1902 6.13986C93.5566 6.34683 93.9712 6.45557 94.3926 6.45557C94.814 6.45557 95.2278 6.34683 95.595 6.13986C96.0308 5.86822 96.3912 5.49185 96.6451 5.04503C96.8981 4.59822 97.0352 4.09516 97.0445 3.58167V3.47082C97.0369 2.69709 96.7559 1.95091 96.2516 1.36458C95.881 0.93159 95.4207 0.585032 94.902 0.349303C94.3833 0.113576 93.8189 -0.00559122 93.2495 0.000201504C92.3077 0.00647817 91.3888 0.292789 90.6095 0.822719C89.831 1.35265 89.2269 2.10226 88.8749 2.97624C88.6659 3.52062 88.5559 4.09835 88.5508 4.68169C88.6295 6.34806 89.3512 7.91913 90.5638 9.06476C91.9769 10.5093 93.7394 11.5639 95.6796 12.1261C97.6046 12.6696 99.5982 12.9282 101.598 12.8935C104.684 12.8935 107.806 12.4501 110.535 12.2028C111.942 12.0749 113.348 12.0067 114.747 12.0067C115.872 12.0067 116.99 12.0067 118.098 12.1431C120.9 12.3837 123.653 13.021 126.276 14.0362C128.528 14.9135 130.592 16.2131 132.356 17.8649C134.12 19.4661 135.349 21.5707 135.878 23.8937C136.01 24.5392 136.078 25.1961 136.083 25.855C136.098 26.6545 135.953 27.4491 135.656 28.1915C135.437 28.729 135.115 29.2185 134.709 29.6326C134.338 30.0253 133.845 30.2833 133.311 30.3659C133.203 30.3744 133.095 30.3744 132.987 30.3659C132.607 30.3583 132.232 30.2832 131.878 30.1442C131.521 30.0173 131.209 29.7878 130.981 29.4845C130.754 29.1811 130.621 28.8174 130.6 28.4387V28.4473C130.605 28.0905 130.718 27.7437 130.924 27.4519C131.128 27.1599 131.417 26.9363 131.75 26.81C131.879 26.7634 132.015 26.7431 132.151 26.7504C132.456 26.7385 132.756 26.8286 133.004 27.0062C133.105 27.0777 133.19 27.1703 133.251 27.2779C133.314 27.3854 133.351 27.5051 133.362 27.6287C133.366 27.7982 133.305 27.9626 133.191 28.0891C133.143 28.1451 133.083 28.1895 133.014 28.219C132.947 28.2485 132.873 28.2625 132.8 28.2597C132.723 28.2597 132.662 28.2597 132.543 28.0891L132.475 27.9527L132.407 27.8845L132.348 27.0744C132.145 27.0966 131.958 27.1904 131.819 27.3387C131.689 27.4706 131.605 27.6411 131.58 27.8248V27.9527C131.585 28.2199 131.685 28.4766 131.861 28.6775C131.964 28.8102 132.093 28.9208 132.239 29.0028C132.386 29.0848 132.547 29.1366 132.714 29.1551H132.816C133.017 29.1548 133.215 29.113 133.399 29.0323C133.582 28.9516 133.746 28.8337 133.883 28.6861C134.142 28.3918 134.285 28.0125 134.283 27.6202V27.5946C134.268 27.3357 134.194 27.0835 134.067 26.8575C133.94 26.6314 133.763 26.4373 133.55 26.2899C133.156 26.0111 132.685 25.862 132.202 25.8635C131.965 25.8622 131.728 25.8996 131.503 25.9744C130.984 26.1507 130.53 26.4826 130.205 26.9249C129.881 27.3672 129.7 27.8986 129.687 28.4473V28.5155C129.714 29.0694 129.906 29.6025 130.237 30.0474C130.567 30.4923 131.023 30.8288 131.546 31.014C131.793 31.1058 132.046 31.1771 132.305 31.2272L131.359 31.6194C126.344 33.7172 121.288 35.5761 116.427 35.5761C113.201 35.6047 110.038 34.6791 107.337 32.9156C105.74 31.8986 104.349 30.5912 103.235 29.0612C102.165 27.6149 101.568 25.872 101.53 24.0728C101.538 22.8068 101.853 21.5618 102.447 20.4438C103.041 19.3257 103.897 18.3679 104.941 17.6517C106.233 16.772 107.753 16.2862 109.315 16.2533C110.041 16.2359 110.759 16.3908 111.413 16.7052C112.065 17.0338 112.593 17.5629 112.923 18.2146C113.202 18.7392 113.346 19.3255 113.34 19.92C113.341 20.5253 113.167 21.118 112.837 21.6254C112.573 22.0157 112.219 22.3367 111.805 22.5608C111.391 22.7851 110.929 22.9059 110.458 22.9131H110.202C109.645 22.849 109.122 22.617 108.701 22.2479C108.504 22.0962 108.341 21.9031 108.226 21.6821C108.112 21.4612 108.047 21.2177 108.036 20.9689C108.037 20.7976 108.066 20.6276 108.121 20.4658C108.222 20.21 108.387 19.9842 108.599 19.8091C108.793 19.6434 109.034 19.5421 109.289 19.5192H109.375C109.61 19.5181 109.842 19.5768 110.048 19.6897C110.134 19.7348 110.211 19.7977 110.271 19.8741C110.331 19.9505 110.374 20.0388 110.398 20.1331V20.2952C110.403 20.4025 110.37 20.5081 110.305 20.5937L110.125 20.6704L109.997 20.7301H109.929V20.5681V20.0649C109.837 20.0679 109.746 20.0898 109.662 20.1294C109.579 20.1691 109.504 20.2255 109.443 20.2952C109.361 20.3926 109.309 20.5106 109.289 20.6363V20.7471C109.296 20.8795 109.333 21.0086 109.398 21.1241C109.463 21.2395 109.555 21.3382 109.665 21.4123C109.831 21.5249 110.027 21.5844 110.228 21.5828C110.389 21.5827 110.55 21.5475 110.697 21.4798C110.844 21.4121 110.975 21.3134 111.08 21.1906C111.28 20.9508 111.391 20.6498 111.396 20.3378C111.395 20.2054 111.378 20.0736 111.344 19.9455C111.288 19.7371 111.19 19.5421 111.057 19.3722C110.924 19.2023 110.758 19.0609 110.569 18.9564C110.227 18.7588 109.838 18.6557 109.443 18.6579H109.221C108.77 18.69 108.341 18.8631 107.994 19.1525C107.658 19.4304 107.401 19.7923 107.252 20.2014C107.149 20.4739 107.1 20.7633 107.107 21.0541C107.119 21.4315 107.213 21.8018 107.38 22.1401C107.548 22.4784 107.786 22.7769 108.078 23.0154C108.646 23.4937 109.344 23.7908 110.083 23.8681H110.432C111.054 23.861 111.666 23.702 112.213 23.4047C112.76 23.1074 113.225 22.6811 113.57 22.1626C114 21.4971 114.225 20.7205 114.218 19.9285C114.218 19.1947 114.039 18.4718 113.698 17.8223C113.28 17.0084 112.615 16.3484 111.796 15.9377C111.016 15.5587 110.157 15.3688 109.289 15.3834C107.544 15.4155 105.844 15.958 104.403 16.944C103.241 17.7426 102.289 18.8117 101.631 20.0595C100.973 21.3073 100.628 22.6962 100.625 24.1069C100.663 26.092 101.316 28.0166 102.494 29.6156C103.67 31.2414 105.146 32.6278 106.842 33.7001C109.684 35.5683 113.017 36.5479 116.418 36.5141C121.535 36.5141 126.651 34.587 131.7 32.4893C136.748 30.3915 141.685 28.0976 146.307 27.2791C147.976 26.9866 149.668 26.8382 151.363 26.8356C151.824 26.8356 152.284 26.8356 152.745 26.8356C155.898 26.9287 158.994 27.7055 161.818 29.1124C164.718 30.5797 166.975 33.0668 168.154 36.0962L169.006 35.7723H169.032Z" fill="#FEFEEF"/>
<path d="M58.194 2.3877C58.194 2.3877 76.4254 12.4243 81.8999 15.4259L87.0159 13.4988L58.194 2.3877Z" fill="#FEFEEF"/>
</svg>
