<svg width="120" height="130" viewBox="0 0 120 130" fill="none" xmlns="http://www.w3.org/2000/svg">
<g clip-path="url(#clip0_476_48)">
<path d="M12.7036 67.1171C13.4446 67.223 14.0798 67.5406 14.3974 67.964C14.8208 68.3875 15.0325 68.9168 15.0325 69.552C15.0325 70.3989 14.6091 71.0341 13.8681 71.5634C13.127 72.0927 12.0684 72.3044 10.798 72.3044H4.55209L4.44623 71.881C4.86968 71.5634 5.29313 71.3516 5.82245 71.1399V63.5178L4.65795 63.306V62.4591C6.14004 62.3533 8.04558 62.3533 10.4804 62.3533C11.6449 62.3533 12.7036 62.565 13.4446 63.0943C14.1856 63.6236 14.6091 64.1529 14.6091 64.894C14.6091 65.3174 14.3974 65.8468 14.0798 66.2702C13.7622 66.6937 13.3387 67.0113 12.7036 67.1171ZM11.3273 65.3174C11.3273 64.9999 11.2215 64.6823 11.1156 64.3647C10.9039 64.0471 10.6922 63.8354 10.4804 63.8354L9.21007 64.0471V66.6937H9.84525C10.3746 66.6937 10.6922 66.5878 11.0097 66.2702C11.2215 65.9526 11.3273 65.635 11.3273 65.3174ZM10.057 70.9282H10.2687C10.6922 70.9282 11.0097 70.8223 11.2215 70.5047C11.4332 70.1871 11.5391 69.8696 11.5391 69.4461C11.5391 69.0227 11.4332 68.5992 11.1156 68.2816C10.798 67.964 10.4804 67.7523 10.057 67.7523H8.99835V70.8223L10.057 70.9282Z" fill="#FEFEEF"/>
<path d="M27.2068 71.5634V72.4103H21.4902L21.3843 71.9869C21.8078 71.6693 22.1254 71.4576 22.5488 71.2458L22.0195 69.9755H18.7377L18.2084 71.3517L19.4788 71.5634V72.4103H14.9267L14.8208 71.881C15.1384 71.5634 15.6677 71.3517 16.197 71.14L19.4788 63.5178L19.1612 62.7768L22.0195 62.1416L26.0423 71.3517L27.2068 71.5634ZM21.4902 68.5993L20.4315 65.8468L19.3729 68.5993H21.4902Z" fill="#FEFEEF"/>
<path d="M39.3811 71.5635V72.4104H35.4642L33.4528 68.7052H32.7117V71.3517L33.8762 71.5635V72.4104H28.0537L27.9479 71.9869C28.3713 71.6693 28.7948 71.4576 29.3241 71.2459V63.6237L28.1596 63.412V62.5651L33.8762 62.4592C35.2524 62.4592 36.3111 62.7768 37.158 63.3061C38.0049 63.9413 38.4283 64.6824 38.4283 65.6351C38.4283 66.1644 38.2166 66.6938 37.899 67.2231C37.5814 67.6465 37.0521 68.07 36.4169 68.3876L38.5342 71.5635H39.3811ZM32.6059 67.1172C32.8176 67.2231 33.1352 67.2231 33.3469 67.2231C34.4055 67.2231 34.9348 66.6938 34.9348 65.5293C34.9348 64.7882 34.7231 64.153 34.2997 63.7296L32.6059 63.9413V67.1172V67.1172Z" fill="#FEFEEF"/>
<path d="M48.5912 67.1171C49.3322 67.223 49.9674 67.5406 50.285 67.964C50.7084 68.3875 50.9201 68.9168 50.9201 69.552C50.9201 70.3989 50.4967 71.0341 49.7557 71.5634C49.0146 72.0927 47.956 72.3044 46.6856 72.3044H40.4397L40.228 71.881C40.6514 71.5634 41.0749 71.3516 41.6042 71.1399V63.5178L40.4397 63.306V62.4591C41.9218 62.3533 43.8273 62.3533 46.2622 62.3533C47.4267 62.3533 48.4853 62.565 49.2263 63.0943C49.9674 63.6236 50.3908 64.1529 50.3908 64.894C50.3908 65.3174 50.1791 65.8468 49.8615 66.2702C49.6498 66.6937 49.1205 67.0113 48.5912 67.1171ZM47.1091 65.3174C47.1091 64.9999 47.0032 64.6823 46.8973 64.3647C46.6856 64.0471 46.4739 63.8354 46.2622 63.8354L44.9918 64.0471V66.6937H45.627C46.1563 66.6937 46.4739 66.5878 46.7915 66.2702C47.0032 65.9526 47.1091 65.635 47.1091 65.3174ZM45.9446 70.9282H46.1563C46.5798 70.9282 46.8973 70.8223 47.1091 70.5047C47.3208 70.1871 47.4267 69.8696 47.4267 69.4461C47.4267 69.0227 47.3208 68.5992 47.0032 68.2816C46.6856 67.964 46.368 67.7523 45.9446 67.7523H44.8859V70.8223L45.9446 70.9282Z" fill="#FEFEEF"/>
<path d="M60.8713 69.1285C60.8713 70.0812 60.8713 71.1399 60.6596 72.4102H51.4495L51.3436 71.9868C51.7671 71.6692 52.1905 71.4575 52.7198 71.2457V63.6236L51.5554 63.4119V62.5649H60.8713C60.8713 62.8825 60.8713 63.4118 60.7655 64.047C60.6596 64.6822 60.6596 65.2115 60.4479 65.7408H58.6482L58.3306 64.1529L56.0016 64.047V66.9053L59.1775 66.6936V68.3874L56.0016 68.2816V71.034L58.3306 70.8223L58.9658 69.1285H60.8713Z" fill="#FEFEEF"/>
<path d="M73.1514 71.5635V72.4104H69.2345L67.2231 68.7052H66.482V71.3517L67.6465 71.5635V72.4104H61.8241L61.7182 71.9869C62.1417 71.6693 62.5651 71.4576 63.0944 71.2459V63.6237L61.9299 63.412V62.5651L67.6465 62.4592C69.0228 62.4592 70.0814 62.7768 70.9283 63.3061C71.7752 63.9413 72.1987 64.6824 72.1987 65.6351C72.1987 66.1644 71.9869 66.6938 71.6693 67.2231C71.3518 67.6465 70.8224 68.07 70.1873 68.3876L72.3045 71.5635H73.1514ZM66.3762 67.1172C66.5879 67.2231 66.9055 67.2231 67.1172 67.2231C68.1759 67.2231 68.7052 66.6938 68.7052 65.5293C68.7052 64.7882 68.4935 64.153 68.07 63.7296L66.3762 63.9413V67.1172V67.1172Z" fill="#FEFEEF"/>
<path d="M82.8909 69.552C82.8909 70.5047 82.4674 71.2458 81.7264 71.7751C80.8795 72.3044 79.8208 72.622 78.5505 72.622C77.9153 72.622 77.1743 72.5161 76.4332 72.4103C75.6922 72.3044 74.9511 72.0927 74.4218 71.7751V71.3516C74.4218 70.3989 74.5277 69.552 74.7394 68.8109H76.2215L77.4918 71.034C77.9153 71.1399 78.3388 71.2458 78.8681 71.3516C79.3974 71.1399 79.715 70.8223 79.715 70.3989C79.715 69.9754 79.2915 69.552 78.5505 69.1285L76.8567 68.3875L76.2215 68.0699C75.057 67.4347 74.4218 66.5878 74.4218 65.5292C74.4218 64.5764 74.8453 63.8354 75.6922 63.2002C76.5391 62.565 77.5977 62.3533 78.8681 62.3533C79.5032 62.3533 80.1384 62.4591 80.7736 62.565C81.5147 62.6709 82.044 62.7767 82.4674 62.9884C82.3616 64.2588 82.2557 65.2116 82.044 65.9526H80.3502L79.6091 64.0471C79.1857 63.8354 78.6563 63.8354 78.127 63.7295C77.7036 63.9412 77.386 64.3647 77.386 64.7881C77.386 64.9999 77.4918 65.3174 77.8094 65.4233C78.0212 65.635 78.7622 65.9526 79.9267 66.3761C81.0912 66.7995 81.8322 67.3288 82.2557 67.8582C82.6791 68.1757 82.8909 68.8109 82.8909 69.552Z" fill="#FEFEEF"/>
<path d="M96.3355 71.5635V72.4104H90.3013L90.1954 71.9869C90.6189 71.6693 91.0423 71.4576 91.5717 71.2459V68.2817H88.0782V71.4576L89.4544 71.6693V72.5162H83.4202L83.3143 72.0928C83.7378 71.7752 84.1612 71.5635 84.6906 71.3517V63.7296L83.4202 63.5179V62.671H89.2427L89.3485 63.0944C88.9251 63.412 88.5016 63.6237 87.9723 63.8354V66.6938H91.4658V63.5179L90.1954 63.3061V62.4592H96.0179L96.1238 62.8827C95.7003 63.2003 95.2769 63.412 94.7476 63.6237V71.2459L96.3355 71.5635Z" fill="#FEFEEF"/>
<path d="M101.523 62.1416C103.111 62.1416 104.381 62.6709 105.44 63.6237C106.498 64.5765 107.028 65.9527 107.028 67.5406C107.028 69.1286 106.498 70.2931 105.546 71.2458C104.593 72.1986 103.322 72.6221 101.629 72.6221C100.041 72.6221 98.6645 72.1986 97.6059 71.2458C96.5472 70.2931 96.1238 69.0227 96.1238 67.5406C96.1238 65.9527 96.6531 64.6823 97.6059 63.7295C98.6645 62.6709 100.041 62.1416 101.523 62.1416ZM100.57 63.9413C100.252 64.153 100.041 64.5765 99.9349 65.1058C99.7231 65.6351 99.7231 66.3761 99.7231 67.1172C99.7231 68.3875 99.9349 69.3403 100.358 69.9755C100.782 70.7165 101.311 71.0341 102.052 71.0341C102.264 71.0341 102.476 71.0341 102.687 70.9282C103.005 70.6107 103.217 70.1872 103.428 69.552C103.64 68.9168 103.746 68.2817 103.746 67.5406C103.746 66.482 103.534 65.5292 103.217 64.7882C102.793 64.0471 102.264 63.6237 101.629 63.6237C101.099 63.7295 100.888 63.8354 100.57 63.9413Z" fill="#FEFEEF"/>
<path d="M111.474 68.9169V71.1401L113.485 71.4577V72.3046H107.028L106.922 71.8811C107.239 71.6694 107.663 71.4577 108.192 71.1401V63.4121L107.028 63.2003V62.3534L112.85 62.2476C114.121 62.2476 115.179 62.5651 116.026 63.2003C116.873 63.8355 117.296 64.6824 117.296 65.6352C117.296 66.588 116.873 67.329 116.132 67.9642C115.285 68.5993 114.332 68.9169 113.062 68.9169H111.474ZM111.474 63.9414V67.2231C111.792 67.329 112.003 67.329 112.321 67.329C112.85 67.329 113.168 67.1173 113.485 66.7997C113.697 66.4821 113.909 66.0586 113.909 65.5293C113.909 65.1059 113.803 64.7883 113.697 64.3648C113.591 63.9414 113.379 63.7296 113.168 63.6238L111.474 63.9414Z" fill="#FEFEEF"/>
<path d="M75.5863 39.4869V55.8957L96.9707 24.666L75.5863 39.4869Z" fill="#FEFEEF"/>
<path d="M44.145 39.4869L22.6547 24.666L44.145 55.8957V39.4869Z" fill="#FEFEEF"/>
<path d="M75.5863 94.7475L96.9707 109.568L75.5863 78.4446V94.7475Z" fill="#FEFEEF"/>
<path d="M44.145 94.7474V78.3386L22.6547 109.568L44.145 94.7474Z" fill="#FEFEEF"/>
<path d="M48.697 40.9691V52.0847C49.3322 51.1319 49.9674 50.285 50.7084 49.3322C50.7084 48.2736 50.8143 47.215 50.8143 46.1563C50.9201 43.4039 51.026 41.0749 51.1319 39.487C51.1319 38.8518 51.2377 38.3225 51.2377 38.0049C50.285 38.8518 49.4381 39.9104 48.697 40.9691Z" fill="#FEFEEF"/>
<path d="M50.6026 80.3501C49.9674 81.0911 49.3322 81.938 48.697 82.6791V93.583C49.3322 92.5244 50.1791 91.5716 51.026 90.513C50.9201 89.3485 50.9201 87.9722 50.8143 86.4902C50.8143 85.1139 50.7084 83.6319 50.7084 82.0439C50.6026 81.5146 50.6026 80.9853 50.6026 80.3501Z" fill="#FEFEEF"/>
<path d="M55.8958 104.487C55.2606 104.487 54.5195 104.381 53.7785 104.381C53.0374 104.275 52.1905 104.275 51.3436 104.169C50.9202 104.169 50.4967 104.063 50.0733 104.063C49.6498 104.063 49.2264 103.958 48.8029 103.958C48.0619 103.852 47.3208 103.852 46.6857 103.746C46.0505 103.64 45.5212 103.64 45.2036 103.534C44.886 103.534 44.6743 103.428 44.6743 103.428C44.6743 103.428 44.886 103.534 45.2036 103.64C45.5212 103.746 46.0505 103.852 46.6857 103.958C47.3208 104.063 48.0619 104.169 48.8029 104.275C49.544 104.381 50.3909 104.487 51.2378 104.593C51.6612 104.593 52.0847 104.593 52.5081 104.699C52.9316 104.699 53.355 104.699 53.7785 104.699C54.6254 104.699 55.3664 104.699 56.0016 104.699C56.6368 104.699 57.1661 104.593 57.5896 104.593C58.013 104.593 58.2247 104.593 58.2247 104.593C58.2247 104.593 58.013 104.593 57.5896 104.593C57.0602 104.593 56.5309 104.593 55.8958 104.487Z" fill="#FEFEEF"/>
<path d="M47.1091 100.57C46.7915 100.57 46.5798 100.57 46.5798 100.57C46.5798 100.57 46.7915 100.57 47.1091 100.57C47.4267 100.782 47.8501 100.887 48.4853 100.993C49.0146 101.099 49.7557 101.205 50.3908 101.311C51.1319 101.417 51.8729 101.523 52.614 101.523C53.0374 101.523 53.355 101.523 53.7785 101.628C54.2019 101.628 54.5195 101.628 54.8371 101.628C55.5781 101.628 56.2133 101.628 56.7426 101.628C57.272 101.628 57.8013 101.523 58.1189 101.523C58.4365 101.523 58.6482 101.523 58.6482 101.523C58.6482 101.523 58.4365 101.523 58.1189 101.523C57.8013 101.523 57.272 101.523 56.7426 101.417C56.2133 101.417 55.4723 101.311 54.8371 101.311C54.0961 101.311 53.355 101.205 52.614 101.205C51.1319 101.099 49.5439 100.993 48.4853 100.887C47.8501 100.676 47.4267 100.57 47.1091 100.57Z" fill="#FEFEEF"/>
<path d="M47.4267 28.1594C47.8501 28.0535 48.4853 28.0535 49.0146 27.9477C49.6498 27.8418 50.285 27.8418 50.9202 27.736C51.5554 27.6301 52.1905 27.6301 52.8257 27.5242C53.4609 27.5242 53.9902 27.4184 54.4137 27.4184C54.943 27.4184 55.2606 27.3125 55.5782 27.3125C55.8957 27.3125 56.0016 27.3125 56.0016 27.3125C56.0016 27.3125 55.7899 27.3125 55.5782 27.3125C55.2606 27.3125 54.943 27.3125 54.4137 27.3125C53.8843 27.3125 53.355 27.3125 52.8257 27.3125C52.1905 27.3125 51.5554 27.4184 50.9202 27.4184C50.285 27.5242 49.6498 27.5242 49.0146 27.6301C48.3795 27.736 47.8501 27.8418 47.4267 27.9477C47.0032 28.0535 46.5798 28.1594 46.2622 28.2653C45.9446 28.3711 45.8387 28.3711 45.8387 28.3711C45.8387 28.3711 45.9446 28.3711 46.2622 28.2653C46.5798 28.2653 47.0032 28.2653 47.4267 28.1594Z" fill="#FEFEEF"/>
<path d="M56.1075 30.5945C55.8958 30.5945 55.4723 30.5945 55.0488 30.5945C54.6254 30.5945 54.0961 30.5945 53.5668 30.5945C53.0374 30.5945 52.5081 30.7003 51.873 30.7003C51.3436 30.8062 50.7085 30.8062 50.1791 30.9121C49.6498 31.0179 49.1205 31.1238 48.8029 31.2297C48.3795 31.3355 48.0619 31.4414 47.8502 31.4414C47.6384 31.5473 47.4267 31.5473 47.4267 31.5473C47.4267 31.5473 47.5326 31.5473 47.8502 31.5473C48.0619 31.5473 48.4853 31.4414 48.9088 31.4414C49.3322 31.3355 49.8615 31.3355 50.3909 31.2297C50.9202 31.1238 51.4495 31.1238 52.0847 31.0179C52.614 30.9121 53.2492 30.9121 53.7785 30.9121C54.3078 30.9121 54.8371 30.8062 55.2606 30.8062C55.4723 30.7003 55.8958 30.7003 56.1075 30.5945C56.3192 30.5945 56.5309 30.5945 56.5309 30.5945C56.5309 30.5945 56.3192 30.5945 56.1075 30.5945Z" fill="#FEFEEF"/>
<path d="M50.9201 33.982C50.4967 34.0879 49.9674 34.0879 49.6498 34.1937C49.3322 34.2996 49.0146 34.4054 48.8029 34.4054C48.5912 34.5113 48.4853 34.5113 48.4853 34.5113C48.4853 34.5113 48.5912 34.5113 48.8029 34.5113C49.0146 34.5113 49.3322 34.4054 49.7556 34.4054C50.1791 34.4054 50.6026 34.2996 51.026 34.2996C51.4495 34.2996 51.9788 34.1937 52.5081 34.1937C53.0374 34.1937 53.4609 34.0879 53.9902 34.0879C54.4136 34.0879 54.9429 33.982 55.2605 33.982C55.684 33.982 56.0016 33.982 56.2133 33.8761C56.425 33.8761 56.5309 33.8761 56.5309 33.8761C56.5309 33.8761 56.425 33.8761 56.2133 33.8761C56.0016 33.8761 55.684 33.7703 55.2605 33.7703C54.8371 33.7703 54.4136 33.7703 53.9902 33.7703C53.5667 33.7703 53.0374 33.7703 52.5081 33.8761C51.8729 33.8761 51.4495 33.982 50.9201 33.982Z" fill="#FEFEEF"/>
<path d="M50.1791 19.9022C49.6498 20.0081 49.1205 20.1139 48.5912 20.2198C48.1677 20.3257 47.7443 20.4315 47.5325 20.5374C47.3208 20.6433 47.1091 20.6433 47.1091 20.6433C47.1091 20.6433 47.2149 20.6433 47.5325 20.5374C47.7443 20.5374 48.1677 20.4315 48.5912 20.3257C49.0146 20.2198 49.5439 20.2198 50.1791 20.1139C50.7084 20.0081 51.3436 20.0081 51.9788 19.9022C52.614 19.7963 53.1433 19.7964 53.7784 19.7964C54.3078 19.7964 54.8371 19.6905 55.3664 19.6905C55.7899 19.6905 56.2133 19.6905 56.425 19.6905C56.7426 19.6905 56.8485 19.6905 56.8485 19.6905C56.8485 19.6905 56.7426 19.6905 56.425 19.5846C56.1074 19.5846 55.7899 19.4788 55.3664 19.4788C54.9429 19.4788 54.4136 19.4788 53.7784 19.4788C53.2491 19.4788 52.614 19.4788 51.9788 19.5846C51.3436 19.6905 50.7084 19.7963 50.1791 19.9022Z" fill="#FEFEEF"/>
<path d="M50.1791 98.3468C50.3908 98.3468 50.7084 98.4527 51.1319 98.4527C51.5553 98.4527 51.9788 98.5586 52.4022 98.5586C52.8257 98.5586 53.355 98.6644 53.8843 98.6644C54.4136 98.6644 54.9429 98.6644 55.3664 98.6644C55.7898 98.6644 56.3192 98.6644 56.6368 98.6644C57.0602 98.6644 57.3778 98.6644 57.5895 98.6644C57.8013 98.6644 57.9071 98.6644 57.9071 98.6644C57.9071 98.6644 57.8013 98.6644 57.5895 98.6644C57.3778 98.6644 57.0602 98.5586 56.6368 98.5586C56.2133 98.5586 55.7898 98.4527 55.3664 98.4527C54.9429 98.4527 54.4136 98.3468 53.8843 98.3468C53.355 98.3468 52.8257 98.3468 52.4022 98.241C51.9788 98.241 51.4495 98.241 51.1319 98.241C50.7084 98.241 50.3908 98.241 50.1791 98.3468C49.9674 98.241 49.8615 98.3468 49.8615 98.3468C49.8615 98.3468 49.9674 98.3468 50.1791 98.3468Z" fill="#FEFEEF"/>
<path d="M112.744 74.5275C109.568 74.4216 105.122 74.3158 99.7231 74.2099C97.0765 74.2099 94.1123 74.1041 91.0423 74.1041C87.9723 74.1041 84.6905 73.9982 81.4088 73.9982C78.0211 73.9982 74.6335 73.8923 71.0342 73.8923C67.5407 73.8923 63.9413 73.8923 60.342 73.8923C56.7426 73.8923 53.1433 73.8923 49.6498 73.8923C46.1563 73.8923 42.6628 73.8923 39.2752 73.9982C35.9935 73.9982 32.7117 74.1041 29.6417 74.1041C26.5716 74.1041 23.6075 74.2099 20.9609 74.2099C15.5619 74.3158 11.1156 74.4216 7.93971 74.5275C6.35177 74.5275 5.18727 74.6334 4.34037 74.6334C3.49346 74.6334 3.07001 74.6334 3.07001 74.6334C3.07001 74.6334 3.49346 74.6334 4.34037 74.6334C5.18727 74.6334 6.45763 74.7392 7.93971 74.7392C11.1156 74.8451 15.5619 74.951 20.9609 75.0568C23.6075 75.0568 26.5716 75.1627 29.6417 75.1627C32.7117 75.1627 35.9935 75.2686 39.2752 75.2686C40.6514 75.2686 42.1335 75.2686 43.6156 75.2686C41.3925 76.6448 39.1694 78.021 37.0521 79.2914C34.7231 80.6676 32.6058 82.0438 30.5944 83.3142C26.5716 85.8549 23.2899 87.9721 21.0667 89.4542C19.9023 90.1953 19.0553 90.8304 18.4202 91.2539C17.785 91.6773 17.4674 91.8891 17.4674 91.8891C17.4674 91.8891 17.785 91.6773 18.526 91.3598C19.1612 91.0422 20.114 90.5129 21.3843 89.8777C23.8192 88.6073 27.3127 86.8076 31.4413 84.5845C33.5586 83.42 35.7817 82.2555 38.1107 80.9852C40.1221 79.9265 42.1335 78.762 44.2508 77.5975V75.3744C44.5684 75.3744 44.886 75.3744 45.2036 75.3744V95.806C44.1449 96.0177 43.4039 96.8646 43.4039 98.0291V98.5585C43.0863 98.6643 42.8746 98.876 42.557 99.0878C42.1335 99.5112 41.9218 100.146 41.9218 100.676V101.417C41.7101 101.523 41.6042 101.628 41.4983 101.734C41.0749 102.158 40.8632 102.793 40.8632 103.428V105.228C40.8632 106.181 41.4983 107.133 42.3452 107.663C42.6628 111.58 44.4625 114.756 47.6384 116.979C50.7084 119.096 54.943 120.26 59.9185 120.26H60.0244H60.1303C65.1058 120.26 69.3404 119.096 72.4104 116.979C75.5863 114.756 77.386 111.58 77.7036 107.663C78.5505 107.239 79.1856 106.286 79.1856 105.334V103.534C79.1856 102.899 78.9739 102.264 78.5505 101.84C78.4446 101.734 78.2329 101.628 78.127 101.523V100.782C78.127 99.8288 77.4918 98.9819 76.6449 98.6643V98.135C76.6449 97.0764 75.9039 96.1236 74.8452 95.9119V75.3744C75.1628 75.3744 75.4804 75.3744 75.798 75.3744V77.5975C77.9153 78.762 79.9267 79.8207 81.8322 80.8793C84.1612 82.1497 86.3843 83.42 88.5016 84.4787C92.6303 86.7018 96.1237 88.5015 98.5586 89.7718C99.7231 90.407 100.782 90.8304 101.417 91.2539C102.052 91.5715 102.476 91.7832 102.476 91.7832C102.476 91.7832 102.158 91.5715 101.523 91.148C100.888 90.7246 100.041 90.0894 98.8762 89.3484C96.5472 87.8663 93.2654 85.749 89.3485 83.2083C87.3371 81.9379 85.2198 80.5617 82.8909 79.1855C80.8795 77.9151 78.6563 76.5389 76.4332 75.2686C78.2329 75.2686 80.0325 75.2686 81.8322 75.2686C85.2198 75.2686 88.3957 75.1627 91.4658 75.1627C94.5358 75.1627 97.5 75.0568 100.147 75.0568C105.546 74.951 109.992 74.8451 113.168 74.7392C114.756 74.7392 115.92 74.6334 116.767 74.6334C117.614 74.6334 118.037 74.6334 118.037 74.6334C118.037 74.6334 117.614 74.6334 116.767 74.6334C115.497 74.6334 114.332 74.5275 112.744 74.5275ZM49.7557 75.4803C51.5553 75.4803 53.4609 75.4803 55.2606 75.4803C54.7312 76.0096 54.2019 76.433 53.7785 76.9624C53.7785 77.0682 53.7785 77.1741 53.7785 77.28C53.7785 78.1269 53.7785 78.8679 53.6726 79.7148C53.6726 80.4559 53.5667 81.1969 53.5667 81.8321C53.4609 84.4787 53.2492 86.2783 53.2492 86.2783C53.2492 86.2783 53.0374 84.4787 52.9316 81.8321C52.9316 81.1969 52.8257 80.4559 52.8257 79.7148C52.8257 79.1855 52.8257 78.6562 52.7198 78.021C52.5081 78.3386 52.1905 78.5503 51.9788 78.8679C51.9788 80.0324 51.8729 81.091 51.8729 82.1497C51.8729 83.7376 51.7671 85.2197 51.7671 86.5959C51.7671 87.7604 51.6612 88.819 51.6612 89.7718C54.2019 86.7018 57.3778 83.42 60.6596 80.35C62.3534 78.762 64.0472 77.0682 65.5293 75.4803C67.2231 75.4803 68.9169 75.4803 70.6107 75.4803L70.5049 79.1855C69.658 80.35 68.7052 81.6203 67.7524 82.8907L67.9641 93.9005C68.7052 93.0536 69.4462 92.3125 70.0814 91.4656L69.9755 94.2181C69.8697 94.2181 69.6579 94.3239 69.5521 94.3239C68.9169 94.4298 68.07 94.6415 67.1172 94.7474C66.9055 94.7474 66.6938 94.8532 66.4821 94.8532L66.6938 84.0552C63.5179 87.8663 59.9185 91.8891 55.684 95.9119C55.4723 95.9119 55.3664 95.9119 55.1547 95.9119C54.8371 95.9119 54.5195 95.9119 54.2019 95.9119C53.8843 95.9119 53.5667 95.9119 53.2492 95.9119C52.614 95.9119 52.0847 95.9119 51.5553 95.806C51.026 95.806 50.4967 95.7001 50.0733 95.7001C49.6498 95.7001 49.2264 95.5943 49.0146 95.5943C48.3795 95.4884 48.0619 95.4884 48.0619 95.4884C48.0619 95.4884 48.3795 95.5943 49.0146 95.7001C49.3322 95.806 49.6498 95.806 50.0733 95.9119C50.4967 96.0177 51.026 96.1236 51.4495 96.2295C51.8729 96.3353 52.2964 96.3353 52.8257 96.4412C50.9202 96.3353 49.1205 96.1236 47.215 95.9119V75.3744C48.1677 75.4803 48.9088 75.4803 49.7557 75.4803ZM71.4576 109.886C70.7166 109.992 69.9755 110.098 69.1286 110.203C68.2817 110.309 67.4348 110.415 66.4821 110.521C65.5293 110.627 64.6824 110.733 63.7296 110.733C62.7768 110.839 61.8241 110.839 60.8713 110.839C60.342 110.839 59.9185 110.839 59.3892 110.839C58.8599 110.839 58.4365 110.839 57.9071 110.839C56.9544 110.839 56.0016 110.839 55.0488 110.839C54.0961 110.839 53.2492 110.733 52.4023 110.733C51.9788 110.733 51.5553 110.627 51.1319 110.627C50.7084 110.627 50.3909 110.521 49.9674 110.521C49.2264 110.415 48.5912 110.415 47.956 110.309C47.3208 110.203 46.8974 110.098 46.4739 110.098C45.627 109.992 45.0977 109.886 45.0977 109.886C45.0977 109.886 45.627 109.992 46.368 110.203C46.7915 110.309 47.3208 110.415 47.8501 110.521C48.4853 110.627 49.1205 110.733 49.8615 110.839C50.1791 110.944 50.6026 110.944 51.026 111.05C51.4495 111.05 51.8729 111.156 52.2964 111.156C53.1433 111.262 53.9902 111.368 54.943 111.474C55.8957 111.58 56.8485 111.685 57.8013 111.685C58.3306 111.685 58.754 111.685 59.2834 111.791C59.8127 111.791 60.2361 111.791 60.7654 111.791C61.7182 111.791 62.7768 111.791 63.7296 111.791C64.6824 111.791 65.6352 111.791 66.5879 111.685C64.3648 112.215 60.7654 112.85 56.4251 112.744C50.6026 112.638 47.6384 113.697 48.8029 115.814C48.9088 115.814 49.0146 115.92 49.0146 115.92C49.1205 116.026 49.2264 116.026 49.3322 116.132C49.4381 116.238 49.5439 116.238 49.6498 116.343C49.8615 116.449 50.0733 116.555 50.3908 116.661C50.6026 116.767 50.9202 116.873 51.1319 116.979C51.2378 116.979 51.3436 117.085 51.5553 117.085C51.6612 117.085 51.8729 117.19 51.9788 117.19C52.2964 117.296 52.5081 117.402 52.8257 117.402C53.1433 117.508 53.355 117.508 53.6726 117.614C54.2019 117.72 54.8371 117.826 55.3664 117.931C55.684 117.931 56.0016 118.037 56.2133 118.037C56.5309 118.037 56.8485 118.143 57.0602 118.143C57.6954 118.143 58.2247 118.249 58.8599 118.249H59.7068H60.5537C61.1889 118.249 61.7182 118.143 62.3534 118.143C63.5179 118.037 64.6824 117.931 65.741 117.614C66.7996 117.402 67.8583 117.085 68.811 116.661C69.3404 116.449 69.7638 116.238 70.1873 116.026C70.399 115.92 70.6107 115.814 70.8224 115.708C71.0342 115.602 71.2459 115.497 71.3518 115.391C71.6694 115.179 72.0928 114.861 72.4104 114.65C72.5163 114.544 72.728 114.438 72.8339 114.226C72.9397 114.12 73.1514 113.909 73.2573 113.803C73.3632 113.697 73.469 113.591 73.5749 113.379C73.6808 113.273 73.7866 113.168 73.8925 112.956C73.9983 112.85 74.1042 112.744 74.2101 112.638C74.3159 112.532 74.3159 112.427 74.4218 112.321C74.5277 112.109 74.7394 111.897 74.8452 111.685C74.9511 111.474 75.057 111.368 75.057 111.262C75.1628 111.05 75.2687 110.839 75.2687 110.839C75.2687 110.839 75.1628 110.944 75.057 111.262C74.9511 111.368 74.9511 111.58 74.8452 111.791C74.7394 112.003 74.6335 112.215 74.5277 112.427C74.4218 112.532 74.4218 112.638 74.3159 112.744C74.2101 112.85 74.1042 112.956 73.9983 113.168C73.8925 113.273 73.7866 113.485 73.6808 113.591C73.5749 113.697 73.469 113.909 73.3632 114.014C73.2573 114.12 73.1514 114.332 72.9397 114.438C72.8338 114.544 72.6221 114.756 72.5163 114.861C72.1987 115.179 71.8811 115.391 71.4576 115.708C71.2459 115.814 71.0342 116.026 70.9283 116.132C70.7166 116.238 70.5049 116.449 70.2931 116.555C69.8697 116.767 69.4462 117.085 68.9169 117.296C67.9641 117.72 66.9055 118.143 65.741 118.355C65.4234 118.461 65.2117 118.461 64.8941 118.567C64.5765 118.567 64.3648 118.672 64.0472 118.672L63.6237 118.778L63.2003 118.884C62.8827 118.884 62.5651 118.99 62.3534 118.99C61.7182 118.99 61.1889 119.096 60.5537 119.096H59.6009H58.6482C58.013 119.096 57.3778 118.99 56.8485 118.99C56.5309 118.99 56.2133 118.884 55.8957 118.884C55.5781 118.884 55.2606 118.778 54.943 118.778C54.3078 118.672 53.7785 118.567 53.1433 118.355C52.8257 118.249 52.614 118.249 52.2964 118.143C51.9788 118.037 51.7671 117.931 51.4495 117.826C51.3436 117.826 51.1319 117.72 51.026 117.72C50.9202 117.614 50.8143 117.614 50.6026 117.508C50.3909 117.402 50.0733 117.296 49.8615 117.19C49.6498 117.085 49.3322 116.979 49.1205 116.767C49.0146 116.661 48.9088 116.661 48.8029 116.555C48.697 116.449 48.5912 116.449 48.4853 116.343C48.2736 116.238 48.0619 116.026 47.8501 115.92C47.6384 115.814 47.4267 115.602 47.215 115.497C46.7915 115.179 46.4739 114.861 46.1563 114.544C45.9446 114.438 45.8387 114.226 45.7329 114.014C45.627 113.803 45.4153 113.697 45.3094 113.485C45.0977 113.168 44.886 112.85 44.6742 112.532C44.4625 112.215 44.3566 111.897 44.2508 111.58C44.1449 111.262 44.0391 111.05 43.9332 110.733C43.9332 110.627 43.8273 110.521 43.8273 110.415C43.8273 110.309 43.7215 110.203 43.7215 110.098C43.7215 109.992 43.7215 109.992 43.7215 109.886C43.5097 109.251 43.4039 108.615 43.4039 107.98C48.8029 108.721 54.3078 109.145 59.7068 109.145C65.1058 109.145 70.6107 108.721 76.0097 107.98C76.0097 108.404 75.9039 108.721 75.798 109.039C75.798 109.039 75.798 109.039 75.6922 109.039C75.4804 109.039 75.1628 109.145 74.7394 109.251C74.1042 109.462 72.9397 109.674 71.4576 109.886ZM65.3176 104.275C66.1645 105.651 66.0586 107.028 65.8469 107.663C63.8355 107.769 61.8241 107.874 59.8127 107.874C54.3078 107.874 48.697 107.451 43.1922 106.604C42.557 106.498 42.0277 105.863 42.0277 105.228C42.0277 104.593 42.0277 103.957 42.0277 103.428C42.0277 102.793 42.4511 102.475 42.9804 102.475H43.0863C43.0863 101.946 43.0863 101.311 43.0863 100.782C43.0863 100.252 43.5097 99.8288 44.0391 99.8288H44.1449C44.2508 99.8288 44.3566 99.8288 44.4625 99.8288C44.4625 99.1936 44.4625 98.6643 44.4625 98.0291C44.4625 97.4998 44.886 97.0764 45.4153 97.0764H45.5211C50.1791 97.7115 54.943 97.9233 59.6009 97.9233C62.3534 97.9233 65.2117 97.8174 67.9641 97.6057L63.6237 98.135C63.9413 98.876 64.0472 99.5112 64.1531 100.041C63.9413 100.041 63.7296 100.041 63.412 100.146C62.4593 100.252 61.5065 100.252 60.5537 100.358C59.6009 100.464 58.6482 100.464 57.6954 100.464C56.7426 100.464 55.7899 100.464 54.943 100.464C53.9902 100.464 53.1433 100.464 52.2964 100.358C51.4495 100.358 50.7084 100.252 49.9674 100.252C49.2264 100.146 48.5912 100.146 47.956 100.146C47.3208 100.146 46.8974 100.041 46.4739 99.9347C45.627 99.8288 45.2036 99.8288 45.2036 99.8288C45.2036 99.8288 45.627 99.9347 46.4739 100.041C46.8974 100.146 47.4267 100.252 47.956 100.252C48.5912 100.358 49.2264 100.464 49.9674 100.464C50.7084 100.57 51.4495 100.57 52.2964 100.676C53.1433 100.782 53.9902 100.782 54.943 100.887C55.8957 100.887 56.7426 100.993 57.6954 100.993C58.6482 100.993 59.6009 100.993 60.5537 100.993C61.5065 100.993 62.4593 100.993 63.412 100.993C64.3648 100.993 65.3176 100.887 66.1645 100.887C66.5879 100.887 67.1172 100.782 67.5407 100.782C67.9641 100.782 68.3876 100.676 68.811 100.676C69.658 100.57 70.399 100.57 71.14 100.464C71.5635 100.464 71.9869 100.358 72.4104 100.358C68.1759 100.993 64.3648 101.099 64.3648 101.099C64.6824 101.734 64.7882 102.475 64.8941 102.899C64.4707 102.899 64.0472 103.005 63.5179 103.005C62.9886 103.005 62.4593 103.111 61.9299 103.111C61.4006 103.111 60.8713 103.111 60.342 103.216C59.2834 103.216 58.2247 103.216 57.272 103.322C56.2133 103.322 55.2606 103.322 54.2019 103.322C53.2492 103.322 52.2964 103.216 51.3436 103.216C50.9202 103.216 50.4967 103.216 50.0733 103.111C49.6498 103.111 49.2264 103.005 48.8029 103.005C48.0619 102.899 47.3208 102.899 46.6856 102.793C46.0505 102.687 45.5211 102.687 44.9918 102.581C44.0391 102.475 43.5097 102.475 43.5097 102.475C43.5097 102.475 44.0391 102.581 44.886 102.687C45.3094 102.793 45.8387 102.793 46.4739 102.899C47.1091 103.005 47.8501 103.111 48.5912 103.216C49.0146 103.216 49.4381 103.322 49.8615 103.322C50.285 103.322 50.7084 103.428 51.1319 103.428C51.9788 103.534 52.9316 103.64 53.9902 103.64C54.943 103.746 56.0016 103.746 57.0602 103.852C58.1189 103.852 59.1775 103.957 60.2361 103.957C60.7654 103.957 61.2948 103.957 61.8241 103.957C62.3534 103.957 62.8827 103.957 63.412 103.957C64.4707 103.957 65.4234 103.957 66.4821 103.852C67.4348 103.852 68.3876 103.746 69.3404 103.746C70.2931 103.64 71.14 103.64 71.8811 103.534C73.469 103.428 74.7394 103.216 75.6922 103.111H75.798C71.0342 103.957 65.3176 104.275 65.3176 104.275ZM72.4104 95.9119H72.3045L71.6693 75.3744C71.9869 75.3744 72.1987 75.3744 72.5163 75.3744V95.9119H72.4104Z" fill="#FEFEEF"/>
<path d="M112.744 59.495C109.568 59.3892 105.122 59.2833 99.7231 59.1774C97.0765 59.1774 94.1123 59.0716 91.0423 59.0716C87.9723 59.0716 84.6905 58.9657 81.4088 58.9657C79.8208 58.9657 78.127 58.9657 76.4332 58.9657C76.7508 58.754 76.9625 58.6481 77.2801 58.4364C79.8208 56.9543 82.2557 55.4722 84.4788 53.9901C86.8078 52.6139 88.9251 51.2377 90.9365 49.9673C94.9593 47.4266 98.241 45.3093 100.464 43.8273C101.629 43.0862 102.476 42.451 103.111 42.0276C103.746 41.6041 104.063 41.3924 104.063 41.3924C104.063 41.3924 103.746 41.6041 103.005 41.9217C102.37 42.2393 101.417 42.7686 100.147 43.4038C97.7117 44.6742 94.2182 46.4738 90.0895 48.697C87.9723 49.8615 85.7492 51.026 83.4202 52.2963C81.0912 53.5667 78.5505 54.9429 76.0097 56.425C75.798 56.5308 75.5863 56.6367 75.3746 56.7426V58.8598C75.057 58.8598 74.7394 58.8598 74.4218 58.8598V36.7344C75.4804 36.5227 76.2215 35.6758 76.2215 34.5113V33.8761C77.0684 33.5585 77.7036 32.7116 77.7036 31.7589V31.0178C77.9153 30.912 78.0211 30.8061 78.127 30.7002C78.5505 30.2768 78.7622 29.6416 78.7622 29.0064V27.2067C78.7622 26.1481 78.127 25.1953 77.1742 24.7719C76.8567 21.0667 75.057 17.4673 72.0928 14.609C68.7052 11.3273 64.2589 9.52759 59.7068 9.52759C55.0488 9.52759 50.7084 11.3273 47.3208 14.609C44.3567 17.4673 42.557 21.1725 42.2394 24.7719C41.2866 25.1953 40.6514 26.1481 40.6514 27.2067V29.0064C40.6514 29.8533 41.0749 30.5944 41.8159 31.0178V31.7589C41.8159 32.394 42.0277 32.9234 42.4511 33.3468C42.6628 33.5585 42.9804 33.7703 43.298 33.8761V34.4054C43.298 35.4641 44.0391 36.4168 45.0977 36.6286V58.8598C44.7801 58.8598 44.4625 58.8598 44.1449 58.8598V56.8484C43.9332 56.7426 43.6156 56.5308 43.4039 56.425C40.8632 54.9429 38.3224 53.5667 35.9935 52.2963C33.6645 51.026 31.4413 49.7556 29.3241 48.697C25.1954 46.4738 21.7019 44.6742 19.2671 43.4038C18.1026 42.7686 17.0439 42.3452 16.4088 41.9217C15.7736 41.6041 15.3501 41.3924 15.3501 41.3924C15.3501 41.3924 15.6677 41.6041 16.3029 42.0276C16.9381 42.451 17.785 43.0862 18.9495 43.8273C21.2785 45.3093 24.5602 47.4266 28.583 49.9673C30.5944 51.2377 32.7117 52.6139 35.0407 53.9901C37.3697 55.3663 39.8045 56.8484 42.2394 58.4364C42.557 58.6481 42.7687 58.754 43.0863 58.9657C41.8159 58.9657 40.5456 58.9657 39.2752 58.9657C35.8876 58.9657 32.7117 59.0716 29.6417 59.0716C26.5716 59.0716 23.6075 59.1774 20.9609 59.1774C15.5619 59.2833 11.1156 59.3892 7.93971 59.495C6.35177 59.495 5.18727 59.6009 4.34037 59.6009C3.49346 59.6009 3.07001 59.6009 3.07001 59.6009C3.07001 59.6009 3.49346 59.6009 4.34037 59.6009C5.18727 59.6009 6.45763 59.7067 7.93971 59.7067C11.1156 59.8126 15.5619 59.9185 20.9609 60.0243C23.6075 60.0243 26.5716 60.1302 29.6417 60.1302C32.7117 60.1302 35.9935 60.2361 39.2752 60.2361C42.6628 60.2361 46.0505 60.2361 49.6498 60.3419C53.1433 60.3419 56.7426 60.3419 60.342 60.3419C63.9413 60.3419 67.5407 60.3419 71.0342 60.3419C74.5277 60.3419 78.0211 60.3419 81.4088 60.2361C84.7964 60.2361 87.9723 60.1302 91.0423 60.1302C94.1123 60.1302 97.0765 60.0243 99.7231 60.0243C105.122 59.9185 109.568 59.8126 112.744 59.7067C114.332 59.7067 115.497 59.6009 116.344 59.6009C117.191 59.6009 117.614 59.6009 117.614 59.6009C117.614 59.6009 117.191 59.6009 116.344 59.6009C115.497 59.495 114.332 59.495 112.744 59.495ZM71.0342 58.8598V57.3778C70.7166 57.9071 70.2931 58.4364 69.8697 58.8598C67.0114 58.8598 64.0472 58.8598 61.083 58.8598C62.2475 57.8012 63.412 56.6367 64.4707 55.5781L64.1531 45.2035C61.6123 48.1677 58.6482 51.3435 55.3664 54.4136C54.0961 55.5781 53.0374 56.7426 51.8729 57.9071C51.8729 58.2247 51.8729 58.5422 51.8729 58.8598C51.1319 58.8598 50.285 58.8598 49.5439 58.8598C48.8029 58.8598 47.956 58.8598 47.215 58.8598V36.5227C49.0146 36.311 50.8143 36.2051 52.7198 35.9934C52.614 36.0992 52.614 36.0992 52.5081 36.2051C52.1905 36.311 51.7671 36.311 51.4495 36.4168C50.9202 36.5227 50.4967 36.6286 50.0733 36.7344C49.6498 36.8403 49.3322 36.9462 49.0146 36.9462C48.3795 37.052 48.0619 37.1579 48.0619 37.1579C48.0619 37.1579 48.3795 37.1579 49.0146 37.052C49.3322 37.052 49.6498 36.9462 50.0733 36.9462C50.4967 36.9462 51.026 36.8403 51.5553 36.8403C51.6612 36.8403 51.8729 36.8403 51.9788 36.8403C51.6612 37.1579 51.4495 37.4755 51.1319 37.7931C51.1319 38.2165 51.2378 38.7458 51.2378 39.4869C51.3436 41.0748 51.4495 43.4038 51.5553 46.1562C51.5553 46.6856 51.5553 47.3207 51.6612 47.9559C54.2019 44.8859 57.272 41.71 60.4479 38.64C60.9772 38.1106 61.5065 37.6872 62.0358 37.1579C62.4593 37.1579 62.9886 37.2637 63.412 37.2637C64.0472 37.3696 64.6824 37.3696 65.3176 37.4755C65.9527 37.5813 66.4821 37.5813 67.0114 37.6872C68.07 37.7931 68.9169 38.0048 69.5521 38.1106C69.6579 38.1106 69.7638 38.1106 69.8697 38.2165C68.7052 39.6986 67.4348 41.3924 66.1645 42.9804L65.8469 54.4136C67.6466 52.508 69.3404 50.6025 70.8224 48.8028L71.14 53.7784L71.9869 36.5227C72.0928 36.5227 72.1987 36.5227 72.4104 36.5227V58.8598C71.9869 58.8598 71.5635 58.8598 71.0342 58.8598ZM53.1433 57.8012C53.1433 57.8012 53.1433 58.1188 53.2492 58.8598C53.1433 58.8598 53.1433 58.8598 53.0374 58.8598C53.1433 58.2247 53.1433 57.8012 53.1433 57.8012ZM44.3567 32.7116H44.2508C43.7215 32.7116 43.298 32.2882 43.298 31.7589C43.298 31.2295 43.298 30.5944 43.298 30.065H43.1922C42.6628 30.065 42.2394 29.6416 42.2394 29.1123C42.2394 28.4771 42.2394 27.8419 42.2394 27.3126C42.2394 26.6774 42.7687 26.0422 43.4039 25.9364C48.9088 25.0895 54.4137 24.666 60.0244 24.666C64.6824 24.666 69.2345 24.9836 73.8925 25.5129C70.5049 25.1953 66.0586 25.0895 66.0586 25.0895C66.0586 25.0895 66.3762 26.4657 65.5293 28.0536C65 28.0536 64.4707 28.0536 63.9413 27.9478C63.412 27.9478 62.8827 27.9478 62.3534 27.9478C61.8241 27.9478 61.2948 27.9478 60.7654 27.9478C59.7068 27.9478 58.6482 27.9478 57.5896 28.0536C56.5309 28.0536 55.5781 28.1595 54.5195 28.2654C53.5667 28.3712 52.614 28.4771 51.6612 28.583C51.2378 28.583 50.8143 28.6888 50.3908 28.6888C49.9674 28.7947 49.5439 28.7947 49.2264 28.9006C48.4853 29.0064 47.7443 29.1123 47.1091 29.2181C46.4739 29.324 45.9446 29.4299 45.5211 29.5357C44.5684 29.7475 44.1449 29.8533 44.1449 29.8533C44.1449 29.8533 44.6742 29.7475 45.5211 29.6416C45.9446 29.5357 46.4739 29.4299 47.1091 29.324C47.7443 29.2181 48.4853 29.1123 49.2264 29.0064C49.6498 29.0064 50.0733 28.9006 50.4967 28.9006C50.9202 28.9006 51.3436 28.7947 51.7671 28.7947C52.614 28.6888 53.5667 28.6888 54.6254 28.583C55.5781 28.583 56.6368 28.4771 57.6954 28.4771C58.754 28.4771 59.8127 28.4771 60.8713 28.4771C61.4006 28.4771 61.9299 28.4771 62.4593 28.583C62.9886 28.583 63.5179 28.6888 64.0472 28.6888C65.1058 28.7947 66.0586 28.9006 67.0114 29.0064C67.9641 29.1123 68.9169 29.2181 69.7638 29.324C70.1873 29.4299 70.6107 29.4299 71.0342 29.5357C68.1759 29.324 65.3176 29.1123 65.3176 29.1123C65.3176 29.1123 65.4234 30.065 65.1058 31.1237C64.6824 31.1237 64.2589 31.1237 63.7296 31.0178C62.7768 31.0178 61.8241 30.912 60.8713 31.0178C59.9185 31.0178 58.9658 31.0178 58.013 31.1237C57.0602 31.1237 56.1075 31.2295 55.2606 31.2295C54.3078 31.3354 53.4609 31.3354 52.614 31.4413C51.7671 31.5471 51.026 31.653 50.285 31.7589C49.5439 31.8647 48.9088 31.9706 48.3795 32.0764C47.8501 32.1823 47.3208 32.2882 46.8974 32.394C46.0505 32.6058 45.627 32.6058 45.627 32.6058C45.627 32.6058 46.0505 32.4999 46.8974 32.394C47.3208 32.2882 47.8501 32.2882 48.3795 32.1823C49.0146 32.0764 49.6498 32.0764 50.285 31.9706C51.026 31.8647 51.7671 31.8647 52.614 31.7589C53.4609 31.653 54.3078 31.653 55.2606 31.653C56.2133 31.653 57.0602 31.653 58.013 31.653C58.9658 31.653 59.9185 31.653 60.8713 31.7589C61.8241 31.7589 62.7768 31.8647 63.7296 31.9706C64.1531 31.9706 64.6824 32.0764 65.1058 32.0764C65.5293 32.0764 66.0586 32.1823 66.4821 32.1823C66.9055 32.2882 67.329 32.2882 67.7524 32.2882C68.1759 32.394 68.5993 32.394 69.0228 32.4999C69.7638 32.6058 70.5049 32.7116 71.14 32.8175C68.1759 32.4999 64.5765 32.2882 64.5765 32.2882C64.5765 32.2882 64.6824 33.4527 64.2589 34.6172C62.8827 34.6172 61.5065 34.5113 60.2361 34.5113C55.5781 34.5113 50.8143 34.8289 46.1563 35.3582H46.0505C45.5211 35.3582 45.0977 34.9348 45.0977 34.4054C45.0977 33.7703 45.0977 33.2409 45.0977 32.6058C44.5684 32.7116 44.4625 32.7116 44.3567 32.7116ZM59.9185 11.4331C65.6351 13.3387 68.2817 14.8207 60.7654 16.197C58.1189 16.7263 58.3306 18.526 58.9658 19.7963C59.2834 19.7963 59.7068 19.7963 60.0244 19.9022C60.8713 20.008 61.6123 20.008 62.4593 20.1139C63.2003 20.2198 64.0472 20.3256 64.7882 20.3256C65.5293 20.4315 66.2703 20.5374 66.9055 20.6432C67.5407 20.7491 68.2817 20.8549 68.811 20.9608C69.9755 21.1725 71.0342 21.2784 71.6693 21.4901C72.4104 21.596 72.728 21.7019 72.728 21.7019C72.728 21.7019 72.3045 21.7019 71.6693 21.596C70.9283 21.4901 69.9755 21.3843 68.7052 21.3843C68.07 21.3843 67.4348 21.2784 66.7996 21.2784C66.0586 21.2784 65.4234 21.1725 64.5765 21.1725C63.8355 21.1725 62.9886 21.0667 62.2475 21.0667C61.5065 21.0667 60.6596 21.0667 59.8127 21.0667C59.3892 21.0667 58.9658 21.0667 58.5423 21.0667C58.2247 21.0667 58.013 21.0667 57.6954 21.0667C56.7426 21.0667 55.7899 21.1725 54.8371 21.2784C53.8843 21.3843 53.0374 21.4901 52.1905 21.4901C51.7671 21.4901 51.3436 21.596 50.9202 21.596C50.4967 21.596 50.1791 21.7019 49.7557 21.8077C49.0146 21.9136 48.3794 22.0194 47.7443 22.1253C47.1091 22.2312 46.6856 22.337 46.2622 22.4429C45.4153 22.6546 44.9918 22.6546 44.9918 22.6546C44.9918 22.6546 45.5211 22.5488 46.368 22.4429C46.7915 22.337 47.3208 22.337 47.8501 22.2312C48.4853 22.1253 49.1205 22.1253 49.8615 22.0194C50.1791 22.0194 50.6026 21.9136 51.026 21.9136C51.4495 21.9136 51.8729 21.8077 52.2964 21.8077C53.1433 21.7019 53.9902 21.7019 54.943 21.7019C55.8957 21.7019 56.8485 21.596 57.8013 21.596C58.3306 21.596 58.754 21.596 59.2834 21.596C59.8127 21.596 60.2361 21.596 60.7654 21.596C61.7182 21.596 62.671 21.7019 63.6237 21.7019C64.5765 21.7019 65.5293 21.8077 66.4821 21.9136C67.4348 22.0194 68.2817 22.1253 69.1286 22.2312C69.9755 22.337 70.7166 22.4429 71.4576 22.5488C72.9397 22.7605 74.1042 22.9722 74.9511 23.0781C75.3746 23.1839 75.5863 23.1839 75.9039 23.2898C76.0097 23.8191 76.1156 24.2426 76.1156 24.7719C70.7166 23.7133 65.3176 23.2898 59.9185 23.2898C54.5195 23.2898 49.0146 23.7133 43.6156 24.4543C44.4625 17.2556 51.3436 10.6921 59.8127 10.6921C65.741 10.6921 71.0342 13.9738 73.7866 18.526C68.7052 11.7507 59.9185 11.4331 59.9185 11.4331Z" fill="#FEFEEF"/>
<path d="M2.54072 92.2068L1.27036 92.842L1.58795 93.7948L1.27036 94.0065L0 91.4658L0.211726 91.2541C0.423453 91.3599 0.635179 91.5717 0.741042 91.7834L4.55212 89.9837L4.34039 89.4544L4.65798 89.2427L5.82248 91.5717C6.14007 92.101 6.14006 92.6303 6.0342 93.1596C5.92834 93.6889 5.61075 94.0065 5.1873 94.2182C4.76384 94.43 4.34039 94.43 3.91694 94.2182C3.49349 94.0065 3.07003 93.6889 2.85831 93.1596L2.54072 92.2068ZM4.97557 90.9365L3.07003 91.8893C3.1759 92.101 3.28176 92.4186 3.38762 92.6303C3.59935 92.9479 3.81107 93.1596 4.0228 93.2655C4.34039 93.3713 4.55212 93.2655 4.86971 93.1596C5.08143 93.0538 5.29316 92.9479 5.39902 92.7362C5.50489 92.5244 5.61075 92.3127 5.61075 92.101L4.97557 90.9365Z" fill="#FEFEEF"/>
<path d="M6.8811 102.581L6.56351 102.793L5.7166 101.523L6.77523 99.4056L6.35178 98.6645L4.97556 99.5114L5.39901 100.252L5.08142 100.464L3.7052 98.3469L3.91693 98.1352L4.55211 98.5586L8.04559 96.3355L7.728 95.8062L8.04559 95.5945L9.52768 97.7117C9.84527 98.2411 10.057 98.7704 10.057 99.2997C10.057 99.829 9.84526 100.147 9.42181 100.464C9.10422 100.464 8.78663 100.57 8.46904 100.57C8.15145 100.57 7.83386 100.464 7.51627 100.147L6.66937 102.052L6.8811 102.581ZM6.77523 98.3469C6.8811 98.5587 6.98696 98.7704 7.09282 98.8762C7.41041 99.2997 7.62214 99.5114 7.93973 99.6173C8.25732 99.6173 8.46904 99.6173 8.78663 99.4056C9.21009 99.088 9.42181 98.7704 9.31595 98.3469L8.46904 97.2883L6.77523 98.3469Z" fill="#FEFEEF"/>
<path d="M14.1857 103.64C14.715 104.275 14.9267 104.91 14.9267 105.651C14.8209 106.392 14.5033 107.028 13.8681 107.557C13.2329 108.086 12.5977 108.298 11.8567 108.298C11.1157 108.298 10.5863 107.875 10.057 107.345C9.52771 106.71 9.31598 106.075 9.31598 105.334C9.31598 104.593 9.73943 103.958 10.3746 103.428C11.0098 102.899 11.645 102.581 12.386 102.687C13.0212 102.687 13.6564 103.005 14.1857 103.64ZM13.0212 103.428C12.8095 103.322 12.4919 103.428 12.0684 103.534C11.7508 103.64 11.3274 103.852 11.0098 104.169C10.4805 104.593 10.1629 105.122 10.057 105.546C9.95116 106.075 10.057 106.498 10.4805 106.922C10.5863 107.028 10.7981 107.239 10.9039 107.345C11.2215 107.451 11.5391 107.451 11.8567 107.239C12.1743 107.134 12.5977 106.922 12.9153 106.604C13.4446 106.181 13.7622 105.651 13.8681 105.228C13.974 104.699 13.8681 104.275 13.5505 103.852C13.4446 103.746 13.3388 103.64 13.0212 103.428Z" fill="#FEFEEF"/>
<path d="M18.6319 109.145L17.2557 110.627L18.8436 111.792L18.3143 112.321L16.9381 110.945L15.8795 112.215L16.5147 112.956L16.1971 113.274L14.1857 111.474L14.2915 111.262C14.5033 111.368 14.715 111.368 15.0326 111.58L17.8909 108.404L17.4674 107.98L17.785 107.663L20.9609 110.521L20.8551 110.733C20.6433 111.05 20.3257 111.262 19.9023 111.58L19.4788 111.156L19.9023 110.521L18.6319 109.145Z" fill="#FEFEEF"/>
<path d="M24.2426 117.72C23.925 118.143 23.6075 118.567 23.2899 118.884L19.7964 116.45L19.9022 116.238L20.6433 116.45L23.0781 112.956L22.6547 112.533L22.8664 112.215L26.254 114.65L26.1482 114.862C25.9365 115.179 25.6189 115.497 25.3013 115.814L24.772 115.497L25.0895 114.756L23.7133 113.697L22.6547 115.179L24.3485 116.132L23.9251 116.767L22.443 115.603L21.3843 116.979L22.8664 117.932L23.6075 117.402L24.2426 117.72Z" fill="#FEFEEF"/>
<path d="M30.7004 121.531C30.4886 121.954 30.171 122.166 29.6417 122.272C29.2183 122.378 28.689 122.272 28.1596 121.954C27.842 121.849 27.6303 121.637 27.3127 121.319C26.9951 121.002 26.7834 120.79 26.6776 120.578L26.7834 120.367C26.9951 120.049 27.2069 119.731 27.4186 119.414L27.842 119.625L27.5245 120.684C27.7362 121.002 28.0538 121.319 28.4772 121.531L28.689 121.637C29.0065 121.637 29.3241 121.531 29.43 121.213C29.5359 121.002 29.5359 120.684 29.3241 120.261L28.4772 118.99C28.0538 118.355 28.0538 117.826 28.2655 117.402C28.4772 116.979 28.7948 116.767 29.3241 116.767C29.8534 116.661 30.2769 116.873 30.8062 117.085C31.2297 117.296 31.6531 117.614 32.0766 118.038C31.8648 118.461 31.6531 118.884 31.3355 119.202L30.8062 118.884L31.0179 118.038C30.8062 117.72 30.4886 117.508 30.171 117.296L29.9593 117.191C29.6417 117.191 29.43 117.296 29.2183 117.614C29.1124 117.826 29.1124 118.143 29.43 118.567L30.2769 119.731C30.9121 120.472 31.0179 121.108 30.7004 121.531Z" fill="#FEFEEF"/>
<path d="M37.4756 124.601C37.2638 125.024 36.9462 125.342 36.5228 125.448C36.0993 125.554 35.57 125.554 35.0407 125.342C34.7231 125.236 34.4055 125.024 34.0879 124.813C33.7703 124.601 33.5586 124.389 33.4528 124.072L33.5586 123.754C33.6645 123.331 33.8762 123.013 34.0879 122.801L34.6173 123.013L34.5114 124.072C34.7231 124.389 35.1466 124.601 35.57 124.813L35.7817 124.918C36.0993 124.918 36.4169 124.707 36.5228 124.389C36.6287 124.072 36.5228 123.754 36.3111 123.436L35.2524 122.272C34.829 121.743 34.7231 121.213 34.9348 120.684C35.1466 120.26 35.4642 120.049 35.8876 119.943C36.3111 119.837 36.8404 119.943 37.4756 120.155C37.899 120.366 38.3225 120.578 38.8518 121.002C38.7459 121.425 38.5342 121.848 38.2166 122.272L37.6873 122.06L37.899 121.213C37.6873 120.896 37.3697 120.684 36.9462 120.578L36.7345 120.472C36.4169 120.472 36.2052 120.684 36.0993 121.002C35.9935 121.213 36.0993 121.531 36.4169 121.954L37.3697 123.013C37.5814 123.436 37.6873 124.072 37.4756 124.601Z" fill="#FEFEEF"/>
<path d="M42.7687 127.248L42.6629 127.671L40.228 126.93V126.718L40.9691 126.612L42.1336 122.59L41.4984 122.378L41.6042 121.954L43.9332 122.59V122.801C43.7215 122.801 43.5098 122.907 43.1922 122.907L42.0277 126.93L42.7687 127.248Z" fill="#FEFEEF"/>
<path d="M49.1205 123.542C49.8616 123.648 50.4968 124.072 50.9202 124.707C51.3437 125.342 51.4495 126.083 51.3437 126.824C51.2378 127.671 50.8144 128.2 50.285 128.624C49.7557 129.047 49.0147 129.153 48.2736 129.047C47.5326 128.941 46.8974 128.518 46.474 127.989C46.0505 127.353 45.9446 126.718 46.0505 125.871C46.1564 125.024 46.5798 124.389 47.1091 123.966C47.7443 123.542 48.3795 123.436 49.1205 123.542ZM48.1678 124.178C47.956 124.283 47.7443 124.495 47.5326 124.813C47.3209 125.13 47.215 125.554 47.1091 125.977C47.0033 126.612 47.0033 127.248 47.3209 127.671C47.5326 128.094 47.956 128.412 48.4854 128.518C48.6971 128.518 48.9088 128.518 49.0147 128.518C49.3323 128.412 49.544 128.2 49.7557 127.883C49.9675 127.565 50.0733 127.142 50.1792 126.718C50.285 126.083 50.285 125.448 49.9675 125.024C49.7557 124.601 49.3323 124.283 48.803 124.178C48.6971 124.178 48.4854 124.178 48.1678 124.178Z" fill="#FEFEEF"/>
<path d="M59.4951 130L58.4365 130.106L55.684 125.765L55.7899 126.824L55.684 129.471L56.4251 129.576V130L54.202 129.894V129.682L54.943 129.471L55.1547 125.236L54.6254 125.13V124.707L56.3192 124.813L58.9658 129.047L58.8599 127.989L58.9658 125.342L58.1189 125.236V124.813L60.4479 124.919V125.13C60.2362 125.236 60.0244 125.342 59.7069 125.342L59.4951 130Z" fill="#FEFEEF"/>
<path d="M69.0228 128.941V129.365L66.4821 129.577L66.3762 129.365C66.5879 129.259 66.7997 129.153 67.1172 128.941L66.5879 127.989L64.3648 128.2L64.0472 129.259H64.8941V129.682L62.671 129.894L62.5651 129.682C62.7769 129.577 62.9886 129.471 63.2003 129.365L64.7883 124.707L64.6824 124.495L65.5293 124.177L68.1759 128.941H69.0228ZM66.4821 127.565L65.4234 125.554L64.7883 127.671L66.4821 127.565Z" fill="#FEFEEF"/>
<path d="M75.9039 126.189C76.1156 126.824 76.1156 127.459 76.1156 127.883L71.7752 128.836L71.6694 128.624L72.3045 128.2L71.3518 124.072L70.7166 124.178L70.6107 123.754L72.9397 123.225L73.0456 123.437C72.9397 123.542 72.728 123.648 72.4104 123.86L73.2573 127.883L75.057 127.354V126.295L75.9039 126.189Z" fill="#FEFEEF"/>
<path d="M87.2313 122.484C87.443 122.907 87.443 123.331 87.1254 123.754C86.9137 124.177 86.4902 124.495 85.9609 124.707C85.6433 124.813 85.3257 124.919 84.9023 125.024C84.4788 125.13 84.1612 125.13 83.9495 125.024L83.8437 124.813C83.6319 124.389 83.5261 124.072 83.5261 123.754L84.0554 123.542L84.6906 124.389C85.114 124.389 85.5375 124.389 85.9609 124.177L86.1726 124.072C86.3844 123.754 86.4902 123.542 86.2785 123.225C86.1726 122.907 85.8551 122.801 85.4316 122.801L83.9495 122.695C83.2085 122.59 82.785 122.378 82.5733 121.848C82.3616 121.425 82.4674 121.002 82.6792 120.578C82.8909 120.155 83.3143 119.837 83.9495 119.625C84.373 119.414 84.9023 119.308 85.5375 119.202C85.7492 119.625 85.8551 120.049 85.9609 120.578L85.4316 120.79L84.9023 120.049C84.5847 120.049 84.1612 120.049 83.7378 120.261L83.5261 120.366C83.3143 120.578 83.3143 120.896 83.4202 121.213C83.5261 121.425 83.8437 121.637 84.2671 121.637H85.6433C86.4902 121.637 87.0196 121.954 87.2313 122.484Z" fill="#FEFEEF"/>
<path d="M93.9007 118.673C94.2183 119.096 94.43 119.625 94.5359 120.049L90.8306 122.166L90.6189 121.954L91.1482 121.319L89.031 117.614L88.5016 117.826L88.2899 117.508L91.8893 115.391L91.9951 115.603C92.2069 115.92 92.3127 116.344 92.5244 116.661L91.9951 116.979L91.4658 116.344L89.9837 117.085L90.9365 118.673L92.5244 117.614L92.9479 118.249L91.2541 119.202L92.101 120.684L93.5831 119.731L93.3713 118.884L93.9007 118.673Z" fill="#FEFEEF"/>
<path d="M101.629 114.544L101.84 114.861L100.676 115.814L98.4528 114.861L97.8176 115.391L98.7704 116.661L99.5114 116.238L99.7232 116.555L97.7118 118.143L97.5 117.931L97.9235 117.296L95.3828 113.909L94.8534 114.226L94.6417 113.909L96.6531 112.321C97.1824 111.897 97.7118 111.791 98.1352 111.686C98.5587 111.58 98.9821 111.897 99.2997 112.215C99.5114 112.427 99.6173 112.744 99.6173 113.168C99.6173 113.485 99.5114 113.909 99.2997 114.226L101.311 114.967L101.629 114.544ZM97.3942 114.967C97.6059 114.861 97.8176 114.756 97.9235 114.65C98.3469 114.332 98.4528 114.12 98.5587 113.803C98.5587 113.485 98.4528 113.274 98.3469 112.956C98.0293 112.532 97.7118 112.427 97.2883 112.427L96.3355 113.379L97.3942 114.967Z" fill="#FEFEEF"/>
<path d="M106.181 110.945C105.969 111.262 105.757 111.474 105.546 111.791L100.888 109.568L100.358 109.992L100.041 109.674L101.84 107.98L102.052 108.086C101.946 108.298 101.84 108.51 101.735 108.827L104.699 110.204L105.44 110.839L103.64 106.816L103.005 107.239L102.687 106.922L104.275 105.44L104.487 105.546C104.487 105.651 104.381 105.863 104.169 106.181L106.181 110.945Z" fill="#FEFEEF"/>
<path d="M111.156 104.805L111.474 105.016L109.886 107.028L109.674 106.922L109.886 106.181L106.604 103.534L106.075 103.958L105.757 103.746L107.239 101.946L107.451 102.052C107.451 102.264 107.345 102.476 107.239 102.793L110.521 105.44L111.156 104.805Z" fill="#FEFEEF"/>
<path d="M115.391 98.4528L115.073 100.252C114.544 100.993 114.015 101.417 113.274 101.629C112.533 101.84 111.897 101.629 111.156 101.205C110.415 100.782 109.992 100.147 109.886 99.4055C109.78 98.6645 109.886 97.9235 110.309 97.2883C110.627 96.759 111.156 96.3355 111.686 96.1238L111.897 96.2296C112.215 96.4414 112.533 96.6531 112.744 96.9707L112.427 97.5L111.58 97.0765C111.156 97.2883 110.839 97.6059 110.627 98.0293L110.521 98.241C110.521 98.6645 110.627 98.9821 110.839 99.2997C111.05 99.6173 111.368 99.9348 111.686 100.147C112.215 100.464 112.744 100.676 113.274 100.57C113.803 100.464 114.226 100.147 114.544 99.7231L114.967 98.3469L115.391 98.4528Z" fill="#FEFEEF"/>
<path d="M118.037 91.4659C118.567 91.6776 118.99 91.9952 119.308 92.2069L117.402 96.018L117.191 95.9121L117.296 95.1711L113.485 93.2655L113.168 93.7949L112.85 93.5831L114.756 89.8779L114.967 89.9838C115.285 90.1955 115.603 90.4072 116.026 90.619L115.708 91.1483L114.967 90.9366L114.121 92.4186L115.708 93.2655L116.45 91.4659L117.085 91.7835L116.132 93.4773L117.72 94.3242L118.461 92.7362L117.826 92.1011L118.037 91.4659Z" fill="#FEFEEF"/>
<path d="M7.41043 34.0879L7.72802 34.2997L6.45766 36.5228L6.3518 36.4169L6.45766 35.6759L4.97557 34.829L3.59935 37.0521L5.1873 37.899L5.71662 37.2638L6.03421 37.4756L4.76385 39.6987L4.55212 39.5928L4.65799 38.8518L0.952773 36.8404L0.529321 37.3697L0.211731 37.0521L1.37623 34.9348L1.58795 35.0407C1.58795 35.2524 1.58795 35.4642 1.48209 35.7817L3.07004 36.6286L4.3404 34.4055L2.75245 33.4528L2.32899 33.9821L2.01141 33.7703L3.1759 31.6531L3.38763 31.7589C3.38763 31.9707 3.38763 32.1824 3.28176 32.5L6.98698 34.5114L7.41043 34.0879Z" fill="#FEFEEF"/>
<path d="M12.386 27.3127L12.7036 27.5245L11.2215 29.5359L11.0098 29.43C11.0098 29.2183 11.1156 28.9007 11.2215 28.5831L10.1628 28.3714L8.89249 30.171L9.42181 31.1238L10.057 30.4886L10.2687 30.7003L8.89249 32.5L8.68076 32.3942C8.68076 32.1824 8.78663 31.9707 8.89249 31.6531L6.45764 27.4186H6.24591L6.66936 26.4658L11.9625 27.7362L12.386 27.3127ZM9.52767 28.1596L7.41041 27.6303L8.46904 29.6417L9.52767 28.1596Z" fill="#FEFEEF"/>
<path d="M15.6677 23.7133L15.9853 24.0308L14.2915 25.9364L14.0798 25.8305L14.3974 25.0895L11.3273 22.2312L10.798 22.6546L10.3746 22.2312L11.9625 20.5374L12.1742 20.6432C12.1742 20.7491 12.0684 21.0667 11.8567 21.3843L14.9267 24.2426L15.6677 23.7133Z" fill="#FEFEEF"/>
<path d="M21.5961 18.3142L21.8078 18.6318L20.6433 19.5846L18.4202 18.8435L17.785 19.3728L18.8436 20.5373L19.5847 20.008L19.7964 20.3256L17.8909 22.0194L17.6791 21.8077L17.9967 21.0667L15.2443 17.8908L14.715 18.2083L14.5032 17.8908L16.4088 16.1969C16.9381 15.7735 17.3615 15.5618 17.8909 15.5618C18.4202 15.5618 18.7378 15.6676 19.0554 15.9852C19.2671 16.1969 19.3729 16.5145 19.3729 16.8321C19.3729 17.1497 19.2671 17.5732 19.1612 17.8908L21.1726 18.4201L21.5961 18.3142ZM17.3615 18.9494C17.5733 18.8435 17.785 18.6318 17.8909 18.5259C18.2084 18.2083 18.4202 17.8908 18.4202 17.679C18.4202 17.3614 18.3143 17.1497 18.1026 16.938C17.785 16.5145 17.3615 16.4087 16.9381 16.5145L15.9853 17.4673L17.3615 18.9494Z" fill="#FEFEEF"/>
<path d="M27.2069 14.1857L26.1482 15.7737C25.4072 16.303 24.6661 16.5147 24.031 16.4088C23.3958 16.303 22.7606 15.8795 22.2313 15.2443C21.8078 14.6092 21.5961 13.8681 21.702 13.1271C21.8078 12.386 22.2313 11.7509 22.8665 11.3274C23.3958 11.0098 23.9251 10.7981 24.5603 10.7981L24.6661 11.0098C24.8779 11.3274 25.0896 11.645 25.0896 12.0685L24.5603 12.386L23.9251 11.645C23.5016 11.7509 23.0782 11.8567 22.6547 12.1743L22.443 12.2802C22.3371 12.5978 22.2313 13.0212 22.3371 13.3388C22.443 13.7623 22.5489 14.0799 22.7606 14.3974C23.0782 14.9268 23.6075 15.2443 24.1368 15.4561C24.6661 15.5619 25.1955 15.4561 25.6189 15.1385L26.4658 13.974L27.2069 14.1857Z" fill="#FEFEEF"/>
<path d="M32.7117 6.14014C32.6058 6.246 32.3941 6.45773 32.1824 6.77532L33.241 8.99844C33.9821 10.4805 33.6645 11.4333 32.3941 12.0685C31.7589 12.3861 31.1238 12.4919 30.4886 12.2802C29.8534 12.0685 29.4299 11.645 29.1124 11.0098L27.9479 8.78672L27.3127 8.99844L27.101 8.68085L29.2182 7.62222L29.4299 7.83395C29.3241 7.93981 29.1124 8.15154 28.9006 8.46913L30.0651 10.6923C30.2768 11.1157 30.5944 11.4333 31.0179 11.645C31.3355 11.7509 31.7589 11.7509 32.1824 11.5392C32.3941 11.4333 32.6058 11.2216 32.8176 11.0098C33.0293 10.5864 32.9234 10.0571 32.6058 9.42189L31.4413 7.19877L30.7003 7.41049L30.4886 7.09291L32.5 6.14014H32.7117Z" fill="#FEFEEF"/>
<path d="M40.3339 2.96411L40.4397 3.17584C40.5456 3.59929 40.6515 4.02274 40.7573 4.4462L40.228 4.65792L39.8046 3.81102L38.5342 4.23447L39.9104 8.25727L40.8632 8.04554L40.9691 8.469L38.3225 9.42177L38.2166 9.21004L38.7459 8.78659L38.9577 8.469L37.5814 4.55206L36.4169 4.97551L36.6287 5.82242L36.0993 6.03414C35.8876 5.61069 35.6759 5.2931 35.57 4.86965L35.4642 4.65792L37.899 3.81102C38.7459 3.59929 39.5928 3.2817 40.3339 2.96411Z" fill="#FEFEEF"/>
<path d="M48.3795 5.08153C48.4853 5.50498 48.3795 5.92843 48.0619 6.35188C47.7443 6.66947 47.3208 6.98706 46.7915 7.09293C46.4739 7.19879 46.1564 7.19879 45.7329 7.19879C45.3094 7.19879 44.9919 7.09293 44.7801 6.98706L44.6743 6.66947C44.5684 6.24602 44.5684 5.92843 44.5684 5.50498L45.0977 5.39912L45.5212 6.35188C45.9446 6.45775 46.3681 6.45775 46.8974 6.35188H47.1091C47.4267 6.14016 47.5326 5.82257 47.4267 5.50498C47.3208 5.18739 47.1091 4.97566 46.6857 4.8698L45.2036 4.55221C44.5684 4.34048 44.145 4.02289 44.0391 3.49358C43.9332 3.07013 44.0391 2.64667 44.3567 2.32908C44.6743 2.01149 45.0977 1.6939 45.7329 1.58804C46.1564 1.48218 46.6857 1.48218 47.3208 1.48218C47.4267 1.90563 47.5326 2.43495 47.5326 2.8584L47.0033 2.96426L46.5798 2.22322C46.2622 2.11736 45.8388 2.11736 45.4153 2.22322L45.2036 2.32908C44.9919 2.54081 44.886 2.75254 44.9919 3.07013C45.0977 3.38772 45.3094 3.49358 45.7329 3.59944L47.1091 3.91703C47.8502 4.12876 48.2736 4.44635 48.3795 5.08153Z" fill="#FEFEEF"/>
<path d="M61.9299 4.97557V5.39902H59.3892L59.2834 5.1873C59.4951 5.08143 59.7068 4.97557 60.0244 4.86971L59.601 3.91694H57.3778L56.9544 4.97557L57.8013 5.08143V5.50489H55.4723L55.684 5.29316C55.8957 5.1873 56.1075 5.08143 56.4251 4.97557L58.2247 0.423453L58.1189 0.211726L59.0716 0L61.2948 4.97557H61.9299ZM59.4951 3.38762L58.6482 1.27036L57.8013 3.38762H59.4951Z" fill="#FEFEEF"/>
<path d="M69.4463 6.13995H68.3876L66.0586 1.58783V2.64647L65.6352 5.18718L66.3762 5.39891L66.2704 5.82236L64.0472 5.61064V5.39891L64.7883 5.18718L65.3176 0.952656L64.7883 0.846793L64.8941 0.42334L66.588 0.635066L68.9169 5.08132V4.02269L69.2345 1.37611L68.3876 1.16438L68.4935 0.740929L70.7166 1.05852V1.27025C70.5049 1.37611 70.2932 1.37611 69.9756 1.48197L69.4463 6.13995Z" fill="#FEFEEF"/>
<path d="M76.645 2.22316C77.386 2.43489 77.9153 2.85834 78.3388 3.49352C78.6564 4.1287 78.7622 4.76388 78.6564 5.50492C78.4446 6.24596 78.0212 6.77528 77.386 7.19873C76.7508 7.51632 76.0098 7.62219 75.1629 7.41046L72.728 6.77528V6.56355L73.4691 6.35183L74.5277 2.22316L73.9984 2.01144L74.1043 1.69385C74.9512 1.90557 75.9039 2.01144 76.645 2.22316ZM75.1629 6.77528C75.6922 6.88114 76.1157 6.88114 76.5391 6.56355C76.9626 6.24596 77.2801 5.82251 77.386 5.2932C77.4919 4.86974 77.4919 4.44629 77.386 4.02284C77.2801 3.59938 77.0684 3.2818 76.8567 2.96421L75.4805 2.75248L74.5277 6.56355C74.7394 6.56355 74.9512 6.66942 75.1629 6.77528Z" fill="#FEFEEF"/>
<path d="M89.031 11.2216C88.8193 11.6451 88.5017 11.8568 87.9723 11.9626C87.5489 12.0685 87.0196 11.9626 86.4903 11.7509C86.1727 11.6451 85.8551 11.4333 85.6434 11.1157C85.3258 10.904 85.114 10.5864 85.0082 10.3747L85.114 10.163C85.3258 9.73952 85.5375 9.42193 85.7492 9.2102L86.2785 9.42193L86.0668 10.4806C86.2785 10.7982 86.5961 11.1157 87.1254 11.3275L87.3372 11.4333C87.6548 11.4333 87.9723 11.3275 88.0782 11.0099C88.1841 10.6923 88.1841 10.3747 87.8665 10.0571L86.9137 8.89261C86.4903 8.3633 86.3844 7.83398 86.702 7.30467C86.9137 6.88121 87.2313 6.66949 87.7606 6.56362C88.2899 6.45776 88.7134 6.56362 89.3486 6.88121C89.772 7.09294 90.1955 7.41053 90.6189 7.83398C90.4072 8.25744 90.1955 8.68089 89.8779 9.10434L89.3486 8.89261L89.5603 8.04571C89.3486 7.72812 89.031 7.51639 88.6075 7.30467L88.3958 7.1988C88.0782 7.1988 87.8665 7.41053 87.7606 7.62226C87.6548 7.83398 87.7606 8.15157 87.9723 8.57503L88.9251 9.63366C89.2427 10.163 89.3486 10.6923 89.031 11.2216Z" fill="#FEFEEF"/>
<path d="M96.3355 16.938L96.1238 17.2556L94.0065 15.8794L94.1124 15.6677L94.8534 15.8794L95.8062 14.3973L93.6889 13.0211L92.7362 14.5032L93.3713 15.0325L93.1596 15.2442L91.0424 13.868L91.1482 13.6563L91.8893 13.868L94.2183 10.2686L93.6889 9.84518L93.9007 9.52759L95.9121 10.7979L95.8062 11.0097C95.5945 11.0097 95.3828 10.9038 95.0652 10.7979L94.1124 12.28L96.2297 13.6563L97.2883 12.0683L96.759 11.6449L96.9707 11.3273L98.9821 12.5976L98.8762 12.8093C98.6645 12.8093 98.4528 12.7035 98.1352 12.5976L95.8062 16.0911L96.3355 16.938Z" fill="#FEFEEF"/>
<path d="M102.793 22.3372L102.476 22.6548L100.57 20.961L100.676 20.7492C100.888 20.7492 101.099 20.8551 101.523 21.0668L101.84 20.1141L100.147 18.632L99.088 19.1613L99.6173 19.7965L99.5114 20.0082L97.8176 18.5261L97.9235 18.3144C98.1352 18.4202 98.3469 18.4202 98.6645 18.5261L103.111 16.5147L103.217 16.303L104.064 16.7264L102.37 21.9137L102.793 22.3372ZM102.052 19.4789L102.793 17.3616L100.782 18.3144L102.052 19.4789Z" fill="#FEFEEF"/>
<path d="M105.757 26.1481C105.546 25.9364 105.228 25.7247 105.016 25.4071L107.451 20.7491L107.028 20.2198L107.345 20.0081L109.039 21.8077L108.933 22.0195C108.722 21.9136 108.51 21.8077 108.192 21.7019L106.604 24.5602L105.969 25.3012L109.992 23.7133L109.568 23.0781L109.886 22.8664L111.368 24.4543L111.262 24.666C111.156 24.666 110.945 24.5602 110.627 24.3484L105.757 26.1481Z" fill="#FEFEEF"/>
<path d="M112.638 32.4999C112.215 32.8175 111.792 33.0292 111.368 33.241L108.933 29.7475L109.039 29.6416L109.674 30.0651L113.168 27.6302L112.85 27.1009L113.168 26.8892L115.603 30.3826L115.391 30.4885C115.073 30.7002 114.756 30.912 114.332 31.1237L114.015 30.5944L114.544 30.0651L113.697 28.583L112.215 29.6416L113.379 31.1237L112.744 31.5471L111.686 29.9592L110.204 30.912L111.262 32.2882L112.109 31.9706L112.638 32.4999Z" fill="#FEFEEF"/>
<path d="M116.132 38.9577C115.708 39.1694 115.285 39.1694 114.862 38.9577C114.438 38.746 114.015 38.4284 113.803 37.899C113.697 37.5815 113.485 37.2639 113.379 36.9463C113.274 36.5228 113.274 36.2052 113.274 35.9935L113.485 35.8876C113.803 35.6759 114.226 35.5701 114.544 35.4642L114.756 35.9935L113.909 36.7346C113.909 37.158 114.015 37.5815 114.226 38.0049L114.332 38.2166C114.65 38.4284 114.862 38.4284 115.179 38.3225C115.391 38.2166 115.603 37.899 115.603 37.4756L115.497 35.9935C115.497 35.2525 115.708 34.829 116.238 34.6173C116.661 34.4056 117.085 34.4056 117.508 34.6173C117.932 34.829 118.355 35.2525 118.567 35.7818C118.779 36.2052 118.99 36.7346 119.096 37.2639C118.673 37.4756 118.249 37.6873 117.826 37.7932L117.508 37.2639L118.143 36.7346C118.143 36.417 118.037 35.9935 117.826 35.5701L117.72 35.3583C117.508 35.1466 117.191 35.1466 116.873 35.3583C116.661 35.4642 116.555 35.7818 116.555 36.2052L116.661 37.5815C116.873 38.1108 116.661 38.6401 116.132 38.9577Z" fill="#FEFEEF"/>
</g>
<defs>
<clipPath id="clip0_476_48">
<rect width="119.414" height="130" fill="white"/>
</clipPath>
</defs>
</svg>
