<svg width="124" height="110" viewBox="0 0 124 110" fill="none" xmlns="http://www.w3.org/2000/svg">
<g clip-path="url(#clip0_391_1251)">
<path d="M0 109.837V108.484L1.19815 108.253V100.175L0 99.9434V98.5828H1.19815H5.00134C6.32575 98.5828 7.359 98.84 8.10109 99.3553C8.84315 99.8706 9.21419 100.641 9.21419 101.667C9.21419 102.187 9.07508 102.654 8.79678 103.066C8.52365 103.474 8.12428 103.78 7.59864 103.986C8.04697 104.084 8.42059 104.256 8.71953 104.504C9.02355 104.751 9.25032 105.052 9.39975 105.409C9.54918 105.759 9.6239 106.142 9.6239 106.56C9.6239 107.637 9.26835 108.454 8.55715 109.011C7.846 109.562 6.83851 109.837 5.53471 109.837H0ZM3.45533 108.106H5.53471C6.1325 108.106 6.58858 107.978 6.90293 107.72C7.21729 107.456 7.37447 107.071 7.37447 106.56C7.37447 106.189 7.3152 105.877 7.19667 105.624C7.07814 105.372 6.8952 105.182 6.64784 105.052C6.40563 104.924 6.09128 104.86 5.70478 104.86H3.45533V108.106ZM3.45533 103.298H5.07864C5.68158 103.298 6.14539 103.174 6.47005 102.927C6.79471 102.68 6.95704 102.319 6.95704 101.845C6.95704 101.324 6.79214 100.94 6.46232 100.693C6.13765 100.446 5.65067 100.322 5.00134 100.322H3.45533V103.298Z" fill="#FEFEEF"/>
<path d="M10.3892 109.837V108.484L11.5873 108.253V100.175L10.3892 99.9434V98.5828H19.1241V101.62H17.3926L17.2921 100.322H13.8445V103.151H17.6554V104.89H13.8445V108.106H17.4776L17.5781 106.761H19.2942V109.837H10.3892Z" fill="#FEFEEF"/>
<path d="M20.3841 109.837V108.484L21.188 108.369L24.7671 98.5828H27.0784L30.6341 108.369L31.4381 108.484V109.837H27.604V108.484L28.3847 108.346L27.89 106.8H23.9322L23.4375 108.346L24.2182 108.484V109.837H20.3841ZM24.4656 105.138H27.3567L26.0425 101.28L25.9343 100.94H25.8879L25.772 101.304L24.4656 105.138Z" fill="#FEFEEF"/>
<path d="M37.2897 110C36.3982 110 35.6123 109.845 34.9321 109.536C34.257 109.227 33.7313 108.779 33.3551 108.191C32.9789 107.604 32.7908 106.889 32.7908 106.05V100.175L31.5927 99.9434V98.5828H36.2539V99.9434L35.048 100.175V106.05C35.048 106.544 35.1382 106.957 35.3185 107.286C35.4989 107.616 35.7566 107.864 36.0916 108.028C36.4266 108.188 36.826 108.269 37.2897 108.269C37.7638 108.269 38.1684 108.188 38.5034 108.028C38.8435 107.864 39.1037 107.616 39.2841 107.286C39.4644 106.957 39.5546 106.544 39.5546 106.05V100.175L38.3565 99.9434V98.5828H43.0177V99.9434L41.8118 100.175V106.05C41.8118 106.889 41.6211 107.606 41.2398 108.198C40.8636 108.787 40.3354 109.235 39.6552 109.544C38.98 109.848 38.1916 110 37.2897 110Z" fill="#FEFEEF"/>
<path d="M46.3416 109.837V108.484L47.5475 108.253V100.322H45.499L45.3753 101.667H43.667V98.5828H53.7083V101.667H51.9923L51.8686 100.322H49.8047V108.253L51.0183 108.484V109.837H46.3416Z" fill="#FEFEEF"/>
<path d="M57.6816 109.837V108.484L58.8875 108.253V105.981L55.5481 100.097L54.4659 99.9434V98.5828H58.957V99.9434L58.0372 100.075L59.9079 103.669L60.0779 104.032L60.1243 104.024L60.2944 103.684L62.3737 100.075L61.1369 99.9434V98.5828H65.5431V99.9434L64.43 100.097L61.1369 105.802V108.253L62.3428 108.484V109.837H57.6816Z" fill="#FEFEEF"/>
<path d="M74.7496 110C73.9198 110 73.1649 109.907 72.4847 109.722C71.8044 109.536 71.1345 109.214 70.4748 108.755V106.034H72.2219L72.4615 107.635C72.6933 107.83 73.0128 107.99 73.42 108.114C73.8271 108.232 74.2703 108.292 74.7496 108.292C75.1566 108.292 75.4993 108.235 75.7776 108.121C76.0611 108.008 76.2749 107.848 76.4192 107.643C76.5687 107.431 76.6434 107.184 76.6434 106.9C76.6434 106.632 76.5764 106.395 76.4424 106.189C76.3136 105.977 76.0971 105.787 75.7931 105.617C75.4942 105.442 75.0871 105.274 74.5718 105.114C73.6802 104.852 72.9407 104.566 72.3533 104.256C71.7709 103.942 71.3329 103.568 71.0391 103.136C70.7506 102.698 70.6062 102.172 70.6062 101.559C70.6062 100.95 70.7737 100.415 71.1086 99.951C71.4488 99.4822 71.9177 99.1133 72.5155 98.8451C73.1134 98.5777 73.8039 98.4381 74.5872 98.4279C75.453 98.4178 76.2182 98.521 76.8831 98.7376C77.553 98.9534 78.1301 99.2555 78.6145 99.6413V102.177H76.9216L76.6279 100.631C76.4321 100.508 76.1667 100.399 75.8317 100.306C75.502 100.213 75.1258 100.168 74.7032 100.168C74.3424 100.168 74.0229 100.222 73.7447 100.329C73.4715 100.438 73.2551 100.595 73.0953 100.801C72.9356 101.007 72.8557 101.257 72.8557 101.551C72.8557 101.803 72.9253 102.025 73.0644 102.216C73.2036 102.401 73.4354 102.579 73.7601 102.749C74.0899 102.914 74.5434 103.092 75.1206 103.282C76.3625 103.628 77.303 104.084 77.942 104.651C78.5862 105.217 78.9083 105.962 78.9083 106.884C78.9083 107.524 78.7356 108.077 78.3904 108.547C78.0451 109.011 77.5607 109.369 76.9371 109.621C76.3136 109.874 75.5844 110 74.7496 110Z" fill="#FEFEEF"/>
<path d="M79.6891 109.837V108.484L80.493 108.369L84.072 98.5828H86.383L89.9394 108.369L90.7432 108.484V109.837H86.9093V108.484L87.6895 108.346L87.1953 106.8H83.2372L82.7424 108.346L83.5232 108.484V109.837H79.6891ZM83.7705 105.138H86.6614L85.3473 101.28L85.239 100.94H85.1925L85.0765 101.304L83.7705 105.138Z" fill="#FEFEEF"/>
<path d="M91.4929 109.837V108.484L92.6911 108.253V100.175L91.4929 99.9434V98.5828H92.6911H94.9478H96.3084V99.9434L94.9478 100.175V108.106H98.1251L98.2334 106.46H99.957V109.837H91.4929Z" fill="#FEFEEF"/>
<path d="M105.724 110C104.966 110 104.276 109.859 103.652 109.575C103.029 109.292 102.49 108.895 102.037 108.385C101.588 107.869 101.243 107.266 101.001 106.576C100.758 105.88 100.637 105.119 100.637 104.295V104.125C100.637 103.306 100.758 102.55 101.001 101.86C101.243 101.164 101.588 100.559 102.037 100.043C102.485 99.528 103.021 99.1286 103.645 98.8452C104.268 98.5617 104.959 98.4204 105.716 98.4204C106.479 98.4204 107.175 98.5617 107.803 98.8452C108.432 99.1286 108.973 99.528 109.426 100.043C109.88 100.559 110.228 101.164 110.47 101.86C110.718 102.55 110.841 103.306 110.841 104.125V104.295C110.841 105.119 110.718 105.88 110.47 106.576C110.228 107.266 109.88 107.869 109.426 108.385C108.973 108.895 108.432 109.292 107.803 109.575C107.18 109.859 106.487 110 105.724 110ZM105.724 108.245C106.363 108.245 106.894 108.08 107.316 107.751C107.739 107.421 108.056 106.96 108.267 106.367C108.484 105.774 108.592 105.084 108.592 104.295V104.11C108.592 103.331 108.484 102.649 108.267 102.061C108.05 101.468 107.728 101.007 107.301 100.678C106.879 100.348 106.35 100.183 105.716 100.183C105.087 100.183 104.564 100.348 104.147 100.678C103.729 101.002 103.415 101.458 103.204 102.046C102.998 102.633 102.895 103.321 102.895 104.11V104.295C102.895 105.084 102.998 105.774 103.204 106.367C103.415 106.96 103.729 107.421 104.147 107.751C104.569 108.08 105.095 108.245 105.724 108.245Z" fill="#FEFEEF"/>
<path d="M111.746 109.837V108.484L112.944 108.253V100.175L111.746 99.9434V98.5828H112.944H115.232L120.133 106.39L120.179 106.383V100.175L118.742 99.9434V98.5828H122.196H123.402V99.9434L122.196 100.175V109.837H120.017L115.008 102.108L114.961 102.115V108.253L116.407 108.484V109.837H111.746Z" fill="#FEFEEF"/>
<path d="M61.3967 15.4708C61.4633 15.4839 61.5276 15.5061 61.5881 15.5368C62.0985 15.6096 62.6018 15.7265 63.092 15.8865C63.2439 15.8524 63.401 15.8496 63.5541 15.8779C63.7071 15.9063 63.8529 15.9652 63.9825 16.0514L64.3321 16.2954C75.7767 17.8126 77.6105 24.1714 79.7081 34.7651C80.902 40.8205 83.5603 46.1107 90.2948 47.0342C96.0935 47.8323 101.384 44.6793 104.437 39.9498C104.002 33.6649 102.187 27.5531 99.1235 22.0483C96.0596 16.5435 91.8212 11.7807 86.7096 8.09782C81.5985 4.41499 75.7391 1.9025 69.5475 0.738711C63.3559 -0.425075 56.9841 -0.211628 50.8843 1.36391C44.7845 2.93945 39.1063 5.83844 34.2528 9.85507C29.3994 13.8718 25.4896 18.9076 22.801 24.6051C20.1126 30.3025 18.7112 36.522 18.6964 42.822C18.6818 49.122 20.0541 55.3479 22.716 61.058C15.8361 37.4102 35.4996 9.71232 61.3967 15.4708Z" fill="#FEFEEF"/>
<path d="M88.9232 48.2214C82.1096 46.8429 79.2731 41.3811 77.8945 35.1344C76.1531 27.2188 74.9394 21.9418 68.7322 19.6528C71.7269 22.331 73.3958 25.3389 72.347 30.5499C71.5488 34.5077 68.5014 43.0302 69.0489 46.5724C69.5436 49.8706 71.6874 52.4563 74.5765 54.2901L73.2969 43.2544V43.1753V42.6542L79.6953 56.579C82.6817 57.501 85.833 57.7599 88.9299 57.3376C97.8154 55.9193 102.374 49.488 104.497 41.8758C104.497 41.6648 104.497 41.4536 104.497 41.2162C101.213 46.3151 95.2033 49.4946 88.9232 48.2214Z" fill="#FEFEEF"/>
<path d="M58.5869 61.6846C45.4603 51.3416 39.8535 64.9235 41.2189 54.5936L41.8785 49.5409L40.7704 47.4696L42.426 45.9524C41.6708 45.4297 41.0161 44.7749 40.4933 44.0197C39.8337 42.9115 41.6015 40.5699 41.6015 40.5699C41.6015 40.5699 36.9049 36.9815 38.3034 36.843C39.7017 36.7044 46.8785 34.2044 47.6833 30.3522C49.2202 23.1952 52.1094 19 55.2954 16.9683C35.6318 16.0844 20.8166 36.0184 22.492 55.5896C22.7567 58.3233 23.2757 61.0263 24.0421 63.6635C27.3452 69.6441 32.028 74.7499 37.7013 78.5565C43.3746 82.3632 49.8745 84.761 56.6608 85.5504C70.5131 87.1463 66.0804 67.5883 58.5869 61.6846Z" fill="#FEFEEF"/>
<path d="M79.9787 58.9868L74.5368 47.5884L75.9747 55.9723L79.9787 58.9868Z" fill="#FEFEEF"/>
<path d="M75.8164 62.6873L63.6067 46.744L64.009 46.9617V46.9287L64.1014 47.0408L68.1779 50.1147C67.9231 49.6045 67.7028 49.0778 67.5183 48.5382C65.6384 43.0039 69.8072 34.5342 70.4338 28.7163C70.632 27.1171 70.3057 25.4967 69.5038 24.0989C69.6324 25.8563 69.336 27.6188 68.6397 29.2374C62.2874 44.4089 51.2452 52.9841 67.2544 60.7018C70.0958 62.0817 73.0454 63.2267 76.0737 64.1253L75.8164 62.6873Z" fill="#FEFEEF"/>
<path d="M95.5858 65.6159C94.4358 65.2262 93.2022 65.1542 92.0142 65.4072C90.8262 65.6603 89.7295 66.2292 88.8377 67.0539L87.1293 65.7346H87.1818L81.4632 61.9549V62.0143L80.5001 61.17L68.3893 51.4207L76.6149 62.6344L77.0503 68.4391L77.6307 72.8784C76.0536 73.3673 74.7088 74.4144 73.8481 75.8235C72.9874 77.2325 72.6698 78.907 72.9548 80.5334C73.2399 82.1597 74.1079 83.6265 75.3965 84.6585C76.6851 85.6917 78.3059 86.2188 79.9553 86.1418C81.6047 86.0657 83.1696 85.3904 84.357 84.2429C85.5445 83.0956 86.273 81.5547 86.4058 79.909C86.5395 78.2632 86.0674 76.6253 85.0799 75.302C84.0927 73.9788 82.6566 73.0608 81.0411 72.7201C80.7705 72.6673 80.5001 72.6344 80.2231 72.608L81.2587 67.0143L87.2681 69.1977C87.1471 69.4431 87.0438 69.6966 86.9575 69.9562C86.5336 71.2306 86.4964 72.602 86.8509 73.8974C87.2055 75.1928 87.9365 76.354 88.9511 77.2344C89.9648 78.1147 91.2179 78.6746 92.5498 78.8434C93.8825 79.0122 95.2346 78.7823 96.437 78.1828C97.6385 77.5832 98.6362 76.6409 99.3021 75.4749C99.9688 74.3089 100.275 72.9715 100.182 71.6317C100.089 70.2918 99.6008 69.0097 98.7792 67.9472C97.9575 66.8847 96.8389 66.0895 95.5663 65.6621L95.5858 65.6159ZM80.5792 74.9299C81.5937 75.1467 82.5016 75.7085 83.1484 76.5195C83.7952 77.3306 84.1409 78.3407 84.1266 79.3779C84.1124 80.4152 83.739 81.4155 83.0702 82.2084C82.4013 83.0013 81.4784 83.5379 80.4583 83.7268C79.4384 83.9157 78.3844 83.7452 77.476 83.2443C76.5675 82.7435 75.8607 81.9433 75.476 80.9799C75.0912 80.0165 75.0523 78.9496 75.3658 77.9608C75.6793 76.9719 76.3259 76.1223 77.1954 75.5565C77.6904 75.2345 78.2441 75.0133 78.8248 74.9057C79.4055 74.7983 80.0017 74.8064 80.5792 74.9299ZM79.5107 64.7848C79.2498 64.7848 78.9946 64.7074 78.7778 64.5624C78.5608 64.4175 78.3917 64.2115 78.2918 63.9704C78.192 63.7293 78.1658 63.464 78.2168 63.2082C78.2677 62.9522 78.3933 62.7171 78.5778 62.5327C78.7623 62.3481 78.9974 62.2225 79.2533 62.1716C79.5092 62.1207 79.7744 62.1468 80.0155 62.2467C80.2566 62.3465 80.4626 62.5156 80.6076 62.7325C80.7525 62.9495 80.8299 63.2046 80.8299 63.4655C80.8299 63.8154 80.6909 64.151 80.4435 64.3984C80.1961 64.6458 79.8606 64.7848 79.5107 64.7848ZM97.6969 73.5249C97.3669 74.512 96.7061 75.3545 95.8252 75.9087C94.9444 76.4629 93.8985 76.6945 92.8662 76.5642C91.8331 76.4338 90.8778 75.9496 90.1628 75.1939C89.4469 74.4381 89.0154 73.4577 88.9418 72.4197C88.8682 71.3815 89.1567 70.35 89.7583 69.5008C90.3599 68.6515 91.2374 68.0371 92.2409 67.7621C93.2445 67.4872 94.3123 67.5687 95.2625 67.9928C96.2128 68.417 96.987 69.1575 97.4524 70.0882C97.9795 71.1463 98.0667 72.3695 97.6969 73.4919V73.5249Z" fill="#FEFEEF"/>
<path d="M92.2739 58.0566C88.506 59.2609 84.4863 59.4431 80.6251 58.5843L81.3507 60.1674L87.3933 65.6753C96.8914 65.1542 103.66 59.0791 104.451 45.6028C102.314 51.2295 98.5008 55.893 92.2739 58.0566Z" fill="#FEFEEF"/>
<path fill-rule="evenodd" clip-rule="evenodd" d="M99.1608 70.7546C98.912 70.7797 98.6827 70.9018 98.5236 71.0945C98.3645 71.287 98.2875 71.5347 98.3095 71.7836C98.2968 72.0258 98.3781 72.2635 98.5372 72.4468C98.6954 72.6301 98.9188 72.7447 99.1608 72.7665H102.703C102.951 72.7399 103.178 72.6174 103.337 72.4251C103.496 72.2329 103.574 71.9861 103.554 71.7375C103.56 71.6145 103.542 71.4914 103.501 71.3754C103.459 71.2594 103.395 71.1527 103.312 71.0614C103.23 70.9701 103.13 70.8959 103.018 70.8433C102.907 70.7907 102.787 70.7606 102.663 70.7546H99.1608Z" fill="#FEFEEF"/>
<path fill-rule="evenodd" clip-rule="evenodd" d="M55.2954 16.9683C35.6318 16.0844 20.8166 36.0184 22.492 55.5896C22.7567 58.3233 23.2757 61.0263 24.0421 63.6635C27.3452 69.6441 32.028 74.7499 37.7013 78.5565C43.3746 82.3632 49.8745 84.761 56.6608 85.5504C70.5131 87.1463 66.0804 67.5883 58.5869 61.6846C45.4603 51.3416 39.8535 64.9235 41.2189 54.5936L41.8785 49.5409L40.7704 47.4696L42.426 45.9524C41.6708 45.4297 41.0161 44.7749 40.4933 44.0197C39.8337 42.9115 41.6015 40.5699 41.6015 40.5699C41.6015 40.5699 36.9049 36.9815 38.3034 36.843C39.7017 36.7044 46.8785 34.2044 47.6833 30.3522C49.2202 23.2281 52.1094 19 55.2954 16.9683Z" fill="#FEFEEF"/>
</g>
<defs>
<clipPath id="clip0_391_1251">
<rect width="123.538" height="110" fill="white"/>
</clipPath>
</defs>
</svg>
