<svg xmlns="http://www.w3.org/2000/svg" xmlns:xlink="http://www.w3.org/1999/xlink" width="142" height="110" fill="none" xmlns:v="https://vecta.io/nano"><style><![CDATA[.B{fill:#fefeef}.C{fill:#252729}]]></style><g class="B"><path d="M75.669 31.05a9.77 9.77 0 0 0-13.383 2.743v-.776H60.91c-.275 0-.538.109-.732.303s-.303.457-.303.732v.341c-.003.17-.046.338-.125.488s-.192.281-.33.381c-.931.673-2.981 2.681-3.178 7.421.014.343.163.667.416.9a1.29 1.29 0 0 0 .431.264c.16.059.329.085.499.079a1.3 1.3 0 0 0 .491-.118c.154-.071.293-.172.409-.297s.205-.271.264-.431.085-.329.079-.499c-.186-1.553-.217-4.016 1.035-5.713.096-.129.221-.233.365-.305s.302-.109.463-.109h.373c-.528 1.795-.707 3.675-.528 5.537l1.635 19.199a1.11 1.11 0 0 0 .393.756l1.366 1.19a1.13 1.13 0 0 1 .404.838l.062 3.954h-.486a.9.9 0 0 0-.89.89v.373h-.166a.67.67 0 0 0-.528.249.67.67 0 0 0-.132.269c-.023.098-.024.201-.002.299l.828 4.037v2.07a.89.89 0 0 0 .89.88h.631l.072 4.047c.013.909.383 1.776 1.03 2.415s1.518.998 2.427 1.001h.517l.466 6.448a.85.85 0 0 0 .209.496c.121.138.284.233.464.27v3.033h1.304v-3.084c.18-.037.343-.132.464-.271s.195-.311.209-.495l.466-6.448h.517c.911 0 1.785-.358 2.434-.997s1.02-1.508 1.034-2.418l.269-17.036c.003-.162.042-.321.113-.466a1.1 1.1 0 0 1 .301-.373l1.387-1.149a1.17 1.17 0 0 0 .404-.756l1.625-19.199c.476-6.055-1.998-9.243-4.585-10.961z"/><path d="M78.122 21.735a.35.35 0 0 0-.232.095c-.063.059-.102.139-.11.226l-.859 4.388c0 .072-.114.062-.124 0l-.207-4.399a.32.32 0 0 0-.321-.31.33.33 0 0 0-.321.31l-.207 4.865-.186-4.865a.32.32 0 0 0-.321-.31.33.33 0 0 0-.321.31l-.248 4.865-.145-4.865a.32.32 0 0 0-.321-.31.33.33 0 0 0-.321.31l-.29 4.865-.197-4.906a.32.32 0 0 0-.321-.311.33.33 0 0 0-.321.311l-.238 4.906-.197-4.906a.32.32 0 0 0-.321-.311.33.33 0 0 0-.321.311l-.259 4.906-.197-4.906a.32.32 0 0 0-.321-.311.33.33 0 0 0-.221.093c-.059.058-.095.135-.1.218l-.197 4.906-.197-4.906a.32.32 0 0 0-.321-.311.33.33 0 0 0-.221.093c-.059.058-.095.135-.1.218l-.259 4.906-.197-4.906a.32.32 0 0 0-.321-.311.33.33 0 0 0-.221.093c-.059.058-.095.135-.1.218l-.238 4.906-.197-4.906a.32.32 0 0 0-.321-.311.33.33 0 0 0-.221.093c-.059.058-.095.135-.1.218l-.238 4.906-.197-4.906a.32.32 0 0 0-.321-.321.32.32 0 0 0-.321.321l-.238 4.906-.197-4.906a.32.32 0 0 0-.321-.321.32.32 0 0 0-.321.321l-.238 4.906-.197-4.906a.32.32 0 0 0-.321-.321.32.32 0 0 0-.321.321l-.207 4.388c0 .017-.007.032-.018.044s-.027.018-.044.018-.032-.006-.044-.018-.018-.027-.018-.044l-.818-4.388c-.01-.087-.051-.167-.116-.226s-.149-.093-.236-.095c-.093 0-.183.037-.249.103s-.103.155-.103.249v12.254h16.187V22.087c0-.093-.037-.183-.103-.249s-.156-.103-.249-.103z"/></g><path d="M73.972 82.852a.88.88 0 0 0 .88-.88.88.88 0 0 0-.88-.88.88.88 0 0 0-.88.88.88.88 0 0 0 .88.88z" class="C"/><use xlink:href="#B" class="B"/><path d="M66.789 82.852a.88.88 0 0 0 .88-.88.88.88 0 0 0-.88-.88.88.88 0 0 0-.88.88.88.88 0 0 0 .88.88z" class="C"/><use xlink:href="#B" x="-7.245" class="B"/><path d="M71.26 31.485a.88.88 0 0 1-.88.869.88.88 0 0 1-.784-.875.88.88 0 0 1 .784-.875.88.88 0 0 1 .88.88z" class="C"/><path d="M70.898 31.992c-.025-.078-.056-.154-.093-.228-.051-.1-.114-.194-.186-.279.07-.087.133-.181.186-.279.036-.077.067-.157.093-.238l-.238.093c-.099.054-.192.116-.279.186-.083-.076-.177-.139-.279-.186-.073-.037-.15-.068-.228-.093a1.19 1.19 0 0 0 .083.238c.054.098.116.192.186.279-.073.086-.135.18-.186.279-.036.072-.064.149-.083.228.079-.019.155-.046.228-.083.1-.051.194-.114.279-.186.087.07.181.133.279.186a1.19 1.19 0 0 0 .238.083z" class="B"/><g class="C"><path d="M65.091 31.05a9.74 9.74 0 0 1 10.578 0c1.471.937 2.659 2.258 3.436 3.819a8.82 8.82 0 0 0-2.608-3.726 9.69 9.69 0 0 0-8.601-1.884 9.15 9.15 0 0 0-6.21 5.61c.768-1.558 1.945-2.878 3.405-3.819z"/><path d="M77.925 33.12a7.3 7.3 0 0 0-.662-.714l-1.615 26.279 2.277-25.565zm-14.428-.745c-.234.226-.455.464-.662.714l2.287 25.596-1.625-26.31zm10.475 31.526l.145 6.603.062 4.14a11.09 11.09 0 0 1-.135 3.043 3.81 3.81 0 0 1-7.307.062c-.145-.648-.197-1.314-.155-1.977v-4.357l.155-7.545.145 6.21v3.974 2.122a4.2 4.2 0 0 0 .321 1.853 3.4 3.4 0 0 0 1.229 1.372c.528.335 1.138.52 1.764.532a3.4 3.4 0 0 0 1.782-.465 3.41 3.41 0 0 0 1.28-1.325 6.43 6.43 0 0 0 .383-2.939v-4.14l.331-7.162zm-8.518-27.935c.059-.002.116-.017.169-.043a.41.41 0 0 0 .137-.107c.037-.045.066-.097.083-.153s.022-.115.015-.174a.48.48 0 0 0-.135-.327.49.49 0 0 0-.321-.149c-.059.002-.116.017-.169.043a.42.42 0 0 0-.137.107.43.43 0 0 0-.083.153.41.41 0 0 0-.014.174.48.48 0 0 0 .135.327.49.49 0 0 0 .321.149zm1.645 0a.42.42 0 0 0 .17-.043.44.44 0 0 0 .139-.106c.038-.044.068-.096.086-.153s.024-.115.019-.174c0-.123-.047-.241-.132-.33s-.201-.141-.323-.146a.42.42 0 0 0-.17.043.44.44 0 0 0-.139.106c-.038.044-.068.096-.086.153s-.024.115-.019.174a.48.48 0 0 0 .135.327.49.49 0 0 0 .321.149zm1.635 0a.45.45 0 0 0 .172-.043c.054-.026.102-.061.141-.106s.07-.096.089-.152a.45.45 0 0 0 .023-.175c.003-.12-.041-.237-.122-.325a.47.47 0 0 0-.313-.151c-.059.003-.118.017-.171.042s-.102.062-.141.106-.07.096-.089.152a.45.45 0 0 0-.023.175c-.003.12.041.237.122.325a.47.47 0 0 0 .313.151zm1.646-.952a.48.48 0 0 0-.275.059.47.47 0 0 0-.193.204c-.042.086-.058.183-.045.278s.055.184.12.254.149.12.242.142a.48.48 0 0 0 .501-.193c.055-.079.084-.172.084-.268.003-.12-.041-.237-.122-.325a.47.47 0 0 0-.313-.151zm1.667 0c-.122.005-.236.058-.32.147a.46.46 0 0 0-.125.329.45.45 0 0 0 .115.325c.08.089.19.143.309.151.121-.008.234-.061.317-.15a.47.47 0 0 0 .128-.326.45.45 0 0 0-.115-.325c-.08-.089-.19-.143-.309-.151zm1.624.952c.121-.008.234-.061.317-.15s.128-.205.128-.326c.006-.059-.001-.118-.019-.174s-.047-.108-.086-.153-.086-.081-.139-.106-.111-.04-.17-.043c-.122.008-.236.061-.32.149s-.133.205-.135.327a.47.47 0 0 0 .115.325c.079.089.191.143.309.151zm1.636 0c.122-.01.236-.063.322-.151s.137-.203.144-.325c.006-.059-.001-.118-.019-.174s-.047-.108-.086-.153-.086-.081-.139-.106-.111-.04-.17-.043a.49.49 0 0 0-.321.149c-.085.088-.132.205-.135.327a.42.42 0 0 0 .018.172c.018.056.046.107.083.151a.43.43 0 0 0 .136.107c.052.026.109.042.167.046zm-9.76 1.667c.056-.002.112-.017.162-.041a.41.41 0 0 0 .133-.102c.037-.043.065-.092.082-.146s.023-.11.017-.166c0-.12-.046-.235-.129-.322a.47.47 0 0 0-.316-.144c-.058.003-.114.017-.166.042a.42.42 0 0 0-.136.104.43.43 0 0 0-.084.149.41.41 0 0 0-.018.17c.007.118.058.23.142.314a.49.49 0 0 0 .314.142zm1.573-.922c-.058.003-.114.017-.166.042a.42.42 0 0 0-.136.104.43.43 0 0 0-.084.149.41.41 0 0 0-.018.17.46.46 0 0 0 .129.312.47.47 0 0 0 .306.143.42.42 0 0 0 .167-.038c.053-.024.099-.058.138-.101a.43.43 0 0 0 .087-.147.42.42 0 0 0 .022-.169c0-.12-.046-.235-.129-.322a.47.47 0 0 0-.316-.144zm1.646.922c.116-.005.226-.056.305-.141s.122-.198.119-.314a.46.46 0 0 0-.122-.322.45.45 0 0 0-.312-.144c-.058.003-.116.017-.169.042s-.101.06-.14.103-.07.094-.09.149-.029.113-.026.172a.46.46 0 0 0 .129.312.47.47 0 0 0 .306.143zm1.614-.922a.47.47 0 0 0-.459.257c-.042.084-.057.179-.044.272s.054.18.117.249a.47.47 0 0 0 .237.14c.091.022.187.015.275-.019s.163-.093.216-.17.082-.169.082-.262c.003-.059-.006-.117-.026-.172s-.05-.106-.09-.149-.087-.078-.14-.103-.11-.039-.169-.042zm1.635 0c-.119.005-.231.057-.312.144s-.125.203-.122.322a.42.42 0 0 0 .022.169.43.43 0 0 0 .225.248c.052.024.109.037.167.038a.46.46 0 0 0 .309-.14c.081-.084.126-.198.126-.315a.44.44 0 0 0-.112-.317c-.078-.087-.186-.14-.302-.148zm1.594.922a.48.48 0 0 0 .445-.455.43.43 0 0 0-.109-.32.44.44 0 0 0-.138-.104c-.053-.025-.109-.039-.168-.042-.12.005-.233.057-.316.144s-.129.202-.129.322c-.003.057.006.114.025.168a.43.43 0 0 0 .224.247c.051.024.108.038.165.041z"/><path d="M75.265 36.711c-.119.008-.231.06-.313.146s-.13.2-.132.32c-.006.057 0 .114.018.169s.046.105.084.147.084.077.136.101a.41.41 0 0 0 .165.038.48.48 0 0 0 .445-.455c.007-.058.002-.116-.014-.172a.4.4 0 0 0-.083-.151c-.038-.044-.085-.079-.138-.104a.41.41 0 0 0-.168-.039zm-9.635 2.526c.055-.001.109-.014.159-.036a.39.39 0 0 0 .131-.096c.036-.04.065-.088.083-.14s.025-.107.02-.162c-.003-.117-.05-.229-.133-.312s-.195-.131-.312-.133c-.056.001-.111.014-.161.037s-.096.057-.133.099-.065.091-.082.144a.4.4 0 0 0-.017.165.47.47 0 0 0 .139.303c.082.081.191.127.306.132zm1.552-.88c-.056.001-.112.014-.163.037a.41.41 0 0 0-.241.408c.005.114.052.221.133.302s.188.128.302.133a.42.42 0 0 0 .16-.036c.05-.022.096-.055.134-.096s.067-.088.086-.14a.41.41 0 0 0 .024-.162c-.002-.115-.049-.226-.129-.308s-.19-.132-.305-.137zm1.615.88a.43.43 0 0 0 .162-.036c.051-.022.097-.055.135-.095a.43.43 0 0 0 .089-.14c.02-.052.03-.108.028-.163a.45.45 0 0 0-.123-.308c-.079-.083-.187-.132-.301-.137-.057 0-.113.011-.166.034a.4.4 0 0 0-.138.098.43.43 0 0 0-.088.145c-.019.054-.026.111-.022.168.002.113.048.22.126.301s.185.128.298.134zm1.583-.88c-.089-.006-.178.015-.255.059s-.139.112-.177.193-.052.171-.038.259a.45.45 0 0 0 .114.236c.061.066.14.111.227.131a.44.44 0 0 0 .261-.02c.083-.033.155-.089.205-.163s.078-.161.078-.25c.004-.057-.003-.114-.022-.168s-.049-.103-.088-.145a.42.42 0 0 0-.138-.098.41.41 0 0 0-.166-.034zm1.604 0c-.057.001-.113.014-.166.037s-.099.056-.139.098a.43.43 0 0 0-.091.143c-.021.053-.031.11-.029.167s.006.111.024.162a.4.4 0 0 0 .086.14c.038.04.083.073.133.096a.4.4 0 0 0 .16.036.44.44 0 0 0 .301-.131.43.43 0 0 0 .124-.304c.004-.056-.003-.112-.021-.166a.41.41 0 0 0-.085-.144c-.038-.042-.084-.075-.135-.099s-.106-.036-.163-.037zm1.563.88c.114-.005.221-.052.302-.133s.128-.188.133-.302c.006-.056 0-.113-.018-.167s-.046-.103-.085-.145a.4.4 0 0 0-.301-.132c-.057.001-.113.014-.166.037s-.099.056-.139.098a.44.44 0 0 0-.091.143.43.43 0 0 0-.029.167c-.004.055.003.11.02.161a.39.39 0 0 0 .083.14c.037.04.082.073.131.096s.104.035.159.036zm1.636-.88c-.116.005-.227.053-.309.136a.47.47 0 0 0-.136.309c-.004.055.003.11.02.162s.046.1.083.14.082.073.131.096.104.035.159.036a.45.45 0 0 0 .308-.13.46.46 0 0 0 .137-.305.4.4 0 0 0-.017-.165c-.017-.053-.045-.102-.082-.144s-.082-.075-.133-.099-.106-.036-.161-.037zm-9.471 2.432c.054 0 .107-.011.157-.033a.38.38 0 0 0 .13-.094c.036-.04.063-.087.08-.139s.022-.106.016-.159c-.003-.112-.048-.218-.127-.297a.43.43 0 0 0-.297-.127.39.39 0 0 0-.158.033c-.05.022-.095.053-.132.093s-.065.087-.083.138-.025.106-.02.16c.005.113.053.219.134.298s.188.124.301.127zm1.563-.848a.39.39 0 0 0-.158.033c-.05.022-.095.053-.132.093s-.065.087-.083.138-.025.106-.02.16a.44.44 0 0 0 .13.294.45.45 0 0 0 .294.13c.054-.001.108-.013.158-.035a.41.41 0 0 0 .132-.093c.037-.039.067-.086.086-.137s.029-.105.028-.159c-.005-.113-.053-.219-.134-.298a.44.44 0 0 0-.301-.126zm1.553.848c.054-.001.108-.013.158-.035a.41.41 0 0 0 .132-.093c.037-.039.067-.086.086-.137s.029-.105.028-.159c-.003-.112-.048-.218-.127-.297s-.185-.124-.297-.127c-.054.001-.108.013-.158.035a.41.41 0 0 0-.246.389c.003.112.048.218.127.297s.186.125.297.127zm1.552-.848a.41.41 0 0 0-.159.032c-.05.021-.096.053-.133.093a.42.42 0 0 0-.111.299c.002.055.008.108.028.159s.049.097.086.137.082.071.132.093a.41.41 0 0 0 .158.035c.112 0 .221-.045.3-.124s.124-.187.124-.3-.045-.221-.124-.3-.187-.124-.3-.124zm1.573 0c-.055 0-.11.011-.161.032s-.097.053-.136.093a.41.41 0 0 0-.089.138c-.02.051-.03.106-.029.162s.006.109.025.161.048.098.086.138a.41.41 0 0 0 .133.093c.05.022.105.033.159.033.11-.005.214-.052.291-.131s.121-.184.123-.294c.001-.054-.008-.108-.028-.159s-.049-.097-.086-.137-.082-.071-.132-.093a.41.41 0 0 0-.158-.035zm1.532.848c.112-.003.218-.048.297-.127a.43.43 0 0 0 .127-.297c.004-.054-.003-.109-.02-.16s-.046-.099-.083-.138-.082-.072-.132-.093a.41.41 0 0 0-.158-.033c-.112.003-.218.048-.297.127a.43.43 0 0 0-.127.297.39.39 0 0 0 .103.298c.037.039.082.072.132.093a.41.41 0 0 0 .158.033zm1.615-.848c-.113.002-.22.048-.301.127s-.128.185-.134.298c-.004.053.002.107.02.158a.42.42 0 0 0 .08.137.39.39 0 0 0 .128.094c.049.022.101.035.155.036.113-.003.22-.048.301-.127s.128-.185.134-.298c.006-.054 0-.108-.016-.159a.38.38 0 0 0-.21-.233c-.05-.022-.103-.033-.157-.033zm-9.305 2.349a.39.39 0 0 0 .151-.031c.047-.02.091-.051.127-.088a.38.38 0 0 0 .082-.131c.018-.048.026-.101.023-.153-.008-.111-.057-.215-.137-.291a.45.45 0 0 0-.298-.123c-.053 0-.105.01-.153.032s-.091.053-.127.092a.36.36 0 0 0-.078.135.37.37 0 0 0-.016.155c.008.108.055.209.134.284s.182.117.29.12zm1.532 0a.37.37 0 0 0 .151-.031c.047-.021.091-.051.127-.088a.38.38 0 0 0 .105-.284c-.003-.109-.047-.213-.124-.29a.42.42 0 0 0-.29-.124.37.37 0 0 0-.157.029.38.38 0 0 0-.132.09c-.037.039-.066.086-.084.136a.38.38 0 0 0-.021.159c.008.108.055.209.134.284s.182.117.29.12zm1.521 0a.4.4 0 0 0 .285-.118c.075-.076.118-.178.118-.285s-.044-.215-.121-.293a.41.41 0 0 0-.293-.121c-.054-.002-.108.008-.157.029a.38.38 0 0 0-.132.09c-.037.039-.066.086-.084.136a.38.38 0 0 0-.02.159c.003.106.046.207.121.282s.176.118.282.121zm1.532-.817c-.054 0-.107.011-.157.032s-.095.052-.132.09a.4.4 0 0 0-.087.135c-.02.05-.029.104-.028.158.003.106.046.207.121.282a.41.41 0 0 0 .282.121c.097-.016.186-.065.25-.14s.099-.17.099-.269-.035-.194-.099-.269-.153-.125-.25-.14zm1.542 0c-.054 0-.107.011-.157.032s-.095.052-.132.09-.067.084-.087.135a.41.41 0 0 0-.028.158.44.44 0 0 0 .027.154.39.39 0 0 0 .214.219.4.4 0 0 0 .153.031.43.43 0 0 0 .414-.403c.001-.054-.008-.108-.028-.158a.41.41 0 0 0-.087-.135c-.038-.039-.083-.069-.132-.09a.4.4 0 0 0-.157-.032zm1.563 0c-.111 0-.217.043-.297.12s-.125.183-.128.293c-.001.053.008.105.027.154a.39.39 0 0 0 .085.131.38.38 0 0 0 .129.088c.049.02.1.031.153.031a.43.43 0 0 0 .414-.403.38.38 0 0 0-.101-.291c-.036-.039-.08-.07-.128-.091s-.101-.032-.154-.032zm1.532 0c-.111 0-.217.043-.296.12s-.125.183-.128.293a.38.38 0 0 0 .105.284c.036.038.079.068.127.088a.38.38 0 0 0 .151.031c.108-.005.21-.048.288-.122a.44.44 0 0 0 .136-.282.38.38 0 0 0-.229-.382.39.39 0 0 0-.154-.032zm-9.149 2.266c.051 0 .101-.01.148-.03a.37.37 0 0 0 .123-.086.36.36 0 0 0 .079-.128c.017-.048.025-.098.022-.149-.005-.107-.051-.208-.128-.283a.42.42 0 0 0-.287-.12c-.052 0-.103.01-.15.031a.38.38 0 0 0-.125.089c-.035.038-.062.083-.079.132s-.023.101-.019.152a.41.41 0 0 0 .128.279c.077.073.179.114.286.114zm1.511 0a.37.37 0 0 0 .35-.244c.017-.048.025-.098.022-.149 0-.107-.043-.21-.118-.285s-.178-.118-.285-.118a.38.38 0 0 0-.152.031.4.4 0 0 0-.127.088.38.38 0 0 0-.105.284.41.41 0 0 0 .128.279c.077.073.179.114.286.114zm1.5 0a.38.38 0 0 0 .149-.03c.047-.02.09-.049.125-.086a.38.38 0 0 0 .082-.128.37.37 0 0 0 .026-.15c-.002-.051-.008-.107-.028-.156a.39.39 0 0 0-.087-.132.41.41 0 0 0-.133-.087.4.4 0 0 0-.156-.028c-.053.001-.103.011-.151.031s-.091.051-.127.088a.38.38 0 0 0-.082.131c-.018.048-.026.101-.023.153.003.105.046.205.122.279s.177.114.282.114zm1.501-.797c-.08-.002-.159.02-.227.063s-.121.105-.153.179a.4.4 0 0 0-.027.234c.015.079.052.152.108.209s.128.097.207.113a.41.41 0 0 0 .235-.021.4.4 0 0 0 .183-.149c.045-.067.069-.145.069-.225a.39.39 0 0 0-.027-.154c-.019-.049-.048-.093-.084-.131a.39.39 0 0 0-.129-.088.4.4 0 0 0-.153-.031zm1.522 0a.4.4 0 0 0-.285.118c-.075.076-.118.178-.118.285-.001.051.007.102.026.15a.38.38 0 0 0 .082.128c.036.037.078.066.126.086a.38.38 0 0 0 .149.03.39.39 0 0 0 .154-.027c.049-.019.094-.048.131-.084a.41.41 0 0 0 .088-.129.39.39 0 0 0 .031-.153.38.38 0 0 0-.023-.153c-.018-.049-.046-.094-.081-.131s-.079-.068-.127-.088-.099-.031-.151-.031zm1.521 0a.41.41 0 0 0-.289.118c-.077.076-.122.178-.125.286-.001.051.008.102.026.15s.047.091.082.128.078.066.126.086.098.03.149.03c.105 0 .206-.041.282-.114s.119-.174.122-.279c.004-.051-.002-.103-.019-.152s-.044-.094-.079-.132a.38.38 0 0 0-.125-.089.37.37 0 0 0-.15-.031zm1.511 0a.42.42 0 0 0-.286.12c-.076.075-.123.176-.128.283a.37.37 0 0 0 .372.393c.106 0 .209-.041.286-.114a.41.41 0 0 0 .128-.279c.006-.052.001-.104-.015-.154a.36.36 0 0 0-.205-.222c-.048-.02-.1-.029-.152-.028zm-8.994 2.194c.05.002.1-.007.147-.026a.36.36 0 0 0 .226-.357c-.008-.104-.055-.202-.132-.273s-.178-.11-.282-.11c-.049 0-.098.01-.144.029s-.086.048-.12.084a.36.36 0 0 0-.077.125c-.017.046-.024.096-.021.145.005.103.05.201.125.272s.175.111.278.111zm1.48 0a.37.37 0 0 0 .274-.109.38.38 0 0 0 .083-.126.36.36 0 0 0 .026-.148c-.005-.103-.05-.201-.125-.272s-.175-.111-.278-.111a.38.38 0 0 0-.271.112c-.072.072-.112.169-.112.271s.05.201.125.272.175.111.278.111zm1.48.001a.39.39 0 0 0 .148-.026c.047-.018.09-.047.126-.083a.38.38 0 0 0 .083-.126c.019-.047.028-.097.026-.148-.003-.102-.045-.2-.119-.272a.39.39 0 0 0-.274-.111.39.39 0 0 0-.148.026c-.047.018-.09.047-.126.083a.38.38 0 0 0-.083.126.36.36 0 0 0-.026.148.39.39 0 0 0 .119.271c.074.071.172.112.275.112z"/><path d="M70.38 44.37c-.102 0-.199.04-.271.112s-.112.169-.112.271.04.199.112.271.169.112.271.112a.38.38 0 0 0 .15-.026.4.4 0 0 0 .128-.082c.037-.035.066-.078.086-.126s.03-.098.03-.149a.39.39 0 0 0-.119-.271c-.074-.071-.172-.112-.275-.112zm1.491.001c-.103 0-.201.04-.274.111s-.116.169-.119.272a.37.37 0 0 0 .026.148.38.38 0 0 0 .209.209c.047.019.097.028.148.026s.102-.008.15-.026.091-.047.128-.082.066-.078.086-.125a.38.38 0 0 0 .03-.149c0-.051-.008-.101-.026-.148s-.047-.09-.083-.126a.38.38 0 0 0-.126-.083.36.36 0 0 0-.148-.026zm1.5 0c-.104 0-.203.04-.278.111s-.12.169-.125.272c-.003.05.005.1.022.148s.045.09.08.126a.36.36 0 0 0 .124.083c.047.019.097.028.147.026a.4.4 0 0 0 .278-.111c.075-.072.12-.169.125-.272a.36.36 0 0 0-.022-.148.37.37 0 0 0-.08-.126.36.36 0 0 0-.124-.083c-.047-.019-.097-.028-.147-.026zm1.491 0c-.105 0-.205.039-.282.11s-.124.169-.132.273c-.003.05.005.1.022.148s.045.09.08.126a.36.36 0 0 0 .124.083c.047.019.097.028.147.026.105 0 .206-.039.282-.11a.42.42 0 0 0 .132-.273.36.36 0 0 0-.022-.148c-.017-.047-.045-.09-.08-.126a.36.36 0 0 0-.124-.083.35.35 0 0 0-.147-.026zm-8.85 2.121a.37.37 0 0 0 .144-.025c.045-.018.088-.046.122-.081a.38.38 0 0 0 .08-.122.36.36 0 0 0 .026-.144c-.008-.102-.054-.196-.129-.266a.4.4 0 0 0-.275-.107.36.36 0 0 0-.144.025c-.046.018-.088.046-.122.081a.36.36 0 0 0-.08.122c-.018.046-.027.095-.026.144.01.101.057.194.131.263a.41.41 0 0 0 .272.11zm1.46 0a.37.37 0 0 0 .263-.109c.069-.07.109-.165.109-.264-.008-.102-.054-.196-.129-.266a.4.4 0 0 0-.275-.107c-.049-.002-.098.007-.143.026a.35.35 0 0 0-.12.081c-.034.035-.061.077-.078.123a.35.35 0 0 0-.021.143c.005.101.049.195.122.265a.39.39 0 0 0 .271.108zm1.459 0a.37.37 0 0 0 .263-.109c.069-.07.109-.165.109-.264a.39.39 0 0 0-.033-.146c-.02-.046-.05-.087-.086-.122a.37.37 0 0 0-.126-.08.38.38 0 0 0-.147-.025.36.36 0 0 0-.348.228c-.018.046-.027.095-.025.144s.013.1.033.146a.38.38 0 0 0 .36.227zm1.449-.745c-.049 0-.097.01-.142.028s-.086.046-.121.081a.38.38 0 0 0-.081.121c-.019.045-.028.094-.028.143a.39.39 0 0 0 .028.143.37.37 0 0 0 .202.202c.045.019.094.028.142.028s.097-.01.143-.028a.37.37 0 0 0 .202-.487.38.38 0 0 0-.202-.202c-.045-.019-.094-.028-.143-.028zm1.47 0a.39.39 0 0 0-.271.108c-.073.07-.117.164-.122.265a.38.38 0 0 0 .029.145c.019.046.048.087.083.122s.078.062.124.08.096.027.146.025c.1 0 .196-.039.267-.108s.113-.164.116-.264c.001-.049-.007-.098-.025-.144a.36.36 0 0 0-.347-.228zm1.47 0a.38.38 0 0 0-.274.105.37.37 0 0 0-.086.122.39.39 0 0 0-.033.146c-.001.05.005.098.022.144a.35.35 0 0 0 .198.204.35.35 0 0 0 .143.025c.102 0 .2-.038.275-.107s.121-.164.129-.266c0-.099-.039-.194-.109-.264s-.165-.109-.263-.109zm1.469 0c-.102 0-.2.038-.275.107s-.121.164-.129.266a.35.35 0 0 0 .022.144.34.34 0 0 0 .078.123.36.36 0 0 0 .12.081.35.35 0 0 0 .143.025c.102 0 .2-.038.275-.107s.121-.164.129-.266c.003-.049-.004-.098-.021-.143s-.043-.088-.078-.123a.35.35 0 0 0-.263-.106zm-8.704 2.06a.35.35 0 0 0 .14-.025.36.36 0 0 0 .119-.078.35.35 0 0 0 .103-.259c-.008-.101-.054-.194-.129-.262a.39.39 0 0 0-.274-.1c-.047-.002-.095.007-.139.025a.34.34 0 0 0-.192.198.35.35 0 0 0-.021.14c.008.099.053.191.126.258s.168.104.268.104zm1.439 0a.36.36 0 0 0 .362-.362c-.008-.099-.053-.191-.126-.258s-.169-.104-.268-.104a.35.35 0 0 0-.337.222c-.018.045-.026.092-.025.14a.38.38 0 0 0 .393.362zm1.428 0c.097 0 .19-.038.26-.105a.37.37 0 0 0 .113-.257c-.005-.098-.048-.19-.119-.258a.38.38 0 0 0-.264-.105c-.049-.003-.098.004-.144.021a.35.35 0 0 0-.204.198c-.018.045-.027.094-.026.143.005.098.048.19.119.258a.38.38 0 0 0 .264.105zm1.428-.725a.36.36 0 0 0-.362.362.36.36 0 0 0 .362.362c.096 0 .192-.037.264-.105a.38.38 0 0 0 .119-.258c-.005-.098-.048-.19-.119-.258a.38.38 0 0 0-.264-.105zm1.449 0c-.098 0-.192.037-.264.105a.38.38 0 0 0-.119.258.35.35 0 0 0 .025.14.36.36 0 0 0 .078.119.35.35 0 0 0 .259.103c.1.003.197-.034.27-.101a.38.38 0 0 0 .123-.261c-.003-.097-.043-.189-.113-.257s-.163-.105-.26-.105zm1.439 0c-.098 0-.192.037-.264.105a.38.38 0 0 0-.119.258.35.35 0 0 0 .103.259c.034.034.075.061.119.078a.35.35 0 0 0 .14.025.38.38 0 0 0 .264-.105c.071-.068.114-.16.119-.258a.35.35 0 0 0-.362-.362zm1.449 0c-.099 0-.195.037-.268.104s-.118.159-.126.258c-.003.047.004.095.021.14s.042.085.075.119.073.061.117.079.091.026.139.025c.099 0 .195-.037.268-.104s.118-.159.126-.258a.34.34 0 0 0-.021-.14c-.017-.044-.042-.085-.075-.119s-.073-.061-.117-.079-.091-.026-.139-.025zm-8.56 1.987a.33.33 0 0 0 .328-.207c.017-.043.025-.089.024-.135-.008-.098-.053-.189-.126-.255a.38.38 0 0 0-.267-.097.34.34 0 0 0-.252.1c-.033.033-.059.072-.076.116s-.025.09-.024.136a.38.38 0 0 0 .394.341zm1.408 0a.34.34 0 0 0 .334-.205c.018-.043.028-.089.028-.136-.008-.098-.053-.189-.126-.255a.38.38 0 0 0-.267-.097.35.35 0 0 0-.136.024.34.34 0 0 0-.216.328c.008.095.052.184.123.247s.164.097.26.094zm1.408 0c.046.003.093-.004.137-.02s.084-.041.118-.073a.34.34 0 0 0 .079-.113.35.35 0 0 0 .028-.136c0-.047-.012-.094-.032-.138a.35.35 0 0 0-.082-.115c-.035-.032-.075-.058-.12-.075a.35.35 0 0 0-.139-.023.34.34 0 0 0-.14.021c-.045.017-.085.042-.119.075a.34.34 0 0 0-.079.117c-.018.044-.026.091-.025.139a.33.33 0 0 0 .032.136.38.38 0 0 0 .082.113.35.35 0 0 0 .259.092zm1.407-.693c-.047-.001-.095.007-.139.023s-.085.043-.12.075a.36.36 0 0 0-.082.115c-.02.043-.03.09-.031.138a.37.37 0 0 0 .109.263c.07.069.165.109.263.109s.194-.039.264-.109.109-.165.109-.263c-.001-.048-.012-.094-.032-.138a.35.35 0 0 0-.082-.115c-.035-.032-.075-.058-.12-.075a.35.35 0 0 0-.139-.023zm1.428 0a.37.37 0 0 0-.383.352.35.35 0 0 0 .11.246.36.36 0 0 0 .116.073.35.35 0 0 0 .136.023c.096.003.188-.031.26-.094s.115-.152.123-.247c-.003-.094-.042-.184-.11-.25a.36.36 0 0 0-.253-.102zm1.418 0a.37.37 0 0 0-.263.098c-.071.066-.115.157-.12.254a.33.33 0 0 0 .216.322.33.33 0 0 0 .136.02.37.37 0 0 0 .14-.019c.045-.015.087-.04.122-.072s.064-.07.085-.113.033-.09.035-.137a.34.34 0 0 0-.024-.136c-.017-.043-.043-.083-.076-.116s-.072-.059-.116-.076-.09-.025-.136-.024zm1.418 0a.37.37 0 0 0-.263.098.38.38 0 0 0-.12.254.33.33 0 0 0 .351.342c.095.003.188-.031.26-.094s.115-.152.123-.247a.35.35 0 0 0-.024-.136c-.017-.043-.043-.083-.076-.116s-.072-.059-.116-.076-.09-.025-.136-.024zm-8.404 1.925c.045.003.09-.004.133-.019a.33.33 0 0 0 .192-.181c.018-.042.027-.086.027-.132-.02-.08-.065-.151-.128-.203s-.142-.083-.224-.087a.33.33 0 0 0-.352.342.38.38 0 0 0 .129.199.37.37 0 0 0 .223.081zm1.366 0c.045.003.09-.004.133-.019a.33.33 0 0 0 .219-.313c-.017-.085-.064-.161-.133-.214s-.153-.08-.24-.076a.33.33 0 0 0-.251.093c-.033.032-.059.071-.077.114a.33.33 0 0 0-.024.135c.019.083.067.156.136.207s.152.077.237.072zm1.387 0a.34.34 0 0 0 .252-.089c.034-.031.061-.068.08-.11a.36.36 0 0 0 .031-.133.36.36 0 0 0-.373-.342c-.046-.001-.092.006-.135.023a.35.35 0 0 0-.116.073.37.37 0 0 0-.08.112c-.019.042-.029.088-.031.134.008.092.051.178.12.24a.36.36 0 0 0 .253.091zm1.387-.621a.35.35 0 0 0-.252.096c-.034.032-.061.07-.08.112a.35.35 0 0 0-.031.134.35.35 0 0 0 .362.331.34.34 0 0 0 .369-.192.34.34 0 0 0 0-.288.34.34 0 0 0-.369-.192zm1.397 0c-.094 0-.184.035-.253.098s-.112.15-.12.244c-.006.075.01.15.047.215s.093.118.16.151a.37.37 0 0 0 .217.034c.074-.011.144-.043.199-.094a.37.37 0 0 0 .111-.19c.017-.073.012-.149-.015-.219a.37.37 0 0 0-.136-.172c-.062-.043-.135-.065-.21-.066zm1.408 0c-.095-.003-.188.031-.26.094s-.115.152-.123.247a.34.34 0 0 0 .03.13c.018.041.045.078.078.109a.34.34 0 0 0 .244.093.36.36 0 0 0 .383-.332c-.003-.091-.041-.178-.107-.242a.35.35 0 0 0-.245-.099zm1.397 0c-.095-.003-.188.031-.26.094s-.115.152-.123.247a.32.32 0 0 0 .341.331.36.36 0 0 0 .383-.332.35.35 0 0 0-.023-.132.33.33 0 0 0-.074-.112c-.032-.032-.07-.057-.112-.074a.33.33 0 0 0-.132-.023zm-8.342 1.822a.33.33 0 0 0 .342-.331.36.36 0 0 0-.372-.331c-.045-.003-.09.004-.132.019s-.08.04-.113.071a.32.32 0 0 0-.097.242.37.37 0 0 0 .123.237c.069.061.158.095.25.094zm1.408 0a.35.35 0 0 0 .132-.022c.042-.016.08-.04.113-.071a.34.34 0 0 0 .107-.238c-.008-.092-.051-.178-.12-.24a.36.36 0 0 0-.252-.091.34.34 0 0 0-.322.201.34.34 0 0 0-.03.13.37.37 0 0 0 .123.237c.069.061.158.095.25.094zm1.366 0a.34.34 0 0 0 .352-.332.35.35 0 0 0-.362-.331.33.33 0 0 0-.248.089c-.033.031-.059.069-.077.11a.33.33 0 0 0-.027.132c.005.092.046.177.114.239a.35.35 0 0 0 .248.092zm1.366-.663c-.092-.003-.181.03-.248.092a.35.35 0 0 0-.114.239c.008.091.049.175.117.236s.155.095.246.095a.35.35 0 0 0 .248-.092c.068-.062.108-.148.114-.239a.35.35 0 0 0-.362-.331zm1.377 0a.33.33 0 1 0 0 .662.35.35 0 0 0 .362-.331.33.33 0 0 0-.028-.134.34.34 0 0 0-.08-.111c-.034-.031-.075-.055-.118-.07a.33.33 0 0 0-.136-.016zm1.376 0c-.093-.003-.183.03-.252.091a.36.36 0 0 0-.12.24.34.34 0 0 0 .03.13c.018.041.045.078.077.109a.34.34 0 0 0 .245.093c.092.001.181-.033.25-.094a.37.37 0 0 0 .123-.237.33.33 0 0 0-.352-.331zm1.387 0c-.093-.003-.183.03-.252.091s-.112.148-.12.24c0 .044.009.088.026.129a.34.34 0 0 0 .074.109c.031.031.07.055.111.071a.34.34 0 0 0 .13.022c.092.001.181-.033.25-.094s.112-.146.123-.237a.31.31 0 0 0-.342-.331zm-8.176 1.812c.043.004.087 0 .128-.014a.31.31 0 0 0 .213-.297c-.01-.091-.054-.174-.123-.233s-.158-.091-.249-.088a.32.32 0 0 0-.341.32c.01.09.055.172.124.23a.35.35 0 0 0 .248.081zm1.345 0a.31.31 0 0 0 .24-.079c.032-.029.058-.065.075-.105a.31.31 0 0 0 .026-.127.34.34 0 0 0-.115-.236c-.034-.03-.073-.053-.115-.067a.34.34 0 0 0-.132-.018.32.32 0 0 0-.315.193.33.33 0 0 0-.026.128.34.34 0 0 0 .362.31zm1.346 0a.33.33 0 0 0 .352-.31c-.003-.045-.014-.089-.034-.129s-.047-.077-.081-.107a.34.34 0 0 0-.248-.085.34.34 0 0 0-.241.089c-.066.06-.105.143-.111.232a.34.34 0 0 0 .362.31zm1.345-.632a.34.34 0 0 0-.352.321c0 .093.037.183.103.249s.156.103.249.103.183-.037.249-.103.103-.156.103-.249a.34.34 0 0 0-.352-.321zm1.356 0c-.09-.003-.178.029-.245.088a.35.35 0 0 0-.117.233c.003.044.014.086.033.125a.33.33 0 0 0 .32.185.32.32 0 0 0 .378-.315.32.32 0 0 0-.03-.136c-.02-.043-.049-.08-.085-.11a.32.32 0 0 0-.124-.064.31.31 0 0 0-.139-.005h.01zm1.356 0c-.09-.003-.178.029-.245.088s-.109.143-.117.233c0 .044.009.087.026.127a.31.31 0 0 0 .076.105.3.3 0 0 0 .112.065c.042.013.085.018.128.014a.34.34 0 0 0 .362-.31.32.32 0 0 0-.341-.32zm1.356 0a.34.34 0 0 0-.247.085c-.033.03-.061.066-.081.107s-.031.084-.034.129a.3.3 0 0 0 .095.231c.031.029.069.052.11.066a.3.3 0 0 0 .127.014.35.35 0 0 0 .248-.081c.069-.058.114-.14.124-.23 0-.044-.009-.087-.026-.128a.32.32 0 0 0-.315-.193zm-8.042 1.801a.31.31 0 0 0 .331-.31.34.34 0 0 0-.362-.31c-.043-.004-.086 0-.127.014a.3.3 0 0 0-.204.297.36.36 0 0 0 .123.223c.067.057.152.088.239.087zm1.325 0a.32.32 0 0 0 .127-.017c.041-.014.078-.037.11-.066a.32.32 0 0 0 .105-.228.34.34 0 0 0-.362-.31.32.32 0 0 0-.127.017c-.041.014-.078.037-.11.066a.32.32 0 0 0-.076.103c-.018.039-.028.081-.029.124a.36.36 0 0 0 .362.31z"/><path d="M69.055 53.82a.32.32 0 0 0 .127-.017c.041-.014.078-.036.11-.065a.32.32 0 0 0 .105-.228.33.33 0 0 0-.112-.228c-.033-.029-.071-.051-.112-.065a.33.33 0 0 0-.128-.017.32.32 0 0 0-.313.186.32.32 0 0 0-.029.124.34.34 0 0 0 .352.31zm1.325-.662a.33.33 0 0 0-.128.017c-.041.014-.079.036-.112.065s-.059.064-.078.103a.33.33 0 0 0-.033.125.35.35 0 0 0 .103.249c.033.033.072.059.114.076a.36.36 0 0 0 .135.027.33.33 0 0 0 .351-.31.33.33 0 0 0-.02-.138c-.017-.044-.043-.084-.076-.117s-.073-.059-.117-.076a.31.31 0 0 0-.138-.02zm1.335 0a.31.31 0 0 0-.178.539.31.31 0 0 0 .52-.228c0-.044-.009-.087-.026-.126a.31.31 0 0 0-.315-.184zm1.335 0c-.043-.003-.087.003-.128.017a.33.33 0 0 0-.191.168.34.34 0 0 0-.033.125c-.003.043.011.084.028.122a.32.32 0 0 0 .179.168.31.31 0 0 0 .124.02.35.35 0 0 0 .362-.311.31.31 0 0 0-.026-.126c-.018-.04-.043-.075-.075-.105a.31.31 0 0 0-.24-.079zm1.336 0c-.088-.003-.175.027-.242.084a.35.35 0 0 0-.12.226.32.32 0 0 0 .101.224c.031.029.067.051.106.066a.32.32 0 0 0 .124.02c.09.004.177-.026.246-.084s.114-.138.127-.227a.31.31 0 0 0-.101-.231.31.31 0 0 0-.24-.079zm-7.918 1.697a.3.3 0 0 0 .321-.3.33.33 0 0 0-.352-.3.3.3 0 0 0-.233.076.3.3 0 0 0-.073.102c-.017.038-.026.08-.025.123a.34.34 0 0 0 .362.3zm1.304 0a.31.31 0 0 0 .331-.3.33.33 0 0 0-.352-.3.3.3 0 0 0-.306.178c-.017.038-.026.08-.025.123a.33.33 0 0 0 .352.3zm1.304 0a.32.32 0 0 0 .341-.3.34.34 0 0 0-.352-.3.32.32 0 0 0-.125.016.33.33 0 0 0-.109.063.32.32 0 0 0-.108.221.34.34 0 0 0 .352.3z"/><path d="M70.38 54.265a.3.3 0 0 0-.157.523.3.3 0 0 0 .498-.223.32.32 0 0 0-.341-.3zm1.315 0a.32.32 0 0 0-.309.179.32.32 0 0 0-.032.121.31.31 0 0 0 .331.301.33.33 0 0 0 .352-.3.32.32 0 0 0-.032-.121c-.019-.038-.044-.072-.076-.1a.32.32 0 0 0-.233-.079zm1.324 0a.34.34 0 0 0-.362.3c.001.042.011.083.028.12a.31.31 0 0 0 .303.18.34.34 0 0 0 .362-.3.31.31 0 0 0-.208-.283.32.32 0 0 0-.123-.017zm1.315 0a.34.34 0 0 0-.241.078c-.067.056-.111.136-.121.222a.3.3 0 0 0 .207.287c.04.013.083.018.125.013.086.003.169-.026.234-.081a.34.34 0 0 0 .117-.219.3.3 0 0 0-.2-.284c-.039-.014-.08-.019-.121-.017z"/><path d="M66.489 55.342a.3.3 0 0 0-.321.29.33.33 0 0 0 .352.29.29.29 0 0 0 .225-.073c.03-.027.055-.061.071-.098s.025-.078.025-.119a.33.33 0 0 0-.352-.29zm1.293 0a.3.3 0 0 0-.293.173.3.3 0 0 0-.028.117.32.32 0 0 0 .342.29.3.3 0 0 0 .331-.29c-.011-.084-.053-.161-.118-.215a.33.33 0 0 0-.234-.075zm1.304 0a.31.31 0 0 0-.331.29.32.32 0 0 0 .342.29c.041.003.082-.002.12-.015a.31.31 0 0 0 .21-.274.32.32 0 0 0-.342-.29zm1.294-.001a.29.29 0 0 0-.262.039.29.29 0 0 0 0 .472.29.29 0 0 0 .262.039.32.32 0 0 0 .342-.29.32.32 0 0 0-.342-.259zm1.304.001a.33.33 0 0 0-.352.29.32.32 0 0 0 .342.29.32.32 0 0 0 .342-.289c-.003-.041-.013-.081-.031-.117a.31.31 0 0 0-.179-.157.33.33 0 0 0-.12-.016zm1.294 0a.34.34 0 0 0-.352.29.31.31 0 0 0 .331.29.33.33 0 0 0 .352-.29.31.31 0 0 0-.031-.117.29.29 0 0 0-.074-.096.31.31 0 0 0-.226-.076zm1.294 0c-.084-.004-.166.024-.231.078s-.108.129-.121.212a.29.29 0 0 0 .096.217c.03.028.066.048.105.061a.29.29 0 0 0 .121.013.33.33 0 0 0 .352-.29.3.3 0 0 0-.099-.213.3.3 0 0 0-.222-.077zm-9.791 16.322l-.072-3.757h-.228l.3 3.757zm6.727 13.952a.36.36 0 0 0 .362.362h.486v-.724h-.538a.36.36 0 0 0-.223.123c-.057.067-.088.152-.087.24zm0 1.428a.38.38 0 0 0 .105.26c.067.07.16.11.257.112h.383v-.734h-.435a.36.36 0 0 0-.223.123c-.057.067-.088.151-.087.24zm0 1.438a.36.36 0 0 0 .362.362h.279v-.724h-.331a.36.36 0 0 0-.31.362zm0 1.429a.37.37 0 0 0 .105.26c.068.069.16.11.257.112h.176l.052-.734h-.228a.36.36 0 0 0-.256.106c-.068.068-.106.161-.106.256zm-1.645-4.295a.37.37 0 0 0-.028-.141.36.36 0 0 0-.081-.118.35.35 0 0 0-.121-.078.36.36 0 0 0-.142-.025h-.538v.724h.486c.052.008.106.003.156-.011a.38.38 0 0 0 .138-.075c.041-.034.073-.077.095-.124a.38.38 0 0 0 .036-.152zm0 1.428a.37.37 0 0 0-.113-.257c-.07-.067-.163-.105-.26-.105h-.435v.734h.383c.053.008.107.003.158-.012a.37.37 0 0 0 .233-.205.38.38 0 0 0 .032-.156zm0 1.438a.37.37 0 0 0-.113-.256c-.07-.068-.163-.106-.26-.106h-.331v.724h.279c.052.008.106.003.156-.011s.097-.04.138-.074.073-.077.095-.124a.38.38 0 0 0 .036-.152zm0 1.429a.37.37 0 0 0-.113-.256c-.07-.068-.163-.106-.26-.106h-.228l.052.734h.176a.37.37 0 0 0 .373-.372z"/></g><path d="M78.174 61.997c5.299-.538 7.731-3.001 8.487-4.037.063-.079.147-.137.244-.166s.199-.029.294.001c2.287.805 4.761.914 7.109.313s4.467-1.884 6.087-3.687a.48.48 0 0 1 .28-.145c.108-.015.217.007.31.062a85.73 85.73 0 0 0 24.406 10.288c5.402 1.314 9.501.911 12.212-1.149a8.02 8.02 0 0 0 2.148-2.51c.535-.976.86-2.053.958-3.162v-.466h-.467c-22.2-1.035-33.864-7.473-36.907-9.419-.397-.259-.845-.427-1.314-.491a3.2 3.2 0 0 0-1.398.118c-3.217.976-6.684.703-9.709-.766a7.7 7.7 0 0 0-8.58 1.242 7.04 7.04 0 0 0-2.07 6.21c.128.642.05 1.308-.224 1.903s-.727 1.088-1.298 1.409c-.616.375-1.297.632-2.008.756l1.439 3.695z" class="B"/><path d="M97.353 54.731a7.63 7.63 0 0 1-.591.486c-.525.407-1.095.754-1.697 1.035a9.23 9.23 0 0 1-2.732.849 11.38 11.38 0 0 1-3.291 0l-1.594-.373a2.07 2.07 0 0 0-1.367.248c-.406.248-.758.575-1.035.963a6.73 6.73 0 0 1-1.035.911 7.71 7.71 0 0 1-1.76 1.035l-.714.269s.259-.114.673-.352a10.58 10.58 0 0 0 1.625-1.201c.333-.277.635-.589.9-.932a3.51 3.51 0 0 1 1.035-1.128c.514-.295 1.11-.415 1.697-.342l1.604.342a10.98 10.98 0 0 0 4.289-.087c1.411-.311 2.746-.897 3.929-1.724h.063zM90.18 48.48c1.841.776 3.809 1.204 5.806 1.263a13.83 13.83 0 0 0 2.929-.238 13.07 13.07 0 0 0 1.48-.342l.693-.228a1.74 1.74 0 0 1 .963-.093 3.49 3.49 0 0 1 .693.3l.508.321 1.035.6 2.069 1.107 4.348 1.925a76.45 76.45 0 0 0 9.067 2.929l9.315 1.956 9.5 1.139a103.27 103.27 0 0 1-19.002-2.474 79.32 79.32 0 0 1-9.222-2.825 64.09 64.09 0 0 1-4.44-1.894 46.38 46.38 0 0 1-2.153-1.097l-1.035-.6-.517-.311s-.404-.155-.393-.186a.85.85 0 0 0-.508 0l-.755.186-1.522.248a14.52 14.52 0 0 1-3.105 0 16.46 16.46 0 0 1-5.755-1.687z" class="C"/><g class="B"><path d="M131.249 64.895c-.29.397-.638.746-1.035 1.035-1.075.81-2.31 1.382-3.623 1.677-1.859.405-3.773.496-5.661.269-1.035-.145-2.071-.352-3.106-.6s-2.069-.631-3.104-1.035a49.45 49.45 0 0 1-10.516-5.682c-1.495-1.017-2.924-2.13-4.275-3.333l4.73 2.588 4.886 2.505s3.736 1.77 5.713 2.525a53.01 53.01 0 0 0 2.96 1.035c.967.302 1.952.54 2.95.714a21.31 21.31 0 0 0 2.805.341c.843.039 1.689-.002 2.525-.124 1.264-.13 2.492-.506 3.612-1.108.414-.216.798-.488 1.139-.807z"/><path d="M125.856 67.368a4.91 4.91 0 0 1-.973 1.035c-.989.809-2.134 1.408-3.363 1.76-1.761.467-3.592.611-5.403.424-1.013-.111-2.017-.298-3.001-.559a21.25 21.25 0 0 1-2.981-1.035 24.29 24.29 0 0 1-2.795-1.408c-.879-.484-1.732-1.013-2.557-1.584-1.446-.999-2.829-2.088-4.14-3.26a33.74 33.74 0 0 1-3.664-3.643l4.202 2.95 4.389 2.805a47.8 47.8 0 0 0 5.175 2.763c.896.401 1.815.747 2.753 1.035a18.17 18.17 0 0 0 2.795.662 14.12 14.12 0 0 0 5.051.072c.671-.111 1.33-.288 1.966-.528a8.01 8.01 0 0 0 1.428-.683 5.87 5.87 0 0 0 1.118-.807z"/><path d="M119.533 70.09a5.01 5.01 0 0 1-1.036.869c-.988.652-2.085 1.121-3.239 1.387a13.47 13.47 0 0 1-2.36.3 20.99 20.99 0 0 1-2.639-.104l-1.387-.217-1.387-.362a17.81 17.81 0 0 1-2.733-1.169c-.86-.456-1.69-.967-2.483-1.532-.768-.534-1.507-1.108-2.216-1.718a35.31 35.31 0 0 1-3.529-3.457 29.47 29.47 0 0 1-2.97-3.767l3.518 3.209 3.747 3.105c1.442 1.138 2.96 2.175 4.544 3.105a24.95 24.95 0 0 0 2.453 1.159l1.304.414 1.294.29a17.78 17.78 0 0 0 2.484.29 13.09 13.09 0 0 0 2.246-.103 9.43 9.43 0 0 0 3.24-.932 5.35 5.35 0 0 0 1.149-.766z"/><path d="M112.95 72.233c-.32.258-.667.48-1.035.662-.98.493-2.026.841-3.106 1.035a16.46 16.46 0 0 1-4.657.073l-1.304-.217a10.21 10.21 0 0 1-1.304-.393c-.863-.34-1.685-.774-2.453-1.294a21.72 21.72 0 0 1-3.954-3.602 31.52 31.52 0 0 1-2.784-3.674c-.833-1.243-1.563-2.551-2.184-3.912l2.732 3.509 2.981 3.395a26.7 26.7 0 0 0 3.83 3.374c.681.502 1.417.926 2.194 1.263.382.16.776.292 1.179.393l1.191.259a15.86 15.86 0 0 0 4.439.259 10.35 10.35 0 0 0 4.234-1.128z"/><path d="M104.287 73.609c-.277.213-.58.391-.901.528a8.85 8.85 0 0 1-2.68.673 12.85 12.85 0 0 1-3.903-.362 8.61 8.61 0 0 1-3.922-2.339 22.94 22.94 0 0 1-4.575-6.976 24.85 24.85 0 0 1-1.294-3.55l1.79 3.302a33.24 33.24 0 0 0 4.73 6.531A8.84 8.84 0 0 0 97 73.683a12.54 12.54 0 0 0 3.685.621 8.27 8.27 0 0 0 2.639-.352 4.35 4.35 0 0 0 .963-.342zm-4.596-18.754s.704.569 1.853 1.346l4.316 2.66a60.54 60.54 0 0 0 6.666 3.209c-2.346-.8-4.641-1.74-6.873-2.815l-4.512-2.422-1.978-1.263.528-.714zm-2.835 1.667s.58.642 1.593 1.542a41.87 41.87 0 0 0 3.881 3.002 49.09 49.09 0 0 0 6.21 3.602 48.53 48.53 0 0 1-6.479-3.229 43.21 43.21 0 0 1-4.14-2.836l-1.666-1.47.601-.611zm-2.991 1.179a17.01 17.01 0 0 0 1.107 1.47 33.38 33.38 0 0 0 2.795 3.012 43.44 43.44 0 0 0 4.606 3.85 45.04 45.04 0 0 1-4.906-3.519 37.07 37.07 0 0 1-3.105-2.846l-1.273-1.449.777-.517zm-3.033.259c.239.566.508 1.119.807 1.656a29.71 29.71 0 0 0 2.184 3.457c1.175 1.62 2.499 3.127 3.953 4.502a33.16 33.16 0 0 1-4.305-4.223 31.97 31.97 0 0 1-2.474-3.364c-.352-.535-.677-1.088-.972-1.656l.807-.373zm-3.489-.466a49.93 49.93 0 0 0 2.225 5.02 44.03 44.03 0 0 0 2.836 4.761 42.48 42.48 0 0 1-3.219-4.523c-.977-1.585-1.864-3.223-2.66-4.906l.817-.352zm-24.746 4.503c-5.31-.538-7.742-3.001-8.497-4.036a.49.49 0 0 0-.243-.166c-.096-.029-.199-.029-.295.001a12.26 12.26 0 0 1-7.11.313 12.27 12.27 0 0 1-6.087-3.687c-.072-.08-.169-.132-.275-.147a.46.46 0 0 0-.305.064A85.7 85.7 0 0 1 15.37 64.625c-5.403 1.314-9.491.911-12.213-1.149a7.97 7.97 0 0 1-3.105-5.672v-.466h.466c22.201-1.035 33.865-7.473 36.908-9.419a3.2 3.2 0 0 1 2.712-.373 13.35 13.35 0 0 0 9.708-.766 7.69 7.69 0 0 1 8.58 1.242 7.07 7.07 0 0 1 2.07 6.21c-.129.641-.052 1.306.219 1.901a3.1 3.1 0 0 0 1.292 1.411 5.75 5.75 0 0 0 2.008.756l-1.418 3.695z"/></g><path d="M43.47 54.731a6.13 6.13 0 0 0 .58.486 9.02 9.02 0 0 0 1.697 1.035 9.32 9.32 0 0 0 2.732.849c1.091.159 2.2.159 3.291 0l1.594-.373a2.07 2.07 0 0 1 1.366.248 3.53 3.53 0 0 1 1.035.963c.313.338.66.643 1.035.911a7.68 7.68 0 0 0 1.749 1.035l.714.269s-.248-.114-.662-.352a10.08 10.08 0 0 1-1.677-1.201c-.328-.282-.63-.594-.901-.932a3.51 3.51 0 0 0-1.035-1.128 2.68 2.68 0 0 0-1.687-.342l-1.615.342a10.92 10.92 0 0 1-8.218-1.811zm7.111-6.251c-1.841.776-3.809 1.204-5.806 1.263a13.88 13.88 0 0 1-2.929-.238 13.3 13.3 0 0 1-1.418-.342l-.694-.228a1.78 1.78 0 0 0-.973-.093 3.77 3.77 0 0 0-.693.3l-.507.321-1.035.6-2.07 1.107-4.347 1.925a76.35 76.35 0 0 1-9.056 2.929l-9.315 1.956-9.501 1.139a103.44 103.44 0 0 0 19.003-2.474 79.71 79.71 0 0 0 9.16-2.825l4.44-1.894 2.153-1.097 1.035-.6.517-.311s.404-.155.393-.186a.89.89 0 0 1 .518 0 7.24 7.24 0 0 0 .745.186l1.521.248a14.49 14.49 0 0 0 3.105 0 16.46 16.46 0 0 0 5.755-1.687z" class="C"/><g class="B"><path d="M9.512 64.895a4.71 4.71 0 0 0 1.035 1.035c1.076.808 2.31 1.379 3.623 1.677 1.859.405 3.773.496 5.661.269a32.82 32.82 0 0 0 3.105-.6c1.035-.248 2.132-.631 3.105-1.035 3.723-1.46 7.255-3.368 10.516-5.682a41.77 41.77 0 0 0 4.275-3.333l-4.73 2.588c-1.408.787-3.105 1.604-4.885 2.505s-3.726 1.77-5.703 2.525c-1.035.393-1.956.714-2.96 1.035a24.02 24.02 0 0 1-2.96.714c-.926.176-1.863.29-2.805.341-.84.039-1.683-.002-2.515-.124a9.74 9.74 0 0 1-3.623-1.108 5.17 5.17 0 0 1-1.138-.807z"/><path d="M14.904 67.368c.277.387.604.735.973 1.035a9.45 9.45 0 0 0 3.374 1.76c1.757.467 3.584.611 5.392.424a20.38 20.38 0 0 0 3.002-.559c1.018-.271 2.014-.617 2.981-1.035.963-.404 1.896-.875 2.795-1.408a28.31 28.31 0 0 0 2.567-1.584c1.443-1.004 2.825-2.093 4.14-3.26a34.15 34.15 0 0 0 3.654-3.643l-4.192 2.95-4.388 2.805c-1.672 1.021-3.403 1.94-5.185 2.753-.896.401-1.815.747-2.753 1.035a17.88 17.88 0 0 1-2.794.662 14.12 14.12 0 0 1-5.051.072c-.671-.113-1.329-.289-1.966-.528-.497-.182-.975-.411-1.428-.683-.4-.225-.775-.492-1.118-.797z"/><path d="M21.228 70.09a4.9 4.9 0 0 0 1.035.869c.975.648 2.058 1.118 3.198 1.387.777.168 1.566.269 2.36.3.884.021 1.769-.014 2.649-.103l1.377-.217 1.387-.362a17.36 17.36 0 0 0 2.732-1.17c.861-.456 1.691-.967 2.484-1.532a27.24 27.24 0 0 0 2.215-1.718 35.44 35.44 0 0 0 3.54-3.457 29.49 29.49 0 0 0 2.97-3.767l-3.529 3.209-3.736 3.105a40.14 40.14 0 0 1-4.554 3.105c-.795.433-1.614.82-2.453 1.159l-1.294.414-1.294.29c-.824.154-1.657.251-2.494.29a12.92 12.92 0 0 1-2.236-.103c-1.128-.111-2.225-.427-3.24-.932-.402-.209-.777-.466-1.118-.766z"/><path d="M27.821 72.233c.318.261.665.483 1.035.662.98.492 2.026.84 3.105 1.035a16.46 16.46 0 0 0 4.657.073l1.304-.217a11.4 11.4 0 0 0 1.304-.393 12.84 12.84 0 0 0 2.443-1.294c1.463-1.031 2.792-2.241 3.954-3.602a30.44 30.44 0 0 0 2.784-3.674 28.64 28.64 0 0 0 2.194-3.912l-2.732 3.509-2.981 3.395a27.4 27.4 0 0 1-3.84 3.374c-.68.504-1.416.928-2.194 1.263a8.29 8.29 0 0 1-1.18.393l-1.19.259a15.87 15.87 0 0 1-4.44.259c-1.473-.067-2.913-.452-4.223-1.128z"/><path d="M36.484 73.609a4.2 4.2 0 0 0 .89.528 8.94 8.94 0 0 0 2.681.673c1.315.079 2.634-.043 3.912-.362a8.63 8.63 0 0 0 3.912-2.339 22.96 22.96 0 0 0 4.575-6.976 24.85 24.85 0 0 0 1.294-3.55l-1.791 3.302c-1.302 2.363-2.891 4.557-4.73 6.531a8.84 8.84 0 0 1-3.467 2.267 12.48 12.48 0 0 1-3.684.621c-.893.023-1.784-.095-2.639-.352-.33-.074-.65-.189-.952-.342zm4.585-18.754s-.704.569-1.853 1.346l-4.306 2.66c-2.155 1.212-4.381 2.294-6.665 3.239a62.2 62.2 0 0 0 6.862-2.815l4.513-2.422 1.977-1.263-.528-.745zm2.836 1.667s-.58.642-1.584 1.542a43.34 43.34 0 0 1-3.892 3.002 48.23 48.23 0 0 1-6.21 3.602 48.47 48.47 0 0 0 6.479-3.229 42.01 42.01 0 0 0 4.14-2.836c.58-.461 1.136-.952 1.666-1.47l-.6-.611zm2.991 1.179a16.82 16.82 0 0 1-1.108 1.47c-.868 1.058-1.797 2.064-2.784 3.012a44.21 44.21 0 0 1-4.616 3.85 43.97 43.97 0 0 0 4.906-3.519 37.5 37.5 0 0 0 3.105-2.846l1.263-1.449-.766-.517zm3.033.259c-.239.566-.508 1.119-.807 1.656a30 30 0 0 1-2.184 3.457c-1.175 1.62-2.499 3.127-3.954 4.502a33.13 33.13 0 0 0 4.306-4.223 32.13 32.13 0 0 0 2.484-3.364l.963-1.656-.807-.373zm3.487-.466a49.93 49.93 0 0 1-2.225 5.02 42.97 42.97 0 0 1-2.826 4.761 43.26 43.26 0 0 0 3.209-4.523 50.75 50.75 0 0 0 2.66-4.906l-.818-.352zM47 84.746v2.194c0 .342.145.508.435.508s.476-.176.476-.518v-.528c.008-.123.008-.248 0-.372h.962a8.34 8.34 0 0 1 0 .849 1.35 1.35 0 0 1-.067.554c-.061.177-.158.342-.285.481-.287.245-.659.367-1.035.342a1.56 1.56 0 0 1-.615-.058 1.54 1.54 0 0 1-.544-.294 1.38 1.38 0 0 1-.278-.482c-.059-.178-.081-.366-.064-.553v-4.616a1.04 1.04 0 0 1 .084-.52c.072-.163.186-.305.33-.411a1.75 1.75 0 0 1 1.035-.3 2 2 0 0 1 .569.072 1.42 1.42 0 0 1 .466.238 1.1 1.1 0 0 1 .3.383 1.25 1.25 0 0 1 .103.538 4.75 4.75 0 0 1 0 .631h-.962a4.79 4.79 0 0 0 0-.611c0-.29-.155-.435-.476-.435a.39.39 0 0 0-.173.015.38.38 0 0 0-.149.09c-.042.041-.074.091-.094.147a.38.38 0 0 0-.019.173v1.687h1.811v.797H47zm3.808-.911l1.842.414v2.619a1.36 1.36 0 0 1-.064.552 1.38 1.38 0 0 1-.278.482c-.16.132-.345.232-.544.292a1.58 1.58 0 0 1-.615.06 1.44 1.44 0 0 1-1.035-.342c-.127-.139-.224-.302-.285-.481a1.35 1.35 0 0 1-.067-.554v-.89h.952a8.82 8.82 0 0 0 0 .911c0 .341.166.507.486.507s.435-.166.435-.497V84.87l-1.832-.435v-2.184a1.04 1.04 0 0 1 .084-.52c.072-.163.186-.305.33-.411a1.76 1.76 0 0 1 1.035-.3c.189-.003.377.022.559.073a1.41 1.41 0 0 1 .466.238 1.09 1.09 0 0 1 .3.383 1.25 1.25 0 0 1 .104.538 5.22 5.22 0 0 1 0 .662h-.963a3.43 3.43 0 0 0 0-.631c0-.279-.166-.424-.476-.424s-.445.135-.445.424l.01 1.552zm5.672-1.894h-1.035v6.21H54.41v-6.21h-1.035v-.838h3.167l-.062.838zm3.705 4.999c0 .767-.404 1.149-1.221 1.149h-1.708v-6.986h1.79c.766 0 1.139.362 1.139 1.035v4.802zm-1.356.352c.269 0 .404-.113.404-.341v-4.803c0-.166-.103-.248-.3-.248h-.662v5.413l.559-.021zm21.104.818v-.839h.911v-4.616c-.126.072-.27.104-.414.093h-.528v-.755h.538a.53.53 0 0 0 .362-.114.4.4 0 0 0 .114-.289v-.486h.942v6.21h.942v.839l-2.867-.041zm5.661-2.919a.87.87 0 0 1-.372.166 1.56 1.56 0 0 1-.435.062c-.349.012-.69-.102-.962-.321-.13-.118-.231-.264-.296-.427a1.15 1.15 0 0 1-.077-.514v-1.78a1.37 1.37 0 0 1 .342-1.035c.329-.264.75-.387 1.169-.342.438-.038.876.083 1.232.342a1.32 1.32 0 0 1 .304.476 1.31 1.31 0 0 1 .079.559v4.564a1.03 1.03 0 0 1-.414.931 2.18 2.18 0 0 1-2.246 0 1.09 1.09 0 0 1-.31-.417 1.1 1.1 0 0 1-.083-.514v-.517-.239a.64.64 0 0 1 0-.175h1.035a.65.65 0 0 0 0 .165v.239.258.269c0 .29.197.435.579.435s.518-.145.518-.424l-.063-1.76zm-1.159-1.035a.47.47 0 0 0 .134.342.59.59 0 0 0 .435.135.63.63 0 0 0 .445-.135.45.45 0 0 0 .111-.155.43.43 0 0 0 .034-.187v-1.76c0-.321-.196-.486-.59-.486a.55.55 0 0 0-.425.145.49.49 0 0 0-.107.162.48.48 0 0 0-.037.19v1.749zm5.248 1.035a.84.84 0 0 1-.362.166c-.145.041-.294.063-.445.062a1.43 1.43 0 0 1-.953-.321 1.14 1.14 0 0 1-.295-.427 1.16 1.16 0 0 1-.077-.514v-1.78a1.37 1.37 0 0 1 .058-.552 1.36 1.36 0 0 1 .273-.483 1.58 1.58 0 0 1 .556-.288c.203-.058.414-.077.624-.053a1.81 1.81 0 0 1 1.221.341 1.31 1.31 0 0 1 .308.475 1.3 1.3 0 0 1 .075.56v4.564a1.04 1.04 0 0 1-.085.52c-.073.163-.186.306-.329.411a2.18 2.18 0 0 1-2.246 0 1.12 1.12 0 0 1-.393-.932v-.517a2.26 2.26 0 0 0 0-.239v-.176h.983v.166a2.26 2.26 0 0 1 0 .239v.527c0 .29.186.435.569.435s.518-.145.518-.424v-1.76zm-1.159-1.035a.43.43 0 0 0 .034.187c.025.059.063.112.111.155.059.052.129.09.203.114s.154.031.232.021a.6.6 0 0 0 .231-.024c.074-.023.144-.061.204-.111.047-.043.085-.096.111-.155a.43.43 0 0 0 .034-.187v-1.76c0-.321-.197-.487-.58-.487a.55.55 0 0 0-.435.145.51.51 0 0 0-.107.162c-.025.06-.037.125-.037.19v1.749zm4.16-.414a.98.98 0 0 1 .362-.166 1.38 1.38 0 0 1 .415 0 1.45 1.45 0 0 1 .962.311 1.15 1.15 0 0 1 .296.428 1.14 1.14 0 0 1 .076.514v2.07a1.36 1.36 0 0 1-.064.552 1.39 1.39 0 0 1-.278.482 1.53 1.53 0 0 1-.544.294 1.56 1.56 0 0 1-.615.057c-.435.001-.855-.157-1.18-.445a1.31 1.31 0 0 1-.314-.473 1.29 1.29 0 0 1-.079-.563v-4.554a1.03 1.03 0 0 1 .084-.52c.072-.163.186-.305.33-.411a1.91 1.91 0 0 1 1.128-.3 1.86 1.86 0 0 1 1.118.3 1.1 1.1 0 0 1 .394.931 5.22 5.22 0 0 1 0 .662h-.952a3.43 3.43 0 0 0 0-.631c0-.279-.197-.424-.57-.424s-.528.135-.528.424l-.042 1.459zm1.159 1.035c.002-.13-.046-.256-.135-.352a.63.63 0 0 0-.424-.124.71.71 0 0 0-.456.124.49.49 0 0 0-.11.166c-.025.062-.036.129-.035.196v2.07c0 .331.197.497.601.497s.558-.166.558-.508v-2.07zm-51.615-68.89a3.51 3.51 0 0 1 1.087 2.204 6.97 6.97 0 0 1-.663 3.943 9.77 9.77 0 0 1-1.677 2.556c-.237.263-.493.509-.766.735a20.37 20.37 0 0 1-5.02 3.229c-.141 1.629-.805 3.169-1.894 4.388-1.273 1.377-2.432 1.873-3.498 1.501a2.45 2.45 0 0 1-.745-.466 1.71 1.71 0 0 1-.435-1.035 2.76 2.76 0 0 1 .168-1.177 2.75 2.75 0 0 1 .649-.996c.376-.413.816-.763 1.304-1.035a14.09 14.09 0 0 1 1.853-.766l1.697-.6c-.063-1.085-.254-2.158-.569-3.198a35.49 35.49 0 0 0-1.18-3.498c-.435-1.097-.859-2.37-1.273-3.829a21.8 21.8 0 0 1-.797-4.016l-.207-1.863a22.21 22.21 0 0 0-2.722 2.525 21 21 0 0 0-2.65 3.685 8.91 8.91 0 0 0-1.387 5.775 3.99 3.99 0 0 0 1.107 2.505c.324.34.758.553 1.225.6s.935-.074 1.321-.341a3.38 3.38 0 0 0 .756-.6c.213-.239.391-.507.528-.797a2.54 2.54 0 0 0 .238-1.201 3.84 3.84 0 0 0-.186-1.18 1.66 1.66 0 0 0-.352-.621c-.026-.018-.047-.042-.061-.07s-.022-.059-.022-.09a.19.19 0 0 1 .022-.09c.015-.028.035-.052.061-.07.104-.093.238-.083.383 0a3.17 3.17 0 0 1 .631 2.857 3.75 3.75 0 0 1-.849 1.625l-.901.693a2.99 2.99 0 0 1-3.757-.259 4.35 4.35 0 0 1-1.273-2.95 9.89 9.89 0 0 1 2.07-6.583 29.63 29.63 0 0 1 2.598-3.24 20.91 20.91 0 0 1 3.312-2.898 3.51 3.51 0 0 1 .207-1.242c.053-.179.129-.349.228-.507.021-.028.05-.05.083-.062.052-.062.104 0 .135.062a1.41 1.41 0 0 1 0 .621c-.075.218-.075.455 0 .673a8.67 8.67 0 0 1 4.451-1.656c.596-.016 1.178.186 1.635.569.422.392.727.894.88 1.449a3.87 3.87 0 0 1-.176 2.598 8.84 8.84 0 0 1-1.459 2.505 10.5 10.5 0 0 1 2.629-1.035 3.36 3.36 0 0 1 1.72-.097 3.35 3.35 0 0 1 1.541.77zM34.31 28.98l-3.229 1.377a3.84 3.84 0 0 0-1.035.818c-.142.14-.249.311-.313.5a1.3 1.3 0 0 0-.059.587 1.36 1.36 0 0 0 .341.859c.177.177.399.303.642.362a1.99 1.99 0 0 0 2.07-.797 6.21 6.21 0 0 0 1.584-3.705zm6.055-4.575a6.21 6.21 0 0 0 1.76-3.954 4.14 4.14 0 0 0-1.097-3.498 2.89 2.89 0 0 0-3.281-.393 14.91 14.91 0 0 0-1.615.818l-1.49.838c-.383.207-.642.29-.776.238s-.166-.435.104-.756.486-.486.9-.88a13.21 13.21 0 0 0 1.035-1.035 3.49 3.49 0 0 0 .673-1.366c.174-.587.237-1.201.186-1.811a3.18 3.18 0 0 0-.838-2.07c-1.035-.911-2.567-.642-4.72.828.262 1.277.973 3.788 2.132 7.535a43.12 43.12 0 0 1 1.925 7.959v1.128a17.87 17.87 0 0 0 4.502-2.981 7.03 7.03 0 0 0 .6-.6zm8.622-11.012a9.2 9.2 0 0 0 .269 2.205c.103.36.245.707.424 1.035.134.248.3.321.486.207s.404-.518.507-1.159a15.52 15.52 0 0 0 .114-3.353c0-.145 0-.238.062-.29s.145-.083.207 0a.55.55 0 0 1 .072.259c.176 2.981-.145 4.699-.931 5.175a1.15 1.15 0 0 1-1.18 0 1.67 1.67 0 0 1-.59-.652 4.9 4.9 0 0 1-.466-1.294c-.083 2.184-.497 3.478-1.221 3.892a1.03 1.03 0 0 1-.652.124 1.77 1.77 0 0 1-1.325-1.035 6.79 6.79 0 0 1-.528-4.647 4.75 4.75 0 0 1 1.449-2.629 2.92 2.92 0 0 1 .621-.476 2.3 2.3 0 0 1 1.801-.228c.207.073.321.176.341.331a.3.3 0 0 1-.238.331c-.163-.169-.379-.278-.613-.308a1.03 1.03 0 0 0-.671.143c-.721.617-1.177 1.488-1.273 2.432a12.19 12.19 0 0 0-.259 2.474 4.83 4.83 0 0 0 .383 2.37c.269.486.569.642.88.466.759-.428 1.104-2.136 1.035-5.123a4.94 4.94 0 0 1 .062-1.294.95.95 0 0 1 .175-.35c.082-.103.184-.189.301-.25l.414-.166c.171-.053.331-.133.476-.238-.131.675-.176 1.363-.135 2.049z"/><path d="M51.926 7.245a2.37 2.37 0 0 1-.466 2.163l1.087-.404a15.75 15.75 0 0 0 1.656-.776 1.51 1.51 0 0 0 .166.3 2.07 2.07 0 0 1 .062.869c0 .404-.052.756-.072 1.035l-.083.849c-.021.269 0 .58-.062.963s0 .714 0 1.035c.072 1.159.331 1.646.776 1.47s.942-1.677 1.149-4.347c0-.207.072-.31.145-.29.034.002.067.014.095.034s.049.048.061.08a3.24 3.24 0 0 1 0 .725c0 .424-.072.859-.124 1.314-.083.575-.225 1.141-.424 1.687-.063.315-.194.612-.383.871s-.433.474-.714.63a1.21 1.21 0 0 1-1.459-.507c-.121-.156-.216-.331-.279-.518a3.25 3.25 0 0 1-.155-1.035 12.65 12.65 0 0 1 .155-1.759l.155-1.232c.017-.106.017-.215 0-.321-.166-.414-.797-.424-1.873 0v.735c.142 1.826-.08 3.663-.652 5.403-.083.176-.176.166-.248 0-.011-.051-.011-.104 0-.155a16.56 16.56 0 0 0 .548-4.285 20.69 20.69 0 0 0-.393-4.306c-.083-.445 0-.725.311-.849.159-.052.33-.049.488.007s.291.163.382.303c.065.096.117.201.155.311z"/><path d="M61.065 7.524c-.197-.797-.621-1.118-1.283-.952h-.166c-.238.093-.404.083-.476 0s0-.217.124-.3a1.48 1.48 0 0 1 .538-.155c.323-.054.655-.022.962.093s.578.307.788.559c.251.269.433.596.528.952.29 1.303.137 2.665-.435 3.871a4.22 4.22 0 0 1-1.164 1.681 4.21 4.21 0 0 1-1.817.937 1.89 1.89 0 0 1-1.366-.124 1.59 1.59 0 0 1-.498-.435c-.134-.178-.229-.383-.278-.6a8.71 8.71 0 0 1 .269-3.229 23.05 23.05 0 0 1-1.294 4.285c-.103.166-.186.135-.238-.072-.01-.051-.01-.104 0-.155.665-1.954 1.205-3.949 1.615-5.972l1.666-6.365c.3-.807.683-1.263 1.128-1.377h.103.383a1.33 1.33 0 0 0 .517-.104 27.67 27.67 0 0 0-1.449 3.478c-1.532 4.209-2.074 7.217-1.625 9.025.186.745.531 1.09 1.035 1.035a.4.4 0 0 0 .155 0c.435-.104.88-.631 1.335-1.563.459-.956.776-1.975.942-3.022.104-.491.104-.999 0-1.49zm3.498 2.112a4.4 4.4 0 0 0-.124 1.666 1.57 1.57 0 0 0 .383.921.89.89 0 0 0 .797.269c1.304-.145 2.339-1.501 3.105-4.068.072-.248.186-.362.331-.342.013-.001.026 0 .039.004s.024.011.034.019.018.02.023.032a.1.1 0 0 1 .008.038c-.09.386-.204.766-.341 1.139a8.83 8.83 0 0 1-.776 1.801 3.28 3.28 0 0 1-2.536 1.801 2.01 2.01 0 0 1-1.522-.393 1.97 1.97 0 0 1-.776-1.448 5.25 5.25 0 0 1 .228-2.07 8.13 8.13 0 0 1 1.035-2.163 4.78 4.78 0 0 1 1.666-1.563c.28-.172.595-.281.921-.321a1.43 1.43 0 0 1 .869.155.84.84 0 0 1 .435.621 3.24 3.24 0 0 1-1.263 2.65 4.51 4.51 0 0 1-1.252.807 4.36 4.36 0 0 1-1.284.445zm3.209-3.84c0-.29-.166-.414-.393-.393-.393 0-.952.611-1.656 1.687-.42.683-.767 1.408-1.035 2.163.362-.071.711-.196 1.035-.373a4.3 4.3 0 0 0 1.138-.828 2.88 2.88 0 0 0 .706-1.027 2.87 2.87 0 0 0 .205-1.229z"/><path d="M71.726 3.943a2.33 2.33 0 0 1-1.232 1.832h1.159c.486 0 1.035 0 1.822-.104a.76.76 0 0 1 0 .342 2.07 2.07 0 0 1-.259.828l-.455.952-.31.776-.414.88c-.155.342-.269.662-.373.952-.362 1.035-.3 1.635.176 1.635s1.449-1.201 2.681-3.602c.104-.186.186-.259.248-.217.029.015.053.037.071.065a.2.2 0 0 1 .032.091 2.9 2.9 0 0 1-.279.673l-.611 1.18a8.09 8.09 0 0 1-1.035 1.408 2.22 2.22 0 0 1-.671.693 2.21 2.21 0 0 1-.902.342c-.559 0-.952-.341-1.17-1.035a2.13 2.13 0 0 1-.062-.59 3.13 3.13 0 0 1 .248-1.035 11.02 11.02 0 0 1 .787-1.573 12.01 12.01 0 0 0 .6-1.097.83.83 0 0 0 .072-.311c0-.445-.58-.683-1.728-.714l-.259.693a13.84 13.84 0 0 1-2.618 4.771c-.145.138-.217.097-.217-.124-.011-.051-.011-.104 0-.155a16.99 16.99 0 0 0 2.07-3.778 20.43 20.43 0 0 0 1.231-4.14c.083-.445.279-.662.6-.662s.548.197.693.6a1.51 1.51 0 0 1 .103.424zm29.352 1.687a1.97 1.97 0 0 0 .107-.798 2 2 0 0 0-.22-.775 3.78 3.78 0 0 0-2.205-1.894 9.92 9.92 0 0 0-3.395-.631 5.46 5.46 0 0 0-1.915.269 2.65 2.65 0 0 0-1.728 1.356 2.81 2.81 0 0 0-.03 1.456c.118.479.36.92.702 1.276a25.7 25.7 0 0 0 1.79 2.008 25.44 25.44 0 0 1 1.987 2.236 4.67 4.67 0 0 1 1.035 2.194c.092.57.039 1.154-.155 1.697-.305.727-.816 1.35-1.47 1.79a10.6 10.6 0 0 1-4.689 1.863 12.72 12.72 0 0 1-6.862-.901c-2.056-.696-3.789-2.116-4.875-3.995a4.72 4.72 0 0 1-.217-4.14 6.35 6.35 0 0 1 2.184-2.619 6.15 6.15 0 0 1 3.364-1.366.93.93 0 0 1 .486.093c.083.072 0 .166-.403.29a6.55 6.55 0 0 0-1.987.952 7.6 7.6 0 0 0-2.639 3.395 4.14 4.14 0 0 0-.186 2.691c.435 1.573 1.742 2.888 3.923 3.943.248.124.621.29 1.128.486a11.68 11.68 0 0 0 2.153.538 10.06 10.06 0 0 0 2.847.093 7 7 0 0 0 4.75-2.205 3.66 3.66 0 0 0 .735-1.149 3.35 3.35 0 0 0-.269-2.898 14.87 14.87 0 0 0-2.153-2.463c-.797-.748-1.534-1.558-2.204-2.422a3.17 3.17 0 0 1-.569-3.105 3.49 3.49 0 0 1 .965-1.196 3.5 3.5 0 0 1 1.384-.667c2.094-.581 4.327-.39 6.293.538.967.338 1.848.886 2.577 1.604a2.44 2.44 0 0 1 .602.95 2.42 2.42 0 0 1 .112 1.12 2.97 2.97 0 0 1-.123.424c-.117.269-.292.508-.512.701s-.48.335-.762.416a4.14 4.14 0 0 1-1.604.104c-.269 0-.394-.104-.372-.238s.259-.228.631-.124c.278.1.581.107.863.019s.528-.265.7-.506a1.59 1.59 0 0 0 .227-.414zM99.07 21.818c-.238.321-.248.569 0 .745.538.414 2.071 0 4.586-1.283.207-.103.32-.114.362 0a.22.22 0 0 1 .028.104.22.22 0 0 1-.028.104 2.14 2.14 0 0 1-.57.341l-1.035.476-1.314.528a2.69 2.69 0 0 1-2.577-.062 1.38 1.38 0 0 1-.569-1.19 1.33 1.33 0 0 1 .311-.724c.255-.311.556-.583.89-.807a11.82 11.82 0 0 1 2.297-1.035 1.3 1.3 0 0 0 .57-.352c.083-.11.031-.245-.155-.404a3.3 3.3 0 0 0-1.707-.072c-1.739.206-3.43.706-4.999 1.48-.207.114-.487 0-.828-.228a2.62 2.62 0 0 0-.663-.342l11.902-5.848a4.93 4.93 0 0 1 1.221-.414 1.04 1.04 0 0 1 .411.03c.133.037.258.101.366.187l.331.311a1.66 1.66 0 0 0 .383.341c-1.426.381-2.812.898-4.14 1.542l-6.283 2.97c.872-.236 1.761-.395 2.661-.476a11.38 11.38 0 0 1 2.39.114c.611.05 1.204.23 1.739.528a.58.58 0 0 1 .166.186c-3.244 1.421-5.158 2.505-5.745 3.25z"/><path d="M108.727 21.901c.735.745.621 1.584-.331 2.515a4.85 4.85 0 0 1-1.718 1.035 7.63 7.63 0 0 1-3.105.466 1.03 1.03 0 0 0-.009.603c.058.197.172.373.329.505a1.48 1.48 0 0 0 .548.322 1.47 1.47 0 0 0 .633.061 5.85 5.85 0 0 0 1.5-.155l.818-.228c.175 0 .414-.124.714-.228l.569-.197c.025-.019.057-.03.088-.03s.063.01.088.03c.104.093.124.176 0 .259-.042.034-.091.059-.145.073l-.31.114-.435.166-.497.155-.569.176-.6.124-.632.104h-.589a1.97 1.97 0 0 1-.58-.073c-.351-.075-.674-.247-.932-.497-.173-.172-.308-.38-.396-.608s-.125-.473-.111-.717c-.673-.066-1.308-.345-1.811-.797-.735-.756-.621-1.594.321-2.515a4.6 4.6 0 0 1 1.728-1.035c.987-.387 2.047-.553 3.105-.486a3.46 3.46 0 0 1 2.329.859zm-.321.631c-.434-.333-.977-.491-1.522-.445-.854-.002-1.702.148-2.504.445-.87.247-1.676.682-2.36 1.273-.465.455-.528.869-.176 1.232.349.3.793.465 1.252.466.06-.391.241-.753.518-1.035.465-.404.869-.445 1.201-.104a.66.66 0 0 1 .186.466.53.53 0 0 1-.029.205.54.54 0 0 1-.106.178 1.4 1.4 0 0 1-.269.207c.571-.122 1.135-.277 1.688-.466.72-.233 1.377-.626 1.925-1.149.465-.455.569-.89.196-1.273z"/><path d="M113.644 31.05a5.28 5.28 0 0 1-1.998.807 8.89 8.89 0 0 1-2.588.166c-.875-.05-1.714-.36-2.411-.89a4.05 4.05 0 0 1-.746-.807c-.26-.397-.42-.852-.465-1.325l-5.361 1.325a2.62 2.62 0 0 1-1.036 0 .9.9 0 0 1-.486-.311l-.228-.228-.175-.352a1.84 1.84 0 0 0-.259-.445 26.7 26.7 0 0 0 4.906-.538 25.88 25.88 0 0 0 5.506-1.242c-.101.018-.204.013-.302-.014s-.19-.075-.268-.141c0-.072 0-.114.207-.145l1.035-.207a4.27 4.27 0 0 0 1.615-.683c.435-.3.621-.569.579-.776l1.035 1.107c.036.048.055.106.055.166s-.019.118-.055.166a1.34 1.34 0 0 1-.279.269 8.64 8.64 0 0 1-2.742 1.211l.817-.052a12.67 12.67 0 0 1 1.977 0l1.034.186a1.78 1.78 0 0 1 1.191.631 1.07 1.07 0 0 1 .156.29c.118.34.112.712-.019 1.048s-.378.614-.695.784zm-.435-.973c.181-.126.33-.292.435-.487.055-.076.086-.169.086-.264s-.031-.187-.086-.264c-.291-.414-1.036-.611-2.164-.611-1.895.061-3.785.227-5.662.497-.018.141-.008.285.031.422a1.03 1.03 0 0 0 .197.375 2.56 2.56 0 0 0 1.428.704 10.14 10.14 0 0 0 3.851.228 4.24 4.24 0 0 0 1.884-.59v-.01zM28.256 86.516c-.204.136-.439.222-.683.248-.227.029-.457.004-.673-.072-.217-.069-.418-.182-.59-.332a2.18 2.18 0 0 1-.486-.538c-.135-.201-.233-.426-.29-.662a1.9 1.9 0 0 1-.062-.683 1.81 1.81 0 0 1 .217-.642 1.51 1.51 0 0 1 .507-.517l4.533-2.929c.206-.135.439-.223.683-.259a1.57 1.57 0 0 1 .662.072 1.99 1.99 0 0 1 .6.331c.191.155.355.34.486.549a2.28 2.28 0 0 1 .29.652 1.94 1.94 0 0 1 .062.683 1.52 1.52 0 0 1-.207.631 1.43 1.43 0 0 1-.507.517l-4.544 2.95zm-1.345-2.205a.62.62 0 0 0-.214.19.61.61 0 0 0-.106.266c-.011.178.035.354.132.503a.83.83 0 0 0 .406.325.59.59 0 0 0 .286.021.6.6 0 0 0 .263-.114l4.502-2.908a.6.6 0 0 0 .3-.466.85.85 0 0 0-.538-.817.59.59 0 0 0-.538.093l-4.492 2.908zm4.243 6.945a8.13 8.13 0 0 0-.683.601l-.787-.953c.204-.207.422-.4.652-.58l2.37-1.915c.093-.082.093-.176 0-.3l-.787-.963-3.177 2.577-.797-.963 6.624-5.361 1.48 1.822c.114.105.204.235.261.379a1.04 1.04 0 0 1 .071.455 1.03 1.03 0 0 1-.446.78l-1.656 1.356a.6.6 0 0 1-.207.123c-.077.027-.158.038-.238.032a.91.91 0 0 1 0 .476c-.037.182-.141.344-.29.455l-2.391 1.977zm3.457-6.293l-1.967 1.594.569.714c.093.113.186.135.29.052l1.687-1.355c.103-.083.103-.176 0-.3l-.58-.704zm-2.164 8.984l-.849-.89 6.21-5.878.849.89-6.21 5.878zm3.074.87c-.269.3-.228.611.135.942a.58.58 0 0 0 .204.167c.08.04.168.06.257.06s.177-.02.257-.06a.58.58 0 0 0 .204-.167l1.625-1.812-.631-.559.652-.714 1.48 1.325-2.246 2.515a1.75 1.75 0 0 1-1.128.652 2 2 0 0 1-1.346-.632 2.18 2.18 0 0 1-.828-1.314 1.6 1.6 0 0 1 .101-.674c.082-.215.21-.409.375-.569l3.716-4.14c.13-.173.302-.31.499-.399a1.27 1.27 0 0 1 .629-.108 2.26 2.26 0 0 1 1.273.641c.375.3.641.714.755 1.18.032.211.014.426-.055.628s-.185.384-.339.531a5.11 5.11 0 0 1-.569.58l-.859-.777a4.27 4.27 0 0 0 .538-.538c.238-.258.186-.548-.155-.849s-.59-.3-.818-.052l-3.726 4.14zm3.178 4.605l-1.035-.745 5.175-6.768 1.035.745-5.175 6.769zm5.899-.166l.58-.952.569-.932 1.542-2.401 1.035.642-4.585 7.194-1.035-.653 1.801-6.386-.517.87-.559.89-2.339 3.591-1.035-.652 4.585-7.193 1.418.911-1.459 5.071zm6.283-2.453a2.14 2.14 0 0 1 .6.415 1.78 1.78 0 0 1 .393.548 1.57 1.57 0 0 1 .145.652 1.62 1.62 0 0 1-.166.703l-3.105 6.21-1.035-.517 1.573-3.199-1.273-.631-1.573 3.199-1.035-.518 3.105-6.21c.102-.222.254-.417.445-.569a1.73 1.73 0 0 1 .611-.279 2.15 2.15 0 0 1 .683 0c.218.037.431.103.631.196zm-2.453 3.344l1.273.631 1.035-2.143a.56.56 0 0 0 0-.538.77.77 0 0 0-.362-.362.82.82 0 0 0-.518-.072.58.58 0 0 0-.424.341l-1.004 2.143zm3.55 5.206c.012.121.072.232.166.31.098.103.218.181.352.228.165.052.342.052.507 0 .089-.028.169-.076.236-.141a.59.59 0 0 0 .147-.231c0-.125.073-.218.104-.291l.062-.186v-.134-.145l1.087.404v.144a.95.95 0 0 1 0 .135c-.014.059-.031.118-.052.176 0 .073-.062.166-.103.279a1.78 1.78 0 0 1-.393.642 1.39 1.39 0 0 1-.549.341 1.49 1.49 0 0 1-.652.083 2.59 2.59 0 0 1-.704-.166 3.34 3.34 0 0 1-.559-.269 2.67 2.67 0 0 1-.455-.382 2.3 2.3 0 0 1-.31-.466c-.086-.159-.129-.337-.124-.517l2.629-7.122 1.159.425-2.546 6.883zm8.901-1.418v1.107c0 .373-.062.735-.083 1.035h.052l.331-1.035c.114-.383.248-.704.383-1.035l1.242-3.271 1.232.239-3.219 8.062-1.18-.238.145-8.663 1.273.259-.176 3.54zm3.985 5.775l-1.232-.145 1.035-8.466 1.232.145-1.035 8.466zm4.968-3.208v-1.129-1.035l.166-2.908h1.211l-.259 8.518h-1.211l-1.76-6.396h-.052v1.035 1.035l-.135 4.285h-1.211l.259-8.518h1.677l1.314 5.113zm5.858-4.327l-1.314.104.569 7.483-1.232.093-.569-7.483-1.294.093-.073-1.035 3.83-.289.083 1.034zm2.142-1.49c.237-.036.478-.036.714 0 .23.025.453.099.652.217.198.108.368.261.497.445a1.66 1.66 0 0 1 .279.673l1.169 6.862-1.18.207-.6-3.519-1.397.248.6 3.509-1.159.197-1.18-6.873a1.67 1.67 0 0 1 0-.724c.071-.213.183-.411.331-.58a1.81 1.81 0 0 1 .549-.414c.224-.127.47-.211.724-.248zm0 4.14l1.397-.248-.393-2.35a.6.6 0 0 0-.3-.455.77.77 0 0 0-.507-.083.8.8 0 0 0-.455.248.58.58 0 0 0-.145.528l.404 2.36zm5.775 1.873c.114.394.404.518.859.394s.611-.384.497-.777l-.652-2.339-.807.218-.259-.932 1.915-.538.91 3.26a1.7 1.7 0 0 1-.062 1.294 1.93 1.93 0 0 1-.546.525 1.92 1.92 0 0 1-.707.272 2.24 2.24 0 0 1-1.553 0 1.62 1.62 0 0 1-.506-.435 1.64 1.64 0 0 1-.291-.6l-1.49-5.403a1.32 1.32 0 0 1-.063-.644c.033-.216.118-.423.25-.598.321-.364.748-.617 1.221-.724a2.16 2.16 0 0 1 1.407 0 1.31 1.31 0 0 1 .766.952l.186.786-1.118.322a7.49 7.49 0 0 0-.166-.756c-.093-.342-.362-.445-.807-.321s-.569.341-.476.673l1.49 5.371zm4.161-4.026l.952 2.432c.145.373.383.497.714.362a.51.51 0 0 0 .217-.113c.063-.054.112-.122.143-.199a.52.52 0 0 0 .037-.241.54.54 0 0 0-.075-.233l-.249-.601a3.33 3.33 0 0 0-.196-.414l1.097-.423c.103.196.238.517.414.951a1.66 1.66 0 0 1 .135.658 1.67 1.67 0 0 1-.135.657 1.7 1.7 0 0 1-.43.531c-.178.145-.384.254-.605.317a1.93 1.93 0 0 1-1.47.125c-.407-.22-.712-.593-.849-1.035l-2.018-5.175a1.3 1.3 0 0 1 .062-1.242c.249-.374.612-.657 1.036-.807a2.32 2.32 0 0 1 .673-.155 1.8 1.8 0 0 1 .631 0 1.29 1.29 0 0 1 .507.31 1.36 1.36 0 0 1 .362.559 5.61 5.61 0 0 1 .249.735l-.993.496a4.8 4.8 0 0 0-.239-.714c-.124-.321-.362-.414-.724-.279a.46.46 0 0 0-.191.091c-.056.046-.101.102-.13.168s-.045.136-.043.208a.47.47 0 0 0 .054.206l.746 1.925 2.07-.807.352.9-2.101.807zm8.156-4.854a.75.75 0 0 1 .455 0c.145.08.261.203.331.352l1.532 2.598c.087.126.145.27.171.422s.015.307-.027.454-.118.285-.22.4a1.03 1.03 0 0 1-.369.266l-2.071 1.242-4.357-7.297 2.07-1.211a1.04 1.04 0 0 1 1.295-.009 1.04 1.04 0 0 1 .289.36l.931 1.594a.8.8 0 0 1 .145.465 1.05 1.05 0 0 1-.176.362zm-3.002-1.397l1.149 1.956.818-.476c.124-.083.155-.176.093-.279l-.953-1.636a.18.18 0 0 0-.064-.051.19.19 0 0 0-.08-.019.19.19 0 0 0-.08.019c-.024.012-.047.03-.064.051l-.818.435zm4.203 5.175c.026-.009.051-.025.071-.046s.035-.044.044-.071a.2.2 0 0 0 .008-.084c-.004-.028-.014-.055-.03-.078l-1.553-2.64c-.062-.103-.156-.123-.279 0l-.87.498 1.739 2.929.87-.507zm5.733-3.881l.58.704-1.035.734c-.155-.166-.342-.394-.548-.662l-1.77-2.453c-.073-.103-.166-.113-.29 0l-1.035.745 2.443 3.292-1.035.734-4.948-6.872 1.894-1.397a1.05 1.05 0 0 1 .388-.245 1.04 1.04 0 0 1 .89.099 1.02 1.02 0 0 1 .326.322l1.273 1.729a.53.53 0 0 1 .117.206c.024.077.029.159.017.239a.95.95 0 0 1 .487 0c.177.053.332.163.445.31l1.8 2.516zm-6.116-3.737l1.501 2.07.734-.538c.114-.093.135-.186.062-.289l-1.283-1.759c-.073-.104-.166-.114-.29 0l-.724.517zm3.581-4.295a2.38 2.38 0 0 1 .61-.404 1.7 1.7 0 0 1 .663-.176 1.59 1.59 0 0 1 .652.103 1.64 1.64 0 0 1 .6.425l4.709 5.175-.879.817-2.412-2.629-1.035.963 2.411 2.618-.869.807-4.72-5.175a1.46 1.46 0 0 1-.362-.631 1.57 1.57 0 0 1 0-.662 1.93 1.93 0 0 1 .228-.641c.107-.214.243-.413.404-.59zm2.235 3.468l1.035-.963-1.615-1.749a.55.55 0 0 0-.214-.176c-.086-.04-.178-.058-.272-.052-.178.011-.346.085-.476.207s-.219.28-.248.456a.56.56 0 0 0 .017.279.57.57 0 0 0 .148.238l1.625 1.76zm5.745-4.338l-.87-.724-.828-.704-2.069-1.904.796-.911 6.427 5.6-.796.91-6.076-2.701.776.651.798.673 3.239 2.815-.797.922-6.5-5.568 1.097-1.263 4.803 2.204zm5.423-3.85c.182.095.337.231.456.398s.193.36.222.563a1.27 1.27 0 0 1-.06.602c-.068.193-.18.366-.328.508l-1.201 1.666-6.976-4.865 1.243-1.791a1.17 1.17 0 0 1 .338-.429c.145-.114.314-.195.494-.233a1.19 1.19 0 0 1 1.03.269l4.782 3.312zm-.59 1.604c.186-.269.156-.476-.072-.641l-4.813-3.343c-.166-.124-.321-.083-.455.114l-.466.673 5.412 3.757.394-.559z"/></g><defs ><path id="B" d="M74.52 82.49c-.026-.081-.057-.161-.093-.238a2.61 2.61 0 0 0-.186-.279c.07-.084.132-.174.186-.269.036-.077.067-.157.093-.238-.082.019-.162.047-.238.083a2 2 0 0 0-.279.197 1.54 1.54 0 0 0-.279-.197 1.04 1.04 0 0 0-.228-.083c.019.082.047.162.083.238a1.81 1.81 0 0 0 .186.269c-.068.089-.13.182-.186.279a1.19 1.19 0 0 0-.083.238 1.04 1.04 0 0 0 .228-.083c.1-.055.194-.121.279-.197a1.99 1.99 0 0 0 .279.197l.238.083z"/></defs></svg>