<svg width="70" height="70" viewBox="0 0 70 70" fill="none" xmlns="http://www.w3.org/2000/svg">
<path d="M57.555 31.7563C55.6599 31.6389 53.7682 32.0347 52.079 32.9017C50.3899 33.7688 48.9657 35.0751 47.9563 36.6833C47.8916 36.7905 47.8001 36.8792 47.691 36.9408C47.582 37.0024 47.4588 37.0347 47.3335 37.0347C47.2082 37.0347 47.085 37.0024 46.9759 36.9408C46.8668 36.8792 46.7754 36.7905 46.7107 36.6833C45.633 34.9602 44.0794 33.5859 42.2377 32.7267C40.3959 31.8674 38.3447 31.5597 36.3318 31.841C30.9237 32.6305 27.0269 37.8525 27.0269 43.7134C26.9983 46.1761 27.589 48.6065 28.7447 50.7813C29.9004 52.9562 31.5841 54.8058 33.641 56.1603L44.2166 62.8726C45.1464 63.4703 46.2284 63.788 47.3337 63.788C48.4391 63.788 49.5211 63.4703 50.451 62.8726L61.0269 56.1603C63.0837 54.8058 64.7674 52.9562 65.923 50.7813C67.0786 48.6065 67.6693 46.1761 67.6407 43.7134C67.6401 37.5374 63.2942 32.1648 57.555 31.7563Z" fill="black"/>
<path d="M35.9054 28.9187C36.2186 28.8728 36.534 28.839 36.8494 28.8154C34.9749 26.1179 32.358 24.0223 29.3162 22.7827C29.0091 22.6505 28.7476 22.4313 28.5638 22.152C28.38 21.8728 28.282 21.5459 28.282 21.2115C28.2799 20.9726 28.3269 20.7359 28.4201 20.5159C28.5132 20.2959 28.6506 20.0973 28.8235 19.9326C28.9293 19.8319 29.0305 19.7326 29.1063 19.6528C29.642 19.0889 30.1147 18.4681 30.5158 17.8016C31.5712 16.0408 32.0944 14.0122 32.0223 11.9607C31.9503 9.9092 31.2861 7.92232 30.1099 6.2399C28.9336 4.5575 27.2956 3.25146 25.3935 2.47938C23.4914 1.7073 21.4065 1.5022 19.3905 1.88881C17.336 2.24837 15.4372 3.2178 13.941 4.67103C12.4449 6.12426 11.4206 7.99407 11.0015 10.0372C10.6142 11.7966 10.6802 13.6254 11.1933 15.3523C11.7063 17.0791 12.6495 18.6474 13.9345 19.9099C14.109 20.0751 14.2486 20.2735 14.3452 20.4935C14.4418 20.7135 14.4935 20.9505 14.4972 21.1907V21.1996C14.5003 21.5367 14.4037 21.8672 14.2198 22.1496C14.0358 22.4321 13.7726 22.6539 13.463 22.7873C9.22556 24.5427 5.84632 27.8911 4.0523 32.1124C2.79123 35.0035 2.15865 38.1295 2.19642 41.2834V43.5567C2.19641 44.0439 2.29236 44.5264 2.4788 44.9765C2.66524 45.4266 2.93851 45.8357 3.28302 46.1802C3.62753 46.5247 4.03652 46.798 4.48665 46.9844C4.93677 47.1709 5.41921 47.2669 5.90643 47.2669H24.4287C24.1946 46.0968 24.0759 44.9066 24.0742 43.7134C24.0742 36.2639 29.1605 29.9036 35.9054 28.9187ZM17.0481 16.4632C16.7891 16.2094 16.6416 15.8631 16.6379 15.5005C16.6342 15.1378 16.7748 14.7887 17.0286 14.5297C17.2824 14.2707 17.6287 14.1231 17.9914 14.1194C18.354 14.1158 18.7032 14.2563 18.9622 14.5102C19.2793 14.8559 19.6648 15.132 20.0942 15.3211C20.5236 15.5102 20.9876 15.608 21.4567 15.6085C21.9259 15.6089 22.39 15.512 22.8198 15.3237C23.2496 15.1355 23.6356 14.8601 23.9534 14.5149C24.0808 14.3866 24.2324 14.2848 24.3995 14.2155C24.5665 14.1462 24.7456 14.1107 24.9265 14.111C25.1073 14.1114 25.2863 14.1476 25.453 14.2177C25.6198 14.2877 25.771 14.3901 25.8978 14.519C26.0247 14.6478 26.1248 14.8006 26.1922 14.9684C26.2596 15.1362 26.2931 15.3157 26.2907 15.4966C26.2883 15.6774 26.25 15.856 26.1781 16.0219C26.1061 16.1878 26.002 16.3379 25.8717 16.4632C25.3224 17.0545 24.6597 17.5291 23.9231 17.8589C23.1866 18.1887 22.3911 18.3668 21.5842 18.3827C19.885 18.3343 18.266 17.6492 17.0481 16.4632Z" fill="black"/>
</svg>
