<svg width="70" height="70" viewBox="0 0 70 70" fill="none" xmlns="http://www.w3.org/2000/svg">
<path d="M2.51563 38.2813C2.51846 41.9577 3.61068 45.5508 5.65437 48.6068C7.69804 51.6628 10.6015 54.0447 13.998 55.4515C17.3946 56.8584 21.1319 57.2271 24.7379 56.5113C28.3439 55.7954 31.6569 54.027 34.2584 51.4293C36.795 48.9054 38.5456 45.7005 39.2984 42.2023C40.0512 38.7041 39.7739 35.0627 38.5 31.7188L52.1883 18.0328C52.8856 18.3663 53.6786 18.4424 54.4267 18.2476C55.1748 18.0528 55.8298 17.5995 56.2759 16.9682C56.7219 16.3368 56.9302 15.568 56.8639 14.7978C56.7977 14.0276 56.461 13.3057 55.9136 12.7598L46.6332 3.47821C46.0081 2.88167 45.1773 2.54883 44.3133 2.54883C43.4493 2.54883 42.6185 2.88167 41.9934 3.47821C41.5171 3.9584 41.2008 4.57405 41.0879 5.24091C40.9749 5.90776 41.0708 6.59324 41.3624 7.20354L27.6718 20.8907C24.8585 19.8278 21.8292 19.4635 18.8441 19.829C15.8589 20.1944 13.0071 21.2788 10.5332 22.989C8.05931 24.6991 6.03737 26.9841 4.64091 29.6476C3.24444 32.3112 2.51515 35.2739 2.51563 38.2813ZM43.54 5.02477C43.7451 4.81973 44.0233 4.70453 44.3133 4.70453C44.6033 4.70453 44.8815 4.81973 45.0866 5.02477L54.367 14.3063C54.5663 14.5126 54.6765 14.7889 54.674 15.0757C54.6715 15.3625 54.5565 15.6368 54.3537 15.8396C54.151 16.0424 53.8766 16.1574 53.5898 16.1599C53.303 16.1624 53.0268 16.0521 52.8205 15.8529L43.54 6.57243C43.4383 6.47084 43.3577 6.35022 43.3026 6.21744C43.2475 6.08466 43.2192 5.94234 43.2192 5.7986C43.2192 5.65486 43.2475 5.51254 43.3026 5.37975C43.3577 5.24698 43.4383 5.12635 43.54 5.02477ZM15.9775 22.7053C17.6229 22.1589 19.345 21.8787 21.0788 21.8751C23.2889 21.8767 25.476 22.3231 27.51 23.1876C27.711 23.2732 27.933 23.2966 28.1474 23.2549C28.3618 23.2132 28.5589 23.1082 28.7132 22.9535L42.7656 8.89229L50.5007 16.6251L36.4449 30.682C36.2902 30.8362 36.1852 31.0332 36.1435 31.2476C36.1017 31.4621 36.1252 31.6841 36.2108 31.8851C37.2798 34.3916 37.7047 37.1258 37.4466 39.8386C37.1885 42.5513 36.2557 45.1564 34.7332 47.4163C34.2432 46.7437 34.3459 45.9343 34.5658 44.6601C34.8228 43.1628 35.1433 41.3012 33.5814 39.7382C32.0195 38.1753 30.1591 38.4979 28.6595 38.7538C27.2311 39.001 26.3834 39.1049 25.6593 38.3808C24.9353 37.6568 25.0392 36.8103 25.2853 35.3785C25.5413 33.8812 25.8607 32.0196 24.3009 30.4566C22.7413 28.8937 20.8786 29.2141 19.3791 29.4723C17.9474 29.7183 17.1008 29.8212 16.3756 29.096C15.6505 28.3708 15.7533 27.5243 15.9983 26.0915C16.2761 24.9789 16.2681 23.8141 15.9753 22.7053H15.9775ZM13.9508 23.5321C14.0682 24.2604 14.0339 25.0052 13.8501 25.7196C13.5942 27.217 13.2749 29.0796 14.8345 30.6415C16.3942 32.2033 18.258 31.884 19.7564 31.6258C21.1903 31.3798 22.0369 31.277 22.7609 32.0021C23.485 32.7273 23.3822 33.5728 23.1361 35.0056C22.8801 36.5018 22.5608 38.3645 24.1205 39.9274C25.6801 41.4904 27.5428 41.1678 29.0424 40.9118C30.4741 40.6679 31.3195 40.5629 32.0436 41.2858C32.7676 42.0088 32.6626 42.8543 32.4155 44.2849C32.1606 45.7724 31.8457 47.6208 33.3747 49.175C33.1559 49.4146 32.947 49.6531 32.7184 49.8816C31.0334 51.5716 28.9999 52.8735 26.7599 53.6966C24.5199 54.5198 22.1272 54.8443 19.7488 54.6477C17.3705 54.451 15.0637 53.7379 12.9893 52.5579C10.9149 51.378 9.12289 49.7597 7.73829 47.816C6.3537 45.8722 5.40982 43.6498 4.97249 41.3038C4.53516 38.9577 4.61491 36.5445 5.20619 34.2324C5.79748 31.9203 6.88605 29.7651 8.39594 27.917C9.90591 26.0689 11.8008 24.5725 13.9486 23.5321H13.9508Z" fill="black"/>
<path d="M9.51025 38.6018C10.1144 38.6018 10.604 38.1121 10.604 37.5081C10.604 36.904 10.1144 36.4143 9.51025 36.4143C8.90622 36.4143 8.4165 36.904 8.4165 37.5081C8.4165 38.1121 8.90622 38.6018 9.51025 38.6018Z" fill="black"/>
<path d="M17.2441 40.1482C17.8482 40.1482 18.3379 39.6585 18.3379 39.0544C18.3379 38.4504 17.8482 37.9607 17.2441 37.9607C16.6401 37.9607 16.1504 38.4504 16.1504 39.0544C16.1504 39.6585 16.6401 40.1482 17.2441 40.1482Z" fill="black"/>
<path d="M12.6035 47.8821C13.2075 47.8821 13.6973 47.3924 13.6973 46.7883C13.6973 46.1842 13.2075 45.6946 12.6035 45.6946C11.9995 45.6946 11.5098 46.1842 11.5098 46.7883C11.5098 47.3924 11.9995 47.8821 12.6035 47.8821Z" fill="black"/>
<path d="M23.4312 49.4287C24.0353 49.4287 24.5249 48.9391 24.5249 48.335C24.5249 47.7309 24.0353 47.2412 23.4312 47.2412C22.8271 47.2412 22.3374 47.7309 22.3374 48.335C22.3374 48.9391 22.8271 49.4287 23.4312 49.4287Z" fill="black"/>
<path d="M57.9687 20.7812C57.3198 20.7812 56.6854 20.9737 56.1458 21.3343C55.6062 21.6948 55.1856 22.2072 54.9373 22.8068C54.6889 23.4064 54.6239 24.0661 54.7506 24.7027C54.8771 25.3392 55.1897 25.9238 55.6485 26.3827C56.1075 26.8416 56.6921 27.1541 57.3286 27.2807C57.9651 27.4073 58.6249 27.3423 59.2244 27.094C59.824 26.8456 60.3364 26.4251 60.697 25.8854C61.0576 25.3459 61.25 24.7115 61.25 24.0625C61.25 23.1923 60.9043 22.3576 60.289 21.7423C59.6736 21.127 58.839 20.7812 57.9687 20.7812ZM57.9687 25.1562C57.7524 25.1562 57.541 25.0921 57.3611 24.9719C57.1812 24.8517 57.041 24.6809 56.9582 24.481C56.8755 24.2812 56.8538 24.0613 56.896 23.8491C56.9382 23.637 57.0424 23.4421 57.1953 23.2891C57.3483 23.1361 57.5432 23.032 57.7554 22.9897C57.9676 22.9475 58.1874 22.9692 58.3873 23.052C58.5872 23.1348 58.758 23.275 58.8782 23.4548C58.9984 23.6347 59.0625 23.8462 59.0625 24.0625C59.0625 24.3526 58.9473 24.6308 58.7422 24.8359C58.537 25.041 58.2588 25.1562 57.9687 25.1562Z" fill="black"/>
<path d="M55.7813 38.2812C56.4302 38.2812 57.0646 38.0888 57.6042 37.7282C58.1438 37.3677 58.5644 36.8553 58.8127 36.2557C59.0611 35.6561 59.1261 34.9964 58.9994 34.3598C58.8729 33.7233 58.5603 33.1387 58.1015 32.6798C57.6425 32.2209 57.0579 31.9084 56.4214 31.7818C55.7849 31.6552 55.1251 31.7202 54.5256 31.9685C53.926 32.2169 53.4136 32.6374 53.053 33.1771C52.6924 33.7166 52.5 34.351 52.5 35C52.5 35.8702 52.8457 36.7049 53.461 37.3202C54.0764 37.9355 54.911 38.2812 55.7813 38.2812ZM55.7813 33.9063C55.9976 33.9063 56.209 33.9704 56.3889 34.0906C56.5688 34.2108 56.709 34.3816 56.7918 34.5815C56.8745 34.7813 56.8962 35.0012 56.854 35.2134C56.8118 35.4255 56.7076 35.6204 56.5547 35.7734C56.4017 35.9264 56.2068 36.0305 55.9946 36.0728C55.7824 36.115 55.5626 36.0933 55.3627 36.0105C55.1628 35.9277 54.992 35.7875 54.8718 35.6077C54.7516 35.4278 54.6875 35.2163 54.6875 35C54.6875 34.7099 54.8027 34.4317 55.0078 34.2266C55.213 34.0215 55.4912 33.9063 55.7813 33.9063Z" fill="black"/>
<path d="M67.6836 59.6401C67.5901 59.4655 67.451 59.3196 67.2812 59.2179C67.1113 59.1162 66.9169 59.0625 66.7189 59.0626H57.9689V55.1918C60.1094 53.3751 61.2502 51.3177 61.2502 49.2189C61.2502 46.9832 59.9715 44.7946 57.5511 42.8904C57.3584 42.7389 57.1203 42.6565 56.8752 42.6565C56.63 42.6565 56.392 42.7389 56.1992 42.8904C53.7788 44.7946 52.5002 46.9832 52.5002 49.2189C52.5002 51.3177 53.641 53.3751 55.7814 55.1918V59.0626H47.0314C46.8334 59.0625 46.6391 59.1163 46.4692 59.218C46.2994 59.3198 46.1603 59.4657 46.0669 59.6403C45.9734 59.815 45.9292 60.0116 45.9388 60.2094C45.9484 60.4072 46.0115 60.5986 46.1214 60.7634L50.4964 67.3259C50.5963 67.4756 50.7317 67.5984 50.8904 67.6833C51.0491 67.7682 51.2264 67.8126 51.4064 67.8126H62.3439C62.524 67.8126 62.7012 67.7682 62.8599 67.6833C63.0186 67.5984 63.154 67.4756 63.2539 67.3259L67.6289 60.7634C67.7389 60.5986 67.802 60.4071 67.8117 60.2093C67.8213 60.0115 67.777 59.8147 67.6836 59.6401ZM54.6877 49.2189C54.7512 48.4307 54.9786 47.6646 55.3553 46.9694C55.732 46.2742 56.2496 45.6654 56.8752 45.1818C57.5007 45.6654 58.0183 46.2742 58.395 46.9694C58.7717 47.6646 58.9991 48.4307 59.0627 49.2189C59.0201 50.2611 58.6358 51.2604 57.9689 52.0626V50.3126C57.9689 50.0225 57.8537 49.7443 57.6485 49.5392C57.4434 49.3341 57.1652 49.2189 56.8752 49.2189C56.5851 49.2189 56.3069 49.3341 56.1017 49.5392C55.8966 49.7443 55.7814 50.0225 55.7814 50.3126V52.0626C55.1145 51.2604 54.7302 50.2611 54.6877 49.2189ZM61.7588 65.6251H51.9915L49.0756 61.2501H64.6747L61.7588 65.6251Z" fill="black"/>
</svg>
