<svg width="135" height="136" viewBox="0 0 135 136" fill="none" xmlns="http://www.w3.org/2000/svg">
<g opacity="0.8">
<path opacity="0.8" d="M29.1657 123.114C28.8905 122.928 28.6885 122.693 28.5598 122.409C28.4311 122.124 28.3838 121.822 28.4179 121.502C28.4471 121.179 28.5633 120.867 28.7666 120.567C28.9665 120.272 29.2128 120.048 29.5055 119.896C29.7933 119.741 30.0947 119.667 30.4097 119.676C30.7248 119.685 31.0199 119.783 31.2952 119.969L32.8189 121.001L32.7054 121.055L33.9861 119.164C34.0437 119.079 34.1204 119.025 34.2161 119.002C34.3118 118.979 34.4022 118.997 34.4873 119.054C34.5773 119.115 34.6296 119.194 34.6439 119.292C34.6533 119.386 34.6292 119.475 34.5716 119.56L31.4258 124.207C31.3682 124.292 31.2932 124.343 31.2009 124.361C31.1002 124.38 31.0073 124.361 30.9222 124.304L29.1657 123.114ZM30.9038 120.547C30.7387 120.435 30.5631 120.382 30.377 120.388C30.1909 120.393 30.0078 120.448 29.8277 120.552C29.6476 120.656 29.4966 120.799 29.3746 120.979C29.2458 121.169 29.1699 121.362 29.1467 121.558C29.1235 121.754 29.1456 121.937 29.2132 122.107C29.2773 122.281 29.3919 122.425 29.557 122.536L31.0808 123.568L30.9724 123.615L32.4259 121.468L32.4276 121.579L30.9038 120.547Z" fill="#FEFEEF"/>
<path opacity="0.8" d="M30.0508 115.945C30.1394 116.018 30.1934 116.11 30.2127 116.219C30.2273 116.325 30.202 116.418 30.1367 116.497L26.5721 120.831C26.5068 120.91 26.4274 120.954 26.3338 120.964C26.2317 120.973 26.141 120.946 26.0617 120.881L24.1294 119.291C23.8681 119.076 23.6823 118.822 23.5721 118.528C23.458 118.238 23.4267 117.938 23.4781 117.629C23.5211 117.32 23.6538 117.03 23.8765 116.759C24.0378 116.563 24.2267 116.409 24.4435 116.298C24.6563 116.191 24.88 116.129 25.1143 116.11C25.3448 116.097 25.5709 116.126 25.7927 116.199L25.8546 116.438C25.7266 116.27 25.6399 116.085 25.5945 115.883C25.5453 115.686 25.5424 115.481 25.5859 115.266C25.6256 115.056 25.7237 114.851 25.8803 114.651C26.013 114.471 26.1146 114.324 26.1851 114.209C26.2555 114.095 26.3017 113.996 26.3236 113.912C26.3417 113.833 26.3385 113.756 26.314 113.682C26.2832 113.586 26.2873 113.495 26.3262 113.41C26.3605 113.321 26.4278 113.263 26.5282 113.236C26.5908 113.217 26.6554 113.219 26.7221 113.243C26.785 113.271 26.8401 113.308 26.8876 113.355C26.9351 113.402 26.968 113.453 26.9861 113.507C27.0262 113.61 27.0487 113.73 27.0534 113.867C27.0543 114.009 27.0148 114.176 26.9347 114.368C26.8547 114.561 26.7053 114.79 26.4865 115.056C26.3636 115.205 26.2852 115.348 26.2513 115.485C26.2173 115.621 26.215 115.752 26.2445 115.878C26.2739 116.004 26.328 116.119 26.4069 116.223C26.4857 116.327 26.5764 116.421 26.6791 116.506L28.2403 117.79L28.0526 117.847L29.5556 116.019C29.6209 115.94 29.6999 115.892 29.7926 115.874C29.8854 115.856 29.9714 115.88 30.0508 115.945ZM27.8256 118.294L26.1104 116.883C25.9674 116.781 25.803 116.724 25.6172 116.712C25.4268 116.696 25.2328 116.732 25.0353 116.82C24.8292 116.909 24.6475 117.049 24.4901 117.24C24.2866 117.488 24.197 117.758 24.2214 118.052C24.241 118.342 24.3698 118.585 24.6079 118.781L26.2601 120.14L26.0946 120.227L27.8453 118.099L27.8256 118.294Z" fill="#FEFEEF"/>
<path opacity="0.8" d="M21.0331 116.541L18.7392 114.271C18.6662 114.199 18.6273 114.113 18.6225 114.015C18.6177 113.917 18.6515 113.831 18.7237 113.758C18.796 113.685 18.8813 113.651 18.9796 113.654C19.0736 113.662 19.1572 113.703 19.2302 113.775L21.305 115.828L21.1386 115.88L22.7518 114.25L22.7461 114.385L20.9548 112.612C20.8818 112.54 20.8429 112.454 20.8381 112.356C20.8333 112.258 20.8671 112.172 20.9393 112.099C21.0116 112.026 21.0969 111.992 21.1952 111.995C21.2892 112.003 21.3728 112.044 21.4458 112.116L23.2177 113.869L23.1152 113.883L24.7667 112.214L24.7607 112.297L22.7053 110.263C22.6323 110.191 22.5955 110.103 22.5949 110.001C22.5944 109.898 22.626 109.815 22.6898 109.75C22.762 109.677 22.8473 109.643 22.9456 109.647C23.0439 109.65 23.1296 109.688 23.2026 109.761L25.4965 112.031C25.5695 112.103 25.6063 112.19 25.6068 112.293C25.6031 112.391 25.5651 112.477 25.4928 112.55L21.5459 116.538C21.4736 116.611 21.3905 116.648 21.2965 116.649C21.1939 116.649 21.1061 116.613 21.0331 116.541Z" fill="#FEFEEF"/>
<path opacity="0.8" d="M17.0259 112.502C16.9911 112.46 16.9659 112.406 16.9505 112.341C16.9313 112.27 16.9286 112.205 16.9426 112.146L18.2042 107.97L18.4003 108.22L14.0534 108.67C13.9148 108.683 13.8071 108.639 13.7306 108.537C13.6733 108.459 13.6471 108.371 13.6519 108.272C13.6566 108.174 13.7009 108.09 13.7847 108.02L18.1053 104.429C18.1844 104.363 18.2751 104.335 18.3774 104.345C18.4796 104.354 18.5656 104.401 18.6352 104.485C18.7048 104.568 18.7349 104.661 18.7255 104.764C18.716 104.866 18.6718 104.95 18.5927 105.016L14.8025 108.166L14.6923 107.962L18.5674 107.527C18.6231 107.528 18.6801 107.539 18.7381 107.562C18.7924 107.58 18.8369 107.61 18.8717 107.652C18.9065 107.693 18.9297 107.745 18.9412 107.806C18.9527 107.867 18.9538 107.926 18.9445 107.981L17.7904 111.69L17.4871 111.694L21.4238 108.422C21.5029 108.356 21.5917 108.326 21.6901 108.33C21.7885 108.335 21.8705 108.377 21.9363 108.456C22.002 108.535 22.0283 108.624 22.015 108.721C21.9978 108.814 21.9497 108.894 21.8706 108.959L17.5499 112.55C17.4755 112.612 17.389 112.641 17.2907 112.636C17.1837 112.631 17.0955 112.586 17.0259 112.502Z" fill="#FEFEEF"/>
<path opacity="0.8" d="M16.8351 102.458C16.9194 102.399 17.0138 102.381 17.1182 102.404C17.2191 102.422 17.299 102.473 17.3577 102.558C17.4233 102.652 17.4453 102.747 17.4237 102.843C17.4022 102.939 17.3493 103.016 17.2649 103.075L12.667 106.276C12.5777 106.338 12.485 106.358 12.389 106.336C12.2881 106.318 12.2065 106.265 12.1444 106.175C12.0857 106.091 12.0654 105.998 12.0835 105.897C12.0966 105.8 12.1478 105.72 12.2371 105.658L16.8351 102.458Z" fill="#FEFEEF"/>
<path opacity="0.8" d="M8.48452 100.347C8.43212 100.258 8.42016 100.167 8.44862 100.073C8.47708 99.9786 8.53549 99.9054 8.62385 99.853L11.7189 98.0176C12.1191 97.7803 12.5331 97.6611 12.9611 97.6602C13.386 97.6541 13.7845 97.7515 14.1565 97.9524C14.5234 98.1564 14.8239 98.4558 15.0581 98.8508C15.2955 99.251 15.4172 99.6636 15.4233 100.089C15.4211 100.511 15.3154 100.908 15.1063 101.278C14.8971 101.648 14.5924 101.951 14.1923 102.188L11.0973 104.024C11.0089 104.076 10.9166 104.092 10.8203 104.072C10.721 104.047 10.642 103.985 10.5835 103.886C10.5342 103.803 10.5222 103.712 10.5476 103.612C10.5699 103.508 10.6252 103.429 10.7136 103.377L13.8085 101.541C14.0944 101.372 14.3105 101.156 14.457 100.893C14.6034 100.631 14.6768 100.352 14.6773 100.057C14.6695 99.7592 14.5886 99.4805 14.4345 99.2207C14.2773 98.9556 14.0701 98.7483 13.8128 98.5988C13.5503 98.4524 13.2673 98.3779 12.9637 98.3753C12.657 98.3675 12.3607 98.4483 12.0749 98.6179L8.97983 100.453C8.89147 100.506 8.8007 100.524 8.70752 100.509C8.61433 100.494 8.53999 100.44 8.48452 100.347Z" fill="#FEFEEF"/>
<path opacity="0.8" d="M7.12043 97.7536C7.09813 97.7041 7.08834 97.6457 7.09106 97.5783C7.0913 97.5054 7.10598 97.4426 7.13511 97.3897L9.45811 93.7133L9.57994 94.0058L5.28422 93.2817C5.14752 93.2573 5.0559 93.1861 5.00937 93.0681C4.97522 92.9776 4.97353 92.8858 5.00429 92.7925C5.03505 92.6993 5.09993 92.6304 5.19892 92.5858L10.3051 90.2851C10.3986 90.243 10.4932 90.2401 10.5889 90.2764C10.6847 90.3126 10.7548 90.3802 10.7994 90.4792C10.844 90.5782 10.8482 90.6756 10.8119 90.7713C10.7757 90.867 10.7108 90.936 10.6173 90.9781L6.13805 92.9962L6.08638 92.7714L9.92496 93.3839C9.97832 93.3996 10.0299 93.426 10.0797 93.4631C10.127 93.4947 10.1618 93.5352 10.1841 93.5847C10.2064 93.6342 10.2149 93.6899 10.2098 93.7518C10.2046 93.8137 10.1901 93.8698 10.1665 93.9201L8.07107 97.1765L7.77855 97.0999L12.431 95.0037C12.5245 94.9615 12.6179 94.9559 12.7111 94.9866C12.8044 95.0174 12.8721 95.0795 12.9142 95.173C12.9563 95.2665 12.958 95.3583 12.9193 95.4486C12.8781 95.5333 12.8107 95.5967 12.7172 95.6388L7.61102 97.9395C7.52303 97.9791 7.43241 97.9835 7.33917 97.9528C7.23794 97.919 7.16503 97.8526 7.12043 97.7536Z" fill="#FEFEEF"/>
<path opacity="0.8" d="M2.44622 85.4793C2.30079 84.9677 2.32294 84.5373 2.51267 84.1881C2.69493 83.8347 3.0273 83.5894 3.50977 83.4523C3.76555 83.3796 4.0175 83.3708 4.26563 83.4259C4.51376 83.481 4.734 83.6037 4.92633 83.7941C5.11702 83.9786 5.26444 84.232 5.36862 84.5542L5.12943 84.6411C5.07159 84.4376 5.04116 84.2201 5.03814 83.9885C5.03513 83.7569 5.07195 83.5328 5.1486 83.3162C5.22361 83.0938 5.35004 82.8977 5.52791 82.7277C5.70413 82.552 5.94628 82.4203 6.25437 82.3327C6.58571 82.2385 6.88043 82.2144 7.13854 82.2604C7.39083 82.3081 7.61317 82.4051 7.80557 82.5514C7.9905 82.6936 8.14425 82.8698 8.26683 83.08C8.38776 83.2844 8.48045 83.4999 8.5449 83.7266L9.19685 86.0198C9.22494 86.1187 9.21402 86.2129 9.1641 86.3024C9.11252 86.3862 9.03732 86.4422 8.9385 86.4702L3.54114 88.0047C3.44232 88.0328 3.35185 88.0239 3.26973 87.9782C3.18014 87.9282 3.1213 87.8539 3.0932 87.755L2.44622 85.4793ZM3.1648 85.3881L3.69776 87.2628L3.51106 87.2027L5.68222 86.5855L5.59613 86.7136L5.06069 84.8302C4.98798 84.5745 4.84463 84.3796 4.63063 84.2457C4.40917 84.1076 4.13568 84.0848 3.81015 84.1774C3.5195 84.26 3.31966 84.4079 3.21064 84.6211C3.0958 84.8359 3.08052 85.0916 3.1648 85.3881ZM5.74338 84.5796L6.28377 86.4805L6.20539 86.4368L8.48117 85.7898L8.42253 85.8818L7.87222 83.9461C7.77472 83.6032 7.6082 83.3489 7.37266 83.1834C7.13547 83.0121 6.83377 82.9785 6.46755 83.0826C6.18271 83.1636 5.98125 83.2837 5.86317 83.4429C5.73927 83.6038 5.6747 83.7855 5.66945 83.988C5.66255 84.1848 5.68719 84.382 5.74338 84.5796Z" fill="#FEFEEF"/>
<path opacity="0.8" d="M2.11772 79.5411L7.58264 80.6954C7.65806 80.7061 7.72194 80.7372 7.77428 80.7888C7.82661 80.8404 7.85876 80.8988 7.87073 80.964C7.8914 81.0765 7.87701 81.1648 7.82758 81.229C7.77814 81.2932 7.71197 81.3329 7.62906 81.3481C7.58869 81.3617 7.54318 81.3639 7.49254 81.3548L1.47319 80.0819C1.38484 80.0675 1.31746 80.034 1.27104 79.9813C1.21762 79.9238 1.1868 79.856 1.17858 79.7779C1.16444 79.7009 1.17266 79.629 1.20324 79.5621C1.23273 79.4894 1.28083 79.4346 1.34755 79.3979L6.47 76.0877C6.51412 76.0612 6.55987 76.0437 6.60725 76.0349C6.71385 76.0154 6.80626 76.0351 6.88446 76.0942C6.95673 76.1544 7.00103 76.2289 7.01735 76.3178C7.0304 76.3888 7.02164 76.4578 6.99106 76.5246C6.96048 76.5915 6.90942 76.6468 6.83786 76.6905L2.14473 79.7382L2.11772 79.5411ZM6.05301 80.5172L5.30461 80.3425L4.81999 77.704L5.48845 77.4435L6.05301 80.5172Z" fill="#FEFEEF"/>
<path opacity="0.8" d="M6.75319 74.6305C6.76311 74.7449 6.73561 74.8473 6.67068 74.9379C6.60522 75.0224 6.52132 75.0692 6.41897 75.078L0.828739 75.5632C0.726387 75.5721 0.639224 75.5463 0.567248 75.4858C0.48873 75.4198 0.445029 75.3356 0.436146 75.2333L0.219828 72.7407C0.190567 72.4036 0.24245 72.0927 0.375475 71.8082C0.50248 71.5242 0.694656 71.2922 0.952002 71.1121C1.20281 70.9266 1.50281 70.8187 1.85201 70.7884C2.10488 70.7664 2.34688 70.7939 2.57801 70.8709C2.80311 70.9485 3.00426 71.0645 3.18145 71.2189C3.35262 71.3739 3.48975 71.5561 3.59285 71.7656L3.4656 71.9768C3.496 71.7679 3.56736 71.5767 3.67969 71.4032C3.78599 71.2302 3.93104 71.0841 4.11482 70.965C4.29258 70.8465 4.50763 70.7732 4.75998 70.7453C4.9817 70.7139 5.158 70.6834 5.28889 70.6539C5.41978 70.6243 5.52279 70.5881 5.59792 70.5452C5.66704 70.5028 5.71979 70.4466 5.75619 70.3767C5.80306 70.2877 5.87061 70.2273 5.95883 70.1954C6.04653 70.1574 6.13513 70.1649 6.22465 70.2178C6.28197 70.2492 6.32554 70.297 6.35537 70.3611C6.37918 70.4258 6.39095 70.4915 6.39068 70.5583C6.39041 70.625 6.37731 70.6838 6.35138 70.7345C6.30556 70.8356 6.23539 70.9357 6.14087 71.0349C6.04034 71.1346 5.89334 71.2232 5.69988 71.3006C5.50643 71.3781 5.23811 71.4317 4.89493 71.4615C4.70226 71.4782 4.54533 71.5222 4.42412 71.5933C4.30291 71.6645 4.20761 71.7547 4.13822 71.8638C4.06884 71.973 4.02458 72.0921 4.00545 72.2211C3.98632 72.3502 3.9825 72.4809 3.99399 72.6134L4.16877 74.6273L3.99681 74.533L6.35391 74.3285C6.45627 74.3196 6.54618 74.3421 6.62365 74.396C6.70113 74.45 6.7443 74.5281 6.75319 74.6305ZM3.51854 74.6837L3.32652 72.4711C3.29932 72.2976 3.22501 72.1402 3.10357 71.9991C2.98161 71.852 2.82012 71.7386 2.6191 71.659C2.41153 71.5739 2.18433 71.542 1.93748 71.5635C1.61838 71.5912 1.36235 71.7165 1.16939 71.9395C0.975907 72.1565 0.89249 72.4185 0.919138 72.7255L1.10411 74.8569L0.926246 74.7995L3.67169 74.5612L3.51854 74.6837Z" fill="#FEFEEF"/>
<path opacity="0.8" d="M0.0256272 66.2078C0.0313818 65.676 0.174785 65.2696 0.455835 64.9886C0.730909 64.7015 1.11923 64.5607 1.62079 64.5661C1.88669 64.569 2.13077 64.632 2.35305 64.7553C2.57534 64.8786 2.75168 65.0588 2.88207 65.2959C3.01253 65.527 3.08197 65.8118 3.0904 66.1503L2.8364 66.1657C2.83869 65.9542 2.87125 65.737 2.9341 65.514C2.99695 65.2911 3.09586 65.0867 3.23084 64.9008C3.36588 64.7089 3.54279 64.5567 3.76158 64.4442C3.98043 64.3257 4.25 64.2682 4.57028 64.2716C4.91473 64.2754 5.20417 64.3359 5.43861 64.4533C5.667 64.5706 5.85266 64.7267 5.9956 64.9217C6.13256 65.1105 6.22998 65.3231 6.28786 65.5594C6.34581 65.7897 6.3735 66.0227 6.37095 66.2584L6.34516 68.6423C6.34404 68.745 6.30684 68.8323 6.23354 68.904C6.1603 68.9697 6.07232 69.002 5.96959 69.0009L0.358681 68.9401C0.25595 68.939 0.171708 68.9049 0.105955 68.8377C0.0342236 68.7644 -0.00108624 68.6764 2.5449e-05 68.5736L0.0256272 66.2078ZM0.740544 66.3243L0.719454 68.2732L0.557471 68.1627L2.81452 68.1871L2.69561 68.2855L2.71679 66.3276C2.71967 66.0617 2.63752 65.8342 2.47034 65.645C2.29719 65.4497 2.04141 65.3503 1.703 65.3466C1.40085 65.3433 1.16725 65.4284 1.00219 65.6019C0.831096 65.7753 0.743879 66.0161 0.740544 66.3243ZM3.44254 66.2811L3.42116 68.2571L3.35839 68.193L5.72422 68.2186L5.64185 68.2902L5.66363 66.2779C5.66749 65.9214 5.57998 65.6303 5.40111 65.4048C5.22231 65.1732 4.94255 65.0553 4.56184 65.0512C4.26574 65.048 4.03847 65.106 3.88005 65.2251C3.71558 65.3442 3.60208 65.5001 3.53956 65.6928C3.4771 65.8795 3.44476 66.0756 3.44254 66.2811Z" fill="#FEFEEF"/>
<path opacity="0.8" d="M0.293132 62.168L0.615846 58.9731C0.62612 58.8714 0.667789 58.788 0.740853 58.7228C0.813917 58.6577 0.901304 58.6302 1.00301 58.6405C1.10472 58.6508 1.18486 58.6951 1.24342 58.7736C1.29599 58.8514 1.31715 58.9412 1.30687 59.0429L1.01498 61.9326L0.870573 61.8365L3.14108 62.0658L3.0333 62.1456L3.28531 59.6507C3.29558 59.549 3.33725 59.4656 3.41032 59.4004C3.48338 59.3353 3.57077 59.3078 3.67247 59.3181C3.77418 59.3284 3.85432 59.3727 3.91288 59.4512C3.96546 59.529 3.98661 59.6188 3.97633 59.7205L3.72705 62.1885L3.65262 62.1175L5.97698 62.3523L5.90872 62.3998L6.19789 59.5369C6.20817 59.4352 6.25283 59.3521 6.33188 59.2876C6.41092 59.223 6.49532 59.1953 6.58506 59.2043C6.68677 59.2146 6.7669 59.259 6.82546 59.3374C6.88402 59.4159 6.90817 59.5059 6.89789 59.6077L6.57518 62.8025C6.56491 62.9042 6.52025 62.9874 6.4412 63.0519C6.36276 63.1105 6.27268 63.1346 6.17097 63.1243L0.615846 62.5632C0.514137 62.5529 0.4337 62.5116 0.374536 62.4391C0.309993 62.3601 0.282859 62.2697 0.293132 62.168Z" fill="#FEFEEF"/>
<path opacity="0.8" d="M7.12648 57.6957C7.10455 57.8084 7.04991 57.8994 6.96257 57.9686C6.87638 58.0318 6.78286 58.0536 6.68202 58.034L1.17406 56.9624C1.07322 56.9428 0.996512 56.894 0.943959 56.816C0.886624 56.731 0.867766 56.6381 0.887387 56.5372L1.36521 54.0813C1.42984 53.7491 1.56524 53.4646 1.77141 53.2276C1.97165 52.9895 2.22025 52.8193 2.5172 52.717C2.80938 52.6077 3.1275 52.5864 3.47156 52.6534C3.72071 52.7019 3.94579 52.7949 4.14681 52.9325C4.3419 53.069 4.50337 53.2358 4.63122 53.4331C4.75314 53.6292 4.83485 53.8421 4.87635 54.0718L4.69589 54.2399C4.78259 54.0474 4.90381 53.8832 5.05954 53.7473C5.20935 53.6102 5.38897 53.5097 5.59842 53.4458C5.80194 53.3808 6.02885 53.3695 6.27915 53.412C6.50094 53.4429 6.67883 53.4621 6.81279 53.4697C6.94676 53.4773 7.05577 53.4708 7.13981 53.4502C7.21792 53.4285 7.28409 53.389 7.33831 53.3318C7.40785 53.2592 7.48943 53.2196 7.58302 53.2132C7.67778 53.2009 7.76091 53.2324 7.83242 53.3079C7.87888 53.3539 7.90763 53.4118 7.91866 53.4817C7.92376 53.5504 7.917 53.6168 7.89837 53.6809C7.87974 53.745 7.85098 53.7979 7.81209 53.8396C7.74023 53.9241 7.64522 54.001 7.52707 54.0704C7.40298 54.1386 7.23728 54.1833 7.02998 54.2046C6.82268 54.2258 6.54996 54.2035 6.21183 54.1377C6.02201 54.1008 5.85903 54.0999 5.72292 54.135C5.5868 54.17 5.47038 54.2305 5.37364 54.3163C5.2769 54.4022 5.20158 54.5045 5.14768 54.6233C5.09379 54.7421 5.05414 54.8668 5.02875 54.9973L4.64268 56.9816L4.50329 56.8436L6.82571 57.2955C6.92656 57.3151 7.0068 57.3615 7.06644 57.4347C7.12609 57.5078 7.1461 57.5948 7.12648 57.6957ZM4.00202 56.8569L4.42617 54.6769C4.44778 54.5025 4.41962 54.3308 4.34169 54.1617C4.26493 53.9867 4.14086 53.8333 3.9695 53.7015C3.79336 53.5625 3.58368 53.4694 3.34047 53.4221C3.02607 53.3609 2.74543 53.411 2.49857 53.5723C2.25286 53.7276 2.10057 53.9566 2.04171 54.2591L1.63314 56.3591L1.47792 56.255L4.18296 56.7813L4.00202 56.8569Z" fill="#FEFEEF"/>
<path opacity="0.8" d="M9.65804 48.0415C9.51503 48.4652 9.32643 48.8161 9.09223 49.0943C8.85803 49.3724 8.55327 49.614 8.17792 49.819C8.12431 49.8455 8.06977 49.8654 8.0143 49.8786C7.95504 49.8841 7.89678 49.8772 7.83952 49.8578C7.7479 49.8269 7.67836 49.7684 7.63091 49.6822C7.57966 49.5883 7.57047 49.4928 7.60332 49.3954C7.63038 49.3153 7.68603 49.2543 7.77027 49.2126C8.06323 49.0627 8.31045 48.8783 8.51194 48.6592C8.71536 48.4345 8.87214 48.1589 8.9823 47.8326C9.06733 47.5806 9.10359 47.3409 9.09107 47.1134C9.08047 46.8802 9.0239 46.6794 8.92133 46.5108C8.81876 46.3422 8.673 46.2261 8.48404 46.1623C8.25307 46.0907 8.04092 46.0957 7.8476 46.1771C7.6562 46.2528 7.47319 46.3888 7.29854 46.585C7.1201 46.7735 6.94628 47.0051 6.77707 47.2796C6.62519 47.5218 6.46575 47.739 6.29877 47.9314C6.13371 48.1181 5.95828 48.2693 5.77247 48.3852C5.58094 48.4992 5.37523 48.5701 5.15535 48.5979C4.93168 48.6181 4.69101 48.5847 4.43334 48.4977C4.10695 48.3876 3.84964 48.2051 3.6614 47.9502C3.47316 47.6953 3.3644 47.3939 3.33513 47.046C3.30014 46.6961 3.34931 46.3236 3.48266 45.9285C3.60055 45.5792 3.76893 45.2693 3.98781 44.9988C4.20862 44.7225 4.45112 44.5237 4.7153 44.4024C4.86275 44.3246 4.98801 44.3031 5.09107 44.3379C5.17696 44.3668 5.24457 44.4311 5.29388 44.5307C5.3394 44.6226 5.3467 44.7143 5.31578 44.806C5.29452 44.869 5.25229 44.9185 5.18909 44.9546C5.04744 45.0152 4.90855 45.1054 4.77241 45.2253C4.63628 45.3452 4.51249 45.4852 4.40104 45.6453C4.2896 45.8054 4.20392 45.9742 4.14401 46.1517C4.05511 46.4151 4.01693 46.6606 4.02945 46.888C4.03625 47.1136 4.0919 47.3078 4.19639 47.4706C4.2971 47.6258 4.44479 47.7362 4.63948 47.8019C4.85707 47.8754 5.05869 47.8732 5.24436 47.7956C5.4243 47.716 5.59583 47.5857 5.75895 47.4048C5.91635 47.2219 6.07288 47.0132 6.22856 46.7788C6.39197 46.5214 6.5591 46.2908 6.72995 46.0869C6.89701 45.8754 7.07538 45.706 7.26505 45.5787C7.45473 45.4513 7.66809 45.3767 7.90515 45.3546C8.13841 45.3249 8.40392 45.3603 8.70167 45.4608C9.0166 45.5671 9.26722 45.7505 9.45353 46.0111C9.63984 46.2718 9.75239 46.5808 9.79118 46.9383C9.82618 47.2882 9.7818 47.6559 9.65804 48.0415Z" fill="#FEFEEF"/>
<path opacity="0.8" d="M5.01732 42.0328L6.30259 39.0726C6.3435 38.9784 6.40889 38.9113 6.49875 38.8712C6.58861 38.8312 6.68066 38.8316 6.7749 38.8725C6.86913 38.9134 6.9323 38.9804 6.96439 39.0734C6.99094 39.164 6.98376 39.2564 6.94284 39.3506L5.78032 42.0281L5.67146 41.8919L7.77517 42.8053L7.6476 42.8487L8.65126 40.5371C8.69218 40.4429 8.75757 40.3757 8.84743 40.3357C8.93729 40.2957 9.02934 40.2961 9.12357 40.337C9.21781 40.3779 9.28098 40.4449 9.31307 40.5379C9.33962 40.6285 9.33244 40.7209 9.29152 40.8151L8.29869 43.1018L8.24913 43.0111L10.4028 43.9461L10.3229 43.9707L11.4746 41.3182C11.5155 41.224 11.5837 41.1581 11.6791 41.1204C11.7745 41.0828 11.8638 41.082 11.9469 41.1181C12.0411 41.159 12.1043 41.226 12.1364 41.319C12.1685 41.412 12.1641 41.5056 12.1232 41.5998L10.8379 44.56C10.797 44.6542 10.7288 44.7202 10.6334 44.7578C10.5404 44.7899 10.4468 44.7855 10.3526 44.7446L5.2055 42.5098C5.11127 42.4689 5.0469 42.4047 5.0124 42.3172C4.97476 42.2218 4.9764 42.127 5.01732 42.0328Z" fill="#FEFEEF"/>
<path opacity="0.8" d="M13.005 39.8879C12.9511 39.989 12.8723 40.0597 12.7687 40.1001C12.668 40.1351 12.5724 40.1285 12.482 40.0802L7.54408 37.4429C7.45368 37.3946 7.39484 37.3256 7.36759 37.2359C7.33785 37.138 7.34713 37.0438 7.39542 36.9534L8.57133 34.7517C8.73039 34.4539 8.94296 34.2223 9.20905 34.0568C9.46982 33.8885 9.75679 33.7991 10.07 33.7887C10.3807 33.77 10.6902 33.8431 10.9987 34.0078C11.222 34.1271 11.4094 34.2819 11.5607 34.4721C11.7067 34.6594 11.8118 34.8659 11.8758 35.0915C11.9346 35.3142 11.95 35.5412 11.9222 35.7724L11.7009 35.8798C11.84 35.7217 12.0037 35.6007 12.1921 35.5167C12.3751 35.4299 12.5759 35.3868 12.7944 35.3873C13.0075 35.3849 13.2272 35.4407 13.4534 35.5547C13.6559 35.6492 13.8198 35.7196 13.9454 35.7662C14.0709 35.8127 14.1767 35.8385 14.2629 35.8435C14.3438 35.8457 14.4184 35.8275 14.4869 35.7888C14.5745 35.74 14.6639 35.7262 14.755 35.7475C14.849 35.7635 14.919 35.818 14.9651 35.911C14.9959 35.9684 15.0063 36.0321 14.9964 36.102C14.9811 36.169 14.9551 36.2303 14.9186 36.286C14.882 36.3416 14.8391 36.3836 14.7898 36.412C14.6965 36.4715 14.5833 36.517 14.4503 36.5485C14.3119 36.5771 14.1408 36.5712 13.9369 36.5306C13.733 36.4901 13.4795 36.3889 13.1764 36.227C13.0062 36.1361 12.8511 36.0874 12.711 36.0809C12.5709 36.0745 12.4421 36.098 12.3247 36.1514C12.2073 36.2049 12.1055 36.2804 12.0192 36.3779C11.933 36.4754 11.8586 36.5826 11.7961 36.6996L10.846 38.4785L10.7536 38.3061L12.8356 39.4181C12.926 39.4664 12.9889 39.5342 13.0244 39.6214C13.0598 39.7087 13.0533 39.7975 13.005 39.8879ZM10.2717 38.1718L11.3155 36.2173C11.3872 36.0574 11.4108 35.8854 11.386 35.7014C11.3642 35.512 11.2909 35.3293 11.1661 35.1533C11.0389 34.9692 10.8663 34.8189 10.6482 34.7024C10.3664 34.5519 10.0841 34.5173 9.80136 34.5987C9.52149 34.6748 9.30913 34.8484 9.16427 35.1197L8.15878 37.0023L8.0413 36.8575L10.4664 38.1527L10.2717 38.1718Z" fill="#FEFEEF"/>
<path opacity="0.8" d="M12.9578 27.6762C13.0154 27.5909 13.092 27.5368 13.1878 27.5138C13.2786 27.4875 13.3666 27.5031 13.4519 27.5606C13.492 27.5877 13.5304 27.6282 13.567 27.6821L16.8994 32.7881C16.9443 32.8622 16.9657 32.9387 16.9636 33.0175C16.9598 33.088 16.9376 33.1533 16.897 33.2135C16.8548 33.2653 16.8017 33.3061 16.7377 33.336C16.6688 33.3625 16.5958 33.3679 16.5186 33.3524L10.549 32.1714C10.5221 32.1679 10.497 32.1619 10.4736 32.1534C10.4451 32.1415 10.4183 32.1271 10.3932 32.1101C10.2979 32.0458 10.2472 31.9642 10.241 31.8651C10.2332 31.7577 10.2513 31.6713 10.2953 31.6061C10.3867 31.4707 10.5229 31.4203 10.704 31.4548L16.2059 32.5502L16.0891 32.7232L12.9581 28.0815C12.8733 27.9367 12.8732 27.8016 12.9578 27.6762Z" fill="#FEFEEF"/>
<path opacity="0.8" d="M19.2936 29.3338C19.3746 29.397 19.4196 29.4819 19.4284 29.5885C19.441 29.6902 19.4157 29.7816 19.3525 29.8626C19.2818 29.9532 19.1975 30.0023 19.0994 30.0101C19.0014 30.0179 18.9118 29.9903 18.8308 29.9271L14.4138 26.4811C14.3281 26.4142 14.2813 26.3317 14.2735 26.2336C14.2609 26.1318 14.2881 26.0381 14.355 25.9523C14.4182 25.8713 14.5007 25.8245 14.6025 25.8119C14.6995 25.7957 14.7909 25.821 14.8766 25.8879L19.2936 29.3338Z" fill="#FEFEEF"/>
<path opacity="0.8" d="M19.1231 20.8945C19.2327 20.8539 19.3323 20.8655 19.422 20.9293C19.5158 20.9886 19.5723 21.0758 19.5917 21.191C19.6142 21.2844 19.5994 21.3649 19.5472 21.4324C19.4951 21.4999 19.4248 21.5512 19.3364 21.5863C19.1121 21.6549 18.8981 21.753 18.6944 21.8807C18.4861 22.0044 18.297 22.1614 18.1269 22.3517C17.888 22.6192 17.717 22.9064 17.6137 23.2135C17.506 23.5166 17.4631 23.8247 17.485 24.1376C17.507 24.4506 17.593 24.7557 17.7432 25.0528C17.8934 25.35 18.109 25.6241 18.39 25.8751C18.6891 26.1424 18.9991 26.3337 19.3198 26.449C19.6405 26.5644 19.9576 26.6154 20.2711 26.602C20.584 26.5801 20.8808 26.4988 21.1612 26.3582C21.4458 26.213 21.7034 26.0113 21.9342 25.7529C22.1002 25.5671 22.2352 25.3658 22.3392 25.149C22.4432 24.9322 22.5165 24.7043 22.559 24.4652C22.5839 24.3734 22.6293 24.2998 22.695 24.2444C22.7608 24.1891 22.8411 24.163 22.936 24.1663C23.0571 24.1767 23.1524 24.2251 23.2218 24.3116C23.2867 24.394 23.3049 24.4877 23.2764 24.5926C23.2431 24.7667 23.1912 24.9525 23.1206 25.1502C23.0454 25.3438 22.9528 25.5341 22.8428 25.7211C22.7369 25.9036 22.613 26.0741 22.4713 26.2327C22.1798 26.5591 21.8478 26.8167 21.4753 27.0055C21.1029 27.1944 20.711 27.3047 20.2995 27.3365C19.8881 27.3683 19.4741 27.3163 19.0575 27.1805C18.6405 27.0361 18.2439 26.7959 17.8677 26.4598C17.5141 26.144 17.2447 25.7933 17.0594 25.4077C16.8741 25.0222 16.7699 24.6234 16.7467 24.2115C16.7275 23.7951 16.7863 23.3871 16.9231 22.9877C17.0639 22.5838 17.2861 22.2119 17.5898 21.8719C17.8004 21.6362 18.0366 21.4357 18.2984 21.2703C18.5643 21.1003 18.8392 20.9751 19.1231 20.8945Z" fill="#FEFEEF"/>
<path opacity="0.8" d="M20.3953 19.184L22.7524 16.9798C22.8275 16.9096 22.9142 16.8741 23.0125 16.8731C23.1109 16.8721 23.1952 16.9091 23.2654 16.9842C23.3355 17.0592 23.3668 17.1458 23.3593 17.2439C23.3476 17.3375 23.3042 17.4195 23.2292 17.4896L21.0972 19.4833L21.0515 19.315L22.618 20.9902L22.4837 20.9793L24.3243 19.258C24.3994 19.1878 24.4861 19.1523 24.5844 19.1513C24.6828 19.1503 24.7671 19.1873 24.8373 19.2624C24.9074 19.3374 24.9387 19.424 24.9312 19.5221C24.9195 19.6157 24.8761 19.6976 24.8011 19.7678L22.9803 21.4705L22.9709 21.3676L24.5745 23.0824L24.4914 23.0732L26.6036 21.0981C26.6786 21.028 26.7674 20.9946 26.8699 20.998C26.9724 21.0015 27.0546 21.0363 27.1165 21.1025C27.1867 21.1775 27.218 21.2641 27.2104 21.3622C27.2029 21.4603 27.1616 21.5444 27.0865 21.6146L24.7294 23.8188C24.6544 23.8889 24.5656 23.9223 24.4631 23.9189C24.365 23.9113 24.2809 23.87 24.2107 23.795L20.3781 19.6965C20.308 19.6215 20.2744 19.537 20.2776 19.443C20.281 19.3405 20.3203 19.2542 20.3953 19.184Z" fill="#FEFEEF"/>
<path opacity="0.8" d="M29.7322 19.5208C29.3789 19.7981 29.0274 19.9891 28.6776 20.0939C28.3278 20.1987 27.9389 20.2339 27.5107 20.1996C27.4511 20.1924 27.3944 20.1791 27.3405 20.1596C27.2877 20.1317 27.2425 20.0938 27.2051 20.0461C27.1451 19.9697 27.1189 19.8822 27.1265 19.7837C27.1351 19.6767 27.1799 19.5913 27.2611 19.5276C27.3279 19.4752 27.4082 19.4546 27.502 19.4659C27.8305 19.5012 28.1397 19.4823 28.4295 19.4091C28.724 19.3323 29.0074 19.1871 29.2795 18.9735C29.4896 18.8086 29.6519 18.6272 29.7666 18.4292C29.886 18.2275 29.949 18.0276 29.9556 17.8296C29.9622 17.6315 29.9036 17.4537 29.78 17.2962C29.6253 17.109 29.4444 16.9964 29.2372 16.9584C29.0347 16.9167 28.8062 16.9302 28.5515 16.9989C28.2979 17.0591 28.0244 17.158 27.7312 17.2956C27.4704 17.4154 27.2169 17.5102 26.9707 17.5799C26.7294 17.6459 26.4988 17.6765 26.2789 17.6716C26.0553 17.6619 25.8435 17.6083 25.6434 17.5107C25.4444 17.4045 25.2606 17.2441 25.092 17.0292C24.8785 16.7571 24.7627 16.4622 24.7448 16.1445C24.7269 15.8268 24.8014 15.5137 24.9683 15.2053C25.1314 14.8922 25.3777 14.6063 25.7071 14.3478C25.9983 14.1192 26.3103 13.9515 26.643 13.8447C26.9806 13.7341 27.2937 13.7005 27.5824 13.744C27.749 13.7597 27.8661 13.8106 27.9335 13.8965C27.9897 13.9682 28.0112 14.0593 27.9978 14.1701C27.9855 14.2724 27.9411 14.3535 27.8647 14.4134C27.8122 14.4546 27.7495 14.473 27.6765 14.4685C27.5242 14.4415 27.3579 14.4409 27.1775 14.4667C26.9972 14.4925 26.8162 14.542 26.6344 14.6152C26.4527 14.6884 26.2878 14.7831 26.1398 14.8992C25.9202 15.0716 25.7531 15.2567 25.6385 15.4547C25.5201 15.6479 25.46 15.8417 25.4582 16.036C25.4574 16.2217 25.5207 16.3958 25.6481 16.5581C25.7905 16.7395 25.961 16.8487 26.1597 16.8856C26.3547 16.9178 26.5704 16.9027 26.807 16.8405C27.0399 16.7735 27.2862 16.6843 27.546 16.573C27.8249 16.4467 28.0922 16.3449 28.3479 16.2677C28.6046 16.1819 28.8477 16.1377 29.0771 16.1351C29.3065 16.1325 29.5268 16.1872 29.7381 16.2991C29.9504 16.4025 30.154 16.5784 30.3488 16.8266C30.5549 17.0892 30.6645 17.3812 30.6776 17.7027C30.6907 18.0241 30.6152 18.3457 30.4511 18.6674C30.288 18.9805 30.0483 19.265 29.7322 19.5208Z" fill="#FEFEEF"/>
<path opacity="0.8" d="M33.1726 13.9829C33.0853 14.037 32.9933 14.055 32.8966 14.0367C32.8019 14.0102 32.7259 13.9507 32.6685 13.8582C32.6144 13.7709 32.598 13.6815 32.6194 13.59C32.646 13.4953 32.7029 13.4208 32.7902 13.3667L34.3462 12.4012C34.4335 12.347 34.5245 12.3332 34.6192 12.3598C34.719 12.3832 34.7961 12.4385 34.8502 12.5258C34.9044 12.6131 34.9182 12.7041 34.8916 12.7988C34.8702 12.8904 34.8158 12.9632 34.7285 13.0174L33.1726 13.9829Z" fill="#FEFEEF"/>
<path opacity="0.8" d="M39.136 6.29351C39.4365 6.15131 39.7418 6.09707 40.0519 6.13078C40.3621 6.1645 40.6462 6.27741 40.9043 6.4695C41.1678 6.65901 41.3771 6.91763 41.5323 7.24537C41.6848 7.56764 41.7521 7.89349 41.7342 8.22291C41.7218 8.54974 41.6316 8.8465 41.4636 9.11321C41.2957 9.37992 41.0615 9.58438 40.761 9.72658L39.0978 10.5139L39.1086 10.3884L40.0859 12.4532C40.1299 12.546 40.1373 12.6394 40.1083 12.7334C40.0792 12.8274 40.0182 12.8964 39.9254 12.9403C39.8271 12.9869 39.7323 12.9916 39.6412 12.9545C39.5556 12.9148 39.4908 12.8485 39.4468 12.7557L37.0462 7.6839C37.0022 7.59104 36.9961 7.50035 37.0277 7.41182C37.0622 7.31525 37.1259 7.24499 37.2188 7.20103L39.136 6.29351ZM40.4624 9.09568C40.6427 9.01036 40.7778 8.88622 40.8678 8.72326C40.9579 8.5603 41.0038 8.37476 41.0055 8.16665C41.0073 7.95853 40.9617 7.75615 40.8686 7.55951C40.7703 7.35194 40.6428 7.18834 40.4858 7.06872C40.3289 6.9491 40.1602 6.87517 39.9797 6.84695C39.7966 6.81327 39.6149 6.83909 39.4347 6.92441L37.7714 7.7117L37.7861 7.59443L38.8953 9.93776L38.7991 9.88298L40.4624 9.09568Z" fill="#FEFEEF"/>
<path opacity="0.8" d="M44.876 10.7061C44.7681 10.7454 44.662 10.7454 44.5577 10.7061C44.459 10.6649 44.3922 10.5959 44.3571 10.4994L42.4388 5.22617C42.4037 5.12963 42.406 5.03876 42.4458 4.95356C42.4891 4.86062 42.5591 4.79658 42.6556 4.76146L45.0068 3.90616C45.3249 3.79047 45.6385 3.75997 45.9478 3.81466C46.255 3.86367 46.5289 3.9891 46.7696 4.19095C47.0138 4.38506 47.1958 4.64681 47.3157 4.97621C47.4024 5.21473 47.4386 5.45559 47.4242 5.69878C47.4077 5.93629 47.3478 6.16063 47.2446 6.37182C47.1393 6.57733 46.9989 6.75702 46.8233 6.91091L46.5863 6.84278C46.7959 6.81797 46.9991 6.83731 47.1958 6.90079C47.3905 6.9586 47.5692 7.06081 47.7318 7.20742C47.8924 7.34836 48.0189 7.53705 48.1114 7.77352C48.1992 7.97952 48.2743 8.14189 48.3368 8.26063C48.3993 8.37938 48.461 8.46947 48.5219 8.5309C48.5808 8.58666 48.6487 8.62305 48.7256 8.64008C48.8237 8.66227 48.8997 8.71183 48.9534 8.78875C49.0127 8.86361 49.0285 8.95113 49.0006 9.05129C48.9852 9.1148 48.9503 9.16928 48.8961 9.21472C48.8398 9.25448 48.7794 9.28289 48.7149 9.29994C48.6503 9.31698 48.5902 9.31957 48.5344 9.3077C48.425 9.28964 48.3101 9.24784 48.1898 9.18228C48.0674 9.11104 47.9437 8.99204 47.8188 8.82529C47.6938 8.65853 47.5724 8.4133 47.4547 8.08958C47.3886 7.90785 47.3054 7.76768 47.2052 7.66907C47.1051 7.57047 46.9933 7.50181 46.8699 7.4631C46.7465 7.42439 46.62 7.41253 46.4904 7.42752C46.3608 7.44251 46.2335 7.47273 46.1086 7.51818L44.2089 8.20924L44.2553 8.01871L45.0641 10.2422C45.0992 10.3387 45.1008 10.4314 45.0688 10.5202C45.0368 10.609 44.9725 10.671 44.876 10.7061ZM43.9857 7.59588L46.0728 6.83665C46.2334 6.76538 46.3661 6.6528 46.4709 6.49893C46.5814 6.34299 46.649 6.15762 46.6737 5.94283C46.7021 5.72029 46.6739 5.4926 46.5892 5.25975C46.4797 4.95875 46.2923 4.74399 46.0269 4.61546C45.7672 4.48486 45.4925 4.47224 45.2028 4.57761L43.1924 5.30895L43.2017 5.1223L44.1437 7.71204L43.9857 7.59588Z" fill="#FEFEEF"/>
<path opacity="0.8" d="M48.894 2.56942L52.0243 1.73037C52.124 1.70366 52.2176 1.71311 52.3053 1.75874C52.3929 1.80437 52.4501 1.87701 52.4768 1.97666C52.5035 2.07632 52.4903 2.16781 52.4373 2.25115C52.3826 2.32863 52.3055 2.38072 52.2058 2.40743L49.3745 3.16636L49.4135 2.99566L50.0098 5.2203L49.896 5.14715L52.3404 4.49193C52.4401 4.46522 52.5337 4.47468 52.6214 4.5203C52.709 4.56593 52.7662 4.63857 52.7929 4.73823C52.8196 4.83788 52.8064 4.92938 52.7534 5.01271C52.6987 5.09019 52.6216 5.14228 52.5219 5.169L50.1038 5.81714L50.1442 5.72151L50.7546 7.99891L50.6854 7.9515L53.4903 7.19965C53.59 7.17294 53.6844 7.18532 53.7736 7.23681C53.8628 7.2883 53.9192 7.35801 53.9428 7.44594C53.9695 7.5456 53.9563 7.63709 53.9033 7.72043C53.8502 7.80377 53.7738 7.85879 53.6742 7.88551L50.5439 8.72456C50.4442 8.75127 50.3498 8.73888 50.2606 8.6874C50.1772 8.63433 50.1222 8.55798 50.0955 8.45832L48.6366 3.01542C48.6099 2.91577 48.6201 2.82506 48.6673 2.74329C48.7188 2.65409 48.7944 2.59614 48.894 2.56942Z" fill="#FEFEEF"/>
<path opacity="0.8" d="M54.5034 1.24454C54.5571 1.23604 54.6162 1.24199 54.6806 1.2624C54.751 1.28185 54.8079 1.31263 54.8512 1.35471L57.792 4.56975L57.4772 4.61037L59.3102 0.64929C59.3698 0.5236 59.4628 0.453825 59.5891 0.439963C59.6855 0.430822 59.7748 0.453416 59.8568 0.507744C59.9388 0.562072 59.9883 0.642957 60.0053 0.750401L60.8821 6.29271C60.8982 6.39418 60.8761 6.4864 60.8158 6.56936C60.7555 6.65232 60.6716 6.7023 60.5642 6.7193C60.4567 6.7363 60.3615 6.71465 60.2786 6.65435C60.1956 6.59406 60.1461 6.51317 60.13 6.41169L59.3609 1.54986L59.5918 1.55922L57.9873 5.10788C57.958 5.15533 57.9189 5.19822 57.8699 5.23657C57.8269 5.27397 57.7785 5.29692 57.7248 5.30542C57.6711 5.31392 57.615 5.30749 57.5566 5.28615C57.4981 5.2648 57.4477 5.23607 57.4053 5.19995L54.8105 2.31564L54.9617 2.0531L55.7607 7.10295C55.7767 7.20443 55.7576 7.29618 55.7032 7.37819C55.6489 7.46021 55.571 7.50924 55.4695 7.5253C55.3681 7.54135 55.2788 7.51876 55.2018 7.45752C55.1308 7.39533 55.0873 7.3135 55.0712 7.21203L54.1944 1.66972C54.1793 1.57421 54.1989 1.48545 54.2532 1.40344C54.3126 1.31451 54.396 1.26154 54.5034 1.24454Z" fill="#FEFEEF"/>
<path opacity="0.8" d="M63.1998 6.15176C63.2078 6.25419 63.1755 6.3446 63.1028 6.42301C63.0361 6.50095 62.9516 6.54392 62.8491 6.55191C62.7347 6.56084 62.6415 6.53173 62.5696 6.4646C62.4976 6.39747 62.4577 6.31269 62.4497 6.21027L62.0141 0.625062C62.0056 0.516611 62.0349 0.426428 62.1021 0.354514C62.1687 0.276574 62.2563 0.233374 62.3647 0.224915C62.4672 0.216926 62.5573 0.246262 62.6353 0.312923C62.7128 0.373559 62.7557 0.458102 62.7642 0.566553L63.1998 6.15176Z" fill="#FEFEEF"/>
<path opacity="0.8" d="M69.2387 9.57131e-06C69.3415 -0.000671799 69.4263 0.0350262 69.4933 0.107104C69.5602 0.179181 69.594 0.266587 69.5947 0.369322L69.6186 3.96805C69.6217 4.43338 69.5157 4.85108 69.3006 5.22116C69.0915 5.5912 68.8064 5.8862 68.4452 6.10616C68.084 6.32007 67.6738 6.42855 67.2145 6.4316C66.7492 6.43469 66.3315 6.3317 65.9615 6.12263C65.5974 5.90748 65.3084 5.61629 65.0945 5.24905C64.8805 4.88182 64.772 4.46554 64.7689 4.00022L64.7451 0.401486C64.7444 0.298752 64.777 0.210905 64.843 0.137946C64.9151 0.0649465 65.0085 0.0280661 65.1233 0.0273045C65.22 0.0266632 65.3049 0.0623613 65.3779 0.134399C65.4569 0.206396 65.4968 0.293762 65.4974 0.396496L65.5213 3.99523C65.5235 4.3276 65.601 4.62322 65.7538 4.88207C65.9066 5.14093 66.1104 5.34506 66.3652 5.49445C66.6261 5.63777 66.9076 5.70842 67.2097 5.70642C67.5179 5.70437 67.8015 5.62997 68.0604 5.48321C68.3192 5.33041 68.5263 5.12355 68.6817 4.86266C68.8432 4.60172 68.9228 4.30506 68.9206 3.97268L68.8967 0.373951C68.8961 0.271216 68.9257 0.18339 68.9856 0.110471C69.0456 0.0375513 69.13 0.000731021 69.2387 9.57131e-06Z" fill="#FEFEEF"/>
<path opacity="0.8" d="M72.1932 0.180605C72.247 0.186588 72.3022 0.207861 72.3587 0.244423C72.4212 0.28165 72.4677 0.326189 72.4983 0.378041L74.4767 4.24101L74.1636 4.19713L76.9676 0.874622C77.058 0.769589 77.1657 0.727044 77.2906 0.746987C77.3857 0.763606 77.4655 0.80881 77.5299 0.882599C77.5944 0.956388 77.6207 1.04713 77.6087 1.15482L76.9915 6.70995C76.9802 6.81166 76.9347 6.89442 76.8549 6.95824C76.7751 7.02206 76.6814 7.04798 76.5737 7.03602C76.466 7.02405 76.3802 6.97818 76.3164 6.89841C76.2526 6.81864 76.2263 6.7279 76.2376 6.62619L76.7791 1.75311L76.9985 1.82291L74.5225 4.80938C74.482 4.84727 74.4331 4.87818 74.376 4.90212C74.3248 4.92671 74.2723 4.93602 74.2184 4.93004C74.1646 4.92405 74.1124 4.90311 74.0619 4.86722C74.0113 4.83132 73.9705 4.79043 73.9392 4.74457L72.2062 1.29044L72.4206 1.07804L71.8582 6.13958C71.8469 6.24129 71.8043 6.32439 71.7305 6.38887C71.6567 6.45335 71.569 6.47994 71.4673 6.46864C71.3656 6.45734 71.2858 6.41213 71.228 6.33303C71.1761 6.25458 71.1558 6.16451 71.1671 6.0628L71.7844 0.507671C71.795 0.411944 71.8372 0.33184 71.911 0.267357C71.9914 0.197557 72.0855 0.168639 72.1932 0.180605Z" fill="#FEFEEF"/>
<path opacity="0.8" d="M85.1421 2.30659C85.658 2.43954 86.0189 2.67635 86.2249 3.01701C86.4383 3.35333 86.4823 3.76476 86.3569 4.2513C86.2905 4.50923 86.1706 4.73154 85.9975 4.91822C85.8244 5.1049 85.6069 5.23326 85.345 5.3033C85.089 5.37485 84.7954 5.37419 84.4641 5.3013L84.5099 5.05057C84.7151 5.10345 84.9186 5.18715 85.1204 5.30167C85.3222 5.41619 85.4973 5.56135 85.6458 5.73715C85.8001 5.91446 85.9058 6.12299 85.9628 6.36273C86.0256 6.60398 86.017 6.87994 85.937 7.19063C85.8508 7.52477 85.7226 7.79179 85.5523 7.99171C85.3835 8.18576 85.1872 8.32895 84.9634 8.4213C84.7469 8.50929 84.5168 8.55313 84.2731 8.55283C84.0352 8.55404 83.802 8.52518 83.5733 8.46626L81.2608 7.87024C81.1611 7.84455 81.0852 7.78747 81.033 7.699C80.9866 7.61203 80.9763 7.51872 81.002 7.41907L82.4048 1.97617C82.4305 1.87652 82.4839 1.80276 82.565 1.75489C82.6534 1.70268 82.7475 1.68941 82.8471 1.7151L85.1421 2.30659ZM84.8576 2.97405L82.9671 2.4868L83.1134 2.35572L82.5491 4.54519L82.4818 4.40595L84.3811 4.89546C84.6391 4.96194 84.88 4.93653 85.1041 4.81923C85.3355 4.69757 85.4935 4.47261 85.5781 4.14434C85.6536 3.85124 85.6268 3.60364 85.4976 3.40155C85.3699 3.1936 85.1565 3.0511 84.8576 2.97405ZM84.2526 5.61251L82.3357 5.11846L82.4131 5.07278L81.8216 7.36776L81.7717 7.2705L83.7237 7.7736C84.0696 7.86274 84.3736 7.84733 84.6359 7.72737C84.9039 7.60892 85.0856 7.36504 85.1807 6.99573C85.2548 6.70849 85.2528 6.47356 85.1749 6.29093C85.0984 6.10244 84.9739 5.95471 84.8015 5.84774C84.6349 5.74229 84.4519 5.66387 84.2526 5.61251Z" fill="#FEFEEF"/>
<path opacity="0.8" d="M90.4269 5.00611L86.6615 9.15589C86.6141 9.21584 86.5548 9.25542 86.4836 9.27464C86.4125 9.29386 86.3456 9.29217 86.2831 9.26956C86.1752 9.23052 86.1059 9.17335 86.0754 9.09805C86.0448 9.02275 86.0439 8.94534 86.0726 8.86581C86.0813 8.82399 86.1024 8.78344 86.1359 8.74416L90.2846 4.17412C90.3418 4.10487 90.4049 4.06347 90.4741 4.04993C90.5509 4.03277 90.6253 4.04039 90.6971 4.07278C90.7709 4.09949 90.829 4.143 90.8715 4.20331C90.9196 4.26568 90.9427 4.33506 90.9407 4.41145L91.2159 10.5238C91.2165 10.5754 91.2086 10.6239 91.1922 10.6694C91.1552 10.7716 91.0913 10.8417 91.0006 10.8795C90.9118 10.9116 90.8249 10.9123 90.7397 10.8815C90.6715 10.8568 90.6162 10.8144 90.5738 10.754C90.5313 10.6937 90.5093 10.6215 90.5076 10.5374L90.2425 4.92978L90.4269 5.00611ZM87.5899 7.92105L88.1201 7.3612L90.6508 8.27658L90.5382 8.98746L87.5899 7.92105Z" fill="#FEFEEF"/>
<path opacity="0.8" d="M92.2827 11.5835C92.1793 11.5342 92.1052 11.4587 92.0602 11.357C92.0207 11.258 92.023 11.1622 92.0672 11.0697L94.48 6.0196C94.5242 5.92713 94.5905 5.86528 94.6789 5.83404C94.7754 5.79995 94.8698 5.805 94.9623 5.84918L97.214 6.92501C97.5186 7.07053 97.7595 7.27247 97.9367 7.53082C98.1165 7.78374 98.2186 8.06635 98.2431 8.37867C98.2756 8.68815 98.2165 9.00062 98.0658 9.31609C97.9566 9.54452 97.8105 9.73858 97.6273 9.89824C97.4467 10.0525 97.2452 10.1666 97.0228 10.2407C96.8029 10.3094 96.5769 10.335 96.3447 10.3176L96.2276 10.1013C96.3917 10.2332 96.5199 10.3913 96.6122 10.5757C96.7071 10.7546 96.7592 10.9532 96.7685 11.1714C96.7804 11.3842 96.7345 11.6061 96.6308 11.8372C96.5455 12.0436 96.4825 12.2106 96.4416 12.338C96.4008 12.4655 96.3798 12.5723 96.3786 12.6586C96.3801 12.7395 96.4016 12.8133 96.4432 12.8799C96.496 12.9653 96.5138 13.0539 96.4965 13.1459C96.4848 13.2405 96.4335 13.3128 96.3427 13.363C96.2867 13.3964 96.2236 13.4096 96.1533 13.4028C96.0857 13.3905 96.0233 13.3674 95.9661 13.3334C95.9088 13.2993 95.865 13.2583 95.8344 13.2103C95.7708 13.1198 95.7203 13.0088 95.6829 12.8774C95.6481 12.7405 95.6463 12.5693 95.6777 12.3639C95.7091 12.1584 95.7988 11.9006 95.9469 11.5906C96.0301 11.4166 96.0718 11.2594 96.0719 11.1192C96.0721 10.979 96.0429 10.8515 95.9842 10.7366C95.9255 10.6217 95.8456 10.5234 95.7443 10.4416C95.6431 10.3599 95.5327 10.2904 95.413 10.2332L93.5937 9.36395L93.7617 9.26387L92.7444 11.3933C92.7002 11.4857 92.6353 11.5516 92.5497 11.5909C92.4642 11.6302 92.3751 11.6277 92.2827 11.5835ZM93.8743 8.77654L95.8731 9.73154C96.0361 9.79602 96.2089 9.81179 96.3917 9.77885C96.5798 9.74852 96.759 9.66711 96.9292 9.53464C97.1074 9.39933 97.2498 9.22018 97.3564 8.99718C97.4941 8.70891 97.516 8.42542 97.422 8.1467C97.3335 7.87058 97.1505 7.66626 96.8731 7.53373L94.9477 6.61381L95.087 6.48998L93.902 8.97017L93.8743 8.77654Z" fill="#FEFEEF"/>
<path opacity="0.8" d="M103.02 9.99805C103.478 10.2745 103.756 10.6062 103.856 10.9929C103.964 11.3777 103.888 11.7857 103.627 12.2171C103.488 12.4458 103.309 12.6248 103.089 12.7543C102.869 12.8837 102.623 12.9443 102.351 12.9361C102.084 12.931 101.802 12.8457 101.505 12.6801L101.621 12.4524C101.803 12.5624 101.975 12.7015 102.136 12.8698C102.296 13.038 102.423 13.228 102.515 13.4398C102.612 13.6547 102.653 13.8855 102.639 14.1323C102.63 14.3823 102.542 14.645 102.375 14.9205C102.196 15.2167 101.996 15.4363 101.775 15.5793C101.557 15.7171 101.327 15.7981 101.085 15.8222C100.852 15.8444 100.618 15.8201 100.384 15.7495C100.155 15.6821 99.9391 15.5871 99.7364 15.4645L97.6861 14.2248C97.5978 14.1714 97.5413 14.0946 97.5166 13.9946C97.4971 13.8976 97.5141 13.805 97.5675 13.7166L100.485 8.89101C100.539 8.80265 100.611 8.74717 100.703 8.72457C100.803 8.69992 100.897 8.7143 100.986 8.76772L103.02 9.99805ZM102.554 10.5573L100.878 9.54387L101.057 9.46011L99.8831 11.4012L99.8586 11.248L101.542 12.2662C101.771 12.4045 102.01 12.4496 102.259 12.4015C102.516 12.3513 102.733 12.1807 102.909 11.8897C103.066 11.6298 103.112 11.3841 103.046 11.1527C102.983 10.916 102.819 10.7176 102.554 10.5573ZM101.212 12.9182L99.5127 11.8906L99.6003 11.869L98.37 13.9037L98.35 13.7958L100.081 14.8423C100.387 15.0277 100.684 15.1006 100.97 15.061C101.262 15.0245 101.507 14.8425 101.705 14.5151C101.859 14.2604 101.925 14.0341 101.903 13.8361C101.883 13.6329 101.806 13.4551 101.672 13.3025C101.542 13.1531 101.389 13.025 101.212 12.9182Z" fill="#FEFEEF"/>
<path opacity="0.8" d="M106.364 12.2266L108.978 14.1306C109.061 14.1912 109.112 14.2698 109.132 14.3664C109.152 14.4631 109.131 14.553 109.07 14.6362C109.01 14.7194 108.93 14.7666 108.833 14.7776C108.738 14.7838 108.649 14.7566 108.566 14.696L106.202 12.9738L106.359 12.8971L105.006 14.7548L104.991 14.6205L107.032 16.1074C107.116 16.168 107.167 16.2466 107.186 16.3432C107.206 16.4399 107.185 16.5298 107.125 16.613C107.064 16.6962 106.985 16.7434 106.887 16.7544C106.792 16.7606 106.704 16.7334 106.62 16.6728L104.601 15.202L104.701 15.1733L103.316 17.0751L103.309 16.9916L105.651 18.6977C105.734 18.7583 105.784 18.8394 105.8 18.9409C105.816 19.0424 105.797 19.1299 105.744 19.2033C105.683 19.2866 105.604 19.3337 105.506 19.3448C105.408 19.3558 105.317 19.331 105.234 19.2704L102.62 17.3664C102.537 17.3058 102.487 17.2247 102.471 17.1232C102.46 17.0252 102.485 16.9347 102.546 16.8514L105.856 12.3063C105.917 12.2231 105.994 12.1742 106.087 12.1596C106.188 12.1436 106.281 12.1659 106.364 12.2266Z" fill="#FEFEEF"/>
<path opacity="0.8" d="M106.705 20.4929C106.619 20.4169 106.568 20.3237 106.552 20.2133C106.541 20.107 106.57 20.0153 106.638 19.9383L110.352 15.7318C110.42 15.6548 110.501 15.6134 110.594 15.6075C110.697 15.6012 110.787 15.632 110.864 15.7L112.739 17.3558C112.993 17.5798 113.17 17.8407 113.269 18.1385C113.373 18.4317 113.394 18.7323 113.332 19.0401C113.278 19.3475 113.135 19.6325 112.904 19.8953C112.736 20.0856 112.541 20.2325 112.321 20.3361C112.104 20.4352 111.879 20.4899 111.644 20.5003C111.413 20.5061 111.188 20.4687 110.969 20.3881L110.915 20.1474C111.037 20.3196 111.118 20.5073 111.156 20.7105C111.198 20.9091 111.194 21.1148 111.143 21.3278C111.096 21.5362 110.991 21.7376 110.827 21.9319C110.688 22.1075 110.582 22.2511 110.507 22.3628C110.433 22.4745 110.383 22.5718 110.359 22.6546C110.338 22.733 110.338 22.81 110.36 22.8858C110.388 22.9825 110.38 23.0729 110.338 23.1568C110.301 23.2448 110.232 23.3005 110.13 23.3239C110.067 23.3407 110.003 23.3361 109.937 23.3103C109.875 23.2799 109.821 23.2404 109.775 23.1919C109.73 23.1433 109.699 23.0918 109.682 23.0371C109.646 22.9323 109.628 22.8114 109.628 22.6744C109.632 22.5329 109.677 22.3674 109.764 22.1779C109.85 21.9884 110.008 21.7645 110.236 21.5063C110.364 21.3613 110.447 21.2212 110.486 21.0861C110.524 20.951 110.531 20.82 110.506 20.6931C110.481 20.5662 110.431 20.4494 110.356 20.3428C110.281 20.2361 110.193 20.1388 110.094 20.0508L108.578 18.7129L108.768 18.6626L107.202 20.4362C107.134 20.5133 107.053 20.5589 106.96 20.5733C106.867 20.5877 106.782 20.5609 106.705 20.4929ZM109.01 18.2236L110.675 19.6935C110.815 19.8005 110.977 19.8631 111.162 19.8816C111.352 19.904 111.547 19.8748 111.748 19.7938C111.957 19.7123 112.143 19.5787 112.307 19.3929C112.519 19.1528 112.618 18.8855 112.604 18.5909C112.594 18.3004 112.474 18.0531 112.243 17.8491L110.639 16.4332L110.808 16.3521L108.984 18.418L109.01 18.2236Z" fill="#FEFEEF"/>
<path opacity="0.8" d="M113.799 27.5229C113.504 27.183 113.296 26.8406 113.173 26.4956C113.051 26.1507 112.996 25.7631 113.009 25.3328C113.014 25.2727 113.024 25.2152 113.041 25.1604C113.066 25.1061 113.102 25.059 113.148 25.0191C113.221 24.9553 113.308 24.9247 113.407 24.9274C113.514 24.9306 113.602 24.9713 113.67 25.0494C113.725 25.1137 113.75 25.193 113.743 25.2874C113.724 25.6181 113.759 25.9267 113.846 26.2132C113.938 26.5042 114.097 26.7806 114.325 27.0424C114.5 27.2445 114.69 27.398 114.894 27.5029C115.102 27.6124 115.305 27.6656 115.504 27.6623C115.702 27.659 115.877 27.5916 116.029 27.46C116.209 27.2958 116.312 27.1091 116.34 26.8997C116.372 26.695 116.347 26.4669 116.265 26.2153C116.192 25.9644 116.08 25.6956 115.928 25.4089C115.795 25.1538 115.687 24.9047 115.605 24.6618C115.527 24.4234 115.485 24.1941 115.479 23.9737C115.477 23.7494 115.521 23.5347 115.608 23.3296C115.705 23.1251 115.856 22.9331 116.063 22.7536C116.325 22.5262 116.614 22.3957 116.931 22.362C117.248 22.3283 117.565 22.3872 117.882 22.5389C118.204 22.6866 118.503 22.9189 118.778 23.2359C119.021 23.516 119.204 23.82 119.328 24.1478C119.456 24.4802 119.505 24.7919 119.476 25.0831C119.468 25.2508 119.423 25.3705 119.34 25.4423C119.271 25.5021 119.181 25.5281 119.07 25.5202C118.967 25.513 118.883 25.4726 118.819 25.3991C118.776 25.3486 118.754 25.2867 118.755 25.2135C118.774 25.0596 118.767 24.8931 118.732 24.7138C118.697 24.5346 118.639 24.3558 118.556 24.1775C118.474 23.9992 118.371 23.8389 118.247 23.6965C118.064 23.4853 117.87 23.3272 117.666 23.2223C117.467 23.1134 117.27 23.0628 117.075 23.0707C116.889 23.0791 116.718 23.1512 116.562 23.2868C116.388 23.4384 116.287 23.6145 116.26 23.8153C116.237 24.0121 116.263 24.2273 116.337 24.4611C116.416 24.6908 116.517 24.933 116.642 25.1875C116.782 25.4605 116.897 25.723 116.987 25.9751C117.086 26.2278 117.142 26.469 117.156 26.6985C117.17 26.928 117.126 27.1513 117.025 27.3684C116.932 27.5861 116.766 27.7986 116.527 28.006C116.275 28.2254 115.988 28.3497 115.667 28.3788C115.345 28.4079 115.02 28.3483 114.69 28.2C114.368 28.0523 114.071 27.8266 113.799 27.5229Z" fill="#FEFEEF"/>
<path opacity="0.8" d="M121.288 26.5642L123.192 29.1781C123.253 29.2614 123.277 29.3519 123.266 29.4499C123.255 29.5479 123.208 29.6272 123.125 29.6878C123.042 29.7484 122.952 29.7689 122.855 29.7494C122.763 29.7263 122.687 29.6732 122.627 29.59L120.905 27.2256L121.077 27.2008L119.22 28.5539L119.247 28.4217L120.734 30.4629C120.795 30.5461 120.819 30.6367 120.808 30.7347C120.797 30.8327 120.75 30.9119 120.667 30.9726C120.584 31.0332 120.494 31.0537 120.397 31.0342C120.305 31.0111 120.229 30.958 120.169 30.8747L118.698 28.8555L118.801 28.8588L116.9 30.244L116.919 30.1625L118.625 32.5048C118.686 32.588 118.708 32.6804 118.692 32.7819C118.676 32.8835 118.631 32.961 118.558 33.0145C118.475 33.0751 118.385 33.0956 118.288 33.0761C118.191 33.0566 118.113 33.0052 118.052 32.922L116.148 30.308C116.088 30.2248 116.065 30.1324 116.081 30.0309C116.101 29.9343 116.152 29.8556 116.235 29.795L120.78 26.4844C120.864 26.4238 120.952 26.4008 121.045 26.4154C121.146 26.4314 121.227 26.4809 121.288 26.5642Z" fill="#FEFEEF"/>
<path opacity="0.8" d="M119.103 34.5502C119.045 34.4515 119.025 34.3472 119.044 34.2375C119.066 34.1329 119.122 34.0545 119.21 34.0021L124.036 31.1403C124.124 31.0879 124.214 31.0734 124.305 31.0967C124.404 31.122 124.48 31.1789 124.532 31.2673L125.808 33.4189C125.981 33.71 126.069 34.0125 126.073 34.3265C126.081 34.6374 126.009 34.9298 125.855 35.2036C125.71 35.4796 125.486 35.7069 125.185 35.8857C124.967 36.0151 124.737 36.0953 124.495 36.1262C124.259 36.154 124.027 36.1367 123.8 36.0744C123.579 36.009 123.376 35.9044 123.193 35.7604L123.216 35.5149C123.279 35.7163 123.298 35.9195 123.272 36.1246C123.251 36.3265 123.184 36.521 123.07 36.708C122.961 36.8919 122.799 37.0512 122.584 37.1858C122.398 37.3102 122.252 37.4141 122.147 37.4975C122.042 37.5809 121.965 37.6583 121.916 37.7295C121.872 37.7977 121.849 37.8711 121.846 37.9499C121.843 38.0504 121.808 38.1341 121.742 38.2012C121.68 38.2734 121.597 38.3051 121.493 38.2963C121.428 38.2928 121.368 38.2687 121.313 38.2238C121.264 38.1759 121.225 38.1218 121.196 38.0616C121.167 38.0013 121.154 37.9427 121.155 37.8857C121.152 37.7748 121.172 37.6542 121.214 37.5238C121.262 37.3904 121.356 37.2468 121.496 37.0932C121.637 36.9395 121.855 36.7748 122.152 36.5991C122.318 36.5005 122.44 36.3928 122.519 36.2761C122.597 36.1594 122.644 36.0369 122.659 35.9084C122.674 35.78 122.662 35.6535 122.623 35.529C122.585 35.4044 122.531 35.285 122.464 35.1706L121.433 33.4322L121.629 33.4425L119.594 34.6491C119.505 34.7015 119.415 34.7202 119.321 34.7052C119.228 34.6903 119.155 34.6386 119.103 34.5502ZM121.994 33.0993L123.127 35.0093C123.226 35.1538 123.362 35.2634 123.532 35.3378C123.706 35.4175 123.901 35.4495 124.116 35.4341C124.34 35.4207 124.559 35.3509 124.772 35.2245C125.047 35.0611 125.223 34.8372 125.301 34.5526C125.381 34.2732 125.342 34.001 125.185 33.7359L124.094 31.8961L124.279 31.8706L121.909 33.2761L121.994 33.0993Z" fill="#FEFEEF"/>
<path opacity="0.8" d="M129.587 40.7341C129.631 40.8269 129.638 40.9203 129.609 41.0143C129.586 41.1058 129.528 41.1735 129.435 41.2174C129.391 41.2381 129.337 41.2505 129.272 41.2545L123.188 41.5188C123.101 41.5197 123.025 41.4991 122.958 41.4572C122.899 41.4181 122.855 41.3658 122.824 41.3002C122.801 41.2376 122.792 41.1712 122.799 41.101C122.812 41.0283 122.844 40.9628 122.897 40.9044L126.95 36.3759C126.967 36.3546 126.985 36.3361 127.004 36.3203C127.029 36.3019 127.055 36.2862 127.082 36.2733C127.186 36.2241 127.282 36.2221 127.37 36.2672C127.467 36.3152 127.532 36.3747 127.565 36.4457C127.635 36.5932 127.609 36.7359 127.487 36.8739L123.745 41.0441L123.656 40.8556L129.239 40.528C129.406 40.5288 129.522 40.5975 129.587 40.7341Z" fill="#FEFEEF"/>
<path opacity="0.8" d="M124.955 45.3453C124.86 45.3829 124.764 45.3784 124.667 45.3318C124.573 45.2909 124.508 45.2226 124.47 45.127C124.428 45.0201 124.429 44.9225 124.472 44.8341C124.515 44.7457 124.584 44.6827 124.68 44.6451L129.893 42.5946C129.995 42.5548 130.089 42.5565 130.178 42.5996C130.272 42.6406 130.339 42.7116 130.379 42.8129C130.416 42.9085 130.414 43.0033 130.374 43.0973C130.338 43.1891 130.27 43.255 130.169 43.2948L124.955 45.3453Z" fill="#FEFEEF"/>
<path opacity="0.8" d="M132.166 49.5262C132.145 49.6401 132.085 49.7191 131.985 49.7633C131.887 49.8131 131.784 49.8172 131.676 49.7755C131.586 49.7474 131.524 49.6941 131.493 49.6155C131.462 49.5369 131.454 49.4511 131.469 49.358C131.524 49.1323 131.549 48.9004 131.543 48.6623C131.543 48.4224 131.505 48.1819 131.429 47.9407C131.322 47.602 131.163 47.311 130.954 47.0678C130.75 46.8227 130.51 46.6304 130.232 46.4908C129.954 46.3512 129.651 46.2702 129.322 46.2478C128.993 46.2255 128.65 46.2705 128.294 46.3829C127.915 46.5026 127.596 46.6698 127.335 46.8847C127.075 47.0995 126.871 47.3438 126.724 47.6176C126.584 47.8953 126.503 48.1891 126.481 48.4991C126.461 48.8149 126.503 49.1364 126.606 49.4637C126.68 49.699 126.783 49.9158 126.916 50.1141C127.048 50.3123 127.205 50.49 127.387 50.6471C127.452 50.7148 127.492 50.7906 127.506 50.8746C127.52 50.9586 127.502 51.0402 127.451 51.1194C127.381 51.2173 127.291 51.2739 127.183 51.2893C127.079 51.3029 126.99 51.2711 126.916 51.1937C126.784 51.0774 126.652 50.9391 126.519 50.779C126.392 50.617 126.277 50.4419 126.174 50.2537C126.072 50.0712 125.989 49.8794 125.926 49.6785C125.795 49.2651 125.744 48.8521 125.771 48.4393C125.799 48.0266 125.903 47.6369 126.084 47.2704C126.265 46.9038 126.518 46.5775 126.845 46.2914C127.179 46.0091 127.584 45.7928 128.06 45.6423C128.508 45.5009 128.943 45.4488 129.365 45.4859C129.787 45.5231 130.18 45.636 130.542 45.8245C130.907 46.0188 131.225 46.2752 131.496 46.5937C131.768 46.9179 131.973 47.2953 132.109 47.7259C132.203 48.0244 132.255 48.3271 132.263 48.6338C132.273 48.9462 132.241 49.2437 132.166 49.5262Z" fill="#FEFEEF"/>
<path opacity="0.8" d="M133.143 51.4565L133.847 54.6059C133.87 54.7062 133.857 54.7989 133.807 54.8842C133.758 54.9695 133.684 55.0233 133.583 55.0457C133.483 55.0682 133.393 55.0512 133.312 54.9949C133.237 54.9374 133.189 54.8584 133.166 54.7582L132.529 51.9095L132.698 51.9555L130.459 52.4558L130.537 52.3456L131.087 54.805C131.109 54.9053 131.096 54.998 131.047 55.0833C130.998 55.1686 130.923 55.2224 130.823 55.2448C130.723 55.2672 130.632 55.2503 130.551 55.194C130.477 55.1365 130.428 55.0575 130.406 54.9573L129.862 52.5244L129.955 52.5686L127.664 53.0807L127.714 53.0138L128.345 55.8359C128.367 55.9362 128.351 56.0296 128.296 56.1162C128.241 56.2028 128.169 56.256 128.081 56.2757C127.981 56.2981 127.89 56.2812 127.809 56.2249C127.729 56.1687 127.677 56.0904 127.655 55.9901L126.951 52.8407C126.928 52.7404 126.945 52.647 127 52.5604C127.056 52.4797 127.134 52.4282 127.234 52.4058L132.71 51.1817C132.811 51.1593 132.901 51.1733 132.98 51.2237C133.067 51.2786 133.121 51.3562 133.143 51.4565Z" fill="#FEFEEF"/>
<path opacity="0.8" d="M128.084 59.32C128.023 58.877 128.035 58.4788 128.121 58.1254C128.207 57.772 128.372 57.4199 128.616 57.069C128.652 57.0214 128.692 56.9793 128.736 56.9427C128.787 56.9114 128.842 56.8916 128.902 56.8834C128.998 56.8702 129.086 56.8916 129.167 56.9476C129.255 57.0087 129.305 57.0902 129.319 57.1919C129.331 57.2758 129.308 57.3551 129.252 57.43C129.056 57.6948 128.917 57.9702 128.834 58.256C128.753 58.5479 128.735 58.8645 128.782 59.2057C128.818 59.4691 128.893 59.6999 129.005 59.8979C129.119 60.1019 129.259 60.2565 129.426 60.3616C129.593 60.4668 129.775 60.5057 129.973 60.4786C130.211 60.4397 130.399 60.3406 130.536 60.1815C130.673 60.0284 130.777 59.8251 130.845 59.5716C130.921 59.3233 130.973 59.0386 131.002 58.7174C131.03 58.4329 131.076 58.1673 131.14 57.9207C131.204 57.68 131.294 57.4664 131.409 57.2798C131.529 57.0924 131.682 56.9372 131.866 56.8143C132.057 56.6965 132.288 56.6191 132.557 56.582C132.898 56.5351 133.21 56.5837 133.492 56.7279C133.774 56.8721 134.006 57.0934 134.187 57.3918C134.375 57.6893 134.497 58.0447 134.554 58.4578C134.604 58.823 134.591 59.1755 134.516 59.5152C134.442 59.861 134.313 60.1471 134.131 60.3734C134.033 60.5088 133.931 60.5839 133.823 60.5987C133.733 60.6111 133.644 60.5837 133.556 60.5166C133.474 60.4546 133.427 60.3757 133.413 60.2799C133.404 60.2141 133.42 60.1509 133.46 60.0904C133.56 59.973 133.644 59.8303 133.713 59.6623C133.781 59.4943 133.83 59.3138 133.858 59.1208C133.886 58.9278 133.888 58.7385 133.862 58.5529C133.824 58.2775 133.749 58.0408 133.636 57.8427C133.53 57.6439 133.393 57.4949 133.227 57.3957C133.068 57.3017 132.886 57.2687 132.683 57.2967C132.455 57.328 132.276 57.4198 132.144 57.5721C132.019 57.7236 131.923 57.9167 131.858 58.1514C131.799 58.3852 131.751 58.6418 131.717 58.9211C131.685 59.2243 131.638 59.5053 131.576 59.7639C131.521 60.0277 131.437 60.2589 131.324 60.4575C131.211 60.656 131.053 60.818 130.851 60.9434C130.655 61.074 130.402 61.1607 130.091 61.2035C129.761 61.2488 129.455 61.1964 129.172 61.0462C128.889 60.896 128.651 60.6695 128.457 60.3668C128.269 60.0692 128.145 59.7203 128.084 59.32Z" fill="#FEFEEF"/>
<path opacity="0.8" d="M131.16 65.1184C131.157 65.0157 131.188 64.9273 131.253 64.8532C131.324 64.7849 131.414 64.7494 131.522 64.7467C131.625 64.7442 131.711 64.7753 131.779 64.8401C131.847 64.911 131.882 64.9978 131.885 65.1005L131.93 66.931C131.933 67.0337 131.899 67.1192 131.828 67.1875C131.757 67.2618 131.67 67.3002 131.568 67.3027C131.465 67.3053 131.379 67.2711 131.311 67.2003C131.243 67.1355 131.208 67.0517 131.205 66.949L131.16 65.1184Z" fill="#FEFEEF"/>
<path opacity="0.8" d="M134.776 74.1422C134.746 74.4733 134.638 74.764 134.452 75.0144C134.266 75.2647 134.025 75.4526 133.729 75.5779C133.432 75.7092 133.103 75.7587 132.742 75.7266C132.386 75.6949 132.071 75.588 131.796 75.4058C131.521 75.2295 131.311 75.0015 131.166 74.7216C131.021 74.4417 130.963 74.1363 130.992 73.8052L131.156 71.9723L131.258 72.0451L128.983 71.8424C128.881 71.8333 128.796 71.7925 128.73 71.7198C128.664 71.6472 128.635 71.5597 128.644 71.4573C128.654 71.349 128.698 71.2649 128.776 71.2051C128.853 71.1514 128.943 71.1291 129.046 71.1382L134.635 71.636C134.737 71.6451 134.818 71.6857 134.879 71.7578C134.945 71.8365 134.973 71.927 134.964 72.0293L134.776 74.1422ZM131.688 73.8671C131.67 74.0658 131.709 74.2452 131.804 74.4053C131.898 74.5654 132.035 74.699 132.214 74.8059C132.392 74.9128 132.59 74.9759 132.807 74.9952C133.035 75.0156 133.241 74.9884 133.424 74.9137C133.606 74.8389 133.755 74.7309 133.871 74.5895C133.993 74.4486 134.063 74.2789 134.08 74.0803L134.244 72.2473L134.337 72.3194L131.755 72.0894L131.851 72.0342L131.688 73.8671Z" fill="#FEFEEF"/>
<path opacity="0.8" d="M128.033 76.8529C128.054 76.7404 128.108 76.6492 128.194 76.5793C128.279 76.5154 128.372 76.4927 128.473 76.5111L133.972 77.5212C134.072 77.5397 134.149 77.5875 134.203 77.6646C134.261 77.7487 134.28 77.8411 134.262 77.9418L133.811 80.3937C133.751 80.7253 133.619 81.0103 133.416 81.2485C133.219 81.4878 132.973 81.66 132.678 81.765C132.388 81.8771 132.071 81.9016 131.728 81.8385C131.479 81.7928 131.254 81.7024 131.052 81.5674C130.856 81.4335 130.694 81.2689 130.564 81.0737C130.441 80.8796 130.357 80.6684 130.313 80.4399L130.491 80.2706C130.407 80.4632 130.288 80.6281 130.134 80.7652C129.986 80.9033 129.808 81.0053 129.6 81.0712C129.398 81.1382 129.172 81.1518 128.922 81.112C128.701 81.0836 128.524 81.0663 128.39 81.0601C128.257 81.054 128.148 81.0616 128.065 81.083C127.987 81.1055 127.921 81.1455 127.868 81.203C127.8 81.2761 127.719 81.3164 127.625 81.3238C127.531 81.3371 127.448 81.3065 127.376 81.232C127.329 81.1867 127.3 81.1293 127.288 81.0598C127.282 80.9914 127.289 80.9251 127.306 80.8611C127.324 80.797 127.352 80.744 127.391 80.7021C127.461 80.6171 127.555 80.5395 127.672 80.4691C127.795 80.3999 127.96 80.3536 128.166 80.3302C128.372 80.3069 128.644 80.3262 128.982 80.3882C129.171 80.4231 129.334 80.4223 129.469 80.3859C129.604 80.3495 129.72 80.2881 129.815 80.2015C129.911 80.115 129.985 80.0122 130.037 79.8933C130.09 79.7744 130.128 79.6498 130.152 79.5195L130.516 77.5384L130.656 77.6744L128.337 77.2485C128.237 77.23 128.156 77.1846 128.096 77.1123C128.036 77.0401 128.015 76.9536 128.033 76.8529ZM131.155 77.6559L130.755 79.8324C130.736 80.0063 130.766 80.1771 130.845 80.3447C130.923 80.5183 131.049 80.6699 131.221 80.7994C131.398 80.936 131.607 81.0266 131.85 81.0712C132.164 81.1289 132.443 81.076 132.688 80.9127C132.931 80.7554 133.08 80.5257 133.136 80.2236L133.521 78.1271L133.676 78.2291L130.976 77.7331L131.155 77.6559Z" fill="#FEFEEF"/>
<path opacity="0.8" d="M132.962 84.4527L132.087 87.5589C132.059 87.6578 132.004 87.7332 131.92 87.785C131.836 87.8367 131.745 87.8487 131.646 87.8208C131.547 87.793 131.476 87.7352 131.431 87.6473C131.393 87.5611 131.388 87.4686 131.415 87.3697L132.207 84.5601L132.333 84.6804L130.125 84.0586L130.246 83.9984L129.563 86.4241C129.535 86.523 129.479 86.5983 129.395 86.6501C129.312 86.7019 129.221 86.7139 129.122 86.686C129.023 86.6582 128.951 86.6003 128.907 86.5125C128.868 86.4263 128.863 86.3338 128.891 86.2349L129.567 83.8354L129.628 83.9186L127.368 83.282L127.444 83.2469L126.66 86.0303C126.632 86.1292 126.573 86.2037 126.484 86.2539C126.395 86.304 126.306 86.3168 126.219 86.2922C126.12 86.2644 126.048 86.2065 126.004 86.1187C125.96 86.0309 125.952 85.9375 125.979 85.8387L126.854 82.7324C126.882 82.6335 126.941 82.559 127.03 82.5088C127.118 82.4645 127.211 82.4563 127.31 82.4841L132.711 84.0053C132.81 84.0332 132.883 84.0881 132.929 84.1701C132.979 84.2596 132.99 84.3538 132.962 84.4527Z" fill="#FEFEEF"/>
<path opacity="0.8" d="M131.331 89.9706C131.311 90.0212 131.275 90.069 131.225 90.114C131.172 90.1647 131.117 90.1979 131.058 90.2137L126.789 91.1028L126.915 90.8111L129.388 94.4121C129.466 94.5276 129.478 94.6433 129.426 94.7591C129.384 94.8468 129.319 94.9121 129.231 94.9549C129.142 94.9978 129.047 94.9991 128.946 94.9588L123.727 92.8826C123.632 92.8446 123.564 92.7785 123.523 92.6842C123.483 92.5899 123.482 92.4922 123.523 92.3911C123.563 92.2899 123.63 92.219 123.724 92.1784C123.819 92.1378 123.914 92.1365 124.009 92.1745L128.587 93.9957L128.461 94.1897L126.226 90.996C126.2 90.9467 126.183 90.8911 126.175 90.8293C126.165 90.7732 126.17 90.7198 126.19 90.6692C126.21 90.6187 126.244 90.5737 126.292 90.5343C126.341 90.4949 126.391 90.4661 126.444 90.4481L130.252 89.6879L130.401 89.9521L125.646 88.0604C125.55 88.0224 125.481 87.9591 125.438 87.8704C125.395 87.7818 125.393 87.6897 125.431 87.5941C125.469 87.4986 125.534 87.4333 125.626 87.3983C125.716 87.3689 125.809 87.3733 125.904 87.4113L131.123 89.4874C131.213 89.5232 131.279 89.5854 131.322 89.6741C131.368 89.7706 131.371 89.8694 131.331 89.9706Z" fill="#FEFEEF"/>
<path opacity="0.8" d="M122.694 94.9574C122.601 94.9122 122.54 94.8383 122.509 94.7357C122.476 94.6385 122.482 94.5437 122.527 94.4512C122.577 94.3479 122.65 94.2822 122.744 94.2543C122.839 94.2264 122.932 94.235 123.025 94.2802L128.067 96.7452C128.165 96.7931 128.228 96.8642 128.256 96.9588C128.289 97.0559 128.282 97.1535 128.234 97.2514C128.189 97.3438 128.117 97.4068 128.02 97.4401C127.928 97.4761 127.834 97.4702 127.736 97.4223L122.694 94.9574Z" fill="#FEFEEF"/>
<path opacity="0.8" d="M124.842 103.211C124.79 103.299 124.717 103.354 124.621 103.374C124.526 103.395 124.434 103.38 124.345 103.329L121.25 101.529C120.85 101.297 120.546 100.995 120.338 100.623C120.126 100.257 120.018 99.8634 120.012 99.4428C120.011 99.0252 120.126 98.6189 120.356 98.2239C120.588 97.8237 120.888 97.518 121.254 97.3067C121.622 97.1036 122.018 97.0033 122.441 97.0057C122.863 97.0081 123.275 97.1257 123.675 97.3584L126.77 99.1578C126.858 99.2091 126.917 99.2815 126.946 99.375C126.972 99.4736 126.957 99.5723 126.899 99.671C126.851 99.7542 126.778 99.8088 126.679 99.8349C126.577 99.8662 126.482 99.8562 126.394 99.8048L123.299 98.0054C123.013 97.8392 122.721 97.7561 122.422 97.7561C122.123 97.7561 121.845 97.8275 121.588 97.9702C121.333 98.1212 121.13 98.3266 120.979 98.5865C120.825 98.8515 120.745 99.1321 120.74 99.4281C120.74 99.7271 120.813 100.009 120.958 100.274C121.1 100.545 121.313 100.763 121.599 100.929L124.694 102.728C124.783 102.78 124.843 102.85 124.875 102.938C124.907 103.026 124.896 103.117 124.842 103.211Z" fill="#FEFEEF"/>
<path opacity="0.8" d="M123.313 105.746C123.28 105.79 123.234 105.827 123.174 105.858C123.11 105.893 123.048 105.911 122.987 105.911L118.636 105.679L118.832 105.429L120.301 109.539C120.346 109.671 120.329 109.786 120.248 109.884C120.186 109.958 120.107 110.005 120.01 110.023C119.913 110.042 119.821 110.019 119.734 109.954L115.224 106.615C115.142 106.554 115.093 106.473 115.078 106.371C115.063 106.27 115.088 106.175 115.152 106.088C115.217 106.001 115.3 105.949 115.402 105.934C115.503 105.919 115.595 105.942 115.678 106.003L119.633 108.932L119.462 109.088L118.12 105.432C118.107 105.377 118.105 105.319 118.113 105.258C118.118 105.201 118.136 105.151 118.169 105.107C118.201 105.063 118.246 105.028 118.302 105.003C118.359 104.977 118.415 104.962 118.471 104.958L122.343 105.197L122.419 105.491L118.31 102.448C118.228 102.387 118.177 102.308 118.158 102.211C118.14 102.115 118.161 102.025 118.222 101.943C118.283 101.86 118.363 101.814 118.46 101.803C118.555 101.798 118.643 101.826 118.726 101.887L123.235 105.226C123.313 105.284 123.361 105.361 123.38 105.458C123.4 105.563 123.377 105.659 123.313 105.746Z" fill="#FEFEEF"/>
<path opacity="0.8" d="M114.821 115.795C114.444 116.17 114.057 116.36 113.66 116.364C113.262 116.376 112.887 116.205 112.532 115.849C112.345 115.661 112.215 115.445 112.142 115.201C112.07 114.958 112.07 114.706 112.143 114.445C112.212 114.189 112.362 113.937 112.593 113.689L112.785 113.856C112.635 114.006 112.46 114.138 112.259 114.253C112.058 114.368 111.844 114.445 111.618 114.483C111.387 114.525 111.154 114.51 110.919 114.437C110.68 114.368 110.447 114.22 110.221 113.994C109.978 113.75 109.814 113.504 109.728 113.256C109.648 113.012 109.624 112.771 109.659 112.531C109.693 112.301 109.773 112.081 109.897 111.872C110.017 111.667 110.16 111.481 110.327 111.314L112.015 109.631C112.088 109.558 112.176 109.522 112.278 109.522C112.377 109.527 112.462 109.565 112.535 109.638L116.497 113.611C116.569 113.684 116.606 113.768 116.605 113.862C116.605 113.964 116.569 114.052 116.496 114.124L114.821 115.795ZM114.392 115.211L115.772 113.835L115.81 114.027L114.217 112.429L114.37 112.442L112.984 113.824C112.796 114.012 112.695 114.232 112.682 114.484C112.668 114.745 112.781 114.995 113.02 115.235C113.234 115.449 113.46 115.552 113.699 115.543C113.943 115.539 114.174 115.429 114.392 115.211ZM112.433 113.349L113.833 111.954L113.832 112.044L112.162 110.368L112.271 110.375L110.846 111.796C110.593 112.048 110.452 112.317 110.422 112.603C110.387 112.894 110.504 113.174 110.773 113.443C110.982 113.653 111.185 113.771 111.381 113.797C111.582 113.827 111.772 113.795 111.952 113.701C112.127 113.612 112.288 113.494 112.433 113.349Z" fill="#FEFEEF"/>
<path opacity="0.8" d="M109.836 119.01L108.185 113.653C108.158 113.581 108.154 113.51 108.174 113.439C108.194 113.368 108.229 113.311 108.28 113.269C108.369 113.196 108.454 113.165 108.534 113.178C108.614 113.19 108.681 113.228 108.735 113.294C108.767 113.323 108.791 113.361 108.808 113.41L110.624 119.312C110.655 119.396 110.658 119.472 110.635 119.538C110.61 119.613 110.566 119.673 110.501 119.718C110.441 119.768 110.374 119.796 110.3 119.802C110.222 119.811 110.15 119.796 110.086 119.755L104.685 116.874C104.64 116.849 104.602 116.817 104.572 116.78C104.503 116.696 104.475 116.605 104.489 116.508C104.506 116.415 104.55 116.34 104.62 116.282C104.676 116.236 104.741 116.21 104.814 116.204C104.888 116.198 104.961 116.216 105.035 116.258L109.996 118.89L109.836 119.01ZM108.774 115.081L108.986 115.823L106.907 117.534L106.353 117.075L108.774 115.081Z" fill="#FEFEEF"/>
<path opacity="0.8" d="M103.263 117.286C103.358 117.222 103.461 117.197 103.572 117.21C103.678 117.226 103.759 117.277 103.816 117.362L106.946 122.019C107.003 122.105 107.023 122.193 107.005 122.286C106.985 122.386 106.933 122.465 106.847 122.523L104.771 123.918C104.49 124.107 104.193 124.212 103.879 124.233C103.569 124.259 103.273 124.203 102.991 124.065C102.707 123.936 102.468 123.725 102.272 123.434C102.131 123.224 102.038 122.999 101.993 122.759C101.952 122.525 101.956 122.292 102.006 122.063C102.059 121.838 102.152 121.63 102.285 121.438L102.532 121.447C102.334 121.522 102.132 121.552 101.926 121.537C101.723 121.528 101.525 121.472 101.332 121.369C101.142 121.271 100.974 121.118 100.828 120.91C100.693 120.732 100.581 120.592 100.492 120.492C100.402 120.392 100.321 120.319 100.247 120.274C100.176 120.234 100.102 120.215 100.023 120.217C99.9226 120.219 99.837 120.189 99.7664 120.127C99.6907 120.069 99.6544 119.988 99.6574 119.884C99.6571 119.819 99.6779 119.757 99.7195 119.7C99.7646 119.648 99.8164 119.606 99.875 119.574C99.9335 119.542 99.9913 119.525 100.048 119.523C100.159 119.514 100.28 119.527 100.413 119.562C100.549 119.602 100.697 119.687 100.859 119.819C101.02 119.951 101.197 120.16 101.389 120.446C101.497 120.606 101.611 120.722 101.732 120.794C101.853 120.866 101.978 120.905 102.107 120.913C102.236 120.921 102.362 120.902 102.484 120.857C102.606 120.811 102.723 120.751 102.833 120.677L104.511 119.549L104.512 119.745L103.192 117.782C103.135 117.696 103.111 117.607 103.121 117.513C103.13 117.419 103.178 117.343 103.263 117.286ZM104.875 120.091L103.031 121.33C102.893 121.438 102.791 121.579 102.726 121.753C102.657 121.931 102.635 122.127 102.663 122.342C102.689 122.565 102.771 122.779 102.909 122.985C103.088 123.25 103.322 123.414 103.61 123.475C103.894 123.539 104.163 123.485 104.419 123.313L106.195 122.12L106.231 122.304L104.694 120.016L104.875 120.091Z" fill="#FEFEEF"/>
<path opacity="0.8" d="M99.157 127.239C98.6889 127.492 98.2639 127.563 97.8819 127.453C97.4975 127.351 97.1862 127.08 96.9481 126.638C96.8219 126.404 96.7589 126.16 96.7592 125.906C96.7594 125.652 96.8317 125.41 96.976 125.181C97.115 124.955 97.3306 124.757 97.6227 124.585L97.7591 124.8C97.573 124.901 97.3672 124.977 97.1417 125.03C96.9162 125.083 96.6894 125.096 96.4614 125.068C96.2281 125.042 96.0093 124.961 95.8049 124.824C95.5953 124.69 95.4144 124.482 95.2624 124.2C95.0989 123.897 95.0117 123.615 95.0009 123.353C94.9929 123.096 95.0396 122.858 95.141 122.638C95.2399 122.427 95.3787 122.239 95.5575 122.074C95.7309 121.912 95.9213 121.775 96.1288 121.663L98.2271 120.531C98.3176 120.482 98.4119 120.473 98.5101 120.502C98.6031 120.534 98.6739 120.596 98.7227 120.686L101.386 125.625C101.435 125.715 101.446 125.805 101.419 125.896C101.39 125.994 101.33 126.067 101.239 126.116L99.157 127.239ZM98.9128 126.557L100.628 125.632L100.61 125.827L99.5384 123.841L99.6821 123.897L97.9587 124.827C97.7247 124.953 97.5654 125.135 97.4808 125.373C97.3938 125.619 97.4306 125.891 97.5913 126.189C97.7347 126.454 97.9223 126.618 98.154 126.678C98.3886 126.744 98.6415 126.704 98.9128 126.557ZM97.5666 124.214L99.3059 123.276L99.2802 123.362L98.157 121.28L98.2596 121.317L96.4884 122.272C96.1745 122.441 95.9623 122.659 95.8515 122.925C95.7355 123.193 95.7678 123.495 95.9485 123.83C96.0891 124.091 96.2499 124.262 96.4308 124.343C96.6147 124.429 96.806 124.453 97.0049 124.414C97.1985 124.378 97.3857 124.312 97.5666 124.214Z" fill="#FEFEEF"/>
<path opacity="0.8" d="M95.4959 129.03L92.5269 130.288C92.4324 130.328 92.3388 130.332 92.2462 130.299C92.1536 130.266 92.0872 130.202 92.0471 130.108C92.0071 130.013 92.0074 129.921 92.0482 129.832C92.0914 129.748 92.1602 129.686 92.2547 129.646L94.9401 128.508L94.9252 128.681L94.0307 126.571L94.153 126.628L91.8346 127.611C91.74 127.651 91.6465 127.654 91.5538 127.621C91.4612 127.588 91.3948 127.525 91.3547 127.43C91.3147 127.336 91.315 127.244 91.3558 127.154C91.399 127.07 91.4678 127.008 91.5623 126.968L93.8558 125.996L93.8292 126.096L92.9136 123.936L92.9884 123.973L90.328 125.101C90.2334 125.141 90.1387 125.142 90.0437 125.103C89.9487 125.065 89.8835 125.004 89.8481 124.921C89.8081 124.826 89.8084 124.734 89.8492 124.645C89.89 124.555 89.9577 124.49 90.0522 124.45L93.0212 123.192C93.1157 123.152 93.2104 123.151 93.3054 123.189C93.3949 123.23 93.4596 123.298 93.4997 123.392L95.6881 128.555C95.7282 128.649 95.7306 128.74 95.6953 128.827C95.6569 128.922 95.5904 128.99 95.4959 129.03Z" fill="#FEFEEF"/>
<path opacity="0.8" d="M88.24 125.16C88.3492 125.125 88.4552 125.128 88.5581 125.171C88.6552 125.216 88.7197 125.287 88.7514 125.385L90.4863 130.721C90.5181 130.819 90.5126 130.91 90.47 130.993C90.4234 131.085 90.3513 131.146 90.2536 131.178L87.8743 131.952C87.5524 132.056 87.2379 132.076 86.9307 132.011C86.6253 131.951 86.3559 131.816 86.1224 131.606C85.885 131.404 85.7121 131.136 85.6038 130.802C85.5253 130.561 85.4975 130.319 85.5203 130.077C85.545 129.84 85.6125 129.618 85.723 129.41C85.8354 129.208 85.9819 129.034 86.1626 128.886L86.3971 128.962C86.1868 128.98 85.9844 128.953 85.79 128.883C85.5975 128.819 85.4224 128.71 85.2649 128.558C85.1093 128.412 84.9894 128.219 84.9052 127.979C84.8245 127.77 84.755 127.606 84.6967 127.485C84.6383 127.364 84.5798 127.272 84.521 127.208C84.4641 127.15 84.3975 127.112 84.3212 127.092C84.2239 127.067 84.1498 127.014 84.0988 126.936C84.042 126.859 84.0293 126.771 84.0606 126.672C84.0783 126.609 84.115 126.555 84.1707 126.512C84.2283 126.474 84.2897 126.448 84.3548 126.433C84.4199 126.418 84.4801 126.418 84.5354 126.431C84.6441 126.453 84.7575 126.499 84.8755 126.569C84.9953 126.644 85.1148 126.767 85.234 126.938C85.3531 127.109 85.4659 127.359 85.5724 127.686C85.6322 127.87 85.7105 128.013 85.8072 128.115C85.9039 128.217 86.0132 128.29 86.1352 128.332C86.2572 128.375 86.3832 128.392 86.5133 128.381C86.6433 128.371 86.7715 128.345 86.898 128.304L88.8204 127.679L88.7674 127.868L88.0359 125.617C88.0041 125.52 88.0058 125.427 88.0408 125.339C88.0759 125.252 88.1423 125.192 88.24 125.16ZM89.0222 128.299L86.9101 128.986C86.7472 129.052 86.6107 129.16 86.5006 129.31C86.3848 129.462 86.3109 129.645 86.2787 129.859C86.2427 130.08 86.2629 130.309 86.3395 130.544C86.4386 130.849 86.6185 131.07 86.8793 131.208C87.1344 131.347 87.4084 131.369 87.7015 131.274L89.7361 130.612L89.7203 130.799L88.8683 128.178L89.0222 128.299Z" fill="#FEFEEF"/>
<path opacity="0.8" d="M78.5993 127.644C79.0391 127.562 79.4374 127.556 79.7944 127.625C80.1514 127.694 80.5108 127.843 80.8726 128.071C80.9219 128.105 80.9658 128.143 81.0043 128.185C81.038 128.234 81.0603 128.288 81.0713 128.348C81.0889 128.443 81.0716 128.532 81.0195 128.615C80.9625 128.706 80.8835 128.76 80.7824 128.779C80.6993 128.794 80.6189 128.775 80.5415 128.722C80.2679 128.539 79.9864 128.413 79.697 128.344C79.4016 128.276 79.0846 128.273 78.7459 128.336C78.4844 128.384 78.2574 128.469 78.0648 128.591C77.8663 128.714 77.7184 128.861 77.6211 129.032C77.5239 129.204 77.4934 129.388 77.5297 129.584C77.5796 129.821 77.6872 130.004 77.8525 130.133C78.0119 130.263 78.2197 130.357 78.4761 130.414C78.7277 130.478 79.0146 130.517 79.3368 130.531C79.6222 130.546 79.8896 130.579 80.139 130.631C80.3824 130.685 80.5999 130.764 80.7916 130.87C80.9844 130.982 81.1465 131.127 81.2779 131.305C81.4044 131.491 81.4925 131.717 81.542 131.985C81.6047 132.324 81.5706 132.637 81.4396 132.926C81.3087 133.214 81.0984 133.456 80.8087 133.651C80.5202 133.852 80.1709 133.99 79.7609 134.066C79.3984 134.133 79.0457 134.137 78.7028 134.078C78.354 134.02 78.0623 133.905 77.8277 133.733C77.6879 133.642 77.6081 133.543 77.5883 133.436C77.5718 133.347 77.5951 133.257 77.658 133.165C77.7161 133.081 77.7927 133.029 77.8878 133.012C77.9531 133 78.017 133.013 78.0792 133.05C78.2012 133.144 78.3476 133.222 78.5186 133.282C78.6896 133.343 78.8722 133.383 79.0663 133.402C79.2604 133.421 79.4496 133.414 79.6338 133.38C79.9072 133.329 80.1401 133.243 80.3327 133.122C80.5264 133.006 80.6689 132.863 80.7602 132.692C80.8467 132.528 80.8713 132.346 80.8339 132.144C80.7921 131.918 80.692 131.743 80.5338 131.618C80.3767 131.5 80.1793 131.414 79.9419 131.359C79.7055 131.311 79.447 131.276 79.1664 131.254C78.862 131.237 78.5792 131.203 78.318 131.153C78.0519 131.11 77.8171 131.037 77.6135 130.933C77.4099 130.829 77.2408 130.679 77.1061 130.483C76.9666 130.294 76.8682 130.045 76.811 129.736C76.7505 129.409 76.7887 129.101 76.9256 128.811C77.0625 128.521 77.2776 128.273 77.571 128.065C77.8595 127.864 78.2023 127.723 78.5993 127.644Z" fill="#FEFEEF"/>
<path opacity="0.8" d="M75.6078 134.623L72.3966 134.943C72.2944 134.953 72.2039 134.929 72.1251 134.87C72.0464 134.811 72.0019 134.73 71.9917 134.628C71.9815 134.526 72.0092 134.438 72.0748 134.365C72.141 134.297 72.2252 134.259 72.3274 134.248L75.2319 133.959L75.166 134.12L74.9387 131.838L75.0387 131.928L72.5311 132.178C72.4289 132.188 72.3384 132.164 72.2596 132.105C72.1809 132.046 72.1364 131.966 72.1262 131.863C72.116 131.761 72.1437 131.673 72.2093 131.6C72.2755 131.533 72.3597 131.494 72.4619 131.484L74.9425 131.237L74.8874 131.324L74.6546 128.988L74.7151 129.046L71.8376 129.332C71.7353 129.342 71.6446 129.315 71.5652 129.25C71.4858 129.185 71.4417 129.108 71.4327 129.017C71.4225 128.915 71.4502 128.827 71.5158 128.754C71.5813 128.681 71.6652 128.639 71.7675 128.629L74.9787 128.309C75.0809 128.299 75.1717 128.326 75.2511 128.391C75.3244 128.456 75.3662 128.54 75.3764 128.643L75.9327 134.226C75.9429 134.328 75.9182 134.416 75.8586 134.489C75.7937 134.568 75.7101 134.613 75.6078 134.623Z" fill="#FEFEEF"/>
<path opacity="0.8" d="M69.8413 128.73C69.9561 128.729 70.0562 128.765 70.1414 128.836C70.2205 128.908 70.2605 128.996 70.2614 129.098L70.3074 134.709C70.3082 134.812 70.2757 134.897 70.2097 134.964C70.1378 135.037 70.0505 135.074 69.9478 135.075L67.4459 135.095C67.1075 135.098 66.8017 135.022 66.5284 134.867C66.2553 134.718 66.039 134.509 65.8796 134.238C65.7143 133.973 65.6302 133.666 65.6273 133.315C65.6252 133.062 65.6716 132.822 65.7665 132.598C65.8614 132.38 65.9928 132.188 66.1606 132.024C66.3286 131.865 66.5209 131.743 66.7378 131.656L66.9384 131.8C66.7325 131.753 66.5475 131.667 66.3833 131.541C66.2192 131.422 66.0849 131.266 65.9806 131.073C65.8763 130.887 65.8201 130.667 65.812 130.413C65.7981 130.189 65.7815 130.011 65.7623 129.878C65.7431 129.746 65.715 129.64 65.6781 129.562C65.6413 129.49 65.5894 129.433 65.5226 129.391C65.4375 129.337 65.3826 129.265 65.3576 129.175C65.3267 129.084 65.3411 128.997 65.4008 128.911C65.4366 128.857 65.4877 128.817 65.5539 128.792C65.6203 128.774 65.6867 128.767 65.7532 128.773C65.8197 128.778 65.8773 128.796 65.9259 128.826C66.023 128.879 66.1173 128.957 66.2088 129.059C66.3004 129.167 66.3772 129.32 66.4392 129.519C66.5013 129.718 66.5338 129.99 66.5366 130.334C66.5382 130.528 66.5697 130.688 66.6312 130.814C66.6926 130.941 66.7751 131.043 66.8784 131.12C66.9818 131.198 67.0971 131.252 67.2242 131.281C67.3514 131.31 67.4814 131.324 67.6144 131.323L69.6358 131.306L69.5284 131.47L69.509 129.104C69.5081 129.002 69.5376 128.914 69.5975 128.841C69.6573 128.768 69.7386 128.731 69.8413 128.73ZM69.6412 131.959L67.4203 131.977C67.2452 131.991 67.0825 132.052 66.9323 132.162C66.7761 132.272 66.6504 132.425 66.5553 132.619C66.4542 132.819 66.4047 133.043 66.4067 133.291C66.4094 133.611 66.5143 133.876 66.7215 134.086C66.9226 134.296 67.1773 134.4 67.4855 134.397L69.6248 134.379L69.5537 134.552L69.5311 131.797L69.6412 131.959Z" fill="#FEFEEF"/>
<path opacity="0.8" d="M59.1949 134.627C59.0926 134.618 59.0082 134.577 58.9419 134.504C58.8749 134.438 58.846 134.353 58.8551 134.251C58.8593 134.203 58.8762 134.15 58.9056 134.092L61.7572 128.711C61.8003 128.636 61.8568 128.58 61.9267 128.544C61.9901 128.513 62.0581 128.501 62.1303 128.507C62.196 128.519 62.2572 128.546 62.3142 128.587C62.3707 128.635 62.4108 128.696 62.4345 128.771L64.2882 134.559C64.2981 134.584 64.305 134.609 64.3089 134.634C64.3122 134.664 64.3126 134.695 64.3099 134.725C64.2998 134.839 64.2528 134.923 64.1692 134.976C64.0791 135.035 63.995 135.061 63.9167 135.054C63.7542 135.04 63.6442 134.945 63.5869 134.77L61.8845 129.432L62.0922 129.45L59.549 134.431C59.4634 134.575 59.3454 134.64 59.1949 134.627Z" fill="#FEFEEF"/>
<path opacity="0.8" d="M57.5565 128.33C57.5729 128.228 57.6258 128.148 57.7152 128.088C57.7986 128.028 57.8911 128.006 57.9928 128.023C58.1065 128.041 58.1905 128.092 58.2447 128.174C58.2989 128.256 58.3178 128.349 58.3013 128.45L57.405 133.996C57.3876 134.104 57.3377 134.185 57.2552 134.239C57.1718 134.299 57.0763 134.321 56.9686 134.303C56.8669 134.287 56.7859 134.237 56.7257 134.154C56.6646 134.076 56.6427 133.984 56.6601 133.876L57.5565 128.33Z" fill="#FEFEEF"/>
<path opacity="0.8" d="M50.2705 132.545C50.1818 132.469 50.1434 132.377 50.1555 132.267C50.1617 132.157 50.2103 132.065 50.3013 131.992C50.3719 131.927 50.4493 131.901 50.5335 131.914C50.6178 131.926 50.6967 131.962 50.7703 132.022C50.9392 132.184 51.1288 132.324 51.3392 132.44C51.5483 132.561 51.7773 132.649 52.026 132.705C52.3754 132.783 52.7092 132.794 53.0273 132.735C53.3441 132.682 53.6337 132.568 53.8961 132.397C54.1585 132.226 54.3828 132.003 54.5691 131.728C54.7554 131.452 54.8897 131.13 54.9721 130.763C55.0599 130.372 55.0761 130.009 55.0209 129.673C54.9657 129.337 54.856 129.036 54.692 128.769C54.5208 128.507 54.3056 128.287 54.0466 128.11C53.7817 127.933 53.4804 127.806 53.1428 127.73C52.9 127.676 52.6587 127.657 52.4191 127.671C52.1794 127.686 51.9449 127.733 51.7156 127.812C51.6234 127.835 51.5372 127.83 51.4569 127.8C51.3766 127.769 51.3149 127.713 51.2716 127.628C51.2218 127.518 51.2178 127.411 51.2595 127.308C51.2998 127.212 51.3727 127.15 51.4781 127.124C51.6461 127.069 51.8335 127.024 52.0403 126.989C52.2458 126.961 52.4568 126.948 52.6734 126.953C52.8841 126.957 53.0931 126.983 53.3004 127.029C53.7268 127.125 54.1129 127.289 54.4587 127.522C54.8045 127.755 55.0912 128.044 55.319 128.388C55.5467 128.731 55.7025 129.118 55.7865 129.547C55.8633 129.981 55.8465 130.444 55.7361 130.935C55.6324 131.397 55.4574 131.802 55.2111 132.151C54.9648 132.5 54.6675 132.786 54.3194 133.006C53.9654 133.225 53.581 133.371 53.166 133.446C52.7452 133.52 52.3126 133.508 51.8685 133.408C51.5605 133.339 51.2707 133.23 50.9991 133.082C50.7216 132.933 50.4787 132.754 50.2705 132.545Z" fill="#FEFEEF"/>
<path opacity="0.8" d="M48.1538 132.268L45.0837 131.274C44.986 131.242 44.9129 131.183 44.8644 131.098C44.8159 131.012 44.8074 130.921 44.8391 130.823C44.8708 130.725 44.9313 130.656 45.0208 130.615C45.1084 130.58 45.2011 130.578 45.2988 130.61L48.0757 131.509L47.9506 131.631L48.6574 129.449L48.7129 129.572L46.3155 128.795C46.2178 128.763 46.1446 128.705 46.0961 128.619C46.0476 128.534 46.0392 128.442 46.0709 128.344C46.1025 128.246 46.1631 128.177 46.2526 128.136C46.3402 128.101 46.4329 128.099 46.5306 128.131L48.9021 128.899L48.8166 128.957L49.5402 126.724L49.5724 126.801L46.8214 125.91C46.7237 125.878 46.6515 125.816 46.6048 125.725C46.5582 125.634 46.5488 125.545 46.5768 125.459C46.6084 125.361 46.669 125.292 46.7585 125.251C46.848 125.21 46.9416 125.205 47.0393 125.237L50.1094 126.232C50.2071 126.263 50.2793 126.325 50.3259 126.416C50.3668 126.506 50.3715 126.599 50.3398 126.697L48.6105 132.035C48.5788 132.133 48.5211 132.203 48.4374 132.246C48.3461 132.292 48.2515 132.3 48.1538 132.268Z" fill="#FEFEEF"/>
<path opacity="0.8" d="M43.9303 123.904C44.3426 124.077 44.6791 124.29 44.9397 124.544C45.2003 124.797 45.4193 125.119 45.5968 125.508C45.6195 125.563 45.6353 125.619 45.6445 125.675C45.6457 125.735 45.6347 125.792 45.6113 125.848C45.5738 125.937 45.5105 126.002 45.4211 126.044C45.3238 126.088 45.2278 126.09 45.1331 126.05C45.0551 126.018 44.9983 125.958 44.9627 125.871C44.8343 125.568 44.6681 125.308 44.4641 125.091C44.2545 124.872 43.991 124.696 43.6733 124.563C43.4281 124.46 43.1917 124.406 42.9639 124.403C42.7305 124.396 42.5261 124.438 42.3506 124.529C42.1751 124.619 42.0488 124.756 41.9716 124.94C41.8836 125.165 41.8733 125.377 41.9406 125.576C42.0024 125.772 42.1249 125.964 42.308 126.153C42.4832 126.344 42.7017 126.534 42.9634 126.723C43.194 126.891 43.3992 127.066 43.5791 127.246C43.7535 127.424 43.8917 127.61 43.994 127.804C44.0939 128.003 44.1498 128.213 44.1618 128.435C44.1658 128.659 44.1152 128.897 44.01 129.148C43.8766 129.465 43.6761 129.709 43.4084 129.878C43.1406 130.048 42.8322 130.135 42.4831 130.139C42.1316 130.149 41.7636 130.073 41.3791 129.911C41.0392 129.769 40.7422 129.578 40.488 129.341C40.2283 129.101 40.0475 128.844 39.9455 128.572C39.8785 128.42 39.866 128.293 39.9081 128.193C39.9432 128.109 40.0122 128.046 40.115 128.004C40.2099 127.966 40.302 127.965 40.3911 128.002C40.4524 128.028 40.4988 128.074 40.5302 128.139C40.5805 128.285 40.6606 128.43 40.7704 128.574C40.8802 128.719 41.0109 128.852 41.1626 128.975C41.3143 129.098 41.4765 129.195 41.6493 129.268C41.9056 129.375 42.1476 129.431 42.3754 129.435C42.6009 129.444 42.7985 129.403 42.9685 129.31C43.1305 129.221 43.2512 129.082 43.3308 128.892C43.4196 128.68 43.432 128.479 43.3679 128.288C43.3014 128.103 43.1838 127.923 43.0151 127.747C42.844 127.577 42.6471 127.406 42.4244 127.234C42.1794 127.052 41.9614 126.869 41.7704 126.684C41.5714 126.502 41.4153 126.312 41.3019 126.114C41.1885 125.915 41.1294 125.697 41.1244 125.459C41.1115 125.224 41.1659 124.962 41.2875 124.672C41.4162 124.366 41.6172 124.129 41.8905 123.962C42.1638 123.795 42.4802 123.705 42.8395 123.692C43.191 123.682 43.5546 123.753 43.9303 123.904Z" fill="#FEFEEF"/>
<path opacity="0.8" d="M37.3762 123.602C37.4653 123.653 37.5246 123.726 37.5543 123.819C37.5757 123.915 37.5593 124.011 37.505 124.105C37.4538 124.194 37.3827 124.251 37.292 124.275C37.196 124.296 37.1034 124.282 37.0144 124.23L35.4275 123.317C35.3384 123.265 35.2832 123.192 35.2618 123.096C35.2351 122.997 35.2474 122.903 35.2987 122.814C35.3499 122.725 35.4236 122.669 35.5196 122.648C35.6104 122.624 35.7003 122.637 35.7893 122.688L37.3762 123.602Z" fill="#FEFEEF"/>
</g>
</svg>
