<svg width="240" height="59" viewBox="0 0 240 59" fill="none" xmlns="http://www.w3.org/2000/svg">
<path d="M137.666 52.6084L134.869 52.5909C133.7 52.5909 132.774 52.5967 132.089 52.6084V54.8287C132.089 55.2599 132.113 55.8893 132.16 56.7168C132.219 57.5443 132.284 58.0921 132.355 58.3601V58.4825H130V58.3601C130.177 57.6841 130.266 56.5012 130.266 54.8112V49.9161C130.266 48.2261 130.177 47.0431 130 46.3671V46.2448H132.355V46.3671C132.284 46.6352 132.219 47.1888 132.16 48.028C132.113 48.8555 132.089 49.4848 132.089 49.9161V51.507H137.666V49.9161C137.666 49.4848 137.636 48.8555 137.577 48.028C137.53 47.1888 137.471 46.6352 137.4 46.3671V46.2448H139.755V46.3671C139.578 47.0431 139.489 48.2261 139.489 49.9161V54.8112C139.489 56.5012 139.578 57.6841 139.755 58.3601V58.4825H137.4V58.3601C137.471 58.0921 137.53 57.5443 137.577 56.7168C137.636 55.8893 137.666 55.2599 137.666 54.8287V52.6084Z" fill="#252729"/>
<path d="M148.281 54.2168C147.809 54.2051 147.142 54.1993 146.28 54.1993C145.419 54.1993 144.764 54.2051 144.315 54.2168C143.985 55.5221 143.778 56.3904 143.696 56.8217C143.625 57.2413 143.589 57.6958 143.589 58.1853V58.4825H141.182V58.3077C141.713 57.8998 142.421 56.2855 143.306 53.465C144.203 50.6329 144.781 48.7797 145.041 47.9056C145.313 47.0315 145.46 46.472 145.484 46.2273L147.555 46.0175C147.555 46.4254 147.927 47.7016 148.67 49.8462C149.414 51.979 150.01 53.6282 150.458 54.7937C150.919 55.9592 151.273 56.7692 151.521 57.2238C151.769 57.6783 152.046 58.0396 152.353 58.3077V58.4825H149.379V58.1853C149.379 57.7657 149.32 57.3753 149.201 57.014C149.095 56.6527 149.024 56.4196 148.989 56.3147L148.281 54.2168ZM146.227 47.5385C145.991 48.1562 145.425 50.0501 144.528 53.2203H147.98C147.767 52.5793 147.455 51.5711 147.042 50.1958C146.629 48.8205 146.357 47.9347 146.227 47.5385Z" fill="#252729"/>
<path d="M155.809 50.0909V54.8112C155.809 55.2424 155.833 55.8776 155.88 56.7168C155.939 57.5443 156.004 58.0921 156.075 58.3601V58.4825H153.72V58.3601C153.897 57.6841 153.986 56.4429 153.986 54.6364V49.9161C153.986 48.2261 153.897 47.0431 153.72 46.3671V46.2448H156.075V46.3671C156.004 46.6352 155.939 47.2121 155.88 48.0979C155.833 48.9837 155.809 49.648 155.809 50.0909Z" fill="#252729"/>
<path d="M161.061 46.2797L163.699 46.2448C166.531 46.2448 167.948 47.2529 167.948 49.2692C167.948 50.2483 167.617 51.0699 166.956 51.7343C166.307 52.3869 165.439 52.7774 164.354 52.9056L166.39 55.4406C167.239 56.5012 167.877 57.2238 168.302 57.6084C168.726 57.993 169.092 58.2261 169.399 58.3077V58.4825H166.496C166.272 58.1212 165.917 57.6026 165.434 56.9266L162.566 52.958L162.052 52.9231V55.6678C162.052 56.8916 162.141 57.789 162.318 58.3601V58.4825H159.892V58.3601C160.117 57.7657 160.229 56.9324 160.229 55.8601V49.0769C160.229 47.8648 160.14 46.9615 159.963 46.3671V46.2448C159.963 46.2448 160.329 46.2564 161.061 46.2797ZM163.468 47.1364C162.902 47.1364 162.448 47.1597 162.105 47.2063C162.07 47.4627 162.052 49.0828 162.052 52.0664C162.477 52.1131 162.884 52.1364 163.274 52.1364C164.265 52.1364 164.961 51.9149 165.363 51.472C165.776 51.0175 165.982 50.3531 165.982 49.479C165.982 48.5932 165.794 47.9814 165.416 47.6434C165.038 47.3054 164.389 47.1364 163.468 47.1364Z" fill="#252729"/>
<path d="M176.361 47.4336C176.113 47.7483 175.989 48.1329 175.989 48.5874C175.989 49.0303 176.101 49.3974 176.326 49.6888C176.55 49.9802 176.845 50.2249 177.211 50.4231C177.577 50.6096 177.978 50.796 178.415 50.9825C178.851 51.1573 179.288 51.3555 179.725 51.5769C180.161 51.7867 180.563 52.0373 180.928 52.3287C181.294 52.6084 181.589 52.9872 181.814 53.465C182.038 53.9312 182.15 54.4732 182.15 55.0909C182.15 56.2681 181.766 57.1597 180.999 57.7657C180.232 58.3718 179.182 58.6748 177.848 58.6748C176.514 58.6748 175.316 58.3019 174.254 57.5559C174.29 56.7867 174.502 56.1166 174.892 55.5455C175.364 56.1049 175.936 56.5653 176.609 56.9266C177.282 57.2879 177.925 57.4685 178.538 57.4685C179.152 57.4685 179.677 57.3345 180.114 57.0664C180.409 56.7168 180.557 56.2564 180.557 55.6853C180.557 55.1142 180.403 54.648 180.096 54.2867C179.801 53.9254 179.43 53.6457 178.981 53.4476C178.544 53.2378 178.06 53.0105 177.529 52.7657C177.01 52.5093 176.526 52.2529 176.078 51.9965C175.641 51.7401 175.269 51.373 174.962 50.8951C174.667 50.4172 174.52 49.8578 174.52 49.2168C174.52 48.1445 174.886 47.3462 175.617 46.8217C176.361 46.2972 177.287 46.035 178.397 46.035C179.518 46.035 180.663 46.303 181.831 46.8392C181.702 47.5268 181.489 48.1795 181.194 48.7972C180.71 48.3193 180.15 47.9289 179.512 47.6259C178.887 47.3112 178.291 47.1538 177.724 47.1538C177.158 47.1538 176.703 47.2471 176.361 47.4336Z" fill="#252729"/>
<path d="M189.86 54.2168C189.388 54.2051 188.721 54.1993 187.86 54.1993C186.998 54.1993 186.343 54.2051 185.895 54.2168C185.564 55.5221 185.358 56.3904 185.275 56.8217C185.204 57.2413 185.169 57.6958 185.169 58.1853V58.4825H182.761V58.3077C183.292 57.8998 184.001 56.2855 184.886 53.465C185.783 50.6329 186.361 48.7797 186.621 47.9056C186.892 47.0315 187.04 46.472 187.063 46.2273L189.135 46.0175C189.135 46.4254 189.506 47.7016 190.25 49.8462C190.993 51.979 191.589 53.6282 192.038 54.7937C192.498 55.9592 192.852 56.7692 193.1 57.2238C193.348 57.6783 193.625 58.0396 193.932 58.3077V58.4825H190.958V58.1853C190.958 57.7657 190.899 57.3753 190.781 57.014C190.675 56.6527 190.604 56.4196 190.569 56.3147L189.86 54.2168ZM187.807 47.5385C187.571 48.1562 187.004 50.0501 186.107 53.2203H189.559C189.347 52.5793 189.034 51.5711 188.621 50.1958C188.208 48.8205 187.937 47.9347 187.807 47.5385Z" fill="#252729"/>
<path d="M195.3 58.4825V58.3601C195.477 57.6841 195.565 56.5012 195.565 54.8112V49.9161C195.565 48.2261 195.477 47.0431 195.3 46.3671V46.2448H197.654V46.3671C197.584 46.6469 197.519 47.2121 197.46 48.0629C197.412 48.9021 197.389 49.5373 197.389 49.9685V54.8811C197.389 55.6503 197.424 56.4837 197.495 57.3811C197.755 57.4161 198.227 57.4336 198.911 57.4336C200.717 57.4336 202.039 57.2471 202.877 56.8741H203.001L202.682 58.4825H195.3Z" fill="#252729"/>
<path d="M208.649 58.6923C206.95 58.6923 205.592 58.1037 204.577 56.9266C203.574 55.7494 203.073 54.2634 203.073 52.4685C203.073 50.662 203.645 49.1352 204.79 47.8881C205.935 46.6294 207.41 46 209.216 46C210.384 46 211.387 46.2855 212.225 46.8566C213.854 47.9639 214.668 49.6946 214.668 52.049C214.668 53.972 214.09 55.5629 212.933 56.8217C211.789 58.0688 210.361 58.6923 208.649 58.6923ZM212.668 52.521C212.668 51.0291 212.385 49.8112 211.818 48.8671C211.193 47.8065 210.142 47.2762 208.667 47.2762C207.628 47.2762 206.814 47.4569 206.224 47.8182C205.882 48.2378 205.604 48.8322 205.392 49.6014C205.179 50.359 205.073 51.2156 205.073 52.1713C205.073 53.1154 205.197 53.972 205.445 54.7413C205.693 55.4988 206.135 56.1399 206.773 56.6643C207.422 57.1888 208.213 57.451 209.145 57.451C210.089 57.451 210.868 57.2587 211.482 56.8741C212.273 56 212.668 54.549 212.668 52.521Z" fill="#252729"/>
<path d="M221.979 58.6923C220.279 58.6923 218.922 58.1037 217.907 56.9266C216.904 55.7494 216.402 54.2634 216.402 52.4685C216.402 50.662 216.975 49.1352 218.119 47.8881C219.264 46.6294 220.74 46 222.545 46C223.714 46 224.717 46.2855 225.555 46.8566C227.184 47.9639 227.998 49.6946 227.998 52.049C227.998 53.972 227.42 55.5629 226.263 56.8217C225.118 58.0688 223.69 58.6923 221.979 58.6923ZM225.998 52.521C225.998 51.0291 225.714 49.8112 225.148 48.8671C224.522 47.8065 223.472 47.2762 221.997 47.2762C220.958 47.2762 220.144 47.4569 219.553 47.8182C219.211 48.2378 218.934 48.8322 218.721 49.6014C218.509 50.359 218.403 51.2156 218.403 52.1713C218.403 53.1154 218.527 53.972 218.774 54.7413C219.022 55.4988 219.465 56.1399 220.102 56.6643C220.751 57.1888 221.542 57.451 222.475 57.451C223.419 57.451 224.198 57.2587 224.811 56.8741C225.602 56 225.998 54.549 225.998 52.521Z" fill="#252729"/>
<path d="M231.927 58.4825H230.139V58.3601C230.316 57.5909 230.405 56.2389 230.405 54.3042V50.3881C230.405 48.5932 230.328 47.2529 230.174 46.3671V46.2448L232.317 46.0874L238.513 55.5979V49.9161C238.513 49.2984 238.477 48.6282 238.407 47.9056C238.336 47.1713 238.247 46.6585 238.141 46.3671V46.2448H240V46.3671C239.823 47.1364 239.734 48.4883 239.734 50.4231V54.8112C239.734 55.5105 239.758 56.2622 239.805 57.0664C239.864 57.859 239.917 58.331 239.965 58.4825L238.3 58.6573L231.608 48.4301V54.8112C231.608 56.3613 231.715 57.5443 231.927 58.3601V58.4825Z" fill="#252729"/>
<path d="M3.71941 2.39385L10.7797 2.29908C18.3612 2.29908 22.1519 5.03158 22.1519 10.4966C22.1519 13.1501 21.2674 15.3772 19.4984 17.1778C17.761 18.9468 15.4391 20.005 12.5329 20.3525L17.9821 27.2232C20.2565 30.0979 21.9624 32.0564 23.0996 33.0989C24.2368 34.1413 25.2161 34.7731 26.0374 34.9943V35.4681H18.2664C17.6662 34.4888 16.7185 33.0831 15.4233 31.2509L7.74707 20.4947L6.37293 20.3999V27.8392C6.37293 31.1561 6.60985 33.5885 7.08369 35.1364V35.4681H0.592041V35.1364C1.19224 33.5254 1.49234 31.2667 1.49234 28.3605V9.97534C1.49234 6.69003 1.25542 4.24184 0.781579 2.63078V2.29908C0.781579 2.29908 1.76085 2.33067 3.71941 2.39385ZM10.1637 4.71568C8.64737 4.71568 7.43118 4.77886 6.51508 4.90522C6.42031 5.60019 6.37293 9.99114 6.37293 18.0781C7.51015 18.2044 8.59999 18.2676 9.64245 18.2676C12.296 18.2676 14.1597 17.6674 15.2338 16.467C16.3394 15.235 16.8922 13.4344 16.8922 11.0652C16.8922 8.66438 16.3868 7.00593 15.3759 6.08983C14.3651 5.17373 12.6277 4.71568 10.1637 4.71568Z" fill="#252729"/>
<path d="M40.5415 25.9912C39.2463 25.5174 37.7458 25.2805 36.0399 25.2805C34.3657 25.2805 33.1495 25.549 32.3914 26.086C31.9175 26.8126 31.6806 27.7919 31.6806 29.0238C31.6806 30.2242 32.0123 31.1719 32.6757 31.8669C33.339 32.5619 34.1604 32.9094 35.1396 32.9094C36.1505 32.9094 37.1772 32.6566 38.2196 32.1512C39.2621 31.6142 40.036 31.0456 40.5415 30.4454V25.9912ZM41.2996 32.8146C39.3726 34.9311 37.193 35.9893 34.7606 35.9893C32.3598 35.9893 30.4644 35.4681 29.0745 34.4257C27.7161 33.3832 27.0369 31.709 27.0369 29.4029C27.0369 27.0653 27.8425 25.391 29.4535 24.3802C31.0962 23.3693 33.4022 22.8639 36.3716 22.8639L40.5415 23.006V20.3051C40.5415 18.6309 40.1308 17.2725 39.3095 16.2301C38.4881 15.1876 37.2403 14.6664 35.5661 14.6664C34.3341 14.698 32.3598 15.8826 29.6431 18.2202C28.727 17.0514 28.0794 15.5351 27.7003 13.6713C30.8277 12.6605 33.7023 12.155 36.3243 12.155C38.9462 12.155 41.0469 12.8342 42.6264 14.1925C44.2058 15.5509 44.9956 17.4779 44.9956 19.9734V27.934C45.0272 29.3555 45.2483 30.6823 45.659 31.9143C46.1012 33.1147 46.6698 33.9518 47.3648 34.4257L47.4596 34.8995L42.3894 36.1315C41.9788 35.1206 41.6155 34.015 41.2996 32.8146Z" fill="#252729"/>
<path d="M58.3535 30.1611C58.3535 31.8353 58.859 32.6724 59.8698 32.6724C60.7227 32.6724 62.1601 32.167 64.1818 31.1561L65.1769 32.8146C64.166 33.5096 62.9024 34.2203 61.3861 34.9469C59.8698 35.6419 58.4799 35.9893 57.2163 35.9893C55.9527 35.9893 55.084 35.5945 54.6102 34.8047C54.1363 34.015 53.8994 32.8778 53.8994 31.3931V15.4245L49.6348 15.6615L50.772 12.5815C51.3406 12.6447 52.3515 12.7078 53.8046 12.771C53.7414 11.1915 53.6467 9.77001 53.5203 8.50643L58.3535 7.27444V12.7236C60.0594 12.6605 62.3812 12.4709 65.319 12.155L63.9922 15.851C62.2864 15.5983 60.4068 15.4403 58.3535 15.3772V30.1611Z" fill="#252729"/>
<path d="M75.845 30.1611C75.845 31.8353 76.3504 32.6724 77.3613 32.6724C78.2142 32.6724 79.6515 32.167 81.6733 31.1561L82.6683 32.8146C81.6575 33.5096 80.3939 34.2203 78.8776 34.9469C77.3613 35.6419 75.9713 35.9893 74.7078 35.9893C73.4442 35.9893 72.5755 35.5945 72.1016 34.8047C71.6278 34.015 71.3909 32.8778 71.3909 31.3931V15.4245L67.1263 15.6615L68.2635 12.5815C68.8321 12.6447 69.843 12.7078 71.2961 12.771C71.2329 11.1915 71.1382 9.77001 71.0118 8.50643L75.845 7.27444V12.7236C77.5508 12.6605 79.8727 12.4709 82.8105 12.155L81.4837 15.851C79.7779 15.5983 77.8983 15.4403 75.845 15.3772V30.1611Z" fill="#252729"/>
<path d="M93.6208 35.4681H87.5082V34.8995C88.0452 33.32 88.3137 30.8244 88.3137 27.4128V7.65351C88.3137 5.12635 87.5872 3.1678 86.1341 1.77786V1.20924L92.6257 0.0720215L92.91 0.545864C92.8152 1.46196 92.7679 4.49456 92.7679 9.64366L92.8152 27.4128C92.8152 30.8244 93.0838 33.32 93.6208 34.8995V35.4681Z" fill="#252729"/>
<path d="M108.91 35.9893C105.593 35.9893 103.003 34.9627 101.139 32.9094C99.2755 30.856 98.3437 28.1551 98.3437 24.8066C98.3437 21.4266 99.3861 18.4729 101.471 15.9458C103.556 13.4186 106.146 12.155 109.242 12.155C114.897 12.155 117.724 15.6457 117.724 22.627L115.971 24.3328H103.366C103.366 26.9863 103.935 28.9765 105.072 30.3032C106.209 31.63 107.742 32.2934 109.669 32.2934C110.427 32.2934 111.501 32.0722 112.891 31.63C114.281 31.1561 115.513 30.6033 116.587 29.9715L117.771 31.7721C117.171 32.3723 115.86 33.2253 113.838 34.3309C111.848 35.4365 110.206 35.9893 108.91 35.9893ZM108.389 14.5242C107.062 14.5242 106.036 14.8243 105.309 15.4245C104.709 16.2459 104.235 17.2883 103.888 18.5519C103.54 19.8155 103.366 20.9211 103.366 21.8688L113.08 21.4897C113.08 16.8461 111.516 14.5242 108.389 14.5242Z" fill="#252729"/>
<path d="M127.302 15.1402C126.734 15.7088 126.449 16.4986 126.449 17.5095C126.449 18.4887 126.765 19.2627 127.397 19.8313C128.029 20.3683 128.818 20.7632 129.766 21.0159C130.745 21.2686 131.788 21.5845 132.893 21.9636C133.999 22.3427 135.026 22.7533 135.973 23.1956C136.953 23.6062 137.758 24.2854 138.39 25.2331C139.022 26.1808 139.338 27.3338 139.338 28.6922C139.338 31.093 138.453 32.9094 136.684 34.1413C134.915 35.3733 132.578 35.9893 129.671 35.9893C126.797 35.9893 124.238 35.247 121.995 33.7623C122.09 32.1512 122.564 30.7139 123.417 29.4503C126.26 32.0406 128.85 33.3358 131.188 33.3358C132.199 33.3358 133.099 33.1305 133.889 32.7198C134.647 32.0564 135.026 31.1719 135.026 30.0663C135.026 28.9291 134.584 28.0604 133.699 27.4602C132.846 26.8284 131.804 26.3387 130.572 25.9912C129.34 25.6438 128.108 25.2489 126.876 24.8066C125.644 24.3644 124.585 23.6694 123.701 22.7217C122.848 21.774 122.422 20.542 122.422 19.0257C122.422 16.8145 123.243 15.1244 124.886 13.9556C126.56 12.7552 128.66 12.155 131.188 12.155C133.715 12.155 136.195 12.692 138.627 13.7661C138.343 15.156 137.79 16.546 136.969 17.9359C134.726 15.6931 132.388 14.5716 129.956 14.5716C128.913 14.5716 128.029 14.7612 127.302 15.1402Z" fill="#252729"/>
<path d="M158.86 12.155C161.135 12.155 162.888 12.8816 164.12 14.3347C165.384 15.7878 166.015 17.8727 166.015 20.5894V27.4128C166.015 30.4138 166.489 32.9883 167.437 35.1364V35.4681H160.756V35.1364C161.293 33.5569 161.561 31.4562 161.561 28.8343V21.5845C161.561 19.7523 161.277 18.3782 160.708 17.4621C160.171 16.5144 159.066 16.0405 157.392 16.0405C155.717 16.0405 153.569 16.8461 150.947 18.4571V27.4128C150.947 30.477 151.405 33.0515 152.321 35.1364V35.4681H145.688V35.1364C146.225 33.5569 146.493 31.4562 146.493 28.8343V20.779C146.493 19.4206 146.209 18.0939 145.64 16.7987C145.103 15.4719 144.471 14.5874 143.745 14.1452L143.697 13.5766L149.905 12.1076L150.189 12.5815C150.442 13.7503 150.631 14.9349 150.758 16.1353C151.927 15.2192 152.827 14.54 153.459 14.0978C154.122 13.6555 154.959 13.2291 155.97 12.8184C156.981 12.3762 157.944 12.155 158.86 12.155Z" fill="#252729"/>
<path d="M185.702 25.9912C184.407 25.5174 182.907 25.2805 181.201 25.2805C179.526 25.2805 178.31 25.549 177.552 26.086C177.078 26.8126 176.841 27.7919 176.841 29.0238C176.841 30.2242 177.173 31.1719 177.836 31.8669C178.5 32.5619 179.321 32.9094 180.3 32.9094C181.311 32.9094 182.338 32.6566 183.38 32.1512C184.423 31.6142 185.197 31.0456 185.702 30.4454V25.9912ZM186.46 32.8146C184.533 34.9311 182.354 35.9893 179.921 35.9893C177.52 35.9893 175.625 35.4681 174.235 34.4257C172.877 33.3832 172.198 31.709 172.198 29.4029C172.198 27.0653 173.003 25.391 174.614 24.3802C176.257 23.3693 178.563 22.8639 181.532 22.8639L185.702 23.006V20.3051C185.702 18.6309 185.292 17.2725 184.47 16.2301C183.649 15.1876 182.401 14.6664 180.727 14.6664C179.495 14.698 177.52 15.8826 174.804 18.2202C173.888 17.0514 173.24 15.5351 172.861 13.6713C175.988 12.6605 178.863 12.155 181.485 12.155C184.107 12.155 186.208 12.8342 187.787 14.1925C189.367 15.5509 190.156 17.4779 190.156 19.9734V27.934C190.188 29.3555 190.409 30.6823 190.82 31.9143C191.262 33.1147 191.831 33.9518 192.526 34.4257L192.62 34.8995L187.55 36.1315C187.14 35.1206 186.776 34.015 186.46 32.8146Z" fill="#252729"/>
<path d="M203.704 35.4681H197.686V34.8995C198.223 33.32 198.492 30.8244 198.492 27.4128V7.65351C198.492 5.12635 197.765 3.1678 196.312 1.77786V1.20924L202.803 0.0720215L203.088 0.545864C202.993 1.46196 202.946 2.77293 202.946 4.47876V21.158L211.001 14.4295C211.885 13.7029 212.328 13.1343 212.328 12.7236H217.777V13.2922C217.177 13.3554 215.692 14.3347 213.323 16.2301L206.594 22.011L212.517 28.3605C214.697 30.7613 216.261 32.3723 217.208 33.1937C218.156 34.015 219.072 34.5836 219.957 34.8995V35.4681H212.896C212.896 35.4049 209.579 31.4246 202.946 23.5273V27.4128C202.946 30.9192 203.198 33.4148 203.704 34.8995V35.4681Z" fill="#252729"/>
<path d="M230.98 35.9893C227.664 35.9893 225.073 34.9627 223.209 32.9094C221.346 30.856 220.414 28.1551 220.414 24.8066C220.414 21.4266 221.456 18.4729 223.541 15.9458C225.626 13.4186 228.216 12.155 231.312 12.155C236.967 12.155 239.794 15.6457 239.794 22.627L238.041 24.3328H225.437C225.437 26.9863 226.005 28.9765 227.142 30.3032C228.28 31.63 229.812 32.2934 231.739 32.2934C232.497 32.2934 233.571 32.0722 234.961 31.63C236.351 31.1561 237.583 30.6033 238.657 29.9715L239.841 31.7721C239.241 32.3723 237.93 33.2253 235.908 34.3309C233.918 35.4365 232.276 35.9893 230.98 35.9893ZM230.459 14.5242C229.132 14.5242 228.106 14.8243 227.379 15.4245C226.779 16.2459 226.305 17.2883 225.958 18.5519C225.61 19.8155 225.437 20.9211 225.437 21.8688L235.15 21.4897C235.15 16.8461 233.587 14.5242 230.459 14.5242Z" fill="#252729"/>
</svg>
