<svg width="240" height="59" viewBox="0 0 240 59" fill="none" xmlns="http://www.w3.org/2000/svg">
<path d="M137.074 52.5364L134.276 52.5189C133.108 52.5189 132.182 52.5247 131.497 52.5364V54.7566C131.497 55.1879 131.521 55.8173 131.568 56.6448C131.627 57.4723 131.692 58.0201 131.763 58.2881V58.4105H129.408V58.2881C129.585 57.6121 129.674 56.4291 129.674 54.7392V49.8441C129.674 48.1541 129.585 46.9711 129.408 46.2951V46.1727H131.763V46.2951C131.692 46.5632 131.627 47.1168 131.568 47.956C131.521 48.7835 131.497 49.4128 131.497 49.8441V51.435H137.074V49.8441C137.074 49.4128 137.044 48.7835 136.985 47.956C136.938 47.1168 136.879 46.5632 136.808 46.2951V46.1727H139.163V46.2951C138.986 46.9711 138.897 48.1541 138.897 49.8441V54.7392C138.897 56.4291 138.986 57.6121 139.163 58.2881V58.4105H136.808V58.2881C136.879 58.0201 136.938 57.4723 136.985 56.6448C137.044 55.8173 137.074 55.1879 137.074 54.7566V52.5364Z" fill="#FEFEEF"/>
<path d="M147.689 54.1448C147.217 54.1331 146.55 54.1273 145.688 54.1273C144.827 54.1273 144.172 54.1331 143.723 54.1448C143.393 55.4501 143.186 56.3184 143.104 56.7497C143.033 57.1692 142.997 57.6238 142.997 58.1133V58.4105H140.59V58.2357C141.121 57.8277 141.829 56.2135 142.714 53.393C143.611 50.5608 144.189 48.7077 144.449 47.8336C144.721 46.9594 144.868 46.4 144.892 46.1553L146.963 45.9455C146.963 46.3534 147.335 47.6296 148.078 49.7741C148.822 51.907 149.418 53.5562 149.866 54.7217C150.327 55.8872 150.681 56.6972 150.929 57.1518C151.176 57.6063 151.454 57.9676 151.761 58.2357V58.4105H148.786V58.1133C148.786 57.6937 148.727 57.3033 148.609 56.942C148.503 56.5807 148.432 56.3476 148.397 56.2427L147.689 54.1448ZM145.635 47.4664C145.399 48.0842 144.833 49.9781 143.936 53.1483H147.388C147.175 52.5072 146.863 51.4991 146.45 50.1238C146.037 48.7485 145.765 47.8627 145.635 47.4664Z" fill="#FEFEEF"/>
<path d="M155.217 50.0189V54.7392C155.217 55.1704 155.241 55.8056 155.288 56.6448C155.347 57.4723 155.412 58.0201 155.483 58.2881V58.4105H153.128V58.2881C153.305 57.6121 153.394 56.3709 153.394 54.5643V49.8441C153.394 48.1541 153.305 46.9711 153.128 46.2951V46.1727H155.483V46.2951C155.412 46.5632 155.347 47.1401 155.288 48.0259C155.241 48.9117 155.217 49.576 155.217 50.0189Z" fill="#FEFEEF"/>
<path d="M160.469 46.2077L163.107 46.1727C165.939 46.1727 167.355 47.1809 167.355 49.1972C167.355 50.1762 167.025 50.9979 166.364 51.6622C165.715 52.3149 164.847 52.7054 163.762 52.8336L165.798 55.3685C166.647 56.4291 167.285 57.1518 167.71 57.5364C168.134 57.921 168.5 58.1541 168.807 58.2357V58.4105H165.904C165.68 58.0492 165.325 57.5305 164.842 56.8546L161.974 52.886L161.46 52.8511V55.5958C161.46 56.8196 161.549 57.717 161.726 58.2881V58.4105H159.3V58.2881C159.525 57.6937 159.637 56.8604 159.637 55.7881V49.0049C159.637 47.7928 159.548 46.8895 159.371 46.2951V46.1727C159.371 46.1727 159.737 46.1844 160.469 46.2077ZM162.876 47.0643C162.31 47.0643 161.856 47.0877 161.513 47.1343C161.478 47.3907 161.46 49.0107 161.46 51.9944C161.885 52.041 162.292 52.0643 162.682 52.0643C163.673 52.0643 164.369 51.8429 164.771 51.4C165.184 50.9455 165.39 50.2811 165.39 49.407C165.39 48.5212 165.202 47.9093 164.824 47.5713C164.446 47.2333 163.797 47.0643 162.876 47.0643Z" fill="#FEFEEF"/>
<path d="M175.769 47.3615C175.521 47.6762 175.397 48.0608 175.397 48.5154C175.397 48.9583 175.509 49.3254 175.733 49.6168C175.958 49.9082 176.253 50.1529 176.619 50.3511C176.985 50.5375 177.386 50.724 177.823 50.9105C178.259 51.0853 178.696 51.2835 179.133 51.5049C179.569 51.7147 179.971 51.9653 180.336 52.2566C180.702 52.5364 180.997 52.9152 181.222 53.393C181.446 53.8592 181.558 54.4012 181.558 55.0189C181.558 56.196 181.174 57.0877 180.407 57.6937C179.64 58.2998 178.59 58.6028 177.256 58.6028C175.922 58.6028 174.724 58.2298 173.662 57.4839C173.698 56.7147 173.91 56.0445 174.299 55.4734C174.772 56.0329 175.344 56.4932 176.017 56.8546C176.689 57.2159 177.333 57.3965 177.946 57.3965C178.56 57.3965 179.085 57.2625 179.522 56.9944C179.817 56.6448 179.965 56.1844 179.965 55.6133C179.965 55.0422 179.811 54.576 179.504 54.2147C179.209 53.8534 178.838 53.5737 178.389 53.3755C177.952 53.1657 177.468 52.9385 176.937 52.6937C176.418 52.4373 175.934 52.1809 175.486 51.9245C175.049 51.6681 174.677 51.3009 174.37 50.8231C174.075 50.3452 173.928 49.7858 173.928 49.1448C173.928 48.0725 174.294 47.2741 175.025 46.7497C175.769 46.2252 176.695 45.9629 177.805 45.9629C178.926 45.9629 180.071 46.231 181.239 46.7671C181.11 47.4548 180.897 48.1075 180.602 48.7252C180.118 48.2473 179.557 47.8569 178.92 47.5539C178.295 47.2392 177.699 47.0818 177.132 47.0818C176.566 47.0818 176.111 47.1751 175.769 47.3615Z" fill="#FEFEEF"/>
<path d="M189.268 54.1448C188.796 54.1331 188.129 54.1273 187.268 54.1273C186.406 54.1273 185.751 54.1331 185.303 54.1448C184.972 55.4501 184.766 56.3184 184.683 56.7497C184.612 57.1692 184.577 57.6238 184.577 58.1133V58.4105H182.169V58.2357C182.7 57.8277 183.408 56.2135 184.294 53.393C185.191 50.5608 185.769 48.7077 186.029 47.8336C186.3 46.9594 186.448 46.4 186.471 46.1553L188.543 45.9455C188.543 46.3534 188.914 47.6296 189.658 49.7741C190.401 51.907 190.997 53.5562 191.446 54.7217C191.906 55.8872 192.26 56.6972 192.508 57.1518C192.756 57.6063 193.033 57.9676 193.34 58.2357V58.4105H190.366V58.1133C190.366 57.6937 190.307 57.3033 190.189 56.942C190.083 56.5807 190.012 56.3476 189.977 56.2427L189.268 54.1448ZM187.215 47.4664C186.979 48.0842 186.412 49.9781 185.515 53.1483H188.967C188.755 52.5072 188.442 51.4991 188.029 50.1238C187.616 48.7485 187.345 47.8627 187.215 47.4664Z" fill="#FEFEEF"/>
<path d="M194.708 58.4105V58.2881C194.885 57.6121 194.973 56.4291 194.973 54.7392V49.8441C194.973 48.1541 194.885 46.9711 194.708 46.2951V46.1727H197.062V46.2951C196.992 46.5748 196.927 47.1401 196.868 47.9909C196.82 48.8301 196.797 49.4653 196.797 49.8965V54.8091C196.797 55.5783 196.832 56.4117 196.903 57.3091C197.163 57.3441 197.635 57.3615 198.319 57.3615C200.125 57.3615 201.447 57.1751 202.285 56.8021H202.409L202.09 58.4105H194.708Z" fill="#FEFEEF"/>
<path d="M208.057 58.6203C206.358 58.6203 205 58.0317 203.985 56.8546C202.982 55.6774 202.48 54.1914 202.48 52.3965C202.48 50.59 203.053 49.0632 204.198 47.8161C205.343 46.5573 206.818 45.928 208.624 45.928C209.792 45.928 210.795 46.2135 211.633 46.7846C213.262 47.8918 214.076 49.6226 214.076 51.9769C214.076 53.9 213.498 55.4909 212.341 56.7497C211.197 57.9967 209.769 58.6203 208.057 58.6203ZM212.076 52.449C212.076 50.9571 211.793 49.7392 211.226 48.7951C210.601 47.7345 209.55 47.2042 208.075 47.2042C207.036 47.2042 206.222 47.3849 205.632 47.7462C205.289 48.1657 205.012 48.7601 204.8 49.5294C204.587 50.287 204.481 51.1436 204.481 52.0993C204.481 53.0434 204.605 53.9 204.853 54.6692C205.101 55.4268 205.543 56.0678 206.181 56.5923C206.83 57.1168 207.62 57.379 208.553 57.379C209.497 57.379 210.276 57.1867 210.89 56.8021C211.681 55.928 212.076 54.4769 212.076 52.449Z" fill="#FEFEEF"/>
<path d="M221.387 58.6203C219.687 58.6203 218.33 58.0317 217.315 56.8546C216.312 55.6774 215.81 54.1914 215.81 52.3965C215.81 50.59 216.383 49.0632 217.527 47.8161C218.672 46.5573 220.148 45.928 221.953 45.928C223.122 45.928 224.125 46.2135 224.963 46.7846C226.592 47.8918 227.406 49.6226 227.406 51.9769C227.406 53.9 226.828 55.4909 225.671 56.7497C224.526 57.9967 223.098 58.6203 221.387 58.6203ZM225.406 52.449C225.406 50.9571 225.122 49.7392 224.556 48.7951C223.93 47.7345 222.88 47.2042 221.405 47.2042C220.366 47.2042 219.552 47.3849 218.961 47.7462C218.619 48.1657 218.342 48.7601 218.129 49.5294C217.917 50.287 217.811 51.1436 217.811 52.0993C217.811 53.0434 217.935 53.9 218.182 54.6692C218.43 55.4268 218.873 56.0678 219.51 56.5923C220.159 57.1168 220.95 57.379 221.883 57.379C222.827 57.379 223.606 57.1867 224.219 56.8021C225.01 55.928 225.406 54.4769 225.406 52.449Z" fill="#FEFEEF"/>
<path d="M231.335 58.4105H229.547V58.2881C229.724 57.5189 229.813 56.1669 229.813 54.2322V50.3161C229.813 48.5212 229.736 47.1809 229.582 46.2951V46.1727L231.725 46.0154L237.921 55.5259V49.8441C237.921 49.2263 237.885 48.5562 237.815 47.8336C237.744 47.0993 237.655 46.5865 237.549 46.2951V46.1727H239.408V46.2951C239.231 47.0643 239.142 48.4163 239.142 50.3511V54.7392C239.142 55.4385 239.166 56.1902 239.213 56.9944C239.272 57.787 239.325 58.259 239.373 58.4105L237.708 58.5853L231.016 48.358V54.7392C231.016 56.2893 231.123 57.4723 231.335 58.2881V58.4105Z" fill="#FEFEEF"/>
<path d="M3.12736 2.32183L10.1876 2.22706C17.7691 2.22706 21.5599 4.95956 21.5599 10.4246C21.5599 13.0781 20.6754 15.3051 18.9063 17.1057C17.1689 18.8748 14.8471 19.933 11.9408 20.2805L17.39 27.1512C19.6645 30.0259 21.3703 31.9844 22.5075 33.0269C23.6448 34.0693 24.624 34.7011 25.4454 34.9222V35.3961H17.6743C17.0741 34.4168 16.1265 33.0111 14.8313 31.1789L7.15503 20.4226L5.78089 20.3279V27.7672C5.78089 31.0841 6.01781 33.5165 6.49165 35.0644V35.3961H0V35.0644C0.600201 33.4533 0.900302 31.1947 0.900302 28.2884V9.90332C0.900302 6.61801 0.663381 4.16982 0.189538 2.55875V2.22706C0.189538 2.22706 1.16881 2.25865 3.12736 2.32183ZM9.57163 4.64366C8.05533 4.64366 6.83914 4.70684 5.92304 4.8332C5.82827 5.52817 5.78089 9.91912 5.78089 18.006C6.91811 18.1324 8.00795 18.1956 9.0504 18.1956C11.7039 18.1956 13.5677 17.5954 14.6418 16.395C15.7474 15.163 16.3002 13.3624 16.3002 10.9932C16.3002 8.59236 15.7948 6.93391 14.7839 6.01781C13.773 5.10171 12.0356 4.64366 9.57163 4.64366Z" fill="#FEFEEF"/>
<path d="M39.9494 25.9192C38.6542 25.4454 37.1537 25.2085 35.4479 25.2085C33.7737 25.2085 32.5575 25.477 31.7993 26.014C31.3255 26.7406 31.0885 27.7198 31.0885 28.9518C31.0885 30.1522 31.4202 31.0999 32.0836 31.7949C32.747 32.4899 33.5683 32.8373 34.5476 32.8373C35.5585 32.8373 36.5851 32.5846 37.6276 32.0792C38.67 31.5422 39.444 30.9736 39.9494 30.3734V25.9192ZM40.7076 32.7426C38.7806 34.8591 36.6009 35.9173 34.1685 35.9173C31.7677 35.9173 29.8724 35.3961 28.4824 34.3536C27.1241 33.3112 26.4449 31.6369 26.4449 29.3309C26.4449 26.9933 27.2504 25.319 28.8615 24.3082C30.5041 23.2973 32.8102 22.7919 35.7796 22.7919L39.9494 22.934V20.2331C39.9494 18.5589 39.5388 17.2005 38.7174 16.1581C37.8961 15.1156 36.6483 14.5944 34.9741 14.5944C33.7421 14.626 31.7677 15.8106 29.051 18.1482C28.1349 16.9794 27.4873 15.4631 27.1083 13.5993C30.2356 12.5884 33.1103 12.083 35.7322 12.083C38.3541 12.083 40.4548 12.7622 42.0343 14.1205C43.6138 15.4789 44.4035 17.4058 44.4035 19.9014V27.862C44.4351 29.2835 44.6563 30.6103 45.0669 31.8423C45.5092 33.0427 46.0778 33.8798 46.7728 34.3536L46.8675 34.8275L41.7974 36.0595C41.3867 35.0486 41.0235 33.943 40.7076 32.7426Z" fill="#FEFEEF"/>
<path d="M57.7615 30.089C57.7615 31.7633 58.2669 32.6004 59.2778 32.6004C60.1307 32.6004 61.568 32.095 63.5897 31.0841L64.5848 32.7426C63.574 33.4375 62.3104 34.1483 60.7941 34.8749C59.2778 35.5698 57.8878 35.9173 56.6243 35.9173C55.3607 35.9173 54.492 35.5224 54.0181 34.7327C53.5443 33.943 53.3074 32.8057 53.3074 31.321V15.3525L49.0428 15.5894L50.18 12.5095C50.7486 12.5726 51.7595 12.6358 53.2126 12.699C53.1494 11.1195 53.0546 9.69799 52.9283 8.43441L57.7615 7.20242V12.6516C59.4673 12.5884 61.7891 12.3989 64.727 12.083L63.4002 15.779C61.6944 15.5263 59.8148 15.3683 57.7615 15.3051V30.089Z" fill="#FEFEEF"/>
<path d="M75.253 30.089C75.253 31.7633 75.7584 32.6004 76.7692 32.6004C77.6222 32.6004 79.0595 32.095 81.0812 31.0841L82.0763 32.7426C81.0654 33.4375 79.8018 34.1483 78.2855 34.8749C76.7692 35.5698 75.3793 35.9173 74.1157 35.9173C72.8521 35.9173 71.9834 35.5224 71.5096 34.7327C71.0357 33.943 70.7988 32.8057 70.7988 31.321V15.3525L66.5342 15.5894L67.6715 12.5095C68.2401 12.5726 69.2509 12.6358 70.7041 12.699C70.6409 11.1195 70.5461 9.69799 70.4198 8.43441L75.253 7.20242V12.6516C76.9588 12.5884 79.2806 12.3989 82.2184 12.083L80.8917 15.779C79.1858 15.5263 77.3063 15.3683 75.253 15.3051V30.089Z" fill="#FEFEEF"/>
<path d="M93.0287 35.3961H86.9162V34.8275C87.4532 33.248 87.7217 30.7524 87.7217 27.3408V7.58149C87.7217 5.05433 86.9951 3.09578 85.542 1.70584V1.13722L92.0337 0L92.318 0.473843C92.2232 1.38994 92.1758 4.42254 92.1758 9.57163L92.2232 27.3408C92.2232 30.7524 92.4917 33.248 93.0287 34.8275V35.3961Z" fill="#FEFEEF"/>
<path d="M108.318 35.9173C105.001 35.9173 102.411 34.8907 100.547 32.8373C98.6835 30.784 97.7516 28.0831 97.7516 24.7346C97.7516 21.3545 98.7941 18.4009 100.879 15.8737C102.964 13.3466 105.554 12.083 108.65 12.083C114.305 12.083 117.132 15.5736 117.132 22.5549L115.379 24.2608H102.774C102.774 26.9143 103.343 28.9044 104.48 30.2312C105.617 31.558 107.149 32.2213 109.076 32.2213C109.835 32.2213 110.909 32.0002 112.299 31.558C113.689 31.0841 114.921 30.5313 115.995 29.8995L117.179 31.7001C116.579 32.3003 115.268 33.1532 113.246 34.2589C111.256 35.3645 109.613 35.9173 108.318 35.9173ZM107.797 14.4522C106.47 14.4522 105.444 14.7523 104.717 15.3525C104.117 16.1738 103.643 17.2163 103.296 18.4799C102.948 19.7435 102.774 20.8491 102.774 21.7968L112.488 21.4177C112.488 16.7741 110.924 14.4522 107.797 14.4522Z" fill="#FEFEEF"/>
<path d="M126.71 15.0682C126.141 15.6368 125.857 16.4266 125.857 17.4374C125.857 18.4167 126.173 19.1907 126.805 19.7593C127.437 20.2963 128.226 20.6912 129.174 20.9439C130.153 21.1966 131.196 21.5125 132.301 21.8916C133.407 22.2706 134.434 22.6813 135.381 23.1236C136.361 23.5342 137.166 24.2134 137.798 25.1611C138.43 26.1088 138.746 27.2618 138.746 28.6201C138.746 31.0209 137.861 32.8373 136.092 34.0693C134.323 35.3013 131.986 35.9173 129.079 35.9173C126.205 35.9173 123.646 35.175 121.403 33.6903C121.498 32.0792 121.972 30.6419 122.825 29.3783C125.668 31.9686 128.258 33.2638 130.596 33.2638C131.606 33.2638 132.507 33.0585 133.296 32.6478C134.055 31.9844 134.434 31.0999 134.434 29.9943C134.434 28.8571 133.991 27.9883 133.107 27.3881C132.254 26.7563 131.212 26.2667 129.98 25.9192C128.748 25.5717 127.516 25.1769 126.284 24.7346C125.052 24.2924 123.993 23.5974 123.109 22.6497C122.256 21.702 121.83 20.47 121.83 18.9537C121.83 16.7425 122.651 15.0524 124.293 13.8836C125.968 12.6832 128.068 12.083 130.596 12.083C133.123 12.083 135.603 12.62 138.035 13.6941C137.751 15.084 137.198 16.4739 136.376 17.8639C134.134 15.621 131.796 14.4996 129.364 14.4996C128.321 14.4996 127.437 14.6891 126.71 15.0682Z" fill="#FEFEEF"/>
<path d="M158.268 12.083C160.543 12.083 162.296 12.8096 163.528 14.2627C164.792 15.7158 165.423 17.8007 165.423 20.5174V27.3408C165.423 30.3418 165.897 32.9163 166.845 35.0644V35.3961H160.164V35.0644C160.701 33.4849 160.969 31.3842 160.969 28.7623V21.5125C160.969 19.6803 160.685 18.3061 160.116 17.39C159.579 16.4424 158.474 15.9685 156.799 15.9685C155.125 15.9685 152.977 16.774 150.355 18.3851V27.3408C150.355 30.4049 150.813 32.9795 151.729 35.0644V35.3961H145.096V35.0644C145.633 33.4849 145.901 31.3842 145.901 28.7623V20.7069C145.901 19.3486 145.617 18.0218 145.048 16.7267C144.511 15.3999 143.879 14.5154 143.153 14.0731L143.105 13.5045L149.313 12.0356L149.597 12.5095C149.85 13.6783 150.039 14.8629 150.166 16.0633C151.335 15.1472 152.235 14.468 152.867 14.0258C153.53 13.5835 154.367 13.157 155.378 12.7464C156.389 12.3041 157.352 12.083 158.268 12.083Z" fill="#FEFEEF"/>
<path d="M185.11 25.9192C183.815 25.4454 182.314 25.2085 180.609 25.2085C178.934 25.2085 177.718 25.477 176.96 26.014C176.486 26.7406 176.249 27.7198 176.249 28.9518C176.249 30.1522 176.581 31.0999 177.244 31.7949C177.908 32.4899 178.729 32.8373 179.708 32.8373C180.719 32.8373 181.746 32.5846 182.788 32.0792C183.831 31.5422 184.605 30.9736 185.11 30.3734V25.9192ZM185.868 32.7426C183.941 34.8591 181.762 35.9173 179.329 35.9173C176.928 35.9173 175.033 35.3961 173.643 34.3536C172.285 33.3112 171.606 31.6369 171.606 29.3309C171.606 26.9933 172.411 25.319 174.022 24.3082C175.665 23.2973 177.971 22.7919 180.94 22.7919L185.11 22.934V20.2331C185.11 18.5589 184.699 17.2005 183.878 16.1581C183.057 15.1156 181.809 14.5944 180.135 14.5944C178.903 14.626 176.928 15.8106 174.212 18.1482C173.296 16.9794 172.648 15.4631 172.269 13.5993C175.396 12.5884 178.271 12.083 180.893 12.083C183.515 12.083 185.616 12.7622 187.195 14.1205C188.775 15.4789 189.564 17.4058 189.564 19.9014V27.862C189.596 29.2835 189.817 30.6103 190.228 31.8423C190.67 33.0427 191.239 33.8798 191.933 34.3536L192.028 34.8275L186.958 36.0595C186.547 35.0486 186.184 33.943 185.868 32.7426Z" fill="#FEFEEF"/>
<path d="M203.112 35.3961H197.094V34.8275C197.631 33.248 197.899 30.7524 197.899 27.3408V7.58149C197.899 5.05433 197.173 3.09578 195.72 1.70584V1.13722L202.211 0L202.496 0.473843C202.401 1.38994 202.354 2.70091 202.354 4.40674V21.086L210.409 14.3574C211.293 13.6309 211.736 13.0623 211.736 12.6516H217.185V13.2202C216.585 13.2834 215.1 14.2627 212.731 16.1581L206.002 21.9389L211.925 28.2884C214.105 30.6892 215.669 32.3003 216.616 33.1216C217.564 33.943 218.48 34.5116 219.365 34.8275V35.3961H212.304C212.304 35.3329 208.987 31.3526 202.354 23.4552V27.3408C202.354 30.8472 202.606 33.3428 203.112 34.8275V35.3961Z" fill="#FEFEEF"/>
<path d="M230.388 35.9173C227.072 35.9173 224.481 34.8907 222.617 32.8373C220.754 30.784 219.822 28.0831 219.822 24.7346C219.822 21.3545 220.864 18.4009 222.949 15.8737C225.034 13.3466 227.624 12.083 230.72 12.083C236.375 12.083 239.202 15.5736 239.202 22.5549L237.449 24.2608H224.844C224.844 26.9143 225.413 28.9044 226.55 30.2312C227.688 31.558 229.22 32.2213 231.147 32.2213C231.905 32.2213 232.979 32.0002 234.369 31.558C235.759 31.0841 236.991 30.5313 238.065 29.8995L239.249 31.7001C238.649 32.3003 237.338 33.1532 235.316 34.2589C233.326 35.3645 231.684 35.9173 230.388 35.9173ZM229.867 14.4522C228.54 14.4522 227.514 14.7523 226.787 15.3525C226.187 16.1738 225.713 17.2163 225.366 18.4799C225.018 19.7435 224.844 20.8491 224.844 21.7968L234.558 21.4177C234.558 16.7741 232.995 14.4522 229.867 14.4522Z" fill="#FEFEEF"/>
</svg>
