<svg width="60" height="45" viewBox="0 0 60 45" fill="none" xmlns="http://www.w3.org/2000/svg">
<path d="M38.5605 44.5665L59.5605 23.5638C60.1465 22.9778 60.1465 22.0282 59.5605 21.4422L38.5605 0.43951C37.9746 -0.146503 37.0252 -0.146503 36.4392 0.43951C35.8533 1.02552 35.8533 2.0201 36.4392 2.60612L54.8789 21.0937H1.5C0.671484 21.0937 0 21.6717 0 22.5001C0 23.3285 0.671484 23.9065 1.5 23.9065H54.8789L36.4392 42.3966C36.1462 42.6897 35.9998 43.098 35.9998 43.4817C35.9998 43.8654 36.1462 44.2613 36.4392 44.5544C37.0254 45.1404 37.9746 45.1526 38.5605 44.5665Z" fill="#FEFEEF"/>
</svg>
