<svg width="70" height="70" viewBox="0 0 70 70" fill="none" xmlns="http://www.w3.org/2000/svg">
<path d="M68.6875 24.5L62.125 15.7544C61.8691 15.4109 61.565 15.1134 61.25 14.8291V4.375C61.25 1.96 59.29 0 56.875 0H13.125C10.7078 0 8.75 1.96 8.75 4.375V14.8312C8.435 15.1134 8.13092 15.4087 7.875 15.75L1.31469 24.4978C0.465937 25.6266 0 27.0243 0 28.4375V30.625C0 34.2432 2.94438 37.1875 6.5625 37.1875V65.625C6.5625 68.04 8.5225 70 10.9375 70H59.0625C61.4775 70 63.4375 68.04 63.4375 65.625V37.1875C67.0557 37.1875 70 34.2432 70 30.625V28.4375C70 27.0243 69.5341 25.6266 68.6875 24.5ZM56.875 4.375V13.125H13.125V4.375H56.875ZM22.2972 32.8125H13.1338L21.8838 17.5H26.6722L22.2972 32.8125ZM28.9494 17.5H33.9062V32.8125H24.5744L28.9494 17.5ZM36.0937 17.5H41.0507L45.4257 32.8125H36.0937V17.5ZM43.3234 17.5H48.1118L56.8618 32.8125H47.6984L43.3234 17.5ZM4.375 30.625V28.4375C4.375 27.9628 4.52812 27.5034 4.8125 27.125L11.375 18.375C11.7884 17.8237 12.4359 17.5 13.125 17.5H19.3637L10.6138 32.8125H6.5625C5.355 32.8125 4.375 31.8347 4.375 30.625ZM43.75 65.625H27.3437V43.75H43.75V65.625ZM59.0625 65.625H45.9375V43.75C45.9375 42.5403 44.9553 41.5625 43.75 41.5625H27.3437C26.1362 41.5625 25.1562 42.5403 25.1562 43.75V65.625H10.9375V37.1875H59.0625V65.625ZM65.625 30.625C65.625 31.8347 64.6472 32.8125 63.4375 32.8125H59.3818L50.6318 17.5H56.875C57.5619 17.5 58.2116 17.8237 58.6228 18.375L65.1853 27.125C65.4718 27.5034 65.625 27.9628 65.625 28.4375V30.625Z" fill="#333332"/>
</svg>
